<?xml version="1.0" standalone="no"?>
<!DOCTYPE svg PUBLIC "-//W3C//DTD SVG 1.1//EN" "http://www.w3.org/Graphics/SVG/1.1/DTD/svg11.dtd" >
<svg xmlns="http://www.w3.org/2000/svg">
<metadata></metadata>
<defs>
<font id="ciscosansttregular" horiz-adv-x="1228" >
<font-face units-per-em="2048" ascent="1618" descent="-430" />
<missing-glyph horiz-adv-x="614" />
<glyph horiz-adv-x="0" />
<glyph unicode="&#xd;" horiz-adv-x="614" />
<glyph unicode=" "  horiz-adv-x="614" />
<glyph unicode="&#x09;" horiz-adv-x="614" />
<glyph unicode="&#xa0;" horiz-adv-x="614" />
<glyph unicode="!" horiz-adv-x="583" d="M174 0v238h236v-238h-236zM174 1475h236l-41 -983h-154z" />
<glyph unicode="&#x22;" d="M164 1317v188h205v-188l-31 -313h-143zM492 1317v188h204v-188l-30 -313h-144z" />
<glyph unicode="#" d="M41 369v153h168l33 389h-160v154h174l33 369h172l-33 -369h432l33 369h172l-33 -369h156v-154h-170l-33 -389h162v-153h-176l-31 -369h-172l31 369h-432l-31 -369h-172l31 369h-154zM381 522h432l33 389h-432z" />
<glyph unicode="$" d="M51 399h215q18 -123 104.5 -190.5t252.5 -67.5q176 0 261 72t85 176q0 49 -16.5 88t-63.5 74t-133 66.5t-228 68.5q-119 31 -199.5 71t-131 90t-73 111.5t-22.5 135.5q0 70 27 132t81 111t134 81t184 42v240h183v-240q203 -20 317.5 -118.5t138.5 -264.5h-215 q-18 104 -101 159.5t-249 55.5q-156 0 -223.5 -54t-67.5 -132q0 -39 11.5 -73t49.5 -64.5t109.5 -60t194.5 -60.5q141 -37 237.5 -82t154.5 -101.5t84 -123t26 -144.5t-31 -149.5t-89.5 -129t-146.5 -96t-200 -49.5v-249h-183v251q-92 10 -173 42t-143 84.5t-104 127 t-57 170.5z" />
<glyph unicode="%" horiz-adv-x="1722" d="M72 1118q0 86 29.5 151.5t77.5 108.5t110.5 64.5t130.5 21.5t130 -21.5t111.5 -64.5t79 -108.5t29.5 -151.5t-29.5 -151.5t-79 -108.5t-112 -64.5t-129.5 -21.5q-68 0 -130.5 21.5t-110.5 64.5t-77.5 108.5t-29.5 151.5zM238 1118q0 -111 53 -157t129 -46t131 46.5 t55 156.5q0 111 -55 157t-131 46t-129 -46t-53 -157zM365 0l782 1434h196l-782 -1434h-196zM952 315q0 86 30 151.5t78 108.5t110.5 65t129.5 22q68 0 130.5 -22t111.5 -65t79 -108.5t30 -151.5t-30 -151.5t-79 -108.5t-111.5 -64.5t-130.5 -21.5t-130 21.5t-110 64.5 t-78 108.5t-30 151.5zM1118 315q0 -111 53.5 -156.5t128.5 -45.5q76 0 131.5 46t55.5 156q0 111 -55.5 157t-131.5 46t-129 -46t-53 -157z" />
<glyph unicode="&#x26;" horiz-adv-x="1402" d="M82 352q0 80 20.5 140.5t59.5 109.5t94 89t125 79q-53 55 -90 98t-58.5 82t-30.5 78t-9 86q0 66 28.5 128.5t79.5 111.5t123 79.5t160 30.5t158.5 -27.5t120.5 -72.5t78 -102.5t28 -114.5q0 -76 -22.5 -137.5t-62.5 -111.5t-95.5 -90t-120.5 -73l342 -323 q35 68 57.5 141.5t32.5 142.5l180 -22q-12 -98 -46 -196.5t-93 -190.5l200 -189l-145 -129l-176 170q-82 -78 -190.5 -124t-243.5 -46q-111 0 -204 28t-159.5 78t-103.5 120.5t-37 156.5zM287 367q0 -104 80.5 -166t232.5 -62q92 0 166 33t131 88l-399 391 q-102 -57 -156.5 -121.5t-54.5 -162.5zM383 1116q0 -35 7 -62.5t25.5 -57t49.5 -63.5t78 -79q127 68 184 132.5t57 154.5q0 29 -11 57.5t-35.5 52t-61.5 39t-88 15.5q-55 0 -94 -17.5t-63.5 -45.5t-36 -61.5t-11.5 -64.5z" />
<glyph unicode="'" horiz-adv-x="552" d="M174 1317v188h205v-188l-31 -313h-143z" />
<glyph unicode="(" horiz-adv-x="696" d="M133 655q0 166 31 314.5t80 275.5t109.5 231.5t119.5 182.5h162q-63 -98 -118.5 -209t-96.5 -235.5t-64.5 -264t-23.5 -295.5t23.5 -295t64.5 -264t96 -235.5t119 -208.5h-162q-59 78 -119.5 182.5t-109.5 231.5t-80 275t-31 314z" />
<glyph unicode=")" horiz-adv-x="696" d="M61 -348q63 98 119 208.5t96.5 235.5t64.5 264t24 295t-24 295.5t-64.5 264t-96 235.5t-119.5 209h162q59 -78 119.5 -182.5t110 -231.5t80 -275.5t30.5 -314.5t-30.5 -314t-80 -275t-109.5 -231.5t-120 -182.5h-162z" />
<glyph unicode="*" horiz-adv-x="962" d="M92 1157l60 172l272 -125l-35 301h180l-34 -303l276 127l59 -172l-301 -61l205 -222l-147 -106l-148 262l-149 -264l-146 108l205 224z" />
<glyph unicode="+" d="M184 571v174h338v345h187v-345h335v-174h-335v-342h-187v342h-338z" />
<glyph unicode="," horiz-adv-x="614" d="M158 -205q57 12 92 57.5t35 147.5h-97v238h238v-207q0 -88 -23.5 -149.5t-62.5 -101.5t-86 -60.5t-96 -26.5v102z" />
<glyph unicode="-" horiz-adv-x="1105" d="M184 573v175h738v-175h-738z" />
<glyph unicode="." horiz-adv-x="614" d="M188 0v238h238v-238h-238z" />
<glyph unicode="/" horiz-adv-x="819" d="M61 -184l510 1689h187l-510 -1689h-187z" />
<glyph unicode="0" d="M102 721q0 199 39 339t108.5 230t163 132t201.5 42q109 0 202 -42t163 -132t108.5 -230t38.5 -339q0 -193 -38.5 -334t-107.5 -234.5t-163 -138.5t-203 -45t-203 45t-162.5 138.5t-107.5 234.5t-39 334zM303 721q0 -303 76.5 -445.5t234.5 -142.5t235 142.5t77 445.5 q0 301 -77 440t-235 139t-234.5 -139t-76.5 -440z" />
<glyph unicode="1" d="M272 1063v203l324 168h192v-1434h-194v1229z" />
<glyph unicode="2" d="M123 1059q12 86 52 159.5t105.5 129t152.5 86t194 30.5q100 0 185 -28.5t147.5 -80.5t98.5 -128t36 -170q0 -74 -17.5 -136.5t-57.5 -127t-105.5 -137t-161.5 -164.5l-328 -312h663v-180h-929v180l467 449q74 70 124 126t82.5 105t47 95t14.5 100q0 111 -70.5 177 t-199.5 66q-123 0 -202 -63.5t-91 -175.5h-207z" />
<glyph unicode="3" d="M100 356h209q25 -109 98.5 -165t204.5 -56q147 0 229.5 72t82.5 188q0 74 -26 125t-66.5 84t-91 47.5t-99.5 14.5h-119v170h115q41 0 83 14t76.5 43t56 75t21.5 107q0 57 -23.5 100.5t-61 71t-88 40.5t-101.5 13q-121 0 -196.5 -56t-92.5 -148h-207q12 84 55.5 151.5 t109 115.5t152.5 74.5t189 26.5q90 0 174 -22.5t148.5 -68.5t103.5 -116.5t39 -166.5q0 -117 -72.5 -205t-185.5 -123q61 -12 116.5 -42t97.5 -76t67.5 -109.5t25.5 -143.5q0 -92 -35.5 -169t-102 -133t-161 -87t-209.5 -31q-225 0 -358 106.5t-158 278.5z" />
<glyph unicode="4" d="M90 270v183l615 981h204v-996h232v-168h-232v-270h-190v270h-629zM309 438h410v678z" />
<glyph unicode="5" d="M104 348h209q20 -88 96 -150.5t207 -62.5q66 0 123.5 22.5t99.5 65.5t65.5 106.5t23.5 143.5q0 160 -84 243t-223 83q-74 0 -151 -31t-136 -100h-174l30 766h881v-166h-702l-17 -420q59 47 136 75.5t178 28.5q94 0 178 -30.5t147.5 -92t101 -152.5t37.5 -212 q0 -100 -34.5 -190.5t-100 -158t-162 -107.5t-219.5 -40q-111 0 -199.5 32t-153 85t-104.5 120.5t-53 141.5z" />
<glyph unicode="6" d="M143 659q0 242 44 397.5t118 246t168 126t193 35.5q164 0 280.5 -80.5t151.5 -222.5h-217q-18 66 -73.5 105t-143.5 39q-61 0 -116.5 -27t-98.5 -91.5t-73 -171t-38 -263.5q33 51 74 86.5t86 57.5t92 32t90 10q104 0 187 -36t140.5 -99.5t88 -152.5t30.5 -193 q0 -123 -42 -215t-109.5 -152.5t-153.5 -90.5t-174 -30q-250 0 -377 176.5t-127 513.5zM358 463q0 -160 83 -245t206 -85q57 0 108.5 20.5t90.5 60.5t60.5 98.5t21.5 133.5q0 154 -77 241t-206 87q-72 0 -126 -25.5t-90 -68.5t-53.5 -99.5t-17.5 -117.5z" />
<glyph unicode="7" d="M154 1257v177h911v-177l-586 -1257h-223l600 1257h-702z" />
<glyph unicode="8" d="M92 373q0 82 25.5 144.5t66.5 108.5t90.5 76.5t98.5 49.5q-41 18 -82 46.5t-73 68.5t-52.5 93.5t-20.5 120.5q0 98 39 171t103.5 120t149.5 69.5t177 22.5t177.5 -21.5t150 -65.5t103 -113.5t38.5 -167.5q0 -61 -20.5 -112.5t-54 -92.5t-75.5 -73t-85 -54 q51 -23 102 -55.5t92 -78.5t68 -106.5t27 -136.5q0 -92 -38 -169t-106.5 -132t-165 -86t-213.5 -31t-213 30t-164.5 84t-106.5 128t-38 162zM301 387q0 -53 19.5 -99t57.5 -81t97.5 -55.5t138.5 -20.5q158 0 236 71.5t78 184.5q0 86 -33 138.5t-85 85t-115.5 50t-123.5 29.5 q-45 -12 -92 -35.5t-87 -60.5t-65.5 -88t-25.5 -119zM338 1092q0 -82 32.5 -133.5t80 -81t102.5 -43t102 -19.5q39 14 80 39t75 58.5t55.5 77.5t21.5 102q0 51 -21.5 91t-58.5 68.5t-87 44t-106 15.5q-55 0 -105 -13.5t-88 -41t-60.5 -68.5t-22.5 -96z" />
<glyph unicode="9" d="M143 977q0 111 37 201t101.5 153.5t151.5 98t190 34.5q250 0 376.5 -171t126.5 -519q0 -236 -43 -391.5t-114.5 -247.5t-167.5 -129t-203 -37q-166 0 -282.5 83t-151.5 224h217q20 -70 76.5 -108.5t148.5 -38.5q66 0 121 26.5t98 90t70 170t35 264.5q-33 -51 -74 -87 t-86 -57.5t-91 -30.5t-89 -9q-98 0 -180 32.5t-141.5 95t-92.5 151.5t-33 202zM342 987q0 -80 21.5 -141.5t59.5 -103.5t90 -62.5t112 -20.5q72 0 126 26t90 69t53 99.5t17 117.5q0 160 -83 244.5t-205 84.5q-59 0 -110.5 -21.5t-89.5 -61t-59.5 -98t-21.5 -132.5z" />
<glyph unicode=":" horiz-adv-x="614" d="M188 0v238h238v-238h-238zM188 827v238h238v-238h-238z" />
<glyph unicode=";" horiz-adv-x="614" d="M158 -205q57 12 92 57.5t35 147.5h-97v238h238v-207q0 -88 -23.5 -149.5t-62.5 -101.5t-86 -60.5t-96 -26.5v102zM188 827v238h238v-238h-238z" />
<glyph unicode="&#x3c;" d="M184 563v195l860 389v-197l-665 -284v-11l665 -284v-197z" />
<glyph unicode="=" d="M184 362v175h860v-175h-860zM184 782v174h860v-174h-860z" />
<glyph unicode="&#x3e;" d="M184 174v197l666 284v11l-666 284v197l860 -389v-195z" />
<glyph unicode="?" horiz-adv-x="1193" d="M102 1096q31 199 171.5 304t357.5 105q111 0 200 -29.5t151 -82t96 -122t34 -147.5q0 -131 -72.5 -235.5t-228.5 -190.5q-78 -43 -103.5 -103t-25.5 -167h-195q0 88 12.5 154.5t40 119t75 92.5t114.5 74q94 47 133 110.5t39 145.5q0 94 -74.5 151.5t-201.5 57.5 q-274 0 -310 -237h-213zM471 0v238h236v-238h-236z" />
<glyph unicode="@" horiz-adv-x="1855" d="M102 641q0 160 38 286t102.5 222t149.5 163.5t179.5 110.5t189.5 62.5t183 19.5q154 0 299.5 -44t259 -131t182 -215t68.5 -296q0 -129 -29.5 -242.5t-84 -198.5t-131.5 -134t-169 -49q-47 0 -86 17t-67.5 45t-47 61.5t-22.5 66.5q-12 -25 -38.5 -54.5t-64.5 -55t-85 -43 t-101 -17.5q-55 0 -111.5 18.5t-102.5 60.5t-74.5 109.5t-28.5 165.5q0 119 27.5 222.5t82 179.5t135.5 119t187 43q57 0 112.5 -31t78.5 -88l36 104h146l-76 -581q-6 -49 -6 -84q0 -109 100 -109q43 0 85 33t75 93t52.5 148.5t19.5 198.5q0 125 -47.5 224.5t-130 168 t-196.5 104.5t-247 36q-102 0 -218 -37t-212 -122t-159.5 -220t-63.5 -332q0 -172 58.5 -298t153.5 -208t215 -121t245 -39q86 0 166.5 15.5t146.5 38.5v-160q-63 -23 -150.5 -38t-179.5 -15q-160 0 -311.5 51t-270 153.5t-190.5 258t-72 364.5zM696 567q0 -55 15.5 -93 t39 -62.5t54 -34.5t61.5 -10q45 0 87 25.5t75 77.5t51.5 134t18.5 197q0 82 -30 133t-112 51q-66 0 -114.5 -31.5t-80.5 -88t-48.5 -133.5t-16.5 -165z" />
<glyph unicode="A" horiz-adv-x="1445" d="M0 0l606 1475h236l604 -1475h-232l-145 373h-702l-148 -373h-219zM434 543h567l-280 723z" />
<glyph unicode="B" horiz-adv-x="1335" d="M154 0v1475h530q256 0 385 -103.5t129 -288.5q0 -53 -18.5 -101t-50 -89t-74.5 -70.5t-94 -42.5q57 -10 108 -40.5t90 -79t61.5 -110t22.5 -134.5q0 -197 -141 -306.5t-422 -109.5h-526zM362 170h349q160 0 237.5 63.5t77.5 182.5q0 135 -77 205.5t-230 70.5h-357v-522z M362 852h351q135 0 204.5 63.5t69.5 167.5q0 111 -74.5 172.5t-212.5 61.5h-338v-465z" />
<glyph unicode="C" horiz-adv-x="1492" d="M92 737q0 186 51.5 329.5t143.5 241t219 147.5t278 50q133 0 245 -41t194 -109.5t130 -160.5t56 -193h-211q-20 152 -131 241t-283 89q-106 0 -194 -37t-151.5 -110.5t-98.5 -185t-35 -261.5q0 -143 34 -253.5t95.5 -185.5t147.5 -114t190 -39q90 0 166 29t133 79 t91 118.5t38 148.5h211q-6 -109 -54 -208t-132 -175t-200 -122t-257 -46q-154 0 -278.5 51.5t-213 148.5t-136.5 240.5t-48 327.5z" />
<glyph unicode="D" horiz-adv-x="1449" d="M154 0v1475h479q162 0 296 -44.5t229 -135.5t147.5 -229t52.5 -329q0 -178 -54.5 -316t-152.5 -231.5t-234.5 -141.5t-298.5 -48h-464zM362 172h277q244 0 376 142.5t132 422.5q0 145 -36 253t-102.5 178.5t-160.5 105.5t-213 35h-273v-1137z" />
<glyph unicode="E" horiz-adv-x="1175" d="M154 0v1475h919v-177h-711v-462h652v-172h-652v-488h711v-176h-919z" />
<glyph unicode="F" horiz-adv-x="1148" d="M154 0v1475h903v-177h-695v-501h623v-174h-623v-623h-208z" />
<glyph unicode="G" horiz-adv-x="1511" d="M92 739q0 190 53.5 334t144.5 240t214 144t264 48q125 0 231.5 -35.5t186.5 -98t130 -146.5t62 -183h-204q-29 135 -135.5 212t-270.5 77q-96 0 -181 -35.5t-147.5 -109.5t-98.5 -185.5t-36 -261.5t39 -261t103.5 -186t148.5 -113t174 -38q86 0 163 27t134 76t91 116.5 t34 149.5v115h-432v168h620v-793h-153l-29 176q-70 -98 -187.5 -152.5t-265.5 -54.5q-137 0 -256.5 50.5t-207.5 148.5t-138.5 241.5t-50.5 329.5z" />
<glyph unicode="H" horiz-adv-x="1447" d="M154 0v1475h208v-641h721v641h211v-1475h-211v657h-721v-657h-208z" />
<glyph unicode="I" horiz-adv-x="516" d="M154 0v1475h208v-1475h-208z" />
<glyph unicode="J" horiz-adv-x="1105" d="M51 414h211q6 -141 72.5 -205t177.5 -64q115 0 178.5 75t63.5 214v1041h209v-1043q0 -223 -119 -343t-340 -120q-100 0 -182 34t-141.5 93.5t-93.5 140t-36 177.5z" />
<glyph unicode="K" horiz-adv-x="1294" d="M154 0v1475h208v-656l601 656h258l-670 -705l733 -770h-276l-646 694v-694h-208z" />
<glyph unicode="L" horiz-adv-x="1130" d="M154 0v1475h211v-1289h694v-186h-905z" />
<glyph unicode="M" horiz-adv-x="1783" d="M154 0v1475h290l469 -1229l443 1229h274v-1475h-196v1145l-426 -1145h-197l-455 1155v-1155h-202z" />
<glyph unicode="N" horiz-adv-x="1472" d="M154 0v1475h276l703 -1225v1225h186v-1475h-264l-711 1235v-1235h-190z" />
<glyph unicode="O" horiz-adv-x="1585" d="M92 737q0 186 55.5 329.5t150.5 241t223 147.5t274 50q145 0 273 -48t222 -145.5t148.5 -240.5t54.5 -334q0 -182 -53.5 -325.5t-147.5 -241.5t-221.5 -149.5t-277.5 -51.5q-154 0 -283 51.5t-221 149.5t-144.5 241.5t-52.5 325.5zM305 737q0 -145 36 -256.5 t100.5 -187.5t153.5 -115t198 -39t197.5 39t153 115t100.5 187.5t36 256.5t-36 257t-100.5 187.5t-153.5 114.5t-197 39q-109 0 -198 -39t-153.5 -114.5t-100.5 -187t-36 -257.5z" />
<glyph unicode="P" horiz-adv-x="1292" d="M154 0v1475h479q281 0 429 -122t148 -358q0 -225 -146 -347t-439 -122h-263v-526h-208zM362 696h267q197 0 280.5 77t83.5 222q0 147 -91 228.5t-265 81.5h-275v-609z" />
<glyph unicode="Q" horiz-adv-x="1585" d="M92 737q0 186 55.5 329.5t150.5 241t223 147.5t274 50q145 0 273 -48t222 -145.5t148.5 -240.5t54.5 -334q0 -205 -65.5 -356.5t-178.5 -249.5l238 -297l-168 -110l-217 311q-141 -66 -309 -66q-154 0 -283 51.5t-221 149.5t-144.5 241.5t-52.5 325.5zM305 737 q0 -145 36 -256.5t100.5 -187.5t153.5 -115t198 -39t197.5 39t153 115t100.5 187.5t36 256.5t-36 257t-100.5 187.5t-153.5 114.5t-197 39q-109 0 -198 -39t-153.5 -114.5t-100.5 -187t-36 -257.5z" />
<glyph unicode="R" horiz-adv-x="1335" d="M154 0v1475h477q283 0 433 -120t150 -343q0 -84 -23.5 -149.5t-64.5 -115t-94 -85t-114 -58.5l397 -604h-246l-356 561h-351v-561h-208zM362 731h279q174 0 265 76t91 205q0 143 -88 218t-274 75h-273v-574z" />
<glyph unicode="S" horiz-adv-x="1337" d="M72 414h215q18 -125 115.5 -199t263.5 -74q92 0 161.5 20.5t115.5 56.5t69.5 82t23.5 99q0 51 -16 91t-66.5 75t-141.5 69t-241 75q-129 35 -215 75.5t-138 92t-73.5 113t-21.5 136.5q0 80 35 150t102.5 121t165.5 79.5t225 28.5q119 0 219.5 -27.5t177 -78.5t125 -125 t62.5 -168h-215q-16 109 -109.5 168t-259.5 59q-84 0 -144.5 -15t-99 -42t-57 -63.5t-18.5 -77.5q0 -43 13 -77t54 -63.5t117 -59.5t203 -65q154 -43 255 -89t161.5 -100t85 -120.5t24.5 -152.5t-38 -165t-111.5 -140.5t-181 -97.5t-244.5 -36q-119 0 -221.5 32t-181.5 89 t-130 139t-65 185z" />
<glyph unicode="T" horiz-adv-x="1234" d="M20 1288v187h1194v-187h-495v-1288h-209v1288h-490z" />
<glyph unicode="U" horiz-adv-x="1447" d="M143 494v981h209v-1000q0 -147 96.5 -238.5t278.5 -91.5t278.5 91.5t96.5 238.5v1000h203v-981q0 -123 -42 -220.5t-118 -165t-182.5 -103.5t-237.5 -36q-133 0 -240.5 37t-183.5 105.5t-117 166t-41 216.5z" />
<glyph unicode="V" horiz-adv-x="1325" d="M0 1475h221l447 -1278l452 1278h205l-528 -1475h-260z" />
<glyph unicode="W" horiz-adv-x="1972" d="M10 1475h213l314 -1227l337 1227h261l319 -1223l315 1223h193l-389 -1475h-242l-334 1249l-344 -1249h-256z" />
<glyph unicode="X" horiz-adv-x="1335" d="M20 0l533 762l-496 713h246l375 -549l383 549h237l-514 -707l531 -768h-250l-395 596l-414 -596h-236z" />
<glyph unicode="Y" horiz-adv-x="1288" d="M0 1475h229l416 -709l430 709h213l-540 -889v-586h-207v586z" />
<glyph unicode="Z" horiz-adv-x="1308" d="M82 0v182l897 1112h-850v181h1098v-177l-899 -1118h878v-180h-1124z" />
<glyph unicode="[" horiz-adv-x="696" d="M154 -348v2007h430v-164h-242v-1679h242v-164h-430z" />
<glyph unicode="\" horiz-adv-x="819" d="M61 1505h187l510 -1689h-187z" />
<glyph unicode="]" horiz-adv-x="696" d="M113 -184h241v1679h-241v164h430v-2007h-430v164z" />
<glyph unicode="^" horiz-adv-x="1024" d="M53 819l367 656h184l367 -656h-213l-246 457l-246 -457h-213z" />
<glyph unicode="_" d="M61 -92h1106v-174h-1106v174z" />
<glyph unicode="`" horiz-adv-x="585" d="M61 1505h254l209 -280h-176z" />
<glyph unicode="a" horiz-adv-x="1126" d="M82 274q0 145 94 231.5t309 123.5l312 53v53q0 98 -63.5 151.5t-182.5 53.5q-115 0 -172 -46t-68 -126h-209q16 147 136 237.5t321 90.5q104 0 185 -27t136.5 -76t84 -116.5t28.5 -149.5v-727h-162l-24 145q-53 -74 -140 -125t-216 -51q-88 0 -157 23.5t-116 64.5 t-71.5 96.5t-24.5 120.5zM291 295q0 -78 53.5 -119t153.5 -41q55 0 109.5 19.5t96 54.5t67.5 81t26 101v137l-265 -47q-72 -12 -117.5 -29.5t-73.5 -41t-39 -52t-11 -63.5z" />
<glyph unicode="b" horiz-adv-x="1247" d="M143 0v1475h197v-557q53 78 142 128t214 50q104 0 191.5 -37t149 -107.5t95 -174t33.5 -236.5q0 -139 -35.5 -246t-100 -178.5t-154 -109.5t-193.5 -38q-123 0 -208 48.5t-138 123.5l-31 -141h-162zM330 545q0 -195 88 -301.5t233 -106.5q139 0 224.5 98.5t85.5 309.5 q0 98 -24 169.5t-66 120t-98 71t-122 22.5t-124 -24.5t-102 -72t-69.5 -120t-25.5 -166.5z" />
<glyph unicode="c" horiz-adv-x="1134" d="M82 524q0 133 36 239.5t102.5 180.5t158.5 113t205 39q182 0 308 -91.5t152 -254.5h-217q-20 88 -82.5 134t-156.5 46q-131 0 -214 -99.5t-83 -312.5q0 -98 23.5 -170t63.5 -119t95 -70.5t117 -23.5q98 0 164.5 53.5t83.5 153.5h215q-10 -78 -48 -145.5t-97.5 -118.5 t-141.5 -80t-180 -29q-106 0 -198.5 36t-160 106.5t-106.5 174t-39 238.5z" />
<glyph unicode="d" horiz-adv-x="1247" d="M82 526q0 143 36 250t99.5 177.5t152.5 106.5t195 36q123 0 206 -47.5t136 -118.5v545h197v-1475h-162l-35 150q-53 -78 -141 -129.5t-213 -51.5q-100 0 -186 36t-149.5 106.5t-99.5 175t-36 239.5zM287 522q0 -96 23.5 -167.5t64.5 -120t97 -73t124 -24.5q76 0 135.5 29 t101 79t63.5 120.5t22 154.5q0 197 -87.5 302.5t-234.5 105.5q-139 0 -224 -98.5t-85 -307.5z" />
<glyph unicode="e" horiz-adv-x="1185" d="M82 532q0 139 39 245t106.5 176.5t161.5 106.5t205 36t203 -34t157.5 -107.5t102.5 -188.5t37 -277h-811q12 -184 103 -269t224 -85q98 0 167 49t91 123h213q-20 -74 -61 -135t-101.5 -106.5t-139.5 -71t-175 -25.5q-115 0 -210 35t-164.5 105.5t-108.5 176t-39 246.5z M291 645h602q-10 150 -91 221.5t-204 71.5q-119 0 -202 -72.5t-105 -220.5z" />
<glyph unicode="f" horiz-adv-x="659" d="M41 897v168h158v149q0 133 81.5 212t215.5 79q53 0 93 -7t81 -17v-170q-49 12 -88 18t-74 6q-53 0 -83 -29.5t-30 -78.5v-162h230v-168h-230v-897h-196v897h-158z" />
<glyph unicode="g" horiz-adv-x="1247" d="M82 557q0 125 35 225.5t98.5 170t152.5 106.5t197 37q125 0 210 -48.5t136 -123.5l31 141h162v-1042q0 -90 -33 -168t-95.5 -134.5t-153.5 -88t-210 -31.5q-215 0 -334.5 89t-146.5 238h211q14 -80 80.5 -126t183.5 -46q150 0 225.5 72t75.5 205v137q-53 -63 -142 -101 t-212 -38q-94 0 -179 34.5t-149.5 101t-103.5 165t-39 225.5zM287 553q0 -84 24.5 -150.5t66.5 -111.5t98 -68.5t120 -23.5q154 0 238 93t84 255q0 188 -89.5 284.5t-232.5 96.5q-135 0 -222 -92.5t-87 -282.5z" />
<glyph unicode="h" horiz-adv-x="1161" d="M143 0v1475h197v-531q59 76 139 114t172 38q174 0 275.5 -102.5t101.5 -299.5v-694h-197v692q0 121 -58 178.5t-169 57.5q-55 0 -103 -18.5t-84 -54.5t-56.5 -88t-20.5 -118v-649h-197z" />
<glyph unicode="i" horiz-adv-x="483" d="M131 1243v232h221v-232h-221zM143 0v1065h197v-1065h-197z" />
<glyph unicode="j" horiz-adv-x="483" d="M-100 -213q35 -8 67.5 -13t55.5 -5q68 0 94 28.5t26 106.5v1161h197v-1171q0 -131 -73.5 -212t-213.5 -81q-35 0 -74.5 6t-78.5 18v162zM131 1243v232h221v-232h-221z" />
<glyph unicode="k" horiz-adv-x="1064" d="M143 0v1475h197v-824l418 414h258l-479 -463l538 -602h-262l-473 537v-537h-197z" />
<glyph unicode="l" horiz-adv-x="483" d="M143 0v1475h197v-1475h-197z" />
<glyph unicode="m" horiz-adv-x="1792" d="M143 0v1065h162l21 -125q59 86 141 121t172 35q106 0 187 -42t126 -126q61 96 155.5 132t190.5 36q164 0 262.5 -95.5t98.5 -287.5v-713h-197v698q0 123 -51 176.5t-156 53.5q-59 0 -106 -23.5t-81 -61.5t-51.5 -88t-17.5 -106v-649h-196v698q0 123 -52.5 176.5 t-154.5 53.5q-53 0 -100 -21.5t-82 -58.5t-54.5 -86t-19.5 -107v-655h-197z" />
<glyph unicode="n" horiz-adv-x="1161" d="M143 0v1065h162l23 -135q59 82 143 124t180 42q174 0 275.5 -102.5t101.5 -299.5v-694h-197v692q0 121 -58 178.5t-169 57.5q-53 0 -101 -18.5t-84 -53.5t-57.5 -85t-21.5 -114v-657h-197z" />
<glyph unicode="o" horiz-adv-x="1214" d="M82 532q0 143 42 250t113.5 176.5t167 103.5t203.5 34q109 0 205 -34t167 -103.5t112 -176t41 -250.5q0 -139 -40 -244.5t-111 -176t-167 -106.5t-209 -36q-111 0 -207 36t-166.5 107.5t-110.5 176t-40 243.5zM287 532q0 -98 24.5 -173.5t67.5 -127t102.5 -77 t128.5 -25.5q141 0 229.5 102.5t88.5 300.5q0 100 -24.5 176t-67.5 127.5t-101.5 76t-126.5 24.5t-127 -25.5t-102 -77t-67.5 -126.5t-24.5 -175z" />
<glyph unicode="p" horiz-adv-x="1247" d="M143 -369v1434h162l31 -139q57 74 147 122t213 48q104 0 191.5 -37t149 -107.5t95 -174t33.5 -236.5q0 -139 -35.5 -246t-100 -178.5t-154 -109.5t-193.5 -38q-123 0 -207 47t-135 121v-506h-197zM330 545q0 -195 88 -301.5t233 -106.5q139 0 224.5 98.5t85.5 309.5 q0 98 -24 169.5t-66 120t-98 71t-122 22.5t-124 -24.5t-102 -72t-69.5 -120t-25.5 -166.5z" />
<glyph unicode="q" horiz-adv-x="1247" d="M82 526q0 143 36 250t99.5 177.5t152.5 106.5t195 36q123 0 209 -44t139 -116l29 129h162v-1434h-197v516q-53 -78 -142 -128t-212 -50q-100 0 -186 36t-149.5 106.5t-99.5 175t-36 239.5zM287 522q0 -96 23.5 -167.5t64.5 -120t97 -73t124 -24.5q76 0 135.5 29t101 79 t63.5 120.5t22 154.5q0 197 -87.5 302.5t-234.5 105.5q-139 0 -224 -98.5t-85 -307.5z" />
<glyph unicode="r" horiz-adv-x="729" d="M143 0v1065h162l27 -158q90 188 270 189q39 0 68.5 -5.5t48.5 -9.5v-196q-29 8 -59.5 13t-65.5 5q-51 0 -97 -19.5t-81 -63.5t-55.5 -114.5t-20.5 -170.5v-535h-197z" />
<glyph unicode="s" horiz-adv-x="1046" d="M61 305h201q16 -96 82 -138t178 -42q121 0 182.5 47t61.5 117q0 47 -21.5 77.5t-61.5 51t-97.5 36t-128.5 31.5q-188 41 -269.5 115t-81.5 193q0 137 105.5 220t308.5 83q180 0 295 -82t141 -230h-200q-16 74 -75.5 115t-162.5 41q-111 0 -162 -37t-51 -92 q0 -31 10.5 -54.5t37 -42t74.5 -34.5t126 -33q92 -20 169 -46t130 -64.5t83 -95t30 -138.5q0 -74 -30 -134t-87 -105.5t-139 -70t-189 -24.5q-201 0 -322.5 91.5t-136.5 244.5z" />
<glyph unicode="t" horiz-adv-x="659" d="M31 897v168h157l13 256h184v-256h229v-168h-229v-637q0 -119 113 -119q27 0 51 3t69 14v-168q-76 -20 -145 -21q-141 0 -213 81t-72 214v633h-157z" />
<glyph unicode="u" horiz-adv-x="1153" d="M133 371v694h197v-698q0 -119 58 -174.5t163 -55.5q68 0 117 23.5t80.5 61.5t48 88t16.5 106v649h197v-1065h-162l-23 123q-57 -78 -139 -116t-180 -38q-82 0 -150.5 24.5t-118 74t-77 125t-27.5 178.5z" />
<glyph unicode="v" horiz-adv-x="1052" d="M20 1065h216l294 -905l297 905h205l-375 -1065h-266z" />
<glyph unicode="w" horiz-adv-x="1658" d="M31 1065h205l229 -856l254 856h235l250 -852l228 852h196l-311 -1065h-227l-259 842l-253 -842h-236z" />
<glyph unicode="x" horiz-adv-x="1083" d="M20 0l398 553l-373 512h236l254 -358l241 358h225l-356 -498l418 -567h-240l-288 412l-283 -412h-232z" />
<glyph unicode="y" horiz-adv-x="1052" d="M20 1065h213l302 -905l301 905h196l-370 -1079q-31 -88 -61 -159t-69.5 -121t-92 -77.5t-126.5 -27.5q-33 0 -58.5 4t-68.5 14v160q57 -14 103 -15q35 0 60.5 13.5t45 42t39 73t41.5 107.5h-63z" />
<glyph unicode="z" horiz-adv-x="987" d="M61 0v186l633 713h-602v166h834v-186l-633 -711h633v-168h-865z" />
<glyph unicode="{" horiz-adv-x="696" d="M61 569v176q74 0 131.5 41t57.5 140v381q0 174 87 263t288 89v-154q-61 0 -98.5 -12t-56.5 -35.5t-26.5 -59.5t-7.5 -81v-359q0 -135 -48 -203.5t-126 -97.5q78 -29 126 -97t48 -204v-358q0 -47 7.5 -82t26.5 -58.5t56 -35.5t99 -12v-154q-201 0 -288 89t-87 263v381 q0 98 -57.5 139t-131.5 41z" />
<glyph unicode="|" horiz-adv-x="737" d="M281 -287v1895h176v-1895h-176z" />
<glyph unicode="}" horiz-adv-x="696" d="M72 -190q61 0 98 12t56.5 35.5t26.5 58.5t7 82v358q0 135 48 204t126 97q-78 29 -126 97.5t-48 203.5v359q0 45 -7 81t-26.5 59.5t-56.5 35.5t-98 12v154q201 0 287.5 -89t86.5 -263v-381q0 -98 57.5 -139.5t131.5 -41.5v-176q-74 0 -131.5 -41t-57.5 -139v-381 q0 -174 -87 -263t-287 -89v154z" />
<glyph unicode="~" d="M184 537v186q39 31 106.5 56.5t139.5 25.5q63 0 112.5 -17.5t92.5 -39t84 -39t90 -17.5q74 0 132 26.5t103 65.5v-186q-39 -31 -106.5 -56.5t-138.5 -25.5q-63 0 -112.5 17.5t-92.5 39t-85 39t-91 17.5q-74 0 -131.5 -27t-102.5 -65z" />
<glyph unicode="&#xa1;" horiz-adv-x="583" d="M174 -369l41 983h154l41 -983h-236zM174 868v238h236v-238h-236z" />
<glyph unicode="&#xa2;" d="M135 524q0 238 108.5 384.5t295.5 178.5v265h182v-262q150 -20 252 -108.5t125 -231.5h-217q-20 88 -83 134t-157 46q-131 0 -214 -99.5t-83 -312.5q0 -98 23.5 -170t63.5 -119t95.5 -70.5t116.5 -23.5q98 0 164.5 53.5t83.5 153.5h215q-10 -70 -41 -131t-80 -109.5 t-115.5 -81t-148.5 -45.5v-251h-182v256q-88 14 -162 56t-128 111.5t-84 164t-30 212.5z" />
<glyph unicode="&#xa3;" d="M123 0v180q33 10 61.5 26.5t50 42t34 63.5t12.5 91v232h-97v160h97v274q0 102 32.5 177t90 123t133 71.5t159.5 23.5q76 0 143.5 -18.5t122 -59t94.5 -104t58 -154.5h-207q-18 86 -70.5 128t-146.5 42q-100 0 -157.5 -59t-57.5 -172v-272h395v-160h-395v-219 q0 -86 -31.5 -142.5t-83.5 -93.5h736v-180h-973z" />
<glyph unicode="&#xa4;" d="M68 305l127 127q-33 53 -52.5 117.5t-19.5 146.5q0 78 19.5 142.5t50.5 117.5l-123 125l139 140l119 -121q61 41 139 63.5t147 22.5q70 0 148 -22.5t139 -63.5l119 121l139 -140l-123 -125q31 -53 50.5 -117.5t19.5 -142.5q0 -82 -19.5 -146.5t-52.5 -117.5l127 -127 l-139 -139l-123 123q-61 -41 -139 -61.5t-146 -20.5t-145.5 20.5t-138.5 61.5l-123 -123zM305 696q0 -72 24.5 -130t66.5 -100t98 -65.5t122 -23.5q63 0 120 23.5t97.5 65.5t65.5 100.5t25 129.5q0 72 -25 130.5t-65.5 100.5t-97 65.5t-120.5 23.5q-66 0 -122 -23.5 t-98 -65.5t-66.5 -100.5t-24.5 -130.5z" />
<glyph unicode="&#xa5;" d="M16 1434h230l370 -668l385 668h213l-417 -711h209v-150h-287v-157h287v-150h-287v-266h-207v266h-287v150h287v157h-287v150h207z" />
<glyph unicode="&#xa6;" horiz-adv-x="737" d="M281 -287v789h176v-789h-176zM281 819v789h176v-789h-176z" />
<glyph unicode="&#xa7;" d="M143 664q0 104 53.5 171.5t133.5 106.5q-55 45 -84 102.5t-29 120.5q0 59 25.5 113.5t77 95.5t128 65.5t179.5 24.5q78 0 148.5 -20.5t129 -60.5t99 -98t59.5 -134h-209q-14 68 -71.5 115t-157.5 47q-111 0 -162 -40t-51 -99q0 -31 10 -56.5t34.5 -47t67.5 -40t109 -35.5 q129 -33 216 -71.5t140 -84.5t75.5 -102.5t22.5 -124.5q0 -109 -56 -177t-138 -105q68 -47 94.5 -101.5t26.5 -115.5q0 -135 -105.5 -217t-298.5 -82q-170 0 -287.5 80.5t-154.5 230.5h209q14 -68 74.5 -114t160.5 -46q111 0 159 39t48 98t-47 102.5t-174 76.5 q-131 33 -219 72.5t-140.5 86.5t-74 102.5t-21.5 121.5zM330 678q0 -37 10 -66.5t41 -56.5t85 -52.5t142 -49.5q84 -27 156 -56q63 33 100 83t37 112q0 37 -12 70.5t-52 65.5t-117 62.5t-208 63.5q-29 6 -57 18q-66 -35 -95.5 -87t-29.5 -107z" />
<glyph unicode="&#xa8;" horiz-adv-x="798" d="M61 1270v205h213v-205h-213zM524 1270v205h213v-205h-213z" />
<glyph unicode="&#xa9;" horiz-adv-x="1810" d="M123 737q0 203 69.5 347.5t181 238.5t251 138t280.5 44t280.5 -44t251 -138t181.5 -238.5t70 -347.5t-70 -347t-181.5 -238.5t-250.5 -138.5t-281 -44q-141 0 -280.5 44t-251 138.5t-181 239t-69.5 346.5zM293 737q0 -158 51 -275.5t136 -195.5t195.5 -116.5t229.5 -38.5 t229.5 38.5t195.5 116.5t136.5 195.5t51.5 275.5t-51.5 275.5t-136.5 195.5t-195.5 117t-229.5 39t-229.5 -39t-195.5 -117t-136 -195.5t-51 -275.5zM524 735q0 119 34 202t89 134t124 74.5t136 23.5q133 0 231.5 -67.5t118.5 -196.5h-165q-14 68 -61.5 102.5t-119.5 34.5 q-45 0 -86 -16t-71.5 -53t-49 -94.5t-18.5 -139.5q0 -90 21.5 -147t55.5 -91t74 -47.5t76 -13.5q45 0 79 14.5t56.5 36t35 49t16.5 56.5h164q-8 -53 -34 -103.5t-70 -90.5t-106.5 -64.5t-144.5 -24.5q-55 0 -122.5 19.5t-126 68t-97.5 129t-39 205.5z" />
<glyph unicode="&#xaa;" horiz-adv-x="1024" d="M113 0v174h798v-174h-798zM137 858q0 70 25.5 120t71 85t105.5 54.5t130 27.5l205 24v43q0 72 -39 113t-135 41q-66 0 -116 -25.5t-62 -83.5h-172q8 51 37.5 97.5t76.5 79t107.5 52t132.5 19.5t134 -19.5t108.5 -55t73 -88t26.5 -119.5v-598h-125l-29 96 q-33 -51 -101.5 -85t-154.5 -34q-51 0 -104 12.5t-96 42t-71 78.5t-28 123zM313 866q0 -59 40 -88.5t112 -29.5q39 0 77 13t67.5 36.5t47 56.5t17.5 72v104l-164 -18q-104 -12 -150.5 -50t-46.5 -96z" />
<glyph unicode="&#xab;" horiz-adv-x="1044" d="M123 645l254 420h137l-160 -426l140 -455h-138zM530 645l254 420h138l-160 -426l139 -455h-137z" />
<glyph unicode="&#xac;" d="M184 573v175h860v-519h-186v344h-674z" />
<glyph unicode="&#xad;" horiz-adv-x="1105" d="M184 573v175h738v-175h-738z" />
<glyph unicode="&#xae;" horiz-adv-x="1318" d="M143 1010q0 133 48.5 227t124 153.5t166.5 87t177 27.5t177.5 -27.5t167 -87t124 -153.5t48.5 -227t-48.5 -227.5t-124 -154t-167 -87t-177.5 -27.5t-177 27.5t-166.5 87t-124 154t-48.5 227.5zM272 1010q0 -106 34 -180t89.5 -120t123.5 -66.5t140 -20.5 q70 0 139.5 20.5t125 66.5t89.5 119.5t34 180.5q0 106 -34 180t-89.5 120t-125 66.5t-139.5 20.5q-72 0 -140 -20.5t-123.5 -66.5t-89.5 -120t-34 -180zM506 752v522h151q78 0 131.5 -41t53.5 -121q0 -51 -24.5 -87t-65.5 -58l112 -215h-116l-95 190h-45v-190h-102z M608 1026h47q35 0 56.5 23.5t21.5 62.5q0 37 -21.5 58.5t-60.5 21.5h-43v-166z" />
<glyph unicode="&#xaf;" horiz-adv-x="675" d="M61 1296v168h553v-168h-553z" />
<glyph unicode="&#xb0;" d="M123 1130q0 80 28.5 143.5t75.5 107.5t109.5 66.5t130.5 22.5t130 -22.5t109.5 -66.5t76 -107.5t28.5 -143.5t-28.5 -143t-76 -107t-109.5 -66.5t-130 -22.5t-130.5 22.5t-109.5 66.5t-75.5 107.5t-28.5 142.5zM295 1130q0 -90 47 -143t125 -53t125 53t47 143t-47 143.5 t-125 53.5t-125 -53.5t-47 -143.5z" />
<glyph unicode="&#xb1;" d="M184 0v174h860v-174h-860zM184 573v175h336v342h187v-342h337v-175h-337v-262h-187v262h-336z" />
<glyph unicode="&#xb2;" horiz-adv-x="845" d="M88 1260q16 123 110.5 193.5t235.5 70.5q68 0 126 -18.5t101.5 -52.5t67 -84t23.5 -112q0 -47 -13.5 -90t-45 -88t-82 -95t-124.5 -112l-163 -104h419v-166h-632v166l268 217q55 49 91 87t57.5 68.5t30.5 57.5t9 55q0 53 -32.5 86t-102.5 33q-66 0 -105.5 -25.5 t-50.5 -86.5h-188z" />
<glyph unicode="&#xb3;" horiz-adv-x="868" d="M88 842h178q16 -51 55 -79t113 -28q82 0 120 36t38 85q0 43 -13.5 71.5t-36 45t-50 24t-58.5 7.5h-67v135h69q20 0 43 5t42.5 19.5t31.5 40t12 66.5q0 59 -42 82.5t-95 23.5q-66 0 -98.5 -28.5t-38.5 -67.5h-185q16 111 103.5 177.5t228.5 66.5q61 0 116.5 -12.5 t97.5 -42t67.5 -75.5t25.5 -114q0 -66 -46 -120t-140 -79q102 -20 158.5 -74.5t56.5 -156.5q0 -115 -89 -189.5t-249 -74.5q-158 0 -246 73.5t-102 182.5z" />
<glyph unicode="&#xb4;" horiz-adv-x="585" d="M61 1225l209 280h254l-286 -280h-177z" />
<glyph unicode="&#xb5;" horiz-adv-x="1163" d="M143 -369v1434h197v-698q0 -68 19.5 -113t50 -70.5t70.5 -36t81 -10.5q66 0 115 22.5t82 59.5t49 86t16 103v657h197v-1065h-162l-20 115q-59 -78 -139.5 -112t-161.5 -34q-57 0 -106.5 16.5t-90.5 45.5v-400h-197z" />
<glyph unicode="&#xb6;" d="M133 1120q0 102 37 171t89 110t108.5 57.5t95.5 16.5h176v-1844h-176v1137q-39 0 -95.5 16.5t-108.5 56.5t-89 108.5t-37 170.5zM899 -369v1844h176v-1844h-176z" />
<glyph unicode="&#xb7;" horiz-adv-x="614" d="M188 532v238h238v-238h-238z" />
<glyph unicode="&#xb8;" horiz-adv-x="622" d="M45 -303h154q4 -29 32.5 -55.5t79.5 -26.5q49 0 80 24.5t31 71.5q0 51 -43 77t-150 26l21 227h137v-127q92 -20 139 -68.5t47 -132.5q0 -100 -73.5 -161.5t-190.5 -61.5q-100 0 -174 53.5t-90 153.5z" />
<glyph unicode="&#xb9;" horiz-adv-x="538" d="M43 1223v170l233 112h168v-903h-178v727z" />
<glyph unicode="&#xba;" horiz-adv-x="1024" d="M113 0v174h778v-174h-778zM117 1055q0 135 34.5 223t92 138t128 69.5t142.5 19.5t142.5 -19.5t128 -69.5t92 -137t34.5 -224t-35.5 -225.5t-92 -138.5t-128 -69.5t-141.5 -19.5q-72 0 -142.5 19.5t-127 70.5t-92 139.5t-35.5 223.5zM295 1055q0 -166 62.5 -239t156.5 -73 q47 0 87 17.5t69.5 54.5t46 96.5t16.5 143.5t-17.5 142t-46 95t-69.5 54.5t-86 17.5q-92 0 -155.5 -72.5t-63.5 -236.5z" />
<glyph unicode="&#xbb;" horiz-adv-x="1044" d="M123 1065h137l254 -420l-233 -461h-138l140 455zM530 1065h138l254 -420l-234 -461h-137l139 455z" />
<glyph unicode="&#xbc;" horiz-adv-x="1773" d="M102 1223v170l233 112h168v-903h-178v727zM307 -184l860 1802h187l-863 -1802h-184zM977 172v164l379 569h182v-581h133v-152h-133v-170h-162v170h-399zM1135 324h241v342z" />
<glyph unicode="&#xbd;" horiz-adv-x="1865" d="M102 1223v170l233 112h168v-903h-178v727zM307 -184l860 1802h187l-863 -1802h-184zM1100 660q16 123 110.5 193.5t235.5 70.5q68 0 126 -18.5t101.5 -52.5t67 -84t23.5 -112q0 -47 -13.5 -90t-45 -88t-82 -95t-124.5 -112l-163 -104h419v-166h-632v166l268 217 q55 49 91 87t57.5 68.5t30.5 57.5t9 55q0 53 -32.5 86t-102.5 33q-66 0 -105.5 -25.5t-50.5 -86.5h-188z" />
<glyph unicode="&#xbe;" horiz-adv-x="1953" d="M102 842h178q16 -51 55 -79t113 -28q82 0 120 36t38 85q0 43 -13.5 71.5t-36 45t-50 24t-58.5 7.5h-67v135h69q20 0 43 5t42.5 19.5t31.5 40t12 66.5q0 59 -42 82.5t-95 23.5q-66 0 -98.5 -28.5t-38.5 -67.5h-185q16 111 103.5 177.5t228.5 66.5q61 0 116.5 -12.5 t97.5 -42t67.5 -75.5t25.5 -114q0 -66 -46 -120t-140 -79q102 -20 158.5 -74.5t56.5 -156.5q0 -115 -89 -189.5t-249 -74.5q-158 0 -246 73.5t-102 182.5zM487 -184l860 1802h187l-863 -1802h-184zM1157 172v164l379 569h182v-581h133v-152h-133v-170h-162v170h-399z M1315 324h241v342z" />
<glyph unicode="&#xbf;" horiz-adv-x="1193" d="M82 -18q0 131 72.5 235.5t228.5 190.5q39 20 64.5 45.5t40 57.5t19.5 73t5 94h195q0 -88 -12.5 -154.5t-40 -119t-75 -92.5t-114.5 -74q-94 -47 -133 -111t-39 -145q0 -94 74.5 -151.5t201.5 -57.5q274 0 310 237h213q-31 -199 -171.5 -304t-357.5 -105q-111 0 -200 29.5 t-151 81.5t-96 122t-34 148zM487 868v238h236v-238h-236z" />
<glyph unicode="&#xc0;" horiz-adv-x="1445" d="M0 0l606 1475h236l604 -1475h-232l-145 373h-702l-148 -373h-219zM432 1853h254l209 -280h-176zM434 543h567l-280 723z" />
<glyph unicode="&#xc1;" horiz-adv-x="1445" d="M0 0l606 1475h236l604 -1475h-232l-145 373h-702l-148 -373h-219zM434 543h567l-280 723zM553 1573l209 280h254l-286 -280h-177z" />
<glyph unicode="&#xc2;" horiz-adv-x="1445" d="M0 0l606 1475h236l604 -1475h-232l-145 373h-702l-148 -373h-219zM370 1573l242 280h223l240 -280h-199l-153 168l-154 -168h-199zM434 543h567l-280 723z" />
<glyph unicode="&#xc3;" horiz-adv-x="1445" d="M0 0l606 1475h236l604 -1475h-232l-145 373h-702l-148 -373h-219zM415 1599v166q45 33 88.5 50.5t94.5 17.5q49 0 78.5 -12.5t54 -26.5t49.5 -26.5t63 -12.5q45 0 83 21.5t83 56.5v-166q-45 -33 -84 -50.5t-90 -17.5q-49 0 -78.5 12.5t-53 27t-49.5 26.5t-64 12 q-43 0 -86.5 -21.5t-88.5 -56.5zM434 543h567l-280 723z" />
<glyph unicode="&#xc4;" horiz-adv-x="1445" d="M0 0l606 1475h236l604 -1475h-232l-145 373h-702l-148 -373h-219zM383 1618v205h213v-205h-213zM434 543h567l-280 723zM846 1618v205h213v-205h-213z" />
<glyph unicode="&#xc5;" horiz-adv-x="1445" d="M0 0l584 1419q-66 29 -102 88.5t-36 130.5q0 104 71 175t198 71q63 0 113.5 -19.5t85 -52t53 -78t18.5 -96.5q0 -70 -32.5 -124t-92.5 -87l586 -1427h-232l-145 373h-702l-148 -373h-219zM434 543h567l-280 723zM586 1638q0 -59 34.5 -94t94.5 -35q59 0 95 35t36 94 t-36 94t-95 35t-94 -35t-35 -94z" />
<glyph unicode="&#xc6;" horiz-adv-x="2000" d="M0 0l907 1475h991v-177h-669v-462h610v-172h-610v-488h669v-176h-878v373h-567l-228 -373h-225zM557 543h463v753z" />
<glyph unicode="&#xc7;" horiz-adv-x="1492" d="M92 737q0 186 51.5 329.5t143.5 241t219 147.5t278 50q133 0 245 -41t194 -109.5t130 -160.5t56 -193h-211q-20 152 -131 241t-283 89q-106 0 -194 -37t-151.5 -110.5t-98.5 -185t-35 -261.5q0 -143 34 -253.5t95.5 -185.5t147.5 -114t190 -39q90 0 166 29t133 79 t91 118.5t38 148.5h211q-6 -100 -48 -193.5t-115.5 -167t-175 -123.5t-224.5 -63v-59q92 -20 139 -68.5t47 -132.5q0 -100 -73.5 -161.5t-190.5 -61.5q-100 0 -174 53.5t-90 153.5h153q4 -29 33 -55.5t80 -26.5q49 0 80 24.5t31 71.5q0 51 -43 77t-150 26l15 157 q-141 10 -254 65.5t-193 153t-123 234.5t-43 313z" />
<glyph unicode="&#xc8;" horiz-adv-x="1175" d="M154 0v1475h919v-177h-711v-462h652v-172h-652v-488h711v-176h-919zM317 1853h254l209 -280h-176z" />
<glyph unicode="&#xc9;" horiz-adv-x="1175" d="M154 0v1475h919v-177h-711v-462h652v-172h-652v-488h711v-176h-919zM473 1573l209 280h254l-286 -280h-177z" />
<glyph unicode="&#xca;" horiz-adv-x="1175" d="M154 0v1475h919v-177h-711v-462h652v-172h-652v-488h711v-176h-919zM256 1573l242 280h223l240 -280h-199l-153 168l-154 -168h-199z" />
<glyph unicode="&#xcb;" horiz-adv-x="1175" d="M154 0v1475h919v-177h-711v-462h652v-172h-652v-488h711v-176h-919zM278 1618v205h213v-205h-213zM741 1618v205h213v-205h-213z" />
<glyph unicode="&#xcc;" horiz-adv-x="516" d="M-37 1853h254l209 -280h-176zM154 0v1475h208v-1475h-208z" />
<glyph unicode="&#xcd;" horiz-adv-x="516" d="M86 1573l209 280h254l-286 -280h-177zM154 0v1475h208v-1475h-208z" />
<glyph unicode="&#xce;" horiz-adv-x="516" d="M-93 1573l242 280h223l240 -280h-199l-153 168l-154 -168h-199zM154 0v1475h208v-1475h-208z" />
<glyph unicode="&#xcf;" horiz-adv-x="516" d="M-78 1618v205h213v-205h-213zM154 0v1475h208v-1475h-208zM385 1618v205h213v-205h-213z" />
<glyph unicode="&#xd0;" horiz-adv-x="1449" d="M51 686v176h103v613h479q162 0 296 -44.5t229 -135.5t147.5 -229t52.5 -329q0 -178 -54.5 -316t-152.5 -231.5t-234.5 -141.5t-298.5 -48h-464v686h-103zM362 172h277q244 0 376 142.5t132 422.5q0 145 -36 253t-102.5 178.5t-160.5 105.5t-213 35h-273v-447h420v-176 h-420v-514z" />
<glyph unicode="&#xd1;" horiz-adv-x="1472" d="M154 0v1475h276l703 -1225v1225h186v-1475h-264l-711 1235v-1235h-190zM456 1599v166q45 33 88.5 50.5t94.5 17.5q49 0 78.5 -12.5t54 -26.5t49.5 -26.5t63 -12.5q45 0 83 21.5t83 56.5v-166q-45 -33 -84 -50.5t-90 -17.5q-49 0 -78.5 12.5t-53 27t-49.5 26.5t-64 12 q-43 0 -86.5 -21.5t-88.5 -56.5z" />
<glyph unicode="&#xd2;" horiz-adv-x="1585" d="M92 737q0 186 55.5 329.5t150.5 241t223 147.5t274 50q145 0 273 -48t222 -145.5t148.5 -240.5t54.5 -334q0 -182 -53.5 -325.5t-147.5 -241.5t-221.5 -149.5t-277.5 -51.5q-154 0 -283 51.5t-221 149.5t-144.5 241.5t-52.5 325.5zM305 737q0 -145 36 -256.5 t100.5 -187.5t153.5 -115t198 -39t197.5 39t153 115t100.5 187.5t36 256.5t-36 257t-100.5 187.5t-153.5 114.5t-197 39q-109 0 -198 -39t-153.5 -114.5t-100.5 -187t-36 -257.5zM491 1853h254l209 -280h-176z" />
<glyph unicode="&#xd3;" horiz-adv-x="1585" d="M92 737q0 186 55.5 329.5t150.5 241t223 147.5t274 50q145 0 273 -48t222 -145.5t148.5 -240.5t54.5 -334q0 -182 -53.5 -325.5t-147.5 -241.5t-221.5 -149.5t-277.5 -51.5q-154 0 -283 51.5t-221 149.5t-144.5 241.5t-52.5 325.5zM305 737q0 -145 36 -256.5 t100.5 -187.5t153.5 -115t198 -39t197.5 39t153 115t100.5 187.5t36 256.5t-36 257t-100.5 187.5t-153.5 114.5t-197 39q-109 0 -198 -39t-153.5 -114.5t-100.5 -187t-36 -257.5zM636 1573l209 280h254l-286 -280h-177z" />
<glyph unicode="&#xd4;" horiz-adv-x="1585" d="M92 737q0 186 55.5 329.5t150.5 241t223 147.5t274 50q145 0 273 -48t222 -145.5t148.5 -240.5t54.5 -334q0 -182 -53.5 -325.5t-147.5 -241.5t-221.5 -149.5t-277.5 -51.5q-154 0 -283 51.5t-221 149.5t-144.5 241.5t-52.5 325.5zM305 737q0 -145 36 -256.5 t100.5 -187.5t153.5 -115t198 -39t197.5 39t153 115t100.5 187.5t36 256.5t-36 257t-100.5 187.5t-153.5 114.5t-197 39q-109 0 -198 -39t-153.5 -114.5t-100.5 -187t-36 -257.5zM426 1573l242 280h223l240 -280h-199l-153 168l-154 -168h-199z" />
<glyph unicode="&#xd5;" horiz-adv-x="1585" d="M92 737q0 186 55.5 329.5t150.5 241t223 147.5t274 50q145 0 273 -48t222 -145.5t148.5 -240.5t54.5 -334q0 -182 -53.5 -325.5t-147.5 -241.5t-221.5 -149.5t-277.5 -51.5q-154 0 -283 51.5t-221 149.5t-144.5 241.5t-52.5 325.5zM305 737q0 -145 36 -256.5 t100.5 -187.5t153.5 -115t198 -39t197.5 39t153 115t100.5 187.5t36 256.5t-36 257t-100.5 187.5t-153.5 114.5t-197 39q-109 0 -198 -39t-153.5 -114.5t-100.5 -187t-36 -257.5zM489 1599v166q45 33 88.5 50.5t94.5 17.5q49 0 78.5 -12.5t54 -26.5t49.5 -26.5t63 -12.5 q45 0 83 21.5t83 56.5v-166q-45 -33 -84 -50.5t-90 -17.5q-49 0 -78.5 12.5t-53 27t-49.5 26.5t-64 12q-43 0 -86.5 -21.5t-88.5 -56.5z" />
<glyph unicode="&#xd6;" horiz-adv-x="1585" d="M92 737q0 186 55.5 329.5t150.5 241t223 147.5t274 50q145 0 273 -48t222 -145.5t148.5 -240.5t54.5 -334q0 -182 -53.5 -325.5t-147.5 -241.5t-221.5 -149.5t-277.5 -51.5q-154 0 -283 51.5t-221 149.5t-144.5 241.5t-52.5 325.5zM305 737q0 -145 36 -256.5 t100.5 -187.5t153.5 -115t198 -39t197.5 39t153 115t100.5 187.5t36 256.5t-36 257t-100.5 187.5t-153.5 114.5t-197 39q-109 0 -198 -39t-153.5 -114.5t-100.5 -187t-36 -257.5zM434 1618v205h213v-205h-213zM897 1618v205h213v-205h-213z" />
<glyph unicode="&#xd7;" d="M246 418l243 241l-243 242l123 123l243 -242l248 244l123 -123l-246 -244l246 -243l-123 -123l-248 244l-243 -242z" />
<glyph unicode="&#xd8;" horiz-adv-x="1585" d="M92 737q0 209 63.5 355.5t164 237.5t225.5 133t248 42q88 0 184 -22l74 196h182l-94 -256q74 -39 139 -99t112.5 -145t75 -195t27.5 -247q0 -209 -63.5 -355t-164 -237.5t-225 -133.5t-247.5 -42q-88 0 -183 23l-75 -217h-183l97 274q-76 39 -140.5 99.5t-113 144.5 t-76 194.5t-27.5 249.5zM305 737q0 -188 57.5 -318t159.5 -202l398 1102q-61 16 -127 16q-109 0 -198 -39t-153.5 -114.5t-100.5 -187.5t-36 -257zM662 156q65 -17 131 -17q109 0 197.5 39t153 115t100.5 187.5t36 256.5q0 188 -57.5 317.5t-159.5 200.5z" />
<glyph unicode="&#xd9;" horiz-adv-x="1447" d="M143 494v981h209v-1000q0 -147 96.5 -238.5t278.5 -91.5t278.5 91.5t96.5 238.5v1000h203v-981q0 -123 -42 -220.5t-118 -165t-182.5 -103.5t-237.5 -36q-133 0 -240.5 37t-183.5 105.5t-117 166t-41 216.5zM440 1853h254l209 -280h-176z" />
<glyph unicode="&#xda;" horiz-adv-x="1447" d="M143 494v981h209v-1000q0 -147 96.5 -238.5t278.5 -91.5t278.5 91.5t96.5 238.5v1000h203v-981q0 -123 -42 -220.5t-118 -165t-182.5 -103.5t-237.5 -36q-133 0 -240.5 37t-183.5 105.5t-117 166t-41 216.5zM567 1573l209 280h254l-286 -280h-177z" />
<glyph unicode="&#xdb;" horiz-adv-x="1447" d="M143 494v981h209v-1000q0 -147 96.5 -238.5t278.5 -91.5t278.5 91.5t96.5 238.5v1000h203v-981q0 -123 -42 -220.5t-118 -165t-182.5 -103.5t-237.5 -36q-133 0 -240.5 37t-183.5 105.5t-117 166t-41 216.5zM376 1573l242 280h223l240 -280h-199l-153 168l-154 -168h-199 z" />
<glyph unicode="&#xdc;" horiz-adv-x="1447" d="M143 494v981h209v-1000q0 -147 96.5 -238.5t278.5 -91.5t278.5 91.5t96.5 238.5v1000h203v-981q0 -123 -42 -220.5t-118 -165t-182.5 -103.5t-237.5 -36q-133 0 -240.5 37t-183.5 105.5t-117 166t-41 216.5zM383 1618v205h213v-205h-213zM846 1618v205h213v-205h-213z " />
<glyph unicode="&#xdd;" horiz-adv-x="1288" d="M0 1475h229l416 -709l430 709h213l-540 -889v-586h-207v586zM548 1573l209 280h254l-286 -280h-177z" />
<glyph unicode="&#xde;" horiz-adv-x="1261" d="M154 0v1475h208v-238h263q131 0 239.5 -31.5t185 -93t118.5 -155t42 -216.5t-42 -215t-118.5 -154.5t-185 -93t-239.5 -30.5h-263v-248h-208zM362 418h267q186 0 275 85t89 238q0 154 -89 240t-275 86h-267v-649z" />
<glyph unicode="&#xdf;" horiz-adv-x="1234" d="M143 0v1073q0 92 28 172t82 137.5t131 90t175 32.5q76 0 148.5 -18.5t130 -57t91.5 -97t34 -138.5q0 -84 -31 -134t-67 -85t-66.5 -66.5t-30.5 -77.5q0 -16 5 -30.5t21.5 -30.5t45 -34.5t78.5 -41.5q152 -72 214 -157.5t62 -210.5q0 -66 -26.5 -129.5t-79 -114.5 t-128.5 -82t-172 -31q-168 0 -262 74t-116 215h200q18 -123 178 -123q98 0 151.5 48t53.5 134q0 84 -37.5 135.5t-134.5 98.5q-70 33 -116 62.5t-73.5 61.5t-38.5 69.5t-11 91.5q0 61 28.5 102t64.5 77t64.5 74.5t28.5 94.5q0 66 -55.5 109.5t-153.5 43.5 q-104 0 -161.5 -68.5t-57.5 -191.5v-1077h-197z" />
<glyph unicode="&#xe0;" horiz-adv-x="1126" d="M82 274q0 145 94 231.5t309 123.5l312 53v53q0 98 -63.5 151.5t-182.5 53.5q-115 0 -172 -46t-68 -126h-209q16 147 136 237.5t321 90.5q104 0 185 -27t136.5 -76t84 -116.5t28.5 -149.5v-727h-162l-24 145q-53 -74 -140 -125t-216 -51q-88 0 -157 23.5t-116 64.5 t-71.5 96.5t-24.5 120.5zM221 1505h254l209 -280h-176zM291 295q0 -78 53.5 -119t153.5 -41q55 0 109.5 19.5t96 54.5t67.5 81t26 101v137l-265 -47q-72 -12 -117.5 -29.5t-73.5 -41t-39 -52t-11 -63.5z" />
<glyph unicode="&#xe1;" horiz-adv-x="1126" d="M82 274q0 145 94 231.5t309 123.5l312 53v53q0 98 -63.5 151.5t-182.5 53.5q-115 0 -172 -46t-68 -126h-209q16 147 136 237.5t321 90.5q104 0 185 -27t136.5 -76t84 -116.5t28.5 -149.5v-727h-162l-24 145q-53 -74 -140 -125t-216 -51q-88 0 -157 23.5t-116 64.5 t-71.5 96.5t-24.5 120.5zM291 295q0 -78 53.5 -119t153.5 -41q55 0 109.5 19.5t96 54.5t67.5 81t26 101v137l-265 -47q-72 -12 -117.5 -29.5t-73.5 -41t-39 -52t-11 -63.5zM458 1225l209 280h254l-286 -280h-177z" />
<glyph unicode="&#xe2;" horiz-adv-x="1126" d="M82 274q0 145 94 231.5t309 123.5l312 53v53q0 98 -63.5 151.5t-182.5 53.5q-115 0 -172 -46t-68 -126h-209q16 147 136 237.5t321 90.5q104 0 185 -27t136.5 -76t84 -116.5t28.5 -149.5v-727h-162l-24 145q-53 -74 -140 -125t-216 -51q-88 0 -157 23.5t-116 64.5 t-71.5 96.5t-24.5 120.5zM204 1225l242 280h223l240 -280h-199l-153 168l-154 -168h-199zM291 295q0 -78 53.5 -119t153.5 -41q55 0 109.5 19.5t96 54.5t67.5 81t26 101v137l-265 -47q-72 -12 -117.5 -29.5t-73.5 -41t-39 -52t-11 -63.5z" />
<glyph unicode="&#xe3;" horiz-adv-x="1126" d="M82 274q0 145 94 231.5t309 123.5l312 53v53q0 98 -63.5 151.5t-182.5 53.5q-115 0 -172 -46t-68 -126h-209q16 147 136 237.5t321 90.5q104 0 185 -27t136.5 -76t84 -116.5t28.5 -149.5v-727h-162l-24 145q-53 -74 -140 -125t-216 -51q-88 0 -157 23.5t-116 64.5 t-71.5 96.5t-24.5 120.5zM262 1251v166q45 33 88.5 50.5t94.5 17.5q49 0 78.5 -12.5t54 -26.5t49.5 -26.5t63 -12.5q45 0 83 21.5t83 56.5v-166q-45 -33 -84 -50.5t-90 -17.5q-49 0 -78.5 12.5t-53 27t-49.5 26.5t-64 12q-43 0 -86.5 -21.5t-88.5 -56.5zM291 295 q0 -78 53.5 -119t153.5 -41q55 0 109.5 19.5t96 54.5t67.5 81t26 101v137l-265 -47q-72 -12 -117.5 -29.5t-73.5 -41t-39 -52t-11 -63.5z" />
<glyph unicode="&#xe4;" horiz-adv-x="1126" d="M82 274q0 145 94 231.5t309 123.5l312 53v53q0 98 -63.5 151.5t-182.5 53.5q-115 0 -172 -46t-68 -126h-209q16 147 136 237.5t321 90.5q104 0 185 -27t136.5 -76t84 -116.5t28.5 -149.5v-727h-162l-24 145q-53 -74 -140 -125t-216 -51q-88 0 -157 23.5t-116 64.5 t-71.5 96.5t-24.5 120.5zM217 1270v205h213v-205h-213zM291 295q0 -78 53.5 -119t153.5 -41q55 0 109.5 19.5t96 54.5t67.5 81t26 101v137l-265 -47q-72 -12 -117.5 -29.5t-73.5 -41t-39 -52t-11 -63.5zM680 1270v205h213v-205h-213z" />
<glyph unicode="&#xe5;" horiz-adv-x="1126" d="M82 274q0 145 94 231.5t309 123.5l312 53v53q0 98 -63.5 151.5t-182.5 53.5q-115 0 -172 -46t-68 -126h-209q16 147 136 237.5t321 90.5q104 0 185 -27t136.5 -76t84 -116.5t28.5 -149.5v-727h-162l-24 145q-53 -74 -140 -125t-216 -51q-88 0 -157 23.5t-116 64.5 t-71.5 96.5t-24.5 120.5zM291 295q0 -78 53.5 -119t153.5 -41q55 0 109.5 19.5t96 54.5t67.5 81t26 101v137l-265 -47q-72 -12 -117.5 -29.5t-73.5 -41t-39 -52t-11 -63.5zM292 1434q0 104 71 174.5t198 70.5q63 0 113.5 -19.5t85 -52t53 -77.5t18.5 -96t-18.5 -96.5 t-53 -78t-85 -52t-113.5 -19.5q-127 0 -198 70.5t-71 175.5zM432 1434q0 -59 34.5 -94t94.5 -35q59 0 95 34.5t36 94.5q0 59 -36 94t-95 35t-94 -35t-35 -94z" />
<glyph unicode="&#xe6;" horiz-adv-x="1900" d="M82 279q0 82 31.5 140t85 97t124 60.5t150.5 31.5l324 41v86q0 94 -61.5 149.5t-184.5 55.5q-41 0 -81 -8t-74 -27.5t-56.5 -52.5t-28.5 -84h-209q18 156 140.5 242t316.5 86q133 0 223 -44t144 -128q80 98 185.5 135t197.5 37q111 0 202 -34t157.5 -105.5t103 -183 t36.5 -269.5h-811q4 -113 37 -184.5t81 -112.5t103.5 -56.5t106.5 -15.5q100 0 168 50.5t90 121.5h213q-20 -76 -62 -138.5t-103.5 -106.5t-140.5 -68.5t-171 -24.5q-59 0 -118.5 10.5t-117 36t-107.5 67.5t-89 105q-53 -92 -159.5 -155.5t-254.5 -63.5q-84 0 -155.5 18.5 t-124 56.5t-82 96.5t-29.5 138.5zM291 289q0 -31 10 -58.5t34.5 -49t64 -34t98.5 -12.5q49 0 101 17.5t95 49t71 76t32 97.5v121l-277 -35q-66 -8 -109.5 -22.5t-70.5 -36t-38 -49t-11 -64.5zM1008 659h600q-10 141 -91 210t-204 69q-51 0 -100.5 -15.5t-90.5 -48t-70.5 -86 t-43.5 -129.5z" />
<glyph unicode="&#xe7;" horiz-adv-x="1134" d="M82 524q0 133 36 239.5t102.5 180.5t158.5 113t205 39q182 0 308 -91.5t152 -254.5h-217q-20 88 -82.5 134t-156.5 46q-131 0 -214 -99.5t-83 -312.5q0 -98 23.5 -170t63.5 -119t95 -70.5t117 -23.5q98 0 164.5 53.5t83.5 153.5h215q-10 -72 -42 -134.5t-82 -111.5 t-120 -80.5t-154 -42.5v-59q92 -20 139.5 -68.5t47.5 -132.5q0 -100 -74 -161.5t-190 -61.5q-100 0 -174 53.5t-91 153.5h154q4 -29 32.5 -55.5t80.5 -26.5q49 0 79.5 24.5t30.5 71.5q0 51 -43 77t-149 26l14 161q-92 12 -171 52.5t-136.5 110t-90 166.5t-32.5 220z" />
<glyph unicode="&#xe8;" horiz-adv-x="1185" d="M82 532q0 139 39 245t106.5 176.5t161.5 106.5t205 36t203 -34t157.5 -107.5t102.5 -188.5t37 -277h-811q12 -184 103 -269t224 -85q98 0 167 49t91 123h213q-20 -74 -61 -135t-101.5 -106.5t-139.5 -71t-175 -25.5q-115 0 -210 35t-164.5 105.5t-108.5 176t-39 246.5z M241 1505h254l209 -280h-176zM291 645h602q-10 150 -91 221.5t-204 71.5q-119 0 -202 -72.5t-105 -220.5z" />
<glyph unicode="&#xe9;" horiz-adv-x="1185" d="M82 532q0 139 39 245t106.5 176.5t161.5 106.5t205 36t203 -34t157.5 -107.5t102.5 -188.5t37 -277h-811q12 -184 103 -269t224 -85q98 0 167 49t91 123h213q-20 -74 -61 -135t-101.5 -106.5t-139.5 -71t-175 -25.5q-115 0 -210 35t-164.5 105.5t-108.5 176t-39 246.5z M291 645h602q-10 150 -91 221.5t-204 71.5q-119 0 -202 -72.5t-105 -220.5zM483 1225l209 280h254l-286 -280h-177z" />
<glyph unicode="&#xea;" horiz-adv-x="1185" d="M82 532q0 139 39 245t106.5 176.5t161.5 106.5t205 36t203 -34t157.5 -107.5t102.5 -188.5t37 -277h-811q12 -184 103 -269t224 -85q98 0 167 49t91 123h213q-20 -74 -61 -135t-101.5 -106.5t-139.5 -71t-175 -25.5q-115 0 -210 35t-164.5 105.5t-108.5 176t-39 246.5z M235 1225l242 280h223l240 -280h-199l-153 168l-154 -168h-199zM291 645h602q-10 150 -91 221.5t-204 71.5q-119 0 -202 -72.5t-105 -220.5z" />
<glyph unicode="&#xeb;" horiz-adv-x="1185" d="M82 532q0 139 39 245t106.5 176.5t161.5 106.5t205 36t203 -34t157.5 -107.5t102.5 -188.5t37 -277h-811q12 -184 103 -269t224 -85q98 0 167 49t91 123h213q-20 -74 -61 -135t-101.5 -106.5t-139.5 -71t-175 -25.5q-115 0 -210 35t-164.5 105.5t-108.5 176t-39 246.5z M245 1270v205h213v-205h-213zM291 645h602q-10 150 -91 221.5t-204 71.5q-119 0 -202 -72.5t-105 -220.5zM708 1270v205h213v-205h-213z" />
<glyph unicode="&#xec;" horiz-adv-x="483" d="M-76 1505h254l209 -280h-176zM143 0v1065h197v-1065h-197z" />
<glyph unicode="&#xed;" horiz-adv-x="483" d="M110 1225l209 280h254l-286 -280h-177zM143 0v1065h197v-1065h-197z" />
<glyph unicode="&#xee;" horiz-adv-x="483" d="M-109 1225l242 280h223l240 -280h-199l-153 168l-154 -168h-199zM143 0v1065h197v-1065h-197z" />
<glyph unicode="&#xef;" horiz-adv-x="483" d="M-95 1270v205h213v-205h-213zM143 0v1065h197v-1065h-197zM368 1270v205h213v-205h-213z" />
<glyph unicode="&#xf0;" horiz-adv-x="1189" d="M82 487q0 115 36 207t99.5 158t147.5 101.5t182 35.5q57 0 113.5 -14t104.5 -39t86 -59.5t56 -73.5q-18 137 -68.5 235.5t-136.5 165.5l-61 -65h-211l139 145q-55 25 -118.5 42t-135.5 28v184q221 -47 375 -125l60 62h211l-140 -146q141 -111 208 -276.5t67 -397.5 q0 -168 -36 -296t-103.5 -215t-162 -131t-210.5 -44q-109 0 -200 35t-158.5 100.5t-105.5 163t-38 219.5zM283 477q0 -96 25.5 -162.5t66.5 -106.5t95 -57.5t114 -17.5q68 0 126 24.5t100 69.5t66.5 109.5t24.5 144.5q0 164 -91.5 254t-238.5 90q-127 0 -207.5 -87 t-80.5 -261z" />
<glyph unicode="&#xf1;" horiz-adv-x="1161" d="M143 0v1065h162l23 -135q59 82 143 124t180 42q174 0 275.5 -102.5t101.5 -299.5v-694h-197v692q0 121 -58 178.5t-169 57.5q-53 0 -101 -18.5t-84 -53.5t-57.5 -85t-21.5 -114v-657h-197zM305 1251v166q45 33 88.5 50.5t94.5 17.5q49 0 78.5 -12.5t54 -26.5t49.5 -26.5 t63 -12.5q45 0 83 21.5t83 56.5v-166q-45 -33 -84 -50.5t-90 -17.5q-49 0 -78.5 12.5t-53 27t-49.5 26.5t-64 12q-43 0 -86.5 -21.5t-88.5 -56.5z" />
<glyph unicode="&#xf2;" horiz-adv-x="1214" d="M82 532q0 143 42 250t113.5 176.5t167 103.5t203.5 34q109 0 205 -34t167 -103.5t112 -176t41 -250.5q0 -139 -40 -244.5t-111 -176t-167 -106.5t-209 -36q-111 0 -207 36t-166.5 107.5t-110.5 176t-40 243.5zM274 1505h254l209 -280h-176zM287 532q0 -98 24.5 -173.5 t67.5 -127t102.5 -77t128.5 -25.5q141 0 229.5 102.5t88.5 300.5q0 100 -24.5 176t-67.5 127.5t-101.5 76t-126.5 24.5t-127 -25.5t-102 -77t-67.5 -126.5t-24.5 -175z" />
<glyph unicode="&#xf3;" horiz-adv-x="1214" d="M82 532q0 143 42 250t113.5 176.5t167 103.5t203.5 34q109 0 205 -34t167 -103.5t112 -176t41 -250.5q0 -139 -40 -244.5t-111 -176t-167 -106.5t-209 -36q-111 0 -207 36t-166.5 107.5t-110.5 176t-40 243.5zM287 532q0 -98 24.5 -173.5t67.5 -127t102.5 -77 t128.5 -25.5q141 0 229.5 102.5t88.5 300.5q0 100 -24.5 176t-67.5 127.5t-101.5 76t-126.5 24.5t-127 -25.5t-102 -77t-67.5 -126.5t-24.5 -175zM487 1225l209 280h254l-286 -280h-177z" />
<glyph unicode="&#xf4;" horiz-adv-x="1214" d="M82 532q0 143 42 250t113.5 176.5t167 103.5t203.5 34q109 0 205 -34t167 -103.5t112 -176t41 -250.5q0 -139 -40 -244.5t-111 -176t-167 -106.5t-209 -36q-111 0 -207 36t-166.5 107.5t-110.5 176t-40 243.5zM243 1225l242 280h223l240 -280h-199l-153 168l-154 -168 h-199zM287 532q0 -98 24.5 -173.5t67.5 -127t102.5 -77t128.5 -25.5q141 0 229.5 102.5t88.5 300.5q0 100 -24.5 176t-67.5 127.5t-101.5 76t-126.5 24.5t-127 -25.5t-102 -77t-67.5 -126.5t-24.5 -175z" />
<glyph unicode="&#xf5;" horiz-adv-x="1214" d="M82 532q0 143 42 250t113.5 176.5t167 103.5t203.5 34q109 0 205 -34t167 -103.5t112 -176t41 -250.5q0 -139 -40 -244.5t-111 -176t-167 -106.5t-209 -36q-111 0 -207 36t-166.5 107.5t-110.5 176t-40 243.5zM287 532q0 -98 24.5 -173.5t67.5 -127t102.5 -77 t128.5 -25.5q141 0 229.5 102.5t88.5 300.5q0 100 -24.5 176t-67.5 127.5t-101.5 76t-126.5 24.5t-127 -25.5t-102 -77t-67.5 -126.5t-24.5 -175zM303 1251v166q45 33 88.5 50.5t94.5 17.5q49 0 78.5 -12.5t54 -26.5t49.5 -26.5t63 -12.5q45 0 83 21.5t83 56.5v-166 q-45 -33 -84 -50.5t-90 -17.5q-49 0 -78.5 12.5t-53 27t-49.5 26.5t-64 12q-43 0 -86.5 -21.5t-88.5 -56.5z" />
<glyph unicode="&#xf6;" horiz-adv-x="1214" d="M82 532q0 143 42 250t113.5 176.5t167 103.5t203.5 34q109 0 205 -34t167 -103.5t112 -176t41 -250.5q0 -139 -40 -244.5t-111 -176t-167 -106.5t-209 -36q-111 0 -207 36t-166.5 107.5t-110.5 176t-40 243.5zM268 1270v205h213v-205h-213zM287 532q0 -98 24.5 -173.5 t67.5 -127t102.5 -77t128.5 -25.5q141 0 229.5 102.5t88.5 300.5q0 100 -24.5 176t-67.5 127.5t-101.5 76t-126.5 24.5t-127 -25.5t-102 -77t-67.5 -126.5t-24.5 -175zM731 1270v205h213v-205h-213z" />
<glyph unicode="&#xf7;" d="M184 573v175h860v-175h-860zM496 131v238h237v-238h-237zM496 950v238h237v-238h-237z" />
<glyph unicode="&#xf8;" horiz-adv-x="1214" d="M82 532q0 143 42 250t113.5 176.5t167 103.5t203.5 34q88 0 158 -21l100 215h183l-131 -282q98 -68 156.5 -184.5t58.5 -291.5q0 -139 -40 -244.5t-111 -176t-167 -106.5t-209 -36q-86 0 -155 21l-99 -215h-186l131 282q-98 70 -156.5 187.5t-58.5 287.5zM287 532 q0 -104 25.5 -180t72.5 -127l317 697q-43 14 -94 14q-68 0 -127 -25.5t-102 -77t-67.5 -126.5t-24.5 -175zM516 141q45 -12 94 -12q141 0 229.5 102t88.5 301q0 104 -25.5 180t-71.5 128z" />
<glyph unicode="&#xf9;" horiz-adv-x="1153" d="M133 371v694h197v-698q0 -119 58 -174.5t163 -55.5q68 0 117 23.5t80.5 61.5t48 88t16.5 106v649h197v-1065h-162l-23 123q-57 -78 -139 -116t-180 -38q-82 0 -150.5 24.5t-118 74t-77 125t-27.5 178.5zM251 1505h254l209 -280h-176z" />
<glyph unicode="&#xfa;" horiz-adv-x="1153" d="M133 371v694h197v-698q0 -119 58 -174.5t163 -55.5q68 0 117 23.5t80.5 61.5t48 88t16.5 106v649h197v-1065h-162l-23 123q-57 -78 -139 -116t-180 -38q-82 0 -150.5 24.5t-118 74t-77 125t-27.5 178.5zM442 1225l209 280h254l-286 -280h-177z" />
<glyph unicode="&#xfb;" horiz-adv-x="1153" d="M133 371v694h197v-698q0 -119 58 -174.5t163 -55.5q68 0 117 23.5t80.5 61.5t48 88t16.5 106v649h197v-1065h-162l-23 123q-57 -78 -139 -116t-180 -38q-82 0 -150.5 24.5t-118 74t-77 125t-27.5 178.5zM221 1225l242 280h223l240 -280h-199l-153 168l-154 -168h-199z " />
<glyph unicode="&#xfc;" horiz-adv-x="1153" d="M133 371v694h197v-698q0 -119 58 -174.5t163 -55.5q68 0 117 23.5t80.5 61.5t48 88t16.5 106v649h197v-1065h-162l-23 123q-57 -78 -139 -116t-180 -38q-82 0 -150.5 24.5t-118 74t-77 125t-27.5 178.5zM231 1270v205h213v-205h-213zM694 1270v205h213v-205h-213z" />
<glyph unicode="&#xfd;" horiz-adv-x="1052" d="M20 1065h213l302 -905l301 905h196l-370 -1079q-31 -88 -61 -159t-69.5 -121t-92 -77.5t-126.5 -27.5q-33 0 -58.5 4t-68.5 14v160q57 -14 103 -15q35 0 60.5 13.5t45 42t39 73t41.5 107.5h-63zM426 1225l209 280h254l-286 -280h-177z" />
<glyph unicode="&#xfe;" horiz-adv-x="1247" d="M143 -369v1844h197v-557q53 78 142 128t214 50q84 0 168 -29t150.5 -94.5t108.5 -171t42 -260.5q0 -143 -37.5 -251t-103.5 -178.5t-154 -106.5t-188 -36q-121 0 -204 46t-136 120v-504h-199zM330 545q0 -76 17.5 -148.5t55 -130t99 -93.5t149.5 -36q55 0 110.5 18.5 t99.5 65.5t72 125t28 199q0 115 -29 188.5t-74 116.5t-100.5 60.5t-106.5 17.5q-76 0 -135 -29t-101 -79t-63.5 -120.5t-21.5 -154.5z" />
<glyph unicode="&#xff;" horiz-adv-x="1052" d="M20 1065h213l302 -905l301 905h196l-370 -1079q-31 -88 -61 -159t-69.5 -121t-92 -77.5t-126.5 -27.5q-33 0 -58.5 4t-68.5 14v160q57 -14 103 -15q35 0 60.5 13.5t45 42t39 73t41.5 107.5h-63zM188 1270v205h213v-205h-213zM651 1270v205h213v-205h-213z" />
<glyph unicode="&#x152;" horiz-adv-x="2029" d="M92 737q0 209 63.5 355.5t164 237.5t225.5 133t248 42q92 0 148 -9t108 -21h878v-177h-670v-462h611v-172h-611v-488h670v-176h-878q-47 -10 -105.5 -20.5t-150.5 -10.5q-127 0 -252 40t-224.5 130t-162 237.5t-62.5 360.5zM305 737q0 -145 35 -256.5t98.5 -187.5 t153.5 -115t201 -39q63 0 129.5 11.5t126.5 37.5v1098q-59 27 -126 38t-130 11q-109 0 -198 -39t-153.5 -114.5t-100.5 -187t-36 -257.5z" />
<glyph unicode="&#x153;" horiz-adv-x="2023" d="M82 532q0 170 53 280t132 172.5t171 87t170 24.5q51 0 108.5 -10.5t115 -34t108.5 -64.5t92 -102q37 57 85 97t100.5 65.5t107.5 37t107 11.5q111 0 201.5 -34t157.5 -107.5t103.5 -188.5t36.5 -277h-811q6 -109 40 -177t81 -108t102.5 -54.5t104.5 -14.5 q100 0 167.5 50.5t90.5 121.5h213q-20 -76 -62 -138.5t-103.5 -106.5t-140.5 -68.5t-171 -24.5q-117 0 -225.5 48.5t-184.5 162.5q-41 -61 -92 -102t-108.5 -64.5t-115 -34t-108.5 -10.5q-78 0 -170 24.5t-171 87t-132 172t-53 279.5zM287 532q0 -109 27.5 -184.5 t72.5 -124.5t103.5 -71.5t119.5 -22.5t118.5 22.5t101.5 70.5t71 125t27 185q0 109 -28 186t-72 125t-101 70.5t-119 22.5q-61 0 -118.5 -22.5t-102.5 -71.5t-72.5 -126.5t-27.5 -183.5zM1128 645h603q-10 150 -91 221.5t-204 71.5q-53 0 -103.5 -15.5t-91.5 -51t-70.5 -91 t-42.5 -135.5z" />
<glyph unicode="&#x178;" horiz-adv-x="1288" d="M0 1475h229l416 -709l430 709h213l-540 -889v-586h-207v586zM307 1618v205h213v-205h-213zM770 1618v205h213v-205h-213z" />
<glyph unicode="&#x2c6;" horiz-adv-x="819" d="M57 1225l242 280h223l240 -280h-199l-153 168l-154 -168h-199z" />
<glyph unicode="&#x2dc;" horiz-adv-x="716" d="M61 1251v166q45 33 88.5 50.5t94.5 17.5q49 0 78.5 -12.5t54 -26.5t49.5 -26.5t63 -12.5q45 0 83 21.5t83 56.5v-166q-45 -33 -84 -50.5t-90 -17.5q-49 0 -78.5 12.5t-53 27t-49.5 26.5t-64 12q-43 0 -86.5 -21.5t-88.5 -56.5z" />
<glyph unicode="&#x2000;" horiz-adv-x="942" />
<glyph unicode="&#x2001;" horiz-adv-x="1884" />
<glyph unicode="&#x2002;" horiz-adv-x="942" />
<glyph unicode="&#x2003;" horiz-adv-x="1884" />
<glyph unicode="&#x2004;" horiz-adv-x="628" />
<glyph unicode="&#x2005;" horiz-adv-x="471" />
<glyph unicode="&#x2006;" horiz-adv-x="314" />
<glyph unicode="&#x2007;" horiz-adv-x="314" />
<glyph unicode="&#x2008;" horiz-adv-x="235" />
<glyph unicode="&#x2009;" horiz-adv-x="376" />
<glyph unicode="&#x200a;" horiz-adv-x="104" />
<glyph unicode="&#x2010;" horiz-adv-x="1105" d="M184 573v175h738v-175h-738z" />
<glyph unicode="&#x2011;" horiz-adv-x="1105" d="M184 573v175h738v-175h-738z" />
<glyph unicode="&#x2012;" horiz-adv-x="1105" d="M184 573v175h738v-175h-738z" />
<glyph unicode="&#x2013;" horiz-adv-x="942" d="M61 573v175h820v-175h-820z" />
<glyph unicode="&#x2014;" horiz-adv-x="1351" d="M61 573v175h1229v-175h-1229z" />
<glyph unicode="&#x2018;" horiz-adv-x="593" d="M178 930v207q0 88 23.5 149.5t62.5 101t86 60t96 27.5v-103q-57 -12 -92 -57t-35 -148h97v-237h-238z" />
<glyph unicode="&#x2019;" horiz-adv-x="593" d="M147 930v102q57 12 92 57.5t35 147.5h-96v238h238v-207q0 -88 -23.5 -149.5t-62.5 -101.5t-86 -60.5t-97 -26.5z" />
<glyph unicode="&#x201a;" horiz-adv-x="593" d="M147 -205q57 12 92 57.5t35 147.5h-96v238h238v-207q0 -88 -23.5 -149.5t-62.5 -101.5t-86 -60.5t-97 -26.5v102z" />
<glyph unicode="&#x201c;" horiz-adv-x="944" d="M178 930v207q0 88 23.5 149.5t62.5 101t86 60t96 27.5v-103q-57 -12 -92 -57t-35 -148h97v-237h-238zM528 930v207q0 88 23.5 149.5t62.5 101t86.5 60t96.5 27.5v-103q-57 -12 -92 -57t-35 -148h96v-237h-238z" />
<glyph unicode="&#x201d;" horiz-adv-x="944" d="M147 930v102q57 12 92 57.5t35 147.5h-96v238h238v-207q0 -88 -23.5 -149.5t-62.5 -101.5t-86 -60.5t-97 -26.5zM498 930v102q57 12 92 57.5t35 147.5h-97v238h238v-207q0 -88 -23.5 -149.5t-62.5 -101.5t-86 -60.5t-96 -26.5z" />
<glyph unicode="&#x201e;" horiz-adv-x="944" d="M147 -205q57 12 92 57.5t35 147.5h-96v238h238v-207q0 -88 -23.5 -149.5t-62.5 -101.5t-86 -60.5t-97 -26.5v102zM498 -205q57 12 92 57.5t35 147.5h-97v238h238v-207q0 -88 -23.5 -149.5t-62.5 -101.5t-86 -60.5t-96 -26.5v102z" />
<glyph unicode="&#x2022;" horiz-adv-x="614" d="M129 483v338h356v-338h-356z" />
<glyph unicode="&#x2026;" horiz-adv-x="1843" d="M188 0v238h238v-238h-238zM803 0v238h237v-238h-237zM1417 0v238h238v-238h-238z" />
<glyph unicode="&#x202f;" horiz-adv-x="376" />
<glyph unicode="&#x2039;" horiz-adv-x="636" d="M123 645l254 420h137l-160 -426l140 -455h-138z" />
<glyph unicode="&#x203a;" horiz-adv-x="636" d="M123 1065h137l254 -420l-233 -461h-138l140 455z" />
<glyph unicode="&#x205f;" horiz-adv-x="471" />
<glyph unicode="&#x20ac;" d="M6 481l41 160h84q-2 18 -2 37v70q0 16 2 32h-125l41 160h100q25 129 76 227.5t125 164t168 99t203 33.5q113 0 200 -31.5t150.5 -86t101 -127t50.5 -156.5h-213q-23 104 -94.5 165.5t-194.5 61.5q-143 0 -234.5 -85t-124.5 -265h498l-41 -160h-475v-102q0 -18 2 -37h432 l-41 -160h-373q72 -336 359 -336q113 0 185.5 58.5t101.5 173.5h215q-18 -86 -59.5 -160t-104 -129t-148.5 -87t-194 -32q-223 0 -371.5 130t-195.5 382h-144z" />
<glyph unicode="&#x2122;" horiz-adv-x="1720" d="M51 1339v136h932l174 -615l164 615h246v-811h-150v655l-182 -655h-162l-194 655v-655h-146v675h-278v-675h-158v675h-246z" />
<glyph unicode="&#x25fc;" horiz-adv-x="1064" d="M0 0v1065h1065v-1065h-1065z" />
<glyph unicode="&#xfb01;" horiz-adv-x="1091" />
<glyph unicode="&#xfb02;" horiz-adv-x="1122" />
<glyph unicode="&#xfb03;" horiz-adv-x="1679" />
<glyph unicode="&#xfb04;" horiz-adv-x="1710" />
</font>
</defs>
</svg>
