<?xml version="1.0" standalone="no"?>
<!DOCTYPE svg PUBLIC "-//W3C//DTD SVG 1.1//EN" "http://www.w3.org/Graphics/SVG/1.1/DTD/svg11.dtd" >
<svg xmlns="http://www.w3.org/2000/svg">
<metadata></metadata>
<defs>
<font id="ciscosansttbold" horiz-adv-x="1228" >
<font-face units-per-em="2048" ascent="1618" descent="-430" />
<missing-glyph horiz-adv-x="532" />
<glyph horiz-adv-x="2048" />
<glyph horiz-adv-x="2048" />
<glyph unicode="&#xd;" horiz-adv-x="532" />
<glyph unicode=" "  horiz-adv-x="532" />
<glyph unicode="&#x09;" horiz-adv-x="532" />
<glyph unicode="&#xa0;" horiz-adv-x="532" />
<glyph unicode="!" horiz-adv-x="634" d="M115 1505h405l-51 -1013h-303zM135 0v322h363v-322h-363z" />
<glyph unicode="&#x22;" d="M154 1317v188h266v-188l-31 -313h-205zM522 1317v188h266v-188l-30 -313h-205z" />
<glyph unicode="#" d="M82 328v225h135l29 328h-123v225h143l29 328h264l-29 -328h236l29 328h264l-29 -328h117v-225h-137l-29 -328h125v-225h-143l-29 -328h-264l28 328h-235l-29 -328h-264l29 328h-117zM481 553h236l28 328h-235z" />
<glyph unicode="$" d="M0 432h326q16 -96 85.5 -160.5t215.5 -64.5q111 0 183.5 36t72.5 126q0 53 -20.5 89t-63.5 60.5t-108.5 43t-158.5 38.5q-92 20 -178 48t-153.5 76t-107.5 123t-40 191q0 176 105.5 282.5t320.5 133.5v246h264v-242q121 -14 203 -55t132 -96.5t76 -122t36 -129.5h-322 q-16 96 -87.5 135t-164.5 39q-45 0 -84.5 -6t-68.5 -23.5t-46.5 -46.5t-17.5 -74q0 -43 14.5 -70.5t48.5 -47t86 -34t130 -30.5q106 -23 205.5 -55.5t176.5 -86t123 -135t46 -202.5q0 -80 -25.5 -154t-83 -134t-149.5 -102t-228 -55v-249h-264v253q-135 18 -223 67.5 t-141.5 114t-80 136.5t-34.5 137z" />
<glyph unicode="%" horiz-adv-x="1636" d="M41 1118q0 160 92 253t266 93t266.5 -93t92.5 -253t-92.5 -253t-266.5 -93t-266 93t-92 253zM258 1118q0 -94 37 -140t104 -46q68 0 105 46t37 140t-37 140.5t-105 46.5t-104.5 -46.5t-36.5 -140.5zM342 0l700 1434h254l-700 -1434h-254zM879 313q0 160 92 253t266 93 t266 -93t92 -253t-92 -253t-266 -93t-266 93.5t-92 252.5zM1096 313q0 -94 36.5 -140t104.5 -46t104.5 46t36.5 140t-36.5 140.5t-104.5 46.5t-104.5 -46t-36.5 -141z" />
<glyph unicode="&#x26;" horiz-adv-x="1402" d="M82 358q0 68 17.5 121t51 98.5t83 85t110.5 80.5q-100 86 -150.5 171t-50.5 200q0 61 25 123.5t78 113t139 82t209 31.5t207 -29.5t136 -76.5t75.5 -106.5t23.5 -116.5q0 -70 -20.5 -126.5t-57 -104.5t-88 -91t-112.5 -84l225 -192q14 47 23.5 94t15.5 94l299 -39 q-10 -90 -38 -183t-75 -179l174 -164l-206 -191l-142 133q-74 -61 -179 -97t-222 -36q-145 0 -248.5 30t-171.5 82t-99.5 122.5t-31.5 154.5zM430 381q0 -92 62.5 -136t154.5 -44q55 0 110.5 20.5t92.5 57.5l-311 276q-61 -51 -85 -89t-24 -85zM451 1114q0 -53 25.5 -98 t94.5 -105q98 70 131 117t33 100q0 66 -36.5 101t-102.5 35q-76 0 -110.5 -40t-34.5 -110z" />
<glyph unicode="'" horiz-adv-x="552" d="M143 1317v188h267v-188l-31 -313h-205z" />
<glyph unicode="(" horiz-adv-x="696" d="M72 655q0 156 29.5 302.5t76.5 275.5t104.5 237.5t112.5 188.5h271q-156 -281 -224.5 -524.5t-68.5 -479.5q0 -119 16.5 -237.5t52 -241.5t91 -253t133.5 -271h-271q-55 80 -112.5 188.5t-104.5 237.5t-76.5 274.5t-29.5 302.5z" />
<glyph unicode=")" horiz-adv-x="696" d="M31 -348q78 141 133 271t91 253t52.5 241.5t16.5 237.5q0 236 -69 479.5t-224 524.5h270q55 -80 112.5 -188.5t104.5 -237.5t77 -275.5t30 -302.5q0 -158 -30 -303t-77 -274t-104.5 -237.5t-112.5 -188.5h-270z" />
<glyph unicode="*" horiz-adv-x="962" d="M70 1098l90 270l229 -123l-61 260h282l-47 -264l236 127l90 -270l-268 -21l190 -180l-229 -168l-103 244l-102 -244l-230 168l189 180z" />
<glyph unicode="+" d="M164 535v251h317v324h264v-324h320v-251h-320v-326h-264v326h-317z" />
<glyph unicode="," horiz-adv-x="552" d="M74 -215q78 16 124 69.5t46 145.5h-129v322h362v-261q0 -119 -38 -198.5t-97 -130.5t-131 -76t-137 -31v160z" />
<glyph unicode="-" horiz-adv-x="1105" d="M164 535v251h778v-251h-778z" />
<glyph unicode="." horiz-adv-x="591" d="M115 0v322h362v-322h-362z" />
<glyph unicode="/" horiz-adv-x="696" d="M0 -184l414 1689h282l-413 -1689h-283z" />
<glyph unicode="0" d="M70 713q0 199 37.5 342t108.5 233t171 133t227 43q125 0 226.5 -43t172 -133t108.5 -233.5t38 -341.5q0 -195 -39 -335t-109.5 -231.5t-171 -134.5t-225.5 -43t-225 43t-171 134.5t-109.5 231.5t-38.5 335zM399 713q0 -156 14.5 -257.5t42 -162t67.5 -84t91 -23.5 t91 23.5t68 84t42 162t14 257.5t-14 259t-42 164.5t-67.5 87t-91.5 25.5q-51 0 -91 -25.5t-67.5 -87t-42 -165t-14.5 -258.5z" />
<glyph unicode="1" d="M203 971v289l329 174h318v-1434h-320v1139z" />
<glyph unicode="2" d="M90 1040q14 104 65.5 183.5t126 132.5t168 80.5t191.5 27.5q106 0 196.5 -29.5t157 -84t103.5 -129t37 -166.5q0 -84 -20.5 -150.5t-67 -132t-119 -141.5t-178.5 -178l-199 -193h573v-260h-993v260l346 340q94 92 157.5 156.5t102.5 115t55.5 92.5t16.5 91q0 82 -48 127 t-130 45q-72 0 -128.5 -45t-78.5 -142h-334z" />
<glyph unicode="3" d="M72 367h317q10 -74 60.5 -120t140.5 -46t147.5 52t57.5 157q0 123 -65.5 179t-182.5 56h-125v219h141q39 0 77 13.5t65.5 38t45 61.5t17.5 84q0 84 -49 129t-121 45q-152 0 -182 -141h-312q27 170 163 270t349 100q94 0 181.5 -22.5t152 -68.5t103.5 -116.5t39 -169.5 q0 -59 -24 -112t-63.5 -95t-94 -71t-113.5 -39q66 -10 125 -39q61 -31 105 -78t70.5 -108.5t26.5 -128.5q0 -100 -37.5 -183t-107.5 -141.5t-168 -90.5t-217 -32q-113 0 -206 31t-160.5 84t-107.5 126t-48 157z" />
<glyph unicode="4" d="M84 270v271l602 893h322v-928h161v-236h-161v-270h-303v270h-621zM381 506h324v500z" />
<glyph unicode="5" d="M92 369h311q18 -86 68.5 -127t128.5 -41q90 0 152.5 67.5t62.5 206.5q0 141 -57.5 205.5t-161.5 64.5q-47 0 -100.5 -23.5t-94.5 -64.5h-251l36 777h856v-226h-569l-18 -321q109 68 241 67q98 0 180 -30.5t141.5 -91t93.5 -147.5t34 -198q0 -121 -43 -217t-118 -162.5 t-175 -102.5t-215 -36q-203 0 -338 103.5t-164 296.5z" />
<glyph unicode="6" d="M74 670q0 242 50 395.5t132 242.5t184.5 122.5t206.5 33.5q193 0 319 -82t173 -231h-346q-35 98 -148 98q-43 0 -83 -19.5t-72.5 -68.5t-57 -132t-35.5 -210q47 66 129.5 113t186.5 47q100 0 182 -32t140.5 -93t90 -150.5t31.5 -203.5q0 -115 -37 -211t-106.5 -168 t-166.5 -112t-220 -40q-129 0 -231.5 45t-174 133.5t-109.5 219.5t-38 303zM412 473q0 -39 9 -87t32.5 -91t63.5 -71.5t101 -28.5q98 0 158 79.5t60 204.5q0 139 -52.5 207t-150.5 68q-53 0 -95 -22.5t-70 -60.5t-42 -89.5t-14 -108.5z" />
<glyph unicode="7" d="M123 1192v242h993v-250l-530 -1184h-336l553 1192h-680z" />
<glyph unicode="8" d="M72 381q0 143 67.5 226t194.5 138q-49 27 -91 58t-72 69.5t-47.5 89t-17.5 117.5q0 106 43.5 179t114 119t163.5 66.5t191 20.5q82 0 171.5 -17t163 -59t120.5 -113t47 -175q0 -63 -19.5 -114.5t-52 -93.5t-74.5 -73t-87 -55q49 -27 98 -61.5t87 -79.5t61.5 -101.5 t23.5 -128.5q0 -94 -36 -172t-104.5 -134t-168.5 -87t-230 -31q-129 0 -231 30t-172 84t-106.5 130t-36.5 168zM410 393q0 -55 19.5 -93t49 -62.5t65.5 -34.5t68 -10q33 0 70 10t67.5 34.5t50 62.5t19.5 93q0 61 -22.5 104.5t-58.5 71t-80 46t-85 30.5q-63 -31 -113 -88 t-50 -164zM420 1090q0 -53 20.5 -92.5t53 -65t71.5 -43t74 -27.5q68 35 118 89.5t50 138.5q0 51 -19.5 83.5t-49 53t-62.5 29t-58 8.5t-59.5 -6.5t-65 -26t-52 -53t-21.5 -88.5z" />
<glyph unicode="9" d="M70 958q0 123 45 218.5t119.5 159t171 96t198.5 32.5q125 0 226.5 -40t173 -125t111.5 -217t40 -318q0 -233 -47 -387t-125 -244t-179.5 -127t-209.5 -37q-201 0 -332 92.5t-174 251.5h346q14 -66 55 -97.5t107 -31.5q43 0 80 18.5t67.5 66.5t53 129t32.5 206 q-45 -63 -119.5 -106t-174.5 -43q-119 0 -206 36.5t-144.5 103.5t-86 159t-28.5 204zM391 969q0 -141 53.5 -215t157.5 -74q55 0 96 21.5t67 59.5t39 89.5t13 110.5q0 49 -9 98t-32.5 89t-63.5 65.5t-102 25.5q-59 0 -100 -22.5t-67.5 -59.5t-39 -86t-12.5 -102z" />
<glyph unicode=":" horiz-adv-x="591" d="M115 0v322h362v-322h-362zM115 743v322h362v-322h-362z" />
<glyph unicode=";" horiz-adv-x="591" d="M74 -215q78 16 124 69.5t46 145.5h-129v322h362v-261q0 -119 -38 -198.5t-97 -130.5t-131 -76t-137 -31v160zM115 743v322h362v-322h-362z" />
<glyph unicode="&#x3c;" d="M164 543v239l901 430v-303l-578 -239v-15l578 -239v-303z" />
<glyph unicode="=" d="M164 324v251h901v-251h-901zM164 743v252h901v-252h-901z" />
<glyph unicode="&#x3e;" d="M164 113v303l577 239v15l-577 239v303l901 -430v-239z" />
<glyph unicode="?" horiz-adv-x="1122" d="M94 1096q4 84 44 158.5t106.5 130t155.5 88t194 32.5q221 0 340 -97t119 -251q0 -61 -12.5 -110.5t-40 -100.5t-73.5 -111.5t-116 -144.5q-41 -49 -50 -103.5t-9 -115.5h-322q0 68 3 117t15.5 92t37 85t67.5 97q51 63 82 105.5t47 71t21.5 51t5.5 49.5q0 127 -119 127 q-55 0 -94 -41t-56 -129h-346zM412 0v322h362v-322h-362z" />
<glyph unicode="@" horiz-adv-x="1873" d="M82 645q0 160 38 285t103.5 221t152.5 162.5t187.5 109.5t207 62.5t208.5 19.5q172 0 321.5 -46t258 -134t171 -217t62.5 -297q0 -145 -35 -260t-94 -193.5t-141 -120.5t-174 -42q-100 0 -161 54t-69 124q-12 -25 -37.5 -53.5t-62.5 -51t-84 -38t-100 -15.5 q-84 0 -145.5 30.5t-101.5 83t-59.5 124t-19.5 151.5q0 123 36 221.5t96 167t139 104.5t163 36q57 0 103.5 -25t62.5 -64l37 74h209l-70 -540q-4 -33 -7 -61t-3 -40q0 -59 19.5 -75.5t49.5 -16.5q88 0 128 115.5t40 308.5q0 238 -128 363.5t-404 125.5q-102 0 -211 -31.5 t-199 -108.5t-148.5 -203t-58.5 -312q0 -172 51.5 -291t137.5 -191.5t197.5 -104t232.5 -31.5q109 0 183.5 17t140.5 38l55 -201q-63 -23 -160.5 -44t-234.5 -21q-166 0 -325 51t-283 155.5t-199.5 260t-75.5 364.5zM778 571q0 -29 4 -58.5t16.5 -53t33 -37.5t55.5 -14 q47 0 87 45t54 149l19 143q4 20 4 35v35q0 23 -4.5 46.5t-14.5 42t-27.5 29.5t-46.5 11q-80 0 -130 -90t-50 -283z" />
<glyph unicode="A" horiz-adv-x="1435" d="M0 0l524 1475h383l529 -1475h-363l-104 338h-525l-104 -338h-340zM514 563h387l-192 629z" />
<glyph unicode="B" horiz-adv-x="1325" d="M123 0v1475h491q313 0 452.5 -96.5t139.5 -295.5q0 -59 -22.5 -108t-59.5 -88t-85 -65.5t-101 -41.5q147 -29 236.5 -118t89.5 -236q0 -106 -34 -186t-107.5 -133.5t-190.5 -80t-281 -26.5h-528zM467 225h199q135 0 191 50.5t56 160.5q0 111 -61 169.5t-176 58.5h-209 v-439zM467 877h178q102 0 159.5 49t57.5 147q0 88 -61.5 132t-161.5 44h-172v-372z" />
<glyph unicode="C" horiz-adv-x="1517" d="M82 741q0 186 49 329.5t140 240t221.5 145.5t291.5 49q129 0 239 -33.5t195 -98t141 -160t77 -220.5h-344q-29 139 -109 206t-199 67q-78 0 -140 -30t-108.5 -93.5t-71 -162.5t-24.5 -239q0 -145 27 -246.5t72 -165t106 -91t129 -27.5q145 0 227 79t95 253h350 q-35 -285 -207 -429.5t-471 -144.5q-147 0 -273 48.5t-217.5 145.5t-143.5 241.5t-52 336.5z" />
<glyph unicode="D" horiz-adv-x="1492" d="M123 0v1475h553q358 0 546.5 -180.5t188.5 -557.5q0 -195 -49 -334t-143.5 -228t-230.5 -132t-308 -43h-557zM467 240h213q88 0 159.5 28.5t122 89t77 154.5t26.5 225q0 260 -105.5 380t-283.5 120h-209v-997z" />
<glyph unicode="E" horiz-adv-x="1189" d="M123 0v1475h995v-252h-651v-361h592v-237h-592v-377h651v-248h-995z" />
<glyph unicode="F" horiz-adv-x="1120" d="M123 0v1475h936v-248h-592v-393h528v-238h-528v-596h-344z" />
<glyph unicode="G" horiz-adv-x="1533" d="M82 743q0 188 51 331t145.5 239t226.5 144t296 48q125 0 230.5 -30.5t187 -89t136 -142.5t77.5 -190h-342q-29 111 -104 162t-185 51q-78 0 -143.5 -29t-113.5 -91.5t-76 -161.5t-28 -241q0 -141 28 -242.5t77 -166t114.5 -94t143.5 -29.5q72 0 132 20.5t105 58.5t70 90 t25 114v104h-349v223h646v-821h-222l-49 137q-66 -74 -171 -121t-253 -47q-133 0 -252.5 47t-209 142.5t-141.5 241t-52 343.5z" />
<glyph unicode="H" horiz-adv-x="1480" d="M123 0v1475h344v-607h549v607h342v-1475h-342v623h-549v-623h-344z" />
<glyph unicode="I" horiz-adv-x="589" d="M123 0v1475h344v-1475h-344z" />
<glyph unicode="J" horiz-adv-x="1157" d="M41 436h328q2 -63 19.5 -106t43 -68.5t55 -37t60.5 -11.5q33 0 63.5 10t53 37t37 72t14.5 112v1031h329v-1008q0 -229 -120.5 -363.5t-368.5 -134.5q-92 0 -179 24.5t-158 80t-118 144.5t-59 218z" />
<glyph unicode="K" horiz-adv-x="1466" d="M123 0v1475h344v-619l520 619h402l-617 -691l694 -784h-450l-549 643v-643h-344z" />
<glyph unicode="L" horiz-adv-x="1224" d="M123 0v1475h344v-1217h717v-258h-1061z" />
<glyph unicode="M" horiz-adv-x="1828" d="M123 0v1475h393l399 -1151l388 1151h403v-1475h-311v1016l-346 -1016h-281l-354 1014v-1014h-291z" />
<glyph unicode="N" horiz-adv-x="1476" d="M123 0v1475h381l557 -1008v1008h293v-1475h-355l-581 1047v-1047h-295z" />
<glyph unicode="O" horiz-adv-x="1605" d="M82 735q0 211 61.5 357.5t163 238.5t231.5 133t265 41t265 -40t231.5 -130t163 -236.5t61.5 -361.5q0 -211 -62.5 -357.5t-164 -237.5t-230.5 -132t-264 -41t-265 39t-231.5 129t-163 236.5t-61.5 361.5zM430 735q0 -150 33 -250t85 -160.5t119.5 -86t135.5 -25.5 q70 0 137.5 25.5t119.5 87t84 162t32 249.5q0 150 -33 251.5t-85 162.5t-119 87t-136 26q-72 0 -138.5 -27t-118.5 -88.5t-84 -162.5t-32 -251z" />
<glyph unicode="P" horiz-adv-x="1363" d="M123 0v1475h532q336 0 486.5 -122t150.5 -370q0 -254 -155.5 -371.5t-468.5 -117.5h-201v-494h-344zM467 729h205q129 0 197.5 63.5t68.5 190.5q0 137 -71.5 196.5t-207.5 59.5h-192v-510z" />
<glyph unicode="Q" horiz-adv-x="1619" d="M82 735q0 211 61.5 357.5t163 238.5t231.5 133t265 41t265 -40t231.5 -130t163 -236.5t61.5 -361.5q0 -213 -61.5 -358.5t-166.5 -237.5l242 -270l-276 -195l-199 332q-61 -20 -127.5 -29.5t-132.5 -9.5q-135 0 -265 39t-231.5 129t-163 236.5t-61.5 361.5zM430 735 q0 -150 33 -250t85 -160.5t119.5 -86t135.5 -25.5q70 0 137.5 25.5t119.5 87t84 162t32 249.5q0 150 -33 251.5t-85 162.5t-119 87t-136 26q-72 0 -138.5 -27t-118.5 -88.5t-84 -162.5t-32 -251z" />
<glyph unicode="R" horiz-adv-x="1357" d="M82 0v1475h543q311 0 467.5 -119t156.5 -348q0 -154 -71.5 -254.5t-221.5 -155.5l392 -598h-408l-326 539h-188v-539h-344zM426 776h215q111 0 181.5 59.5t70.5 172.5q0 121 -66.5 175t-197.5 54h-203v-461z" />
<glyph unicode="S" horiz-adv-x="1380" d="M61 434h326q16 -98 95 -161.5t227 -63.5q150 0 212 46t62 124q0 57 -27.5 95t-77 64.5t-117 45t-147.5 37.5q-92 20 -182 50.5t-160.5 83t-113.5 130.5t-43 194q0 197 148.5 311.5t443.5 114.5q260 0 408.5 -108.5t176.5 -300.5h-321q-12 84 -87 129t-186 45 q-131 0 -184 -41t-53 -109q0 -90 72.5 -130t226.5 -72q106 -23 208.5 -59t182.5 -93t129 -142t49 -206q0 -90 -36 -171t-111.5 -142.5t-194 -98.5t-282.5 -37q-285 0 -449 126t-195 339z" />
<glyph unicode="T" horiz-adv-x="1234" d="M10 1217v258h1215v-258h-439v-1217h-344v1217h-432z" />
<glyph unicode="U" horiz-adv-x="1466" d="M113 494v981h344v-1004q0 -125 71.5 -191.5t206.5 -66.5t212 66.5t77 191.5v1004h330v-981q0 -248 -161 -386.5t-460 -138.5t-459.5 138.5t-160.5 386.5z" />
<glyph unicode="V" horiz-adv-x="1353" d="M0 1475h354l332 -1207l336 1207h332l-471 -1475h-412z" />
<glyph unicode="W" horiz-adv-x="2017" d="M0 1475h356l224 -1090l247 1090h383l269 -1096l213 1096h325l-329 -1475h-406l-274 1139l-263 -1139h-391z" />
<glyph unicode="X" horiz-adv-x="1435" d="M10 0l522 764l-489 711h408l290 -441l291 441h352l-481 -689l522 -786h-415l-318 500l-315 -500h-367z" />
<glyph unicode="Y" horiz-adv-x="1368" d="M0 1475h369l323 -601l348 601h328l-522 -887v-588h-324v588z" />
<glyph unicode="Z" horiz-adv-x="1269" d="M51 0v248l776 983h-737v244h1129v-242l-779 -989h766v-244h-1155z" />
<glyph unicode="[" horiz-adv-x="696" d="M123 -348v2007h512v-211h-234v-1585h234v-211h-512z" />
<glyph unicode="\" horiz-adv-x="696" d="M0 1505h283l413 -1689h-282z" />
<glyph unicode="]" horiz-adv-x="696" d="M61 -137h234v1585h-234v211h512v-2007h-512v211z" />
<glyph unicode="^" horiz-adv-x="1064" d="M53 819l326 656h307l326 -656h-305l-175 408l-174 -408h-305z" />
<glyph unicode="_" horiz-adv-x="1114" d="M0 -53h1114v-252h-1114v252z" />
<glyph unicode="`" horiz-adv-x="675" d="M61 1475h347l206 -281h-247z" />
<glyph unicode="a" horiz-adv-x="1187" d="M72 307q0 61 21.5 113.5t72.5 94.5t133 74t203 52l264 43v47q0 78 -44 118t-126 40q-78 0 -121 -36t-55 -95h-328q39 160 169 249t345 89q223 0 351 -103.5t128 -287.5v-705h-249l-39 111q-53 -59 -139.5 -100.5t-213.5 -41.5q-82 0 -150.5 22.5t-117.5 65.5t-76.5 105.5 t-27.5 144.5zM391 322q1 -134 146 -134q109 0 169 60.5t60 144.5v117l-182 -37q-113 -23 -153 -59.5t-40 -91.5z" />
<glyph unicode="b" horiz-adv-x="1300" d="M113 0v1475h319v-510q57 59 138 95t184 36q106 0 194 -33t150.5 -98.5t96.5 -165t34 -230.5q0 -145 -38 -257.5t-105.5 -188.5t-159.5 -115t-201 -39q-94 0 -175 38t-136 104l-52 -111h-249zM422 545q0 -96 18.5 -162t50 -105.5t74.5 -57t94 -17.5q109 0 178.5 82 t69.5 256q0 172 -64.5 246.5t-172.5 74.5q-109 0 -178.5 -77.5t-69.5 -239.5z" />
<glyph unicode="c" horiz-adv-x="1208" d="M72 522q0 135 37.5 241.5t109.5 180.5t172.5 113t226.5 39q106 0 195.5 -26t158 -74t112.5 -113.5t61 -145.5h-336q-18 66 -68.5 104t-111.5 38q-102 0 -164 -83t-62 -280q0 -172 62.5 -251t150.5 -79q72 0 120 40t75 128h336q-18 -82 -60.5 -152.5t-108 -121.5 t-156.5 -81t-210 -30q-266 0 -403 142.5t-137 410.5z" />
<glyph unicode="d" horiz-adv-x="1300" d="M72 522q0 135 35.5 241.5t100 180.5t154 113t193.5 39t182 -35t131 -96v510h320v-1475h-250l-53 117q-57 -66 -140 -107t-186 -41q-109 0 -198 38t-153.5 108.5t-100 174t-35.5 232.5zM393 524q0 -170 67.5 -245.5t178.5 -75.5q53 0 97 17.5t76 56t49.5 101t17.5 152.5 q0 100 -21.5 165t-55.5 102t-77 51t-86 14q-113 0 -179.5 -85t-66.5 -253z" />
<glyph unicode="e" horiz-adv-x="1232" d="M72 532q0 135 39 241t111.5 177.5t174 108.5t226.5 37q127 0 229 -39t173 -119t108.5 -201t37.5 -282h-776q16 -141 83 -201.5t171 -60.5q76 0 123 31.5t62 84.5h325q-18 -74 -57 -136t-103.5 -107.5t-155.5 -71t-210 -25.5q-125 0 -228.5 38t-177 110.5t-114.5 177 t-41 237.5zM395 641h449q-6 135 -66 194.5t-162 59.5q-92 0 -149 -58.5t-72 -195.5z" />
<glyph unicode="f" horiz-adv-x="778" d="M31 844v221h162v78q0 178 93 270t269 92q78 0 137.5 -11t106.5 -24v-225q-49 12 -90 19.5t-70 7.5q-127 0 -127 -117v-90h233v-221h-233v-844h-319v844h-162z" />
<glyph unicode="g" horiz-adv-x="1280" d="M72 553q0 129 36.5 230.5t102 171t155 105.5t195.5 36q92 0 171 -33t138 -96l56 98h241v-1008q0 -104 -35.5 -189t-104.5 -144.5t-168 -91t-224 -31.5q-254 0 -383 89t-154 244h326q29 -63 76 -86.5t141 -23.5q102 0 154.5 51t52.5 162v94q-57 -47 -130 -73.5t-159 -26.5 q-102 0 -190 34.5t-155 101t-104.5 164t-37.5 222.5zM393 555q0 -152 68.5 -221.5t177.5 -69.5q115 0 177.5 73t62.5 218q0 160 -64.5 233.5t-175.5 73.5q-109 0 -177.5 -76.5t-68.5 -230.5z" />
<glyph unicode="h" horiz-adv-x="1230" d="M113 0v1475h319v-506q51 57 125 92t178 35q186 0 289.5 -104.5t103.5 -303.5v-688h-319v676q0 104 -43 149t-121 45q-92 0 -152.5 -61t-60.5 -168v-641h-319z" />
<glyph unicode="i" horiz-adv-x="544" d="M100 1202v273h344v-273h-344zM113 0v1065h319v-1065h-319z" />
<glyph unicode="j" horiz-adv-x="567" d="M-111 -145q35 -10 70 -14.5t57 -4.5q55 0 81 25.5t26 85.5v1118h319v-1124q0 -154 -90 -247t-264 -93q-47 0 -102.5 8t-96.5 22v224zM111 1202v273h344v-273h-344z" />
<glyph unicode="k" horiz-adv-x="1198" d="M113 0v1475h319v-793l361 383h372l-434 -444l488 -621h-410l-377 489v-489h-319z" />
<glyph unicode="l" horiz-adv-x="544" d="M113 0v1475h319v-1475h-319z" />
<glyph unicode="m" horiz-adv-x="1884" d="M113 0v1065h225l53 -117q55 66 135 107t191 41q104 0 187 -35t136 -113q59 66 147.5 107t205.5 41q86 0 156.5 -22.5t122.5 -71t81 -125t29 -185.5v-692h-320v700q0 86 -46 128t-124 42q-47 0 -82.5 -17t-58.5 -47t-34 -70t-11 -85v-651h-320v700q0 86 -46 128t-124 42 q-86 0 -135 -61t-49 -143v-666h-319z" />
<glyph unicode="n" horiz-adv-x="1230" d="M113 0v1065h264l31 -117q51 66 130.5 107t194.5 41q186 0 290.5 -106.5t104.5 -301.5v-688h-319v676q0 106 -44 150t-120 44q-92 0 -152.5 -64.5t-60.5 -174.5v-631h-319z" />
<glyph unicode="o" horiz-adv-x="1269" d="M72 537q0 276 146.5 417.5t416.5 141.5q268 0 415.5 -141.5t147.5 -417.5q0 -279 -146.5 -423.5t-416.5 -144.5q-262 0 -412.5 144.5t-150.5 423.5zM401 537q0 -193 61.5 -273t174.5 -80q117 0 175 79t58 274q0 98 -15 163.5t-45 105.5t-74 57.5t-101 17.5 q-119 0 -176.5 -75.5t-57.5 -268.5z" />
<glyph unicode="p" horiz-adv-x="1300" d="M113 -369v1434h241l62 -119q57 66 142 108t196 42q106 0 194 -36t150.5 -105.5t96.5 -172t34 -233.5q0 -137 -39 -244.5t-106.5 -182.5t-160 -114t-198.5 -39q-88 0 -163 33t-130 90v-461h-319zM422 545q0 -96 18.5 -162t50 -105.5t74.5 -57t94 -17.5q109 0 178.5 82 t69.5 256q0 172 -64.5 246.5t-172.5 74.5q-109 0 -178.5 -77.5t-69.5 -239.5z" />
<glyph unicode="q" horiz-adv-x="1300" d="M72 522q0 135 35.5 241.5t100 180.5t154 113t193.5 39q111 0 192.5 -40t137.5 -112l61 121h242v-1434h-320v467q-57 -59 -136 -94t-173 -35q-109 0 -198 38t-153.5 108.5t-100 174t-35.5 232.5zM393 524q0 -170 67.5 -245.5t178.5 -75.5q53 0 97 17.5t76 56t49.5 101 t17.5 152.5q0 100 -21.5 165t-55.5 102t-77 51t-86 14q-113 0 -179.5 -85t-66.5 -253z" />
<glyph unicode="r" horiz-adv-x="813" d="M113 0v1065h266l35 -162q88 193 278 193q35 0 67 -4.5t54 -10.5v-297q-29 10 -62.5 15.5t-74.5 5.5q-47 0 -91 -23.5t-78 -68.5t-54.5 -114t-20.5 -157v-442h-319z" />
<glyph unicode="s" horiz-adv-x="1132" d="M51 301h322q10 -51 60 -83t126 -32q96 0 137 27t41 74q0 27 -12 45t-42 31.5t-78 25.5t-122 31q-78 18 -147.5 42.5t-122.5 63.5t-85 96.5t-32 141.5q0 150 118 241t353 91q207 0 334 -86t156 -240h-322q-10 49 -54 79t-122 30t-110.5 -24t-32.5 -64q0 -23 9 -38.5 t33.5 -29.5t67.5 -27.5t111 -29.5q74 -18 148.5 -40t136 -59t100.5 -93t39 -144q0 -80 -31 -145.5t-92 -113.5t-155.5 -75t-221.5 -27q-219 0 -351 92.5t-159 239.5z" />
<glyph unicode="t" horiz-adv-x="753" d="M20 844v221h162l21 256h299v-256h219v-221h-219v-557q0 -45 28.5 -67.5t75.5 -22.5q18 0 51 5t66 13v-217q-43 -12 -94 -20.5t-101 -8.5q-162 0 -254 84t-92 244v547h-162z" />
<glyph unicode="u" horiz-adv-x="1220" d="M102 373v692h320v-705q0 -80 44 -122.5t126 -42.5q84 0 140 60t56 171v639h320v-1065h-264l-31 113q-55 -68 -136 -106t-185 -38q-184 0 -287 103.5t-103 300.5z" />
<glyph unicode="v" horiz-adv-x="1159" d="M10 1065h346l234 -829l229 829h330l-369 -1065h-403z" />
<glyph unicode="w" horiz-adv-x="1761" d="M20 1065h330l166 -801l189 801h385l165 -805l183 805h303l-293 -1065h-395l-168 778l-191 -778h-387z" />
<glyph unicode="x" horiz-adv-x="1175" d="M10 0l398 561l-377 504h372l187 -279l186 279h334l-352 -500l407 -565h-385l-209 330l-221 -330h-340z" />
<glyph unicode="y" horiz-adv-x="1169" d="M10 1065h340l236 -832l254 832h319l-381 -1088q-37 -104 -75.5 -175.5t-87 -115.5t-105.5 -64.5t-131 -20.5q-82 0 -172 22v223q49 -12 79.5 -15t51.5 -3q55 0 90 40t55 132h-90z" />
<glyph unicode="z" horiz-adv-x="1038" d="M41 0v248l559 581h-522v236h919v-248l-553 -581h533v-236h-936z" />
<glyph unicode="{" horiz-adv-x="696" d="M31 537v237q90 0 131 47t41 133v322q0 127 30.5 202.5t89 115.5t142.5 52.5t190 12.5v-211q-45 0 -76.5 -5t-52 -22.5t-30 -49.5t-9.5 -85v-328q0 -72 -14 -123t-38.5 -85.5t-60.5 -57t-79 -37.5q43 -14 79 -36.5t60.5 -58.5t38.5 -86t14 -122v-327q0 -53 9.5 -85 t30 -49.5t52 -22.5t76.5 -5v-211q-106 0 -190 12t-142.5 52t-89 116t-30.5 203v321q0 86 -41 133.5t-131 47.5z" />
<glyph unicode="|" horiz-adv-x="696" d="M209 -287v1895h278v-1895h-278z" />
<glyph unicode="}" horiz-adv-x="696" d="M41 -137q45 0 77 5t52 22.5t29.5 49t9.5 85.5v327q0 72 14.5 122t39 86t60 58.5t78.5 36.5q-43 14 -78.5 37t-60 57.5t-39 86t-14.5 122.5v328q0 53 -9.5 85t-29.5 49.5t-52 22.5t-77 5v211q106 0 190 -12.5t142.5 -52.5t89.5 -115.5t31 -202.5v-322q0 -86 40.5 -133 t131.5 -47v-237q-90 0 -131 -47.5t-41 -133.5v-321q0 -127 -31 -203t-89.5 -116t-142.5 -52t-190 -12v211z" />
<glyph unicode="~" d="M164 496v260q39 31 109.5 56.5t156.5 25.5q63 0 112.5 -17.5t93.5 -39t86 -39t91 -17.5q78 0 142.5 31.5t109.5 70.5v-260q-39 -31 -109.5 -56.5t-156.5 -25.5q-63 0 -112.5 17.5t-93.5 39t-86 39t-91 17.5q-78 0 -142.5 -31.5t-109.5 -70.5z" />
<glyph unicode="&#xa1;" horiz-adv-x="634" d="M115 -369l51 1014h303l51 -1014h-405zM135 815v322h363v-322h-363z" />
<glyph unicode="&#xa2;" d="M78 522q0 233 109.5 377.5t304.5 183.5v269h264v-269q160 -29 263 -120t132 -226h-336q-18 66 -68.5 104t-111.5 38q-102 0 -163.5 -83t-61.5 -280q0 -172 62.5 -251t150.5 -79q72 0 120 40t74 128h336q-33 -139 -130 -241.5t-267 -130.5v-258h-264v256 q-205 33 -309.5 171t-104.5 371z" />
<glyph unicode="&#xa3;" d="M78 618v191h112v195q0 227 119 343.5t350 116.5q106 0 191.5 -28.5t149 -77.5t101.5 -116.5t50 -145.5h-307q-16 66 -56 97.5t-108 31.5q-78 0 -118 -53.5t-40 -172.5v-190h414v-191h-416v-147q0 -74 -26.5 -126t-67.5 -87h690v-258h-1022v258q66 20 81 68.5t15 132.5 v159h-112z" />
<glyph unicode="&#xa4;" d="M53 322l121 120q-57 109 -57 254q0 72 14 133.5t41 114.5l-119 119l180 180l113 -115q59 35 130 53.5t136 18.5q66 0 137.5 -18.5t131.5 -53.5l114 115l181 -180l-119 -119q27 -53 41 -114.5t14 -133.5q0 -76 -15.5 -138t-43.5 -116l123 -120l-181 -181l-118 119 q-59 -35 -129 -51t-136 -16q-63 0 -131.5 16t-128.5 51l-119 -119zM369 696q0 -117 67.5 -187.5t177.5 -70.5q111 0 178.5 70.5t67.5 187.5t-67.5 187.5t-178.5 70.5t-178 -70.5t-67 -187.5z" />
<glyph unicode="&#xa5;" d="M-49 1434h368l304 -580l327 580h328l-410 -691h164v-190h-256v-96h256v-191h-256v-266h-323v266h-256v191h256v96h-256v190h163z" />
<glyph unicode="&#xa6;" horiz-adv-x="696" d="M209 -287v789h278v-789h-278zM209 819v789h278v-789h-278z" />
<glyph unicode="&#xa7;" d="M145 625q0 88 48.5 150.5t158.5 113.5q-74 47 -114.5 112.5t-40.5 151.5q0 82 32.5 140.5t89 96t132 55t161.5 17.5q106 0 185.5 -32.5t132.5 -83t80.5 -109.5t31.5 -115h-284q-10 51 -45 89t-95 38q-47 0 -78.5 -22.5t-31.5 -65.5q0 -27 11 -43t35 -29.5t58.5 -25.5 t81.5 -31q70 -29 139.5 -60.5t125 -74.5t90 -103.5t34.5 -142.5q0 -88 -48 -151.5t-156 -112.5q72 -43 110.5 -101.5t38.5 -135.5q0 -84 -33.5 -147.5t-92 -105.5t-136.5 -62.5t-164 -20.5q-104 0 -184 26.5t-135.5 71.5t-86 106.5t-34.5 131.5h284q10 -51 48 -87t104 -36 q47 0 83 23.5t36 64.5q0 27 -12.5 43t-36 29.5t-58.5 25.5t-82 31q-70 27 -138 59.5t-122.5 75.5t-88.5 102.5t-34 143.5zM459 659q0 -35 8 -59.5t32.5 -46t67.5 -40.5t113 -42q29 25 59.5 59.5t30.5 85.5q0 35 -9 60.5t-34 46t-69 40t-111 42.5q-29 -25 -58.5 -61 t-29.5 -85z" />
<glyph unicode="&#xa8;" horiz-adv-x="897" d="M61 1212v263h304v-263h-304zM532 1212v263h304v-263h-304z" />
<glyph unicode="&#xa9;" horiz-adv-x="1726" d="M80 737q0 203 69.5 347.5t181 238.5t251 138t280.5 44t280.5 -44t251 -138t181.5 -238.5t70 -347.5t-70 -347t-181.5 -238.5t-250.5 -138.5t-281 -44q-141 0 -280.5 44t-251 138.5t-181 239t-69.5 346.5zM289 737q0 -154 49 -266.5t130 -186t184.5 -110.5t209.5 -37 t210 37t184.5 110.5t130 186.5t49.5 266q0 154 -49.5 266.5t-130 186.5t-184 110.5t-210.5 36.5q-106 0 -209.5 -36.5t-184.5 -110.5t-130 -186.5t-49 -266.5zM449 733q0 211 113.5 329t311.5 118q166 0 276 -77t136 -202h-262q-12 49 -51 80t-90 31q-80 0 -127 -64.5 t-47 -218.5q0 -135 47 -196.5t118 -61.5q109 0 152 129h262q-16 -63 -48 -117.5t-83 -94.5t-121.5 -62.5t-165.5 -22.5q-197 0 -309 105.5t-112 324.5z" />
<glyph unicode="&#xaa;" horiz-adv-x="1075" d="M143 874q0 68 31 117t81 83t114.5 53.5t134.5 27.5l141 16v43q0 59 -28.5 82t-61.5 23q-39 0 -67.5 -20.5t-38.5 -63.5h-279q18 127 123.5 198.5t263.5 71.5q168 0 271.5 -83t103.5 -230v-563h-199l-43 88q-39 -47 -99.5 -80t-141.5 -33q-49 0 -103.5 13.5t-99.5 45 t-74 84t-29 127.5zM154 0v252h786v-252h-786zM430 883q0 -39 29 -60.5t76 -21.5q53 0 81.5 33.5t28.5 76.5v99l-84 -13q-78 -10 -104.5 -41.5t-26.5 -72.5z" />
<glyph unicode="&#xab;" horiz-adv-x="1116" d="M92 645l264 420h240l-190 -426l169 -455h-239zM520 645l264 420h240l-190 -426l170 -455h-240z" />
<glyph unicode="&#xac;" d="M164 535v251h901v-577h-264v326h-637z" />
<glyph unicode="&#xad;" horiz-adv-x="1105" d="M164 535v251h778v-251h-778z" />
<glyph unicode="&#xae;" horiz-adv-x="1277" d="M102 975q0 141 48.5 241.5t124 165t171 94t191.5 29.5q94 0 190.5 -29.5t174 -94t126 -165t48.5 -241.5t-48.5 -241.5t-126 -165t-174 -94.5t-190.5 -30q-96 0 -191.5 30t-171 94.5t-124 165t-48.5 241.5zM260 975q0 -111 33 -187.5t85 -126t119.5 -71t139.5 -21.5 q70 0 138.5 21.5t122.5 71t87 126t33 187.5t-33 187.5t-87 125.5t-122.5 70.5t-138.5 21.5q-72 0 -139.5 -21.5t-119.5 -70.5t-85 -125.5t-33 -187.5zM436 719v541h201q94 0 161.5 -38t67.5 -132q0 -66 -30.5 -101t-77.5 -51l145 -219h-151l-119 199h-70v-199h-127z M563 1004h80q29 0 60.5 17t31.5 69q0 27 -9 42t-22.5 24t-31 12t-33.5 3h-76v-167z" />
<glyph unicode="&#xaf;" horiz-adv-x="675" d="M61 1245v230h553v-230h-553z" />
<glyph unicode="&#xb0;" d="M102 1130q0 82 29 146.5t78 109t114.5 67t137.5 22.5t137.5 -22.5t114.5 -67t77.5 -109t28.5 -146.5t-28.5 -146t-77.5 -108.5t-115 -67t-137 -22.5q-72 0 -137.5 22.5t-114.5 67t-78 109t-29 145.5zM346 1130q0 -78 32 -111.5t83 -33.5t82.5 34t31.5 111q0 78 -31.5 112 t-82.5 34t-83 -34t-32 -112z" />
<glyph unicode="&#xb1;" d="M164 0v252h901v-252h-901zM164 535v251h317v324h264v-324h320v-251h-320v-203h-264v203h-317z" />
<glyph unicode="&#xb2;" horiz-adv-x="860" d="M76 1239q18 131 117.5 209t252.5 78q158 0 247 -72t89 -188q0 -45 -12 -85t-42 -82t-78 -89t-122 -105l-141 -106h391v-197h-678v193l236 192q61 55 100 96t61.5 74t31 58.5t8.5 50.5q0 76 -97 75q-47 0 -75.5 -22.5t-38.5 -79.5h-250z" />
<glyph unicode="&#xb3;" horiz-adv-x="874" d="M76 858h243q10 -45 36 -70.5t83 -25.5q53 0 81 27.5t28 74.5q0 72 -40 98.5t-93 26.5h-68v164h70q41 0 74.5 23.5t33.5 87.5q0 47 -25.5 66.5t-62.5 19.5q-47 0 -69.5 -21.5t-26.5 -60.5h-242q18 119 110.5 188.5t242.5 69.5q145 0 234 -60.5t89 -177.5q0 -70 -46 -127 t-142 -80q102 -23 156.5 -81t54.5 -146q0 -129 -94.5 -199.5t-260.5 -70.5q-168 0 -262 75.5t-104 198.5z" />
<glyph unicode="&#xb4;" horiz-adv-x="675" d="M61 1194l207 281h346l-305 -281h-248z" />
<glyph unicode="&#xb5;" horiz-adv-x="1230" d="M113 -367v1432h319v-705q0 -80 44 -122.5t126 -42.5q80 0 138.5 57t58.5 162v651h319v-1065h-264l-31 113q-55 -68 -136 -106t-185 -38q-33 0 -70 11v-347h-319z" />
<glyph unicode="&#xb6;" horiz-adv-x="1382" d="M61 1059q0 133 43 215t103.5 126t123 59.5t101.5 15.5h299v-1844h-299v1014q-39 0 -101.5 14.5t-123 58.5t-103.5 126t-43 215zM971 -369v1844h299v-1844h-299z" />
<glyph unicode="&#xb7;" horiz-adv-x="552" d="M115 508v291h323v-291h-323z" />
<glyph unicode="&#xb8;" horiz-adv-x="733" d="M61 -281h205q4 -29 24.5 -56.5t80.5 -27.5q47 0 69.5 23t22.5 51q0 88 -168 88l24 254h177v-133q84 -18 130 -70.5t46 -132.5q0 -49 -20.5 -94t-59.5 -77.5t-93.5 -52t-121.5 -19.5q-143 0 -222 68.5t-94 178.5z" />
<glyph unicode="&#xb9;" horiz-adv-x="579" d="M39 1155v217l244 111h219v-903h-248v669z" />
<glyph unicode="&#xba;" horiz-adv-x="1073" d="M102 1059q0 135 39 222t100.5 136t139.5 68.5t156 19.5t155.5 -18.5t139 -67.5t100.5 -136t39 -224t-39 -225.5t-100.5 -139.5t-139.5 -70.5t-155 -19.5q-80 0 -158 20.5t-139.5 72t-99.5 139.5t-38 223zM129 0v252h817v-252h-817zM397 1059q0 -137 33 -199.5t109 -62.5 q72 0 105.5 62.5t33.5 199.5t-35 195.5t-106 58.5q-72 0 -106 -58.5t-34 -195.5z" />
<glyph unicode="&#xbb;" horiz-adv-x="1116" d="M92 1065h240l264 -420l-244 -461h-239l170 455zM520 1065h240l264 -420l-244 -461h-239l170 455z" />
<glyph unicode="&#xbc;" horiz-adv-x="1832" d="M102 1155v217l244 111h219v-903h-248v669zM316 -184l864 1802h246l-865 -1802h-245zM989 168v190l348 547h281v-561h112v-176h-112v-166h-224v166h-405zM1202 344h192l15 330z" />
<glyph unicode="&#xbd;" horiz-adv-x="1921" d="M102 1155v217l244 111h219v-903h-248v669zM316 -184l864 1802h246l-865 -1802h-245zM1112 639q18 131 117.5 209t252.5 78q158 0 247 -72t89 -188q0 -45 -12 -85t-42 -82t-78 -89t-122 -105l-141 -106h391v-197h-678v193l236 192q61 55 100 96t61.5 74t31 58.5t8.5 50.5 q0 76 -97 75q-47 0 -75.5 -22.5t-38.5 -79.5h-250z" />
<glyph unicode="&#xbe;" horiz-adv-x="2000" d="M103 858h243q10 -45 36 -70.5t83 -25.5q53 0 81 27.5t28 74.5q0 72 -40 98.5t-93 26.5h-68v164h70q41 0 74.5 23.5t33.5 87.5q0 47 -25.5 66.5t-62.5 19.5q-47 0 -69.5 -21.5t-26.5 -60.5h-242q18 119 110.5 188.5t242.5 69.5q145 0 234 -60.5t89 -177.5q0 -70 -46 -127 t-142 -80q102 -23 156.5 -81t54.5 -146q0 -129 -94.5 -199.5t-260.5 -70.5q-168 0 -262 75.5t-104 198.5zM484 -184l864 1802h246l-865 -1802h-245zM1157 168v190l348 547h281v-561h112v-176h-112v-166h-224v166h-405zM1370 344h192l15 330z" />
<glyph unicode="&#xbf;" horiz-adv-x="1122" d="M72 -51q0 61 12 110.5t40 100.5t74 111.5t115 144.5q41 49 50.5 103t9.5 116h321q0 -68 -3 -117t-15 -92t-37 -85t-68 -97q-51 -63 -81.5 -105.5t-47 -71t-21.5 -51t-5 -49.5q0 -127 119 -127q55 0 94 41t55 129h346q-4 -84 -44 -158.5t-106.5 -130t-155.5 -88 t-194 -32.5q-221 0 -339.5 97t-118.5 251zM350 784v322h363v-322h-363z" />
<glyph unicode="&#xc0;" horiz-adv-x="1435" d="M0 0l524 1475h383l529 -1475h-363l-104 338h-525l-104 -338h-340zM411 1864h347l206 -281h-247zM514 563h387l-192 629z" />
<glyph unicode="&#xc1;" horiz-adv-x="1435" d="M0 0l524 1475h383l529 -1475h-363l-104 338h-525l-104 -338h-340zM473 1583l207 281h346l-305 -281h-248zM514 563h387l-192 629z" />
<glyph unicode="&#xc2;" horiz-adv-x="1435" d="M0 0l524 1475h383l529 -1475h-363l-104 338h-525l-104 -338h-340zM288 1614l277 280h287l276 -280h-326l-94 121l-92 -121h-328zM514 563h387l-192 629z" />
<glyph unicode="&#xc3;" horiz-adv-x="1435" d="M0 0l524 1475h383l529 -1475h-363l-104 338h-525l-104 -338h-340zM401 1601v226q45 33 92.5 50t90.5 17q45 0 78.5 -12t63.5 -26.5t59.5 -27t64.5 -12.5t78 21.5t88 56.5v-225q-45 -33 -88 -50.5t-86 -17.5q-45 0 -79 12.5t-63.5 27t-59.5 26.5t-64 12q-35 0 -82.5 -21.5 t-92.5 -56.5zM514 563h387l-192 629z" />
<glyph unicode="&#xc4;" horiz-adv-x="1435" d="M0 0l524 1475h383l529 -1475h-363l-104 338h-525l-104 -338h-340zM321 1601v263h304v-263h-304zM514 563h387l-192 629zM792 1601v263h304v-263h-304z" />
<glyph unicode="&#xc5;" horiz-adv-x="1435" d="M0 0l502 1413q-39 35 -58.5 82t-19.5 100q0 51 18.5 97.5t55.5 80t90 54t121 20.5t121 -20.5t89.5 -54t55 -80t18.5 -97.5q0 -104 -67 -172l510 -1423h-363l-104 338h-525l-104 -338h-340zM514 563h387l-192 629zM625 1595q0 -53 24.5 -78.5t59.5 -25.5t59.5 25.5 t24.5 78.5t-24 79t-60 26q-37 0 -60.5 -26t-23.5 -79z" />
<glyph unicode="&#xc6;" horiz-adv-x="1968" d="M0 0l723 1475h1173v-252h-589v-361h530v-237h-530v-377h589v-248h-933v338h-453l-162 -338h-348zM618 563h345v709z" />
<glyph unicode="&#xc7;" horiz-adv-x="1517" d="M82 741q0 186 49 329.5t140 240t221.5 145.5t291.5 49q129 0 239 -33.5t195 -98t141 -160t77 -220.5h-344q-29 139 -109 206t-199 67q-78 0 -140 -30t-108.5 -93.5t-71 -162.5t-24.5 -239q0 -145 27 -246.5t72 -165t106.5 -91t128.5 -27.5q145 0 227 79t95 253h350 q-31 -260 -177.5 -403.5t-400.5 -166.5v-55q84 -18 130 -70.5t46 -132.5q0 -49 -20 -94t-59 -77.5t-93.5 -52t-121.5 -19.5q-143 0 -222 68.5t-94 178.5h205q4 -29 23.5 -56.5t80.5 -27.5q47 0 70 22.5t23 51.5q0 88 -168 88l16 176q-131 12 -241.5 66.5t-190.5 151 t-125 234.5t-45 316z" />
<glyph unicode="&#xc8;" horiz-adv-x="1189" d="M123 0v1475h995v-252h-651v-361h592v-237h-592v-377h651v-248h-995zM278 1864h347l206 -281h-247z" />
<glyph unicode="&#xc9;" horiz-adv-x="1189" d="M123 0v1475h995v-252h-651v-361h592v-237h-592v-377h651v-248h-995zM438 1583l207 281h346l-305 -281h-248z" />
<glyph unicode="&#xca;" horiz-adv-x="1189" d="M123 0v1475h995v-252h-651v-361h592v-237h-592v-377h651v-248h-995zM198 1614l277 280h287l276 -280h-326l-94 121l-92 -121h-328z" />
<glyph unicode="&#xcb;" horiz-adv-x="1189" d="M123 0v1475h995v-252h-651v-361h592v-237h-592v-377h651v-248h-995zM229 1601v263h304v-263h-304zM700 1601v263h304v-263h-304z" />
<glyph unicode="&#xcc;" horiz-adv-x="589" d="M-13 1864h347l206 -281h-247zM123 0v1475h344v-1475h-344z" />
<glyph unicode="&#xcd;" horiz-adv-x="589" d="M53 1583l207 281h346l-305 -281h-248zM123 0v1475h344v-1475h-344z" />
<glyph unicode="&#xce;" horiz-adv-x="589" d="M-123 1614l277 280h287l276 -280h-326l-94 121l-92 -121h-328zM123 0v1475h344v-1475h-344z" />
<glyph unicode="&#xcf;" horiz-adv-x="589" d="M-91 1601v263h304v-263h-304zM123 0v1475h344v-1475h-344zM380 1601v263h304v-263h-304z" />
<glyph unicode="&#xd0;" horiz-adv-x="1492" d="M20 645v258h103v572h553q358 0 546.5 -180.5t188.5 -557.5q0 -195 -49 -334t-143.5 -228t-230.5 -132t-308 -43h-557v645h-103zM467 240h213q88 0 159.5 28.5t122 89t77 154.5t26.5 225q0 260 -105.5 380t-283.5 120h-209v-334h264v-258h-264v-405z" />
<glyph unicode="&#xd1;" horiz-adv-x="1476" d="M123 0v1475h381l557 -1008v1008h293v-1475h-355l-581 1047v-1047h-295zM430 1601v226q45 33 92.5 50t90.5 17q45 0 78.5 -12t63.5 -26.5t59.5 -27t64.5 -12.5t78 21.5t88 56.5v-225q-45 -33 -88 -50.5t-86 -17.5q-45 0 -79 12.5t-63.5 27t-59.5 26.5t-64 12 q-35 0 -82.5 -21.5t-92.5 -56.5z" />
<glyph unicode="&#xd2;" horiz-adv-x="1605" d="M82 735q0 211 61.5 357.5t163 238.5t231.5 133t265 41t265 -40t231.5 -130t163 -236.5t61.5 -361.5q0 -211 -62.5 -357.5t-164 -237.5t-230.5 -132t-264 -41t-265 39t-231.5 129t-163 236.5t-61.5 361.5zM430 735q0 -150 33 -250t85 -160.5t119.5 -86t135.5 -25.5 q70 0 137.5 25.5t119.5 87t84 162t32 249.5q0 150 -33 251.5t-85 162.5t-119 87t-136 26q-72 0 -138.5 -27t-118.5 -88.5t-84 -162.5t-32 -251zM450 1864h347l206 -281h-247z" />
<glyph unicode="&#xd3;" horiz-adv-x="1605" d="M82 735q0 211 61.5 357.5t163 238.5t231.5 133t265 41t265 -40t231.5 -130t163 -236.5t61.5 -361.5q0 -211 -62.5 -357.5t-164 -237.5t-230.5 -132t-264 -41t-265 39t-231.5 129t-163 236.5t-61.5 361.5zM430 735q0 -150 33 -250t85 -160.5t119.5 -86t135.5 -25.5 q70 0 137.5 25.5t119.5 87t84 162t32 249.5q0 150 -33 251.5t-85 162.5t-119 87t-136 26q-72 0 -138.5 -27t-118.5 -88.5t-84 -162.5t-32 -251zM614 1583l207 281h346l-305 -281h-248z" />
<glyph unicode="&#xd4;" horiz-adv-x="1605" d="M82 735q0 211 61.5 357.5t163 238.5t231.5 133t265 41t265 -40t231.5 -130t163 -236.5t61.5 -361.5q0 -211 -62.5 -357.5t-164 -237.5t-230.5 -132t-264 -41t-265 39t-231.5 129t-163 236.5t-61.5 361.5zM383 1614l277 280h287l276 -280h-326l-94 121l-92 -121h-328z M430 735q0 -150 33 -250t85 -160.5t119.5 -86t135.5 -25.5q70 0 137.5 25.5t119.5 87t84 162t32 249.5q0 150 -33 251.5t-85 162.5t-119 87t-136 26q-72 0 -138.5 -27t-118.5 -88.5t-84 -162.5t-32 -251z" />
<glyph unicode="&#xd5;" horiz-adv-x="1605" d="M82 735q0 211 61.5 357.5t163 238.5t231.5 133t265 41t265 -40t231.5 -130t163 -236.5t61.5 -361.5q0 -211 -62.5 -357.5t-164 -237.5t-230.5 -132t-264 -41t-265 39t-231.5 129t-163 236.5t-61.5 361.5zM430 735q0 -150 33 -250t85 -160.5t119.5 -86t135.5 -25.5 q70 0 137.5 25.5t119.5 87t84 162t32 249.5q0 150 -33 251.5t-85 162.5t-119 87t-136 26q-72 0 -138.5 -27t-118.5 -88.5t-84 -162.5t-32 -251zM495 1601v226q45 33 92.5 50t90.5 17q45 0 78.5 -12t63.5 -26.5t59.5 -27t64.5 -12.5t78 21.5t88 56.5v-225q-45 -33 -88 -50.5 t-86 -17.5q-45 0 -79 12.5t-63.5 27t-59.5 26.5t-64 12q-35 0 -82.5 -21.5t-92.5 -56.5z" />
<glyph unicode="&#xd6;" horiz-adv-x="1605" d="M82 735q0 211 61.5 357.5t163 238.5t231.5 133t265 41t265 -40t231.5 -130t163 -236.5t61.5 -361.5q0 -211 -62.5 -357.5t-164 -237.5t-230.5 -132t-264 -41t-265 39t-231.5 129t-163 236.5t-61.5 361.5zM415 1601v263h304v-263h-304zM430 735q0 -150 33 -250t85 -160.5 t119.5 -86t135.5 -25.5q70 0 137.5 25.5t119.5 87t84 162t32 249.5q0 150 -33 251.5t-85 162.5t-119 87t-136 26q-72 0 -138.5 -27t-118.5 -88.5t-84 -162.5t-32 -251zM886 1601v263h304v-263h-304z" />
<glyph unicode="&#xd7;" d="M207 430l229 229l-229 230l178 178l229 -229l230 229l178 -178l-229 -230l229 -229l-178 -178l-230 229l-229 -229z" />
<glyph unicode="&#xd8;" horiz-adv-x="1605" d="M82 735q0 211 61.5 357.5t163 238.5t231.5 133t265 41q41 0 83 -4t83 -12l71 190h244l-98 -264q74 -41 135 -101.5t106.5 -143.5t71 -190.5t25.5 -242.5q0 -211 -62.5 -357.5t-164 -237.5t-230.5 -132t-264 -41q-88 0 -166 15l-72 -209h-243l98 284q-74 39 -136.5 99.5 t-106.5 143.5t-69.5 190.5t-25.5 242.5zM430 735q0 -158 35 -260t92 -162l338 938q-47 12 -92 13q-72 0 -138.5 -27t-118.5 -88.5t-84 -162.5t-32 -251zM711 223q23 -6 46 -8t46 -2q70 0 137.5 25.5t119.5 87t84 162t32 249.5q0 158 -35 260.5t-92 163.5z" />
<glyph unicode="&#xd9;" horiz-adv-x="1466" d="M113 494v981h344v-1004q0 -125 71.5 -191.5t206.5 -66.5t212 66.5t77 191.5v1004h330v-981q0 -248 -161 -386.5t-460 -138.5t-459.5 138.5t-160.5 386.5zM337 1864h347l206 -281h-247z" />
<glyph unicode="&#xda;" horiz-adv-x="1466" d="M113 494v981h344v-1004q0 -125 71.5 -191.5t206.5 -66.5t212 66.5t77 191.5v1004h330v-981q0 -248 -161 -386.5t-460 -138.5t-459.5 138.5t-160.5 386.5zM606 1583l207 281h346l-305 -281h-248z" />
<glyph unicode="&#xdb;" horiz-adv-x="1466" d="M113 494v981h344v-1004q0 -125 71.5 -191.5t206.5 -66.5t212 66.5t77 191.5v1004h330v-981q0 -248 -161 -386.5t-460 -138.5t-459.5 138.5t-160.5 386.5zM313 1614l277 280h287l276 -280h-326l-94 121l-92 -121h-328z" />
<glyph unicode="&#xdc;" horiz-adv-x="1466" d="M113 494v981h344v-1004q0 -125 71.5 -191.5t206.5 -66.5t212 66.5t77 191.5v1004h330v-981q0 -248 -161 -386.5t-460 -138.5t-459.5 138.5t-160.5 386.5zM346 1601v263h304v-263h-304zM817 1601v263h304v-263h-304z" />
<glyph unicode="&#xdd;" horiz-adv-x="1368" d="M0 1475h369l323 -601l348 601h328l-522 -887v-588h-324v588zM540 1583l207 281h346l-305 -281h-248z" />
<glyph unicode="&#xde;" horiz-adv-x="1363" d="M123 0v1475h344v-236h188q125 0 240 -19.5t203 -72.5t141 -149.5t53 -249.5q0 -154 -53 -249.5t-141 -148.5t-201 -72.5t-229 -19.5h-201v-258h-344zM467 494h205q43 0 90 9t86 36.5t64.5 78t25.5 130.5q0 82 -24.5 132t-64.5 77.5t-89 37t-101 9.5h-192v-510z" />
<glyph unicode="&#xdf;" horiz-adv-x="1325" d="M113 0v1049q0 92 31.5 175t96 145.5t161 99t225.5 36.5q106 0 195 -23.5t153.5 -66.5t100.5 -104.5t36 -136.5q0 -76 -32.5 -126.5t-72.5 -87t-73 -68.5t-33 -73q0 -31 21.5 -63.5t87.5 -71.5q72 -41 125 -80t89 -80t53 -87t17 -101q0 -172 -106 -269.5t-303 -97.5 q-102 0 -177 24.5t-127.5 67.5t-83 104.5t-42.5 135.5h321q6 -51 26.5 -82t63.5 -31q41 0 68 34t27 97t-30 103.5t-95 81.5q-61 37 -101.5 71.5t-63 69.5t-30.5 71t-8 77q0 66 24.5 107.5t54 77.5t54.5 75t25 100q0 53 -46.5 90t-123.5 37q-188 0 -189 -227v-351l-41 -702 h-278z" />
<glyph unicode="&#xe0;" horiz-adv-x="1187" d="M72 307q0 61 21.5 113.5t72.5 94.5t133 74t203 52l264 43v47q0 78 -44 118t-126 40q-78 0 -121 -36t-55 -95h-328q39 160 169 249t345 89q223 0 351 -103.5t128 -287.5v-705h-249l-39 111q-53 -59 -139.5 -100.5t-213.5 -41.5q-82 0 -150.5 22.5t-117.5 65.5t-76.5 105.5 t-27.5 144.5zM208 1475h347l206 -281h-247zM391 322q1 -134 146 -134q109 0 169 60.5t60 144.5v117l-182 -37q-113 -23 -153 -59.5t-40 -91.5z" />
<glyph unicode="&#xe1;" horiz-adv-x="1187" d="M72 307q0 61 21.5 113.5t72.5 94.5t133 74t203 52l264 43v47q0 78 -44 118t-126 40q-78 0 -121 -36t-55 -95h-328q39 160 169 249t345 89q223 0 351 -103.5t128 -287.5v-705h-249l-39 111q-53 -59 -139.5 -100.5t-213.5 -41.5q-82 0 -150.5 22.5t-117.5 65.5t-76.5 105.5 t-27.5 144.5zM391 322q1 -134 146 -134q109 0 169 60.5t60 144.5v117l-182 -37q-113 -23 -153 -59.5t-40 -91.5zM464 1194l207 281h346l-305 -281h-248z" />
<glyph unicode="&#xe2;" horiz-adv-x="1187" d="M72 307q0 61 21.5 113.5t72.5 94.5t133 74t203 52l264 43v47q0 78 -44 118t-126 40q-78 0 -121 -36t-55 -95h-328q39 160 169 249t345 89q223 0 351 -103.5t128 -287.5v-705h-249l-39 111q-53 -59 -139.5 -100.5t-213.5 -41.5q-82 0 -150.5 22.5t-117.5 65.5t-76.5 105.5 t-27.5 144.5zM182 1225l277 280h287l276 -280h-326l-94 121l-92 -121h-328zM391 322q1 -134 146 -134q109 0 169 60.5t60 144.5v117l-182 -37q-113 -23 -153 -59.5t-40 -91.5z" />
<glyph unicode="&#xe3;" horiz-adv-x="1187" d="M72 307q0 61 21.5 113.5t72.5 94.5t133 74t203 52l264 43v47q0 78 -44 118t-126 40q-78 0 -121 -36t-55 -95h-328q39 160 169 249t345 89q223 0 351 -103.5t128 -287.5v-705h-249l-39 111q-53 -59 -139.5 -100.5t-213.5 -41.5q-82 0 -150.5 22.5t-117.5 65.5t-76.5 105.5 t-27.5 144.5zM272 1212v226q45 33 92.5 50t90.5 17q45 0 78.5 -12t63.5 -26.5t59.5 -27t64.5 -12.5t78 21.5t88 56.5v-225q-45 -33 -88 -50.5t-86 -17.5q-45 0 -79 12.5t-63.5 27t-59.5 26.5t-64 12q-35 0 -82.5 -21.5t-92.5 -56.5zM391 322q1 -134 146 -134q109 0 169 60.5 t60 144.5v117l-182 -37q-113 -23 -153 -59.5t-40 -91.5z" />
<glyph unicode="&#xe4;" horiz-adv-x="1187" d="M72 307q0 61 21.5 113.5t72.5 94.5t133 74t203 52l264 43v47q0 78 -44 118t-126 40q-78 0 -121 -36t-55 -95h-328q39 160 169 249t345 89q223 0 351 -103.5t128 -287.5v-705h-249l-39 111q-53 -59 -139.5 -100.5t-213.5 -41.5q-82 0 -150.5 22.5t-117.5 65.5t-76.5 105.5 t-27.5 144.5zM196 1212v263h304v-263h-304zM391 322q1 -134 146 -134q109 0 169 60.5t60 144.5v117l-182 -37q-113 -23 -153 -59.5t-40 -91.5zM667 1212v263h304v-263h-304z" />
<glyph unicode="&#xe5;" horiz-adv-x="1187" d="M72 307q0 61 21.5 113.5t72.5 94.5t133 74t203 52l264 43v47q0 78 -44 118t-126 40q-78 0 -121 -36t-55 -95h-328q39 160 169 249t345 89q223 0 351 -103.5t128 -287.5v-705h-249l-39 111q-53 -59 -139.5 -100.5t-213.5 -41.5q-82 0 -150.5 22.5t-117.5 65.5t-76.5 105.5 t-27.5 144.5zM309 1434q0 51 18.5 97t55.5 80t90 54.5t121 20.5t121 -20.5t89.5 -54.5t55 -80t18.5 -97t-18.5 -97.5t-54 -80t-89 -54t-122.5 -20.5q-70 0 -123 20.5t-89 54t-54.5 79.5t-18.5 98zM391 322q1 -134 146 -134q109 0 169 60.5t60 144.5v117l-182 -37 q-113 -23 -153 -59.5t-40 -91.5zM510 1434q0 -53 24.5 -79t59.5 -26t59.5 25.5t24.5 79.5q0 53 -23.5 78.5t-60.5 25.5t-60.5 -25.5t-23.5 -78.5z" />
<glyph unicode="&#xe6;" horiz-adv-x="1927" d="M72 307q0 61 21.5 113.5t72.5 94.5t133 74t203 52l264 43v47q0 78 -44 118t-126 40q-78 0 -121 -36t-55 -95h-328q39 160 169 249t345 89q111 0 200 -34t152 -89q70 59 159 91t200 32q127 0 229.5 -39t173 -119t108.5 -201t38 -282h-776q16 -141 82.5 -201.5t170.5 -60.5 q76 0 123 31.5t62 84.5h325q-18 -74 -57 -136t-103.5 -107.5t-155.5 -71t-210 -25.5q-147 0 -264 59.5t-191 164.5q-25 -43 -60.5 -84t-85.5 -72t-114.5 -49.5t-146.5 -18.5q-88 0 -160 21.5t-124 63.5t-80.5 105.5t-28.5 147.5zM391 322q0 -68 39 -101t107 -33 q55 0 98 17.5t71.5 47.5t44 67.5t15.5 80.5v109l-182 -37q-113 -23 -153 -59.5t-40 -91.5zM1090 641h448q-6 135 -65.5 194.5t-161.5 59.5q-92 0 -149.5 -58.5t-71.5 -195.5z" />
<glyph unicode="&#xe7;" horiz-adv-x="1208" d="M72 522q0 135 37.5 241.5t109.5 180.5t172.5 113t226.5 39q106 0 195.5 -26t158 -74t112.5 -113.5t61 -145.5h-336q-18 66 -68.5 104t-111.5 38q-102 0 -164 -83t-62 -280q0 -172 62.5 -251t150.5 -79q72 0 120 40t75 128h336q-35 -147 -141.5 -251.5t-298.5 -127.5v-57 q84 -18 130 -70.5t46 -132.5q0 -49 -20.5 -94t-59.5 -77.5t-93.5 -52t-121.5 -19.5q-143 0 -222 68.5t-94 178.5h205q4 -29 23.5 -56.5t81.5 -27.5q47 0 69.5 22.5t22.5 51.5q0 88 -168 88l16 178q-223 23 -336.5 163.5t-113.5 383.5z" />
<glyph unicode="&#xe8;" horiz-adv-x="1232" d="M72 532q0 135 39 241t111.5 177.5t174 108.5t226.5 37q127 0 229 -39t173 -119t108.5 -201t37.5 -282h-776q16 -141 83 -201.5t171 -60.5q76 0 123 31.5t62 84.5h325q-18 -74 -57 -136t-103.5 -107.5t-155.5 -71t-210 -25.5q-125 0 -228.5 38t-177 110.5t-114.5 177 t-41 237.5zM219 1475h347l206 -281h-247zM395 641h449q-6 135 -66 194.5t-162 59.5q-92 0 -149 -58.5t-72 -195.5z" />
<glyph unicode="&#xe9;" horiz-adv-x="1232" d="M72 532q0 135 39 241t111.5 177.5t174 108.5t226.5 37q127 0 229 -39t173 -119t108.5 -201t37.5 -282h-776q16 -141 83 -201.5t171 -60.5q76 0 123 31.5t62 84.5h325q-18 -74 -57 -136t-103.5 -107.5t-155.5 -71t-210 -25.5q-125 0 -228.5 38t-177 110.5t-114.5 177 t-41 237.5zM395 641h449q-6 135 -66 194.5t-162 59.5q-92 0 -149 -58.5t-72 -195.5zM479 1194l207 281h346l-305 -281h-248z" />
<glyph unicode="&#xea;" horiz-adv-x="1232" d="M72 532q0 135 39 241t111.5 177.5t174 108.5t226.5 37q127 0 229 -39t173 -119t108.5 -201t37.5 -282h-776q16 -141 83 -201.5t171 -60.5q76 0 123 31.5t62 84.5h325q-18 -74 -57 -136t-103.5 -107.5t-155.5 -71t-210 -25.5q-125 0 -228.5 38t-177 110.5t-114.5 177 t-41 237.5zM186 1225l277 280h287l276 -280h-326l-94 121l-92 -121h-328zM395 641h449q-6 135 -66 194.5t-162 59.5q-92 0 -149 -58.5t-72 -195.5z" />
<glyph unicode="&#xeb;" horiz-adv-x="1232" d="M72 532q0 135 39 241t111.5 177.5t174 108.5t226.5 37q127 0 229 -39t173 -119t108.5 -201t37.5 -282h-776q16 -141 83 -201.5t171 -60.5q76 0 123 31.5t62 84.5h325q-18 -74 -57 -136t-103.5 -107.5t-155.5 -71t-210 -25.5q-125 0 -228.5 38t-177 110.5t-114.5 177 t-41 237.5zM217 1212v263h304v-263h-304zM395 641h449q-6 135 -66 194.5t-162 59.5q-92 0 -149 -58.5t-72 -195.5zM688 1212v263h304v-263h-304z" />
<glyph unicode="&#xec;" horiz-adv-x="544" d="M-66 1475h347l206 -281h-247zM113 0v1065h319v-1065h-319z" />
<glyph unicode="&#xed;" horiz-adv-x="544" d="M63 1194l207 281h346l-305 -281h-248zM113 0v1065h319v-1065h-319z" />
<glyph unicode="&#xee;" horiz-adv-x="544" d="M-146 1225l277 280h287l276 -280h-326l-94 121l-92 -121h-328zM113 0v1065h319v-1065h-319z" />
<glyph unicode="&#xef;" horiz-adv-x="544" d="M-113 1212v263h304v-263h-304zM113 0v1065h319v-1065h-319zM358 1212v263h304v-263h-304z" />
<glyph unicode="&#xf0;" horiz-adv-x="1208" d="M72 487q0 115 30.5 207t89 158t142.5 101.5t190 35.5q37 0 76 -8t74 -22.5t63.5 -35t44.5 -44.5q-16 82 -46.5 144t-76.5 110l-36 -37h-293l153 153q-66 29 -136.5 47.5t-141.5 34.5v211q111 -14 224.5 -45t217.5 -82l60 60h292l-170 -170q135 -104 221.5 -261t86.5 -374 q0 -340 -121 -520.5t-400 -180.5q-96 0 -193 25.5t-175 85t-127 160t-49 247.5zM397 477q0 -135 54.5 -205.5t160.5 -70.5q96 0 147.5 84t51.5 237q0 113 -56.5 174.5t-154.5 61.5q-106 0 -154.5 -78t-48.5 -203z" />
<glyph unicode="&#xf1;" horiz-adv-x="1230" d="M113 0v1065h264l31 -117q51 66 130.5 107t194.5 41q186 0 290.5 -106.5t104.5 -301.5v-688h-319v676q0 106 -44 150t-120 44q-92 0 -152.5 -64.5t-60.5 -174.5v-631h-319zM319 1212v226q45 33 92.5 50t90.5 17q45 0 78.5 -12t63.5 -26.5t59.5 -27t64.5 -12.5t78 21.5 t88 56.5v-225q-45 -33 -88 -50.5t-86 -17.5q-45 0 -79 12.5t-63.5 27t-59.5 26.5t-64 12q-35 0 -82.5 -21.5t-92.5 -56.5z" />
<glyph unicode="&#xf2;" horiz-adv-x="1269" d="M72 537q0 276 146.5 417.5t416.5 141.5q268 0 415.5 -141.5t147.5 -417.5q0 -279 -146.5 -423.5t-416.5 -144.5q-262 0 -412.5 144.5t-150.5 423.5zM251 1475h347l206 -281h-247zM401 537q0 -193 61.5 -273t174.5 -80q117 0 175 79t58 274q0 98 -15 163.5t-45 105.5 t-74 57.5t-101 17.5q-119 0 -176.5 -75.5t-57.5 -268.5z" />
<glyph unicode="&#xf3;" horiz-adv-x="1269" d="M72 537q0 276 146.5 417.5t416.5 141.5q268 0 415.5 -141.5t147.5 -417.5q0 -279 -146.5 -423.5t-416.5 -144.5q-262 0 -412.5 144.5t-150.5 423.5zM401 537q0 -193 61.5 -273t174.5 -80q117 0 175 79t58 274q0 98 -15 163.5t-45 105.5t-74 57.5t-101 17.5 q-119 0 -176.5 -75.5t-57.5 -268.5zM452 1194l207 281h346l-305 -281h-248z" />
<glyph unicode="&#xf4;" horiz-adv-x="1269" d="M72 537q0 276 146.5 417.5t416.5 141.5q268 0 415.5 -141.5t147.5 -417.5q0 -279 -146.5 -423.5t-416.5 -144.5q-262 0 -412.5 144.5t-150.5 423.5zM215 1225l277 280h287l276 -280h-326l-94 121l-92 -121h-328zM401 537q0 -193 61.5 -273t174.5 -80q117 0 175 79t58 274 q0 98 -15 163.5t-45 105.5t-74 57.5t-101 17.5q-119 0 -176.5 -75.5t-57.5 -268.5z" />
<glyph unicode="&#xf5;" horiz-adv-x="1269" d="M72 537q0 276 146.5 417.5t416.5 141.5q268 0 415.5 -141.5t147.5 -417.5q0 -279 -146.5 -423.5t-416.5 -144.5q-262 0 -412.5 144.5t-150.5 423.5zM327 1212v226q45 33 92.5 50t90.5 17q45 0 78.5 -12t63.5 -26.5t59.5 -27t64.5 -12.5t78 21.5t88 56.5v-225 q-45 -33 -88 -50.5t-86 -17.5q-45 0 -79 12.5t-63.5 27t-59.5 26.5t-64 12q-35 0 -82.5 -21.5t-92.5 -56.5zM401 537q0 -193 61.5 -273t174.5 -80q117 0 175 79t58 274q0 98 -15 163.5t-45 105.5t-74 57.5t-101 17.5q-119 0 -176.5 -75.5t-57.5 -268.5z" />
<glyph unicode="&#xf6;" horiz-adv-x="1269" d="M72 537q0 276 146.5 417.5t416.5 141.5q268 0 415.5 -141.5t147.5 -417.5q0 -279 -146.5 -423.5t-416.5 -144.5q-262 0 -412.5 144.5t-150.5 423.5zM247 1212v263h304v-263h-304zM401 537q0 -193 61.5 -273t174.5 -80q117 0 175 79t58 274q0 98 -15 163.5t-45 105.5 t-74 57.5t-101 17.5q-119 0 -176.5 -75.5t-57.5 -268.5zM718 1212v263h304v-263h-304z" />
<glyph unicode="&#xf7;" d="M164 535v251h901v-251h-901zM453 127v291h323v-291h-323zM453 903v291h323v-291h-323z" />
<glyph unicode="&#xf8;" horiz-adv-x="1269" d="M72 537q0 276 146.5 417.5t416.5 141.5q37 0 72.5 -4.5t68.5 -10.5l96 209h244l-133 -284q104 -68 159.5 -186t55.5 -283q0 -279 -146.5 -423.5t-416.5 -144.5q-76 0 -139 13l-95 -207h-247l133 286q-104 70 -159.5 189t-55.5 287zM401 537q0 -158 43 -244l263 579 q-16 4 -35 6.5t-37 2.5q-119 0 -176.5 -75.5t-57.5 -268.5zM569 193q27 -8 68 -9q117 0 175 79t58 274q0 152 -41 233z" />
<glyph unicode="&#xf9;" horiz-adv-x="1220" d="M102 373v692h320v-705q0 -80 44 -122.5t126 -42.5q84 0 140 60t56 171v639h320v-1065h-264l-31 113q-55 -68 -136 -106t-185 -38q-184 0 -287 103.5t-103 300.5zM192 1475h347l206 -281h-247z" />
<glyph unicode="&#xfa;" horiz-adv-x="1220" d="M102 373v692h320v-705q0 -80 44 -122.5t126 -42.5q84 0 140 60t56 171v639h320v-1065h-264l-31 113q-55 -68 -136 -106t-185 -38q-184 0 -287 103.5t-103 300.5zM467 1194l207 281h346l-305 -281h-248z" />
<glyph unicode="&#xfb;" horiz-adv-x="1220" d="M102 373v692h320v-705q0 -80 44 -122.5t126 -42.5q84 0 140 60t56 171v639h320v-1065h-264l-31 113q-55 -68 -136 -106t-185 -38q-184 0 -287 103.5t-103 300.5zM184 1225l277 280h287l276 -280h-326l-94 121l-92 -121h-328z" />
<glyph unicode="&#xfc;" horiz-adv-x="1220" d="M102 373v692h320v-705q0 -80 44 -122.5t126 -42.5q84 0 140 60t56 171v639h320v-1065h-264l-31 113q-55 -68 -136 -106t-185 -38q-184 0 -287 103.5t-103 300.5zM219 1212v263h304v-263h-304zM690 1212v263h304v-263h-304z" />
<glyph unicode="&#xfd;" horiz-adv-x="1169" d="M10 1065h340l236 -832l254 832h319l-381 -1088q-37 -104 -75.5 -175.5t-87 -115.5t-105.5 -64.5t-131 -20.5q-82 0 -172 22v223q49 -12 79.5 -15t51.5 -3q55 0 90 40t55 132h-90zM432 1194l207 281h346l-305 -281h-248z" />
<glyph unicode="&#xfe;" horiz-adv-x="1300" d="M113 -369v1844h319v-510q57 59 138 95t184 36q106 0 194 -36t150.5 -105.5t96.5 -172t34 -233.5q0 -158 -46 -268.5t-118 -179t-162 -100.5t-176 -32q-88 0 -164 33t-131 90v-461h-319zM422 545q0 -96 18.5 -162t50 -105.5t74.5 -57t94 -17.5q109 0 178.5 82t69.5 256 q0 172 -64.5 246.5t-172.5 74.5q-109 0 -178.5 -77.5t-69.5 -239.5z" />
<glyph unicode="&#xff;" horiz-adv-x="1169" d="M10 1065h340l236 -832l254 832h319l-381 -1088q-37 -104 -75.5 -175.5t-87 -115.5t-105.5 -64.5t-131 -20.5q-82 0 -172 22v223q49 -12 79.5 -15t51.5 -3q55 0 90 40t55 132h-90zM198 1212v263h304v-263h-304zM669 1212v263h304v-263h-304z" />
<glyph unicode="&#x152;" horiz-adv-x="1935" d="M82 735q0 211 62.5 357.5t163 238.5t227.5 133t258 41q57 0 109 -8t99 -22h863v-252h-611v-361h551v-237h-551v-377h611v-248h-875q-41 -14 -90 -22.5t-108 -8.5q-137 0 -265.5 39t-226.5 129t-157.5 236.5t-59.5 361.5zM430 735q0 -150 32 -250t84 -160.5t117.5 -86 t133.5 -25.5q29 0 56.5 3t55.5 13v1018q-23 6 -49 11.5t-53 5.5q-72 0 -139.5 -27t-120.5 -88.5t-85 -162.5t-32 -251z" />
<glyph unicode="&#x153;" horiz-adv-x="2021" d="M72 537q0 276 146.5 417.5t416.5 141.5q129 0 227.5 -39t167.5 -107q70 68 166 107t215 39q127 0 229.5 -39t173 -119t108.5 -201t38 -282h-776q16 -141 82.5 -201.5t171.5 -60.5q76 0 123 31.5t61 84.5h326q-18 -74 -57.5 -136t-104 -107.5t-155.5 -71t-210 -25.5 q-121 0 -218 40t-169 112q-72 -72 -171 -112t-228 -40q-262 0 -412.5 144.5t-150.5 423.5zM401 537q0 -193 61.5 -273t174.5 -80q57 0 100 17.5t73 58.5t45 108.5t15 168.5q0 98 -15 163.5t-45 105.5t-74 57.5t-101 17.5q-119 0 -176.5 -75.5t-57.5 -268.5zM1184 641h448 q-6 135 -65.5 194.5t-161.5 59.5q-92 0 -149.5 -58.5t-71.5 -195.5z" />
<glyph unicode="&#x178;" horiz-adv-x="1368" d="M0 1475h369l323 -601l348 601h328l-522 -887v-588h-324v588zM305 1601v263h304v-263h-304zM776 1601v263h304v-263h-304z" />
<glyph unicode="&#x2c6;" horiz-adv-x="962" d="M61 1225l277 280h287l276 -280h-326l-94 121l-92 -121h-328z" />
<glyph unicode="&#x2dc;" horiz-adv-x="737" d="M61 1212v226q45 33 92.5 50t90.5 17q45 0 78.5 -12t63.5 -26.5t59.5 -27t64.5 -12.5t78 21.5t88 56.5v-225q-45 -33 -88 -50.5t-86 -17.5q-45 0 -79 12.5t-63.5 27t-59.5 26.5t-64 12q-35 0 -82.5 -21.5t-92.5 -56.5z" />
<glyph unicode="&#x2000;" horiz-adv-x="947" />
<glyph unicode="&#x2001;" horiz-adv-x="1894" />
<glyph unicode="&#x2002;" horiz-adv-x="947" />
<glyph unicode="&#x2003;" horiz-adv-x="1894" />
<glyph unicode="&#x2004;" horiz-adv-x="631" />
<glyph unicode="&#x2005;" horiz-adv-x="473" />
<glyph unicode="&#x2006;" horiz-adv-x="315" />
<glyph unicode="&#x2007;" horiz-adv-x="315" />
<glyph unicode="&#x2008;" horiz-adv-x="236" />
<glyph unicode="&#x2009;" horiz-adv-x="378" />
<glyph unicode="&#x200a;" horiz-adv-x="105" />
<glyph unicode="&#x2010;" horiz-adv-x="1105" d="M164 535v251h778v-251h-778z" />
<glyph unicode="&#x2011;" horiz-adv-x="1105" d="M164 535v251h778v-251h-778z" />
<glyph unicode="&#x2012;" horiz-adv-x="1105" d="M164 535v251h778v-251h-778z" />
<glyph unicode="&#x2013;" horiz-adv-x="819" d="M0 535v251h819v-251h-819z" />
<glyph unicode="&#x2014;" d="M0 535v251h1229v-251h-1229z" />
<glyph unicode="&#x2018;" horiz-adv-x="552" d="M76 778v260q0 119 38 199t97 131t131 75.5t137 31.5v-160q-78 -16 -124 -69.5t-46 -145.5h129v-322h-362z" />
<glyph unicode="&#x2019;" horiz-adv-x="552" d="M74 778v160q78 16 124 69.5t46 145.5h-129v322h362v-261q0 -119 -38 -198.5t-97 -130.5t-131 -76t-137 -31z" />
<glyph unicode="&#x201a;" horiz-adv-x="552" d="M74 -215q78 16 124 69.5t46 145.5h-129v322h362v-261q0 -119 -38 -198.5t-97 -130.5t-131 -76t-137 -31v160z" />
<glyph unicode="&#x201c;" horiz-adv-x="1038" d="M111 778v260q0 119 37.5 199t97 131t131.5 75.5t137 31.5v-160q-78 -16 -124 -69.5t-46 -145.5h129v-322h-362zM561 778v260q0 119 38 199t97.5 131t131 75.5t137.5 31.5v-160q-78 -16 -124 -69.5t-46 -145.5h129v-322h-363z" />
<glyph unicode="&#x201d;" horiz-adv-x="1038" d="M74 778v160q78 16 124 69.5t46 145.5h-129v322h362v-261q0 -119 -38 -198.5t-97 -130.5t-131 -76t-137 -31zM524 778v160q78 16 124 69.5t46 145.5h-129v322h363v-261q0 -119 -38 -198.5t-97.5 -130.5t-131 -76t-137.5 -31z" />
<glyph unicode="&#x201e;" horiz-adv-x="1003" d="M74 -215q78 16 124 69.5t46 145.5h-129v322h362v-261q0 -119 -38 -198.5t-97 -130.5t-131 -76t-137 -31v160zM524 -215q78 16 124 69.5t46 145.5h-129v322h363v-261q0 -119 -38 -198.5t-97.5 -130.5t-131 -76t-137.5 -31v160z" />
<glyph unicode="&#x2022;" horiz-adv-x="686" d="M102 422v461h482v-461h-482z" />
<glyph unicode="&#x2026;" horiz-adv-x="1775" d="M115 0v322h362v-322h-362zM707 0v322h362v-322h-362zM1299 0v322h362v-322h-362z" />
<glyph unicode="&#x202f;" horiz-adv-x="378" />
<glyph unicode="&#x2039;" horiz-adv-x="688" d="M92 645l264 420h240l-190 -426l169 -455h-239z" />
<glyph unicode="&#x203a;" horiz-adv-x="688" d="M92 1065h240l264 -420l-244 -461h-239l170 455z" />
<glyph unicode="&#x205f;" horiz-adv-x="473" />
<glyph unicode="&#x20ac;" d="M8 475l39 193h72q-2 25 -2 30v47q0 8 2 37h-111l39 193h92q51 246 199.5 367.5t366.5 121.5q106 0 195 -29.5t155.5 -82t109.5 -124t56 -155.5h-312q-16 72 -66 112t-126 40q-90 0 -151.5 -57.5t-90.5 -192.5h389l-39 -193h-372q-2 -29 -2 -37v-47q0 -6 2 -30h348 l-39 -193h-293q14 -78 38.5 -129t57.5 -80.5t73 -42t87 -12.5q76 0 128 36t69 107h311q-12 -84 -54 -154.5t-108.5 -121.5t-155 -80t-194.5 -29q-70 0 -157 21.5t-170 78t-151.5 155t-101.5 251.5h-133z" />
<glyph unicode="&#x2122;" horiz-adv-x="1720" d="M10 1278v197h1014l154 -512l133 512h348v-811h-232v491l-151 -491h-203l-153 491v-491h-228v614h-196v-614h-240v614h-246z" />
<glyph unicode="&#xfb01;" horiz-adv-x="1282" />
<glyph unicode="&#xfb02;" horiz-adv-x="1302" />
<glyph unicode="&#xfb03;" horiz-adv-x="1941" />
<glyph unicode="&#xfb04;" horiz-adv-x="1961" />
</font>
</defs>
</svg>
