<?xml version="1.0" standalone="no"?>
<!DOCTYPE svg PUBLIC "-//W3C//DTD SVG 1.1//EN" "http://www.w3.org/Graphics/SVG/1.1/DTD/svg11.dtd" >
<svg xmlns="http://www.w3.org/2000/svg">
<metadata></metadata>
<defs>
<font id="ciscosansttlightoblique" horiz-adv-x="1228" >
<font-face units-per-em="2048" ascent="1618" descent="-430" />
<missing-glyph horiz-adv-x="614" />
<glyph horiz-adv-x="0" />
<glyph unicode="&#xd;" horiz-adv-x="614" />
<glyph unicode=" "  horiz-adv-x="614" />
<glyph unicode="&#x09;" horiz-adv-x="614" />
<glyph unicode="&#xa0;" horiz-adv-x="614" />
<glyph unicode="!" horiz-adv-x="557" d="M102 0l41 199h191l-41 -199h-191zM231 477l187 998h180l-240 -998h-127z" />
<glyph unicode="&#x22;" d="M307 1004l41 313l41 188h160l-41 -188l-90 -313h-111zM647 1004l39 313l41 188h162l-41 -188l-90 -313h-111z" />
<glyph unicode="#" d="M66 385l26 121h174l125 422h-170l27 121h180l115 385h139l-115 -385h432l115 385h139l-114 -385h164l-27 -121h-176l-125 -422h172l-27 -121h-182l-113 -385h-139l113 385h-432l-113 -385h-139l112 385h-161zM406 506h430l125 422h-431z" />
<glyph unicode="$" d="M66 387h161q0 -135 87.5 -206.5t265.5 -71.5q82 0 162.5 19t145 59t105.5 103.5t41 149.5q0 39 -17.5 75t-60.5 68.5t-117.5 62.5t-191.5 61q-201 53 -295 139t-94 207q0 86 36 158.5t102.5 127t162.5 86t217 37.5l51 238h144l-53 -242q188 -18 298.5 -113.5 t110.5 -254.5h-162q-4 117 -85 178t-257 61q-197 0 -298 -72.5t-101 -195.5q0 -41 17.5 -74t57.5 -60.5t106.5 -52t162.5 -49.5q121 -33 203 -72.5t133 -87t72.5 -101.5t21.5 -113q0 -100 -40 -186.5t-116.5 -150t-187.5 -100.5t-252 -41l-51 -249h-143l55 258 q-193 25 -295 128t-102 277z" />
<glyph unicode="%" horiz-adv-x="1710" d="M223 1079q0 98 32 170t84 120t119.5 71.5t137.5 23.5q63 0 119.5 -19.5t99.5 -58t68.5 -96t25.5 -133.5q0 -92 -29.5 -163.5t-80.5 -121t-120 -75t-144 -25.5q-63 0 -120 19.5t-100 58.5t-67.5 96.5t-24.5 132.5zM322 0l1032 1434h162l-1033 -1434h-161zM354 1075 q0 -102 54.5 -146t132.5 -44q106 0 171.5 73.5t65.5 202.5q0 102 -55 146.5t-133 44.5q-117 0 -176.5 -80t-59.5 -197zM936 276q0 98 32.5 170t85 120t120 72t137.5 24q63 0 119.5 -19.5t99.5 -58.5t68.5 -96.5t25.5 -133.5q0 -92 -30.5 -163.5t-82 -121t-120 -75 t-144.5 -25.5q-61 0 -117.5 19.5t-99.5 58.5t-68.5 96.5t-25.5 132.5zM1069 272q0 -102 54.5 -146t131.5 -44q104 0 170 73.5t66 202.5q0 102 -54 146.5t-132 44.5q-119 0 -177.5 -80t-58.5 -197z" />
<glyph unicode="&#x26;" horiz-adv-x="1343" d="M59 307q0 92 29 160t83 121t129 96t167 86q-74 96 -112 168t-38 145q0 76 31 145.5t87.5 122t137 83t181.5 30.5q80 0 143.5 -23.5t107.5 -62.5t67.5 -91t23.5 -107q0 -61 -18.5 -116.5t-66.5 -110t-129 -110t-204 -114.5l299 -362q59 76 103 159.5t73 167.5l141 -20 q-35 -104 -92 -212t-135 -204l164 -197l-125 -92l-145 183q-96 -82 -213 -132.5t-259 -50.5q-104 0 -184 27t-134 72t-83 106.5t-29 132.5zM219 315q0 -92 68.5 -153.5t222.5 -61.5q104 0 196.5 42t170.5 114l-332 414q-74 -35 -133.5 -69t-102.5 -75t-66.5 -92t-23.5 -119z M465 1094q0 -59 32.5 -119t100.5 -148q86 43 151.5 81t109.5 78t66.5 84t22.5 97q0 31 -11 62t-34.5 55.5t-61.5 39.5t-91 15q-72 0 -126.5 -22.5t-89 -57t-52 -78.5t-17.5 -87z" />
<glyph unicode="'" horiz-adv-x="552" d="M352 1004l41 313l41 188h160l-41 -188l-90 -313h-111z" />
<glyph unicode="(" horiz-adv-x="696" d="M174 346q0 223 56.5 422t143.5 364.5t189.5 299t194.5 227.5h129q-127 -150 -230.5 -301.5t-177 -313t-114.5 -338t-41 -372.5q0 -190 37.5 -364.5t97.5 -317.5h-125q-31 57 -59.5 132t-51 164t-36 189.5t-13.5 208.5z" />
<glyph unicode=")" horiz-adv-x="696" d="M-76 -348q125 150 228.5 301t178.5 313t115.5 338t40.5 373q0 190 -37.5 364.5t-97.5 317.5h123q31 -57 60.5 -132t52 -164t36 -189.5t13.5 -208.5q0 -225 -56.5 -423t-143.5 -364t-190.5 -299t-195.5 -227h-127z" />
<glyph unicode="*" horiz-adv-x="962" d="M268 1176l47 135l293 -125l-28 319h141l-29 -319l295 125l47 -135l-315 -72l211 -242l-115 -84l-164 273l-166 -275l-112 86l209 242z" />
<glyph unicode="+" d="M233 590l31 137h348l74 354h150l-76 -354h350l-31 -137h-348l-76 -352h-149l76 352h-349z" />
<glyph unicode="," horiz-adv-x="591" d="M10 -297l17 90q61 16 103 62.5t65 144.5h-76l43 199h192l-43 -207q-16 -76 -47 -127t-70.5 -84t-87 -51.5t-96.5 -26.5z" />
<glyph unicode="-" horiz-adv-x="1105" d="M233 592l31 137h723l-31 -137h-723z" />
<glyph unicode="." horiz-adv-x="598" d="M121 0l41 199h192l-41 -199h-192z" />
<glyph unicode="/" horiz-adv-x="774" d="M-53 -184l841 1689h154l-840 -1689h-155z" />
<glyph unicode="0" d="M150 444q0 68 12 169.5t41.5 215t80 227t125 204t177 147.5t237.5 57q86 0 158 -27.5t124 -86t82 -148.5t30 -213q0 -68 -12.5 -169t-42 -214.5t-80 -227.5t-125 -204t-177 -147.5t-237.5 -57.5q-86 0 -158 28t-124 86t-81.5 148.5t-29.5 212.5zM301 424 q0 -166 63.5 -246t186.5 -80q100 0 177 52.5t134.5 135.5t96 185t62 203.5t34 190.5t10.5 145q0 166 -63.5 245.5t-186.5 79.5q-100 0 -177 -52t-134.5 -135t-96 -185.5t-62 -204t-34 -190.5t-10.5 -144z" />
<glyph unicode="1" d="M442 1092l33 161l367 181h149l-303 -1434h-151l270 1268z" />
<glyph unicode="2" d="M76 0l28 141l609 496q88 74 154.5 134t111.5 117.5t66.5 116t21.5 123.5q0 94 -64.5 150.5t-185.5 56.5q-135 0 -235.5 -70.5t-141.5 -191.5h-164q31 86 82.5 159t122 124t158.5 79.5t192 28.5q84 0 156 -23.5t124 -66.5t82 -104.5t30 -134.5q0 -92 -28 -168t-82 -146.5 t-135 -142.5t-187 -158l-467 -379h690l-29 -141h-909z" />
<glyph unicode="3" d="M104 340h156q2 -117 70.5 -179.5t212.5 -62.5q94 0 171 30t130 81t81.5 118.5t28.5 141.5q0 55 -20.5 97t-55 69t-80.5 40t-100 13h-133l27 133h129q61 0 121.5 23.5t106.5 65.5t75 100.5t29 128.5q0 49 -20.5 86t-55.5 61.5t-82 36.5t-100 12q-135 0 -233.5 -61.5 t-141.5 -169.5h-160q61 166 205.5 263t347.5 97q82 0 154.5 -20.5t127 -59t86 -96t31.5 -131.5q0 -80 -27.5 -146.5t-74.5 -117.5t-110.5 -86t-133.5 -53q104 -20 172 -92t68 -197q0 -104 -43 -195.5t-118 -157t-178 -103.5t-226 -38q-215 0 -326 100.5t-111 268.5z" />
<glyph unicode="4" d="M88 270l29 146l839 1018h170l-219 -1033h226l-27 -131h-225l-58 -270h-149l57 270h-643zM287 401h471l168 795z" />
<glyph unicode="5" d="M115 340h155q2 -111 75 -176.5t208 -65.5q86 0 164 36t136 98.5t93 147.5t35 183q0 123 -73.5 188.5t-202.5 65.5q-104 0 -194.5 -43t-154.5 -106h-135l193 766h850l-29 -129h-709l-123 -486q66 51 148 86t194 35q84 0 156 -24.5t124 -71.5t81 -117t29 -160 q0 -117 -41 -224t-118 -190t-187.5 -133.5t-247.5 -50.5q-104 0 -183 29t-133.5 79t-82 117.5t-27.5 145.5z" />
<glyph unicode="6" d="M166 408q0 66 12 169t42 220.5t81 236.5t129 214t185.5 155.5t250.5 60.5q76 0 141.5 -20.5t113.5 -58t77 -92t31 -122.5h-158q-8 78 -61.5 123t-151.5 45q-70 0 -140.5 -28.5t-136 -99t-124 -189.5t-101.5 -299q78 104 183.5 158.5t216.5 54.5q176 0 275 -101.5 t99 -271.5q0 -109 -37.5 -215t-110.5 -190t-178.5 -136.5t-240.5 -52.5q-104 0 -179 33t-123 91.5t-71.5 138t-23.5 176.5zM313 387q0 -123 63.5 -206t196.5 -83q82 0 156 37t128 99.5t86 144.5t32 174q2 123 -66.5 188.5t-189.5 65.5q-92 0 -167 -37t-128 -97.5t-82 -135 t-29 -150.5z" />
<glyph unicode="7" d="M188 0l891 1296h-737l29 138h909l-29 -138l-880 -1296h-183z" />
<glyph unicode="8" d="M90 315q0 98 36 172t94.5 127.5t129 87t142.5 54.5q-37 18 -73 42.5t-63.5 58.5t-44 78t-16.5 99q0 113 47 195t122 134t169 76.5t188 24.5q82 0 156 -18.5t131 -57t91 -96t34 -133.5q0 -86 -32 -151.5t-81 -113.5t-109.5 -82t-117.5 -54q45 -18 88 -47t77 -67t55.5 -88 t21.5 -112q0 -102 -45.5 -189t-125 -150.5t-188 -99.5t-233.5 -36q-109 0 -193 27t-141 74t-88 109.5t-31 135.5zM250 319q0 -102 78 -162.5t223 -60.5q92 0 169 25.5t133 73t88 112t32 142.5q0 63 -27.5 106t-73 72.5t-99.5 47t-109 30.5q-66 -14 -138.5 -42t-134 -74 t-101.5 -111.5t-40 -158.5zM444 1036q0 -61 27 -103t69 -67.5t91 -40t94 -20.5q59 16 122.5 41.5t115 65.5t84 96.5t32.5 134.5q0 49 -20.5 86t-56 62.5t-83 38.5t-102.5 13q-68 0 -134.5 -18t-119.5 -55t-86 -95.5t-33 -138.5z" />
<glyph unicode="9" d="M152 264h157q6 -78 62.5 -124t152.5 -46q74 0 145.5 32t137 103.5t122 190.5t97.5 291q-78 -104 -182.5 -158.5t-214.5 -54.5q-174 0 -275.5 99t-101.5 271q0 109 37 215.5t109.5 191.5t178 137t240.5 52q104 0 179 -31.5t124 -89t71.5 -138.5t22.5 -181 q0 -72 -12 -178.5t-42 -223t-80 -233.5t-126.5 -210t-183 -151.5t-248.5 -58.5q-78 0 -144.5 20.5t-115.5 59.5t-78.5 93.5t-31.5 121.5zM408 881q0 -123 69.5 -188.5t186.5 -65.5q92 0 166.5 39t128 101t82 140t28.5 156q0 57 -16.5 107.5t-48 87t-81 57t-114.5 20.5 q-74 0 -145.5 -31.5t-129 -91t-92 -143.5t-34.5 -188z" />
<glyph unicode=":" horiz-adv-x="598" d="M121 0l41 199h192l-41 -199h-192zM303 866l43 199h193l-43 -199h-193z" />
<glyph unicode=";" horiz-adv-x="598" d="M10 -297l17 90q61 16 103 62.5t65 144.5h-76l43 199h192l-43 -207q-16 -76 -47 -127t-70.5 -84t-87 -51.5t-96.5 -26.5zM303 866l43 199h193l-43 -199h-193z" />
<glyph unicode="&#x3c;" d="M233 588l31 145l932 400l-33 -166l-755 -312l-2 -8l622 -313l-33 -146z" />
<glyph unicode="=" d="M188 379l29 137h846l-29 -137h-846zM281 803l28 137h846l-29 -137h-845z" />
<glyph unicode="&#x3e;" d="M150 188l32 166l758 312l2 8l-625 313l33 146l760 -400l-31 -145z" />
<glyph unicode="?" horiz-adv-x="1128" d="M262 1124q59 178 200.5 279.5t352.5 101.5q68 0 138.5 -19.5t128 -58t93 -97t35.5 -134.5t-24.5 -138.5t-72.5 -117.5t-117.5 -107.5t-159.5 -107.5q-47 -29 -79 -56.5t-53.5 -61.5t-36 -79t-28.5 -106h-152q18 86 41 148.5t58 110.5t83 88t119 83q133 78 198 154.5 t65 179.5q0 80 -64.5 133t-185.5 53q-135 0 -231.5 -65.5t-141.5 -182.5h-166zM383 0l41 199h190l-41 -199h-190z" />
<glyph unicode="@" horiz-adv-x="1873" d="M174 575q0 170 41 306.5t111.5 240t162 176t192.5 118.5t204.5 67.5t195.5 21.5q160 0 299.5 -45t241.5 -128t161.5 -200.5t59.5 -265.5q0 -141 -35.5 -263t-96 -211t-140.5 -139t-170 -50q-45 0 -82 16.5t-63.5 45t-42 64.5t-15.5 77q-14 -27 -44 -60t-72 -60.5t-94 -47 t-111 -19.5q-55 0 -109.5 18.5t-97.5 58.5t-69 101.5t-26 147.5q0 129 36 237.5t98.5 187.5t148.5 123t186 44q70 0 133.5 -36t86.5 -104l45 125h112l-116 -579q-12 -61 -13 -101q0 -123 113 -123q49 0 101.5 36t94 105.5t68.5 170t27 229.5q0 119 -45 215t-126 165 t-196 105.5t-254 36.5q-76 0 -161 -18t-168.5 -57t-160.5 -101.5t-135.5 -151.5t-93 -206t-34.5 -264q0 -162 55 -282t148 -198.5t214 -117.5t250 -39q88 0 171 15t149 38v-125q-66 -23 -155 -38t-185 -15q-152 0 -295.5 47t-254 140t-178 234.5t-67.5 331.5zM721 555 q0 -113 57 -165t135 -52q43 0 85 16.5t80 51t67 88t43 124.5l29 140q4 23 6 45t2 43q0 86 -44 130t-128 44q-66 0 -126.5 -34t-106.5 -94.5t-72.5 -146.5t-26.5 -190z" />
<glyph unicode="A" horiz-adv-x="1398" d="M-74 0l912 1475h188l283 -1475h-168l-72 395h-725l-240 -395h-178zM424 528h620l-139 787z" />
<glyph unicode="B" horiz-adv-x="1320" d="M80 0l313 1475h500q213 0 323.5 -79t110.5 -220q0 -68 -22.5 -131.5t-64.5 -117t-102.5 -94t-133.5 -61.5q104 -23 167.5 -95.5t63.5 -182.5q0 -86 -32 -174.5t-105.5 -159t-192.5 -115.5t-291 -45h-534zM268 133h381q104 0 182 27.5t130.5 75t79 113t26.5 140.5 q0 104 -71.5 163t-213.5 59h-393zM418 838h385q88 0 155.5 26.5t113.5 71.5t69.5 101.5t23.5 117.5q0 92 -68.5 143.5t-199.5 51.5h-371z" />
<glyph unicode="C" horiz-adv-x="1482" d="M150 528q0 90 19 198t61 216.5t107.5 209.5t160 180t218.5 126t281 47q111 0 207 -26.5t167 -85t112 -151.5t41 -226h-158q-2 86 -20.5 151.5t-62.5 110.5t-116.5 68.5t-181.5 23.5q-123 0 -220 -41t-172 -107.5t-128 -153.5t-87 -179t-49.5 -182.5t-15.5 -165.5 q0 -209 107.5 -322t292.5 -113q96 0 182 29t156.5 81t122 125t79.5 163h166q-31 -109 -95 -206t-156.5 -170t-210.5 -116t-257 -43q-129 0 -230 38t-173 110.5t-109.5 176t-37.5 234.5z" />
<glyph unicode="D" horiz-adv-x="1425" d="M80 0l313 1475h416q139 0 252 -34t192.5 -101.5t123.5 -168t44 -235.5q0 -160 -50 -327t-156.5 -302t-270.5 -221t-393 -86h-471zM268 135h293q129 0 231.5 37t179.5 98.5t131 141.5t89 168t50 177t15 167q0 211 -118.5 315t-325.5 104h-289z" />
<glyph unicode="E" horiz-adv-x="1165" d="M80 0l313 1475h895l-31 -138h-733l-112 -520h675l-28 -135h-676l-115 -545h736l-29 -137h-895z" />
<glyph unicode="F" horiz-adv-x="1140" d="M80 0l313 1475h879l-29 -138h-719l-121 -559h648l-29 -137h-647l-135 -641h-160z" />
<glyph unicode="G" horiz-adv-x="1503" d="M152 530q0 96 19 206t61 218.5t108 208t159 176t215 121.5t273 45q104 0 199.5 -26.5t166 -82t112.5 -139t42 -198.5h-159q-2 150 -94.5 230.5t-278.5 80.5q-125 0 -221.5 -43t-170 -112.5t-124.5 -157.5t-83 -180.5t-46.5 -178.5t-14.5 -153q0 -111 31 -193t84 -137 t125 -83t156 -28q92 0 179 30t158.5 82t123 125t69.5 159l33 151h-455l29 131h600l-166 -782h-119l21 207q-84 -106 -215 -172t-287 -66q-111 0 -207 36t-169 106.5t-113.5 176t-40.5 242.5z" />
<glyph unicode="H" horiz-adv-x="1425" d="M80 0l313 1475h160l-141 -658h780l141 658h162l-313 -1475h-162l143 680h-780l-143 -680h-160z" />
<glyph unicode="I" horiz-adv-x="483" d="M80 0l313 1475h160l-313 -1475h-160z" />
<glyph unicode="J" horiz-adv-x="1089" d="M53 322q0 41 8 79h156q-4 -25 -5 -42t-1 -33q0 -111 61.5 -165.5t169.5 -54.5q137 0 223.5 81t118.5 235l226 1053h159l-225 -1057q-47 -213 -169 -331t-337 -118q-88 0 -158.5 25.5t-120.5 72t-78 111t-28 144.5z" />
<glyph unicode="K" horiz-adv-x="1255" d="M80 0l313 1475h160l-143 -672l790 672h207l-854 -725l604 -750h-196l-570 711l-151 -711h-160z" />
<glyph unicode="L" horiz-adv-x="1126" d="M80 0l313 1475h162l-283 -1332h723l-30 -143h-885z" />
<glyph unicode="M" horiz-adv-x="1753" d="M80 0l313 1475h219l232 -1293l753 1293h226l-314 -1475h-151l260 1231l-727 -1231h-160l-233 1241l-262 -1241h-156z" />
<glyph unicode="N" horiz-adv-x="1464" d="M80 0l313 1475h195l530 -1272l273 1272h145l-313 -1475h-185l-538 1282l-273 -1282h-147z" />
<glyph unicode="O" horiz-adv-x="1562" d="M152 535q0 82 17 185t56 211.5t103.5 211t159 183.5t222.5 130t291 49q119 0 221.5 -35.5t177.5 -107.5t118 -177.5t43 -242.5q0 -82 -17.5 -185.5t-57.5 -212t-104.5 -212t-159 -184t-221 -130t-290.5 -49.5q-123 0 -225.5 37t-177.5 109.5t-115.5 178t-40.5 241.5z M313 535q0 -213 111 -323t297 -110q129 0 229.5 43t176 114t127 161t83 182t46 180t14.5 156q0 106 -29 187t-82 136.5t-128 83t-167 27.5q-131 0 -232.5 -43t-177 -113.5t-127 -160.5t-83 -183.5t-45 -181.5t-13.5 -155z" />
<glyph unicode="P" horiz-adv-x="1286" d="M80 0l313 1475h467q229 0 353 -96.5t124 -274.5q0 -125 -43 -227.5t-125 -176t-200.5 -113.5t-268.5 -40h-346l-114 -547h-160zM383 680h317q106 0 193.5 29.5t149 83t94 128t32.5 166.5q0 119 -76.5 186.5t-226.5 67.5h-342z" />
<glyph unicode="Q" horiz-adv-x="1562" d="M152 535q0 82 17 185t56 211.5t103.5 211t159 183.5t222.5 130t291 49q119 0 221.5 -35.5t177.5 -107.5t118 -177.5t43 -242.5q0 -86 -19.5 -197.5t-65.5 -226.5t-121 -222.5t-184 -184.5l164 -277l-149 -86l-148 289q-72 -33 -152.5 -50.5t-174.5 -17.5 q-123 0 -225.5 37t-177.5 109.5t-115.5 178t-40.5 241.5zM313 535q0 -213 111 -323t297 -110q129 0 229.5 43t176 114t127 161t83 182t46 180t14.5 156q0 106 -29 187t-82 136.5t-128 83t-167 27.5q-131 0 -232.5 -43t-177 -113.5t-127 -160.5t-83 -183.5t-45 -181.5 t-13.5 -155z" />
<glyph unicode="R" horiz-adv-x="1310" d="M80 0l313 1475h459q242 0 369 -92.5t127 -262.5q0 -102 -33 -186t-91.5 -147.5t-140.5 -107.5t-178 -69l297 -610h-184l-275 584h-381l-122 -584h-160zM391 717h348q102 0 184.5 31.5t138.5 86t86 125t30 148.5q0 113 -78 173t-244 60h-332z" />
<glyph unicode="S" horiz-adv-x="1329" d="M88 395h160q0 -141 89 -216t275 -75q117 0 203 28t143.5 75t86 111.5t28.5 136.5q0 43 -18.5 79.5t-62.5 68.5t-120.5 61.5t-193.5 60.5q-207 53 -300 142t-93 212q0 92 36.5 170t109.5 135.5t180.5 89t248.5 31.5q236 0 371 -100t137 -283h-162q-2 119 -84 183.5 t-266 64.5q-211 0 -309 -81t-98 -208q0 -41 17 -72.5t57 -59t107.5 -52.5t168.5 -51q121 -33 203.5 -73t135 -88t76 -104.5t23.5 -119.5q0 -102 -42 -192.5t-122 -157t-197.5 -104.5t-267.5 -38q-246 0 -383 114t-137 312z" />
<glyph unicode="T" horiz-adv-x="1206" d="M227 1331l33 144h1149l-31 -144h-497l-281 -1331h-162l283 1331h-494z" />
<glyph unicode="U" horiz-adv-x="1441" d="M162 385q0 55 12 115l209 975h160l-213 -998q-6 -25 -8.5 -46t-2.5 -42q0 -129 89.5 -206t255.5 -77q94 0 177 27t146.5 76t106.5 117.5t61 150.5l213 998h156l-213 -1002q-25 -111 -79 -203t-137 -159.5t-195 -104.5t-249 -37q-115 0 -205 30t-153.5 85t-97 132 t-33.5 169z" />
<glyph unicode="V" horiz-adv-x="1304" d="M240 1475h159l195 -1328l766 1328h168l-852 -1475h-207z" />
<glyph unicode="W" horiz-adv-x="1961" d="M250 1475h156l65 -1295l641 1295h207l78 -1291l620 1291h160l-713 -1475h-194l-86 1309l-645 -1309h-205z" />
<glyph unicode="X" horiz-adv-x="1294" d="M-53 0l688 768l-338 707h176l277 -594l534 594h197l-660 -717l363 -758h-178l-295 641l-568 -641h-196z" />
<glyph unicode="Y" horiz-adv-x="1282" d="M240 1475h163l297 -754l629 754h176l-745 -893l-121 -582h-160l123 584z" />
<glyph unicode="Z" horiz-adv-x="1308" d="M8 0l29 141l1171 1194h-870l31 140h1081l-29 -136l-1175 -1200h899l-29 -139h-1108z" />
<glyph unicode="[" horiz-adv-x="614" d="M-37 -348l428 2007h400l-27 -129h-254l-373 -1749h254l-29 -129h-399z" />
<glyph unicode="\" horiz-adv-x="747" d="M303 1505h137l119 -1689h-135z" />
<glyph unicode="]" horiz-adv-x="614" d="M-63 -348l26 129h254l373 1749h-252l27 129h401l-428 -2007h-401z" />
<glyph unicode="^" horiz-adv-x="1009" d="M160 819l502 656h147l225 -656h-155l-166 508l-379 -508h-174z" />
<glyph unicode="_" horiz-adv-x="1230" d="M-74 -248l29 137h1110l-31 -137h-1108z" />
<glyph unicode="`" horiz-adv-x="534" d="M303 1505h195l149 -280h-131z" />
<glyph unicode="a" horiz-adv-x="1103" d="M59 223q0 92 35 160t98.5 115t153.5 76.5t203 48.5l321 53l17 72q6 27 6 57q0 80 -56.5 125t-168.5 45q-123 0 -201 -53.5t-107 -143.5h-163q47 143 168.5 230.5t314.5 87.5q170 0 267 -75t97 -210q0 -23 -3 -44.5t-7 -43.5l-151 -723h-125l12 162q-61 -78 -160.5 -135.5 t-234.5 -57.5q-147 0 -231.5 72t-84.5 182zM221 242q0 -70 51.5 -107t147.5 -37q63 0 126.5 21.5t118 59.5t93.5 91.5t51 114.5l37 168l-279 -47q-188 -33 -267 -96.5t-79 -167.5z" />
<glyph unicode="b" horiz-adv-x="1216" d="M70 0l313 1475h152l-125 -584q68 90 168 147.5t225 57.5q172 0 274.5 -103.5t102.5 -294.5q0 -55 -11.5 -129.5t-39 -155.5t-71.5 -161t-110.5 -142.5t-157 -101.5t-206.5 -39q-72 0 -127.5 18.5t-95 49.5t-65.5 69.5t-38 79.5l-63 -186h-125zM307 387q0 -141 69.5 -215 t192.5 -74q88 0 156 32t118 84t82.5 116.5t53 130t30 126t9.5 101.5q0 135 -66.5 207t-189.5 72q-92 0 -175 -44t-145.5 -123t-98.5 -184.5t-36 -228.5z" />
<glyph unicode="c" horiz-adv-x="1120" d="M102 381q0 57 11.5 132t39 155t72.5 156.5t113 137t159 97.5t212 37q86 0 158.5 -24.5t124.5 -69t81 -105.5t29 -137h-164q-2 98 -59.5 152.5t-173.5 54.5q-125 0 -210 -64.5t-137.5 -156t-75 -191.5t-22.5 -174q0 -145 73 -214t187 -69q113 0 202 61.5t130 168.5h170 q-27 -74 -73 -139.5t-111.5 -113.5t-149.5 -77t-182 -29q-88 0 -162 27t-128 79t-84 129t-30 177z" />
<glyph unicode="d" horiz-adv-x="1216" d="M100 375q0 63 13.5 142t43 159t76 155.5t113 134t152.5 94.5t194 36q127 0 212 -59.5t116 -153.5l125 592h153l-313 -1475h-125l8 174q-72 -92 -167 -148.5t-224 -56.5q-80 0 -148.5 27t-119.5 78t-80 126.5t-29 174.5zM260 381q0 -141 71.5 -212t188.5 -71 q100 0 183 49.5t142.5 130t91.5 185t32 213.5q0 143 -70.5 217t-193.5 74q-84 0 -148.5 -30t-114 -78t-84 -109.5t-56 -127t-32 -128t-10.5 -113.5z" />
<glyph unicode="e" horiz-adv-x="1177" d="M104 385q0 70 14.5 148.5t46.5 158.5t81 153t117.5 128t156.5 89t199 34q90 0 164.5 -23.5t128 -73t83 -125t29.5 -180.5q0 -45 -6 -93t-16 -103h-834q-4 -29 -7 -55.5t-3 -51.5q0 -152 78 -222.5t211 -70.5q109 0 196.5 54.5t135.5 146.5h163q-31 -72 -81 -132.5 t-115.5 -104.5t-145 -68.5t-170.5 -24.5q-90 0 -167.5 27t-135 79t-90.5 130t-33 180zM299 621h672q4 29 5 47t1 37q0 135 -72.5 201.5t-189.5 66.5q-139 0 -250 -88t-166 -264z" />
<glyph unicode="f" horiz-adv-x="636" d="M125 0l197 934h-158l29 131h157l39 178q29 129 106.5 195.5t200.5 66.5q47 0 90 -9t91 -26l-25 -127q-45 16 -82 23.5t-74 7.5q-131 0 -157 -135l-37 -174h239l-26 -131h-240l-199 -934h-151z" />
<glyph unicode="g" horiz-adv-x="1216" d="M37 -86h156q0 -193 258 -193q156 0 256 80t129 219l41 193q-68 -80 -163.5 -129t-215.5 -49q-78 0 -147.5 27.5t-123 80t-85 127t-31.5 170.5q0 104 34.5 220t105.5 212.5t180.5 160t256.5 63.5q129 0 216 -57.5t120 -147.5l61 174h125l-227 -1067q-37 -178 -170 -287.5 t-364 -109.5q-203 0 -307.5 83t-104.5 230zM270 440q0 -135 71 -205.5t194 -70.5q104 0 186 44t137 116.5t85 167t30 196.5q0 141 -72.5 210t-195.5 69q-119 0 -201 -52.5t-134.5 -130t-76 -171t-23.5 -173.5z" />
<glyph unicode="h" horiz-adv-x="1146" d="M70 0l313 1475h152l-121 -560q70 90 165 135.5t185 45.5q70 0 128 -20.5t101 -60.5t66.5 -97.5t23.5 -129.5q-2 -23 -4 -43t-8 -49l-147 -696h-152l150 707q8 41 8 79q0 88 -53.5 134.5t-155.5 46.5q-57 0 -115.5 -21.5t-107.5 -62.5t-87 -98.5t-53 -131.5l-137 -653 h-151z" />
<glyph unicode="i" horiz-adv-x="450" d="M68 0l225 1065h151l-225 -1065h-151zM328 1284l41 191h176l-41 -191h-176z" />
<glyph unicode="j" horiz-adv-x="450" d="M-264 -369l24 123q69 -22 119 -22h4q66 0 104 32.5t56 118.5l250 1182h151l-254 -1194q-29 -127 -100.5 -198.5t-193.5 -71.5q-84 0 -160 30zM328 1284l41 191h176l-41 -191h-176z" />
<glyph unicode="k" horiz-adv-x="1030" d="M70 0l313 1475h152l-179 -834l549 424h209l-620 -481l458 -584h-184l-432 549l-115 -549h-151z" />
<glyph unicode="l" horiz-adv-x="454" d="M70 0l313 1475h152l-314 -1475h-151z" />
<glyph unicode="m" horiz-adv-x="1767" d="M70 0l225 1065h125l-14 -145q76 94 163.5 135t178.5 41q113 0 186.5 -48.5t91.5 -142.5q86 104 185.5 147.5t197.5 43.5q135 0 218 -70t83 -205q0 -47 -12 -102l-152 -719h-153l151 711q4 27 7 48t3 42q0 166 -186 166q-61 0 -118.5 -23.5t-102.5 -63.5t-78 -94.5 t-45 -117.5l-141 -668h-152l150 711q12 51 12 90q0 86 -47 126t-139 40q-61 0 -118 -23.5t-103 -65.5t-78.5 -98.5t-47.5 -122.5l-139 -657h-151z" />
<glyph unicode="n" horiz-adv-x="1146" d="M70 0l225 1065h125l-17 -160q78 94 175.5 142.5t189.5 48.5q145 0 230 -75t85 -216q0 -51 -12 -109l-147 -696h-152l150 707q8 41 8 79q0 88 -53.5 134.5t-155.5 46.5q-57 0 -114.5 -21.5t-107.5 -61.5t-87 -96.5t-52 -128.5l-139 -659h-151z" />
<glyph unicode="o" horiz-adv-x="1202" d="M102 389q0 57 12.5 133t41 154t76 153.5t117 135t163.5 95.5t217 36q92 0 169 -27t134.5 -79t89 -130t31.5 -180q0 -59 -12.5 -135t-41 -155t-75.5 -154.5t-116.5 -135t-164 -95.5t-217.5 -36q-92 0 -169.5 28t-134 81t-88.5 131t-32 180zM262 391q0 -147 75 -222 t200 -75q88 0 156.5 31t119.5 81t86 113.5t55.5 128t29.5 124t9 104.5q0 147 -73.5 221t-196.5 74q-135 0 -224 -65.5t-141.5 -158t-74 -191.5t-21.5 -165z" />
<glyph unicode="p" horiz-adv-x="1216" d="M-10 -369l305 1434h125q-4 -43 -6 -85t-6 -85q70 90 167 145.5t226 55.5q84 0 153.5 -26t119.5 -77t78 -124.5t28 -170.5q0 -57 -12.5 -134t-40 -157.5t-72.5 -159.5t-110.5 -140.5t-155 -99.5t-203.5 -38q-127 0 -212 62.5t-114 150.5l-119 -551h-151zM307 391 q0 -143 70.5 -218t193.5 -75q129 0 214 65.5t137.5 160t74 194.5t21.5 172q0 141 -72 209t-188 68q-92 0 -174 -44t-143.5 -122t-97.5 -183.5t-36 -226.5z" />
<glyph unicode="q" horiz-adv-x="1216" d="M100 375q0 53 11.5 126.5t37 153.5t69.5 159t109.5 141.5t155.5 101.5t207 39q127 0 213 -57.5t121 -151.5l61 178h125l-305 -1434h-153l116 541q-68 -88 -167 -145.5t-222 -57.5q-80 0 -149.5 27t-120.5 78t-80 126.5t-29 174.5zM260 381q0 -141 71.5 -212t188.5 -71 q100 0 183 49.5t142.5 129t91.5 184t32 215.5q0 143 -70.5 217t-193.5 74q-88 0 -155 -32t-116 -82t-83 -113.5t-53 -129t-28.5 -126t-9.5 -103.5z" />
<glyph unicode="r" horiz-adv-x="712" d="M70 0l225 1065h125l-17 -182q127 213 312 213q70 0 127 -23l-33 -147q-29 10 -56.5 16t-60.5 6q-55 0 -108.5 -23.5t-101.5 -72.5t-85 -122t-57 -171l-119 -559h-151z" />
<glyph unicode="s" horiz-adv-x="1017" d="M49 266v10q0 6 2 17h150v-19q0 -47 20.5 -81.5t55 -57t80 -33t94.5 -10.5q55 0 111 14.5t100.5 43t72 72.5t27.5 104q0 39 -17.5 65.5t-52.5 46t-87 33.5t-120 29q-147 31 -224 97.5t-77 170.5q0 57 22.5 115.5t75 105.5t137.5 77t208 30q176 0 277.5 -81t101.5 -222 h-152q0 84 -60.5 133t-177.5 49q-74 0 -126 -16.5t-84.5 -44t-48 -63.5t-15.5 -77q0 -55 49 -89t187 -60q178 -37 262 -105.5t84 -179.5q0 -59 -23.5 -124.5t-80 -120t-148.5 -90.5t-230 -36q-92 0 -164.5 22.5t-123 61.5t-78 93.5t-27.5 119.5z" />
<glyph unicode="t" horiz-adv-x="638" d="M154 934l28 131h156l65 256h142l-56 -256h240l-29 -131h-237l-150 -696q-4 -12 -5 -25.5t-1 -24.5q0 -47 26.5 -66.5t78.5 -19.5q29 0 56.5 4.5t74.5 14.5l-29 -131q-70 -20 -133 -21q-109 0 -167 55.5t-58 161.5q0 23 5 46.5t9 46.5l139 655h-155z" />
<glyph unicode="u" horiz-adv-x="1136" d="M125 262q0 25 2 52.5t8 56.5l150 694h151l-149 -703q-6 -29 -8.5 -51t-2.5 -41q0 -172 205 -172q70 0 129.5 24.5t105.5 67.5t77.5 100.5t46.5 123.5l137 651h153l-225 -1065h-127l13 147q-72 -92 -165.5 -135t-191.5 -43q-137 0 -223 74t-86 219z" />
<glyph unicode="v" horiz-adv-x="1034" d="M172 1065h158l127 -940l528 940h166l-614 -1065h-205z" />
<glyph unicode="w" horiz-adv-x="1615" d="M182 1065h150l63 -905l463 905h184l82 -901l439 901h159l-534 -1065h-180l-88 899l-461 -899h-185z" />
<glyph unicode="x" horiz-adv-x="1064" d="M-53 0l518 561l-270 504h170l210 -395l355 395h188l-467 -504l303 -561h-174l-235 451l-408 -451h-190z" />
<glyph unicode="y" horiz-adv-x="1034" d="M41 -373l27 121q47 -20 98 -20q33 0 58.5 14t51 46t55 84t70.5 128h-47l-182 1065h154l147 -944l514 944h164l-598 -1077q-55 -98 -97 -171t-85 -121t-90.5 -71.5t-110.5 -23.5q-70 0 -129 26z" />
<glyph unicode="z" horiz-adv-x="985" d="M-12 0l28 145l824 791h-625l29 129h815l-31 -147l-819 -787h651l-26 -131h-846z" />
<glyph unicode="{" horiz-adv-x="696" d="M131 608l29 140q78 0 143.5 46t87.5 144l88 418q16 80 47 137t80 94t118 54.5t161 17.5l-29 -129q-61 0 -101 -11.5t-66.5 -35t-41 -58t-24.5 -79.5l-84 -400q-27 -123 -90.5 -191.5t-149.5 -90.5q59 -18 94 -65.5t35 -125.5q0 -23 -2 -43t-8 -49l-86 -404q-4 -29 -7 -49 t-3 -37q0 -55 34.5 -83.5t126.5 -28.5l-24 -123q-152 0 -217.5 60.5t-65.5 168.5q0 59 17 121l83 400q6 23 7.5 38t1.5 27q0 72 -44 104.5t-110 32.5z" />
<glyph unicode="|" horiz-adv-x="722" d="M147 -287l402 1895h141l-401 -1895h-142z" />
<glyph unicode="}" horiz-adv-x="696" d="M-74 -344l29 129q61 0 101 11t65.5 35t41 57.5t25.5 80.5l84 400q27 123 90.5 191.5t149.5 90.5q-59 18 -94 65.5t-35 125.5q0 23 2 43t8 49l86 403q4 29 7 49.5t3 36.5q0 55 -34.5 84t-126.5 29l24 123q152 0 217.5 -60.5t65.5 -168.5q0 -59 -17 -121l-83 -400 q-6 -23 -7.5 -38t-1.5 -27q0 -72 44 -104.5t110 -32.5l-29 -140q-78 0 -143.5 -46t-87.5 -144l-88 -418q-35 -158 -127 -230.5t-279 -72.5z" />
<glyph unicode="~" d="M227 547l33 158q47 31 113.5 58.5t138.5 27.5q63 0 105 -18.5t78 -40t73 -40t86 -18.5q70 0 138.5 32.5t125.5 73.5l-31 -157q-47 -31 -114.5 -57.5t-138.5 -26.5q-63 0 -105.5 17t-79.5 38.5t-72.5 40t-87.5 18.5q-70 0 -137 -32.5t-125 -73.5z" />
<glyph unicode="&#xa1;" horiz-adv-x="557" d="M25 -369l239 998h127l-186 -998h-180zM295 907l41 199h190l-41 -199h-190z" />
<glyph unicode="&#xa2;" d="M143 381q0 55 10.5 127t35 147.5t65.5 149.5t102.5 134t143.5 101t190 52l55 260h144l-58 -265q147 -20 229.5 -106t82.5 -221h-164q0 98 -58.5 152.5t-175.5 54.5q-82 0 -147.5 -30t-114.5 -79t-83.5 -111.5t-56 -127t-32 -127t-10.5 -111.5q0 -145 72.5 -214t187.5 -69 q113 0 203 61.5t131 168.5h168q-25 -70 -68 -132.5t-102 -109.5t-135 -78t-164 -37l-51 -247h-144l54 256q-137 25 -223.5 126t-86.5 275z" />
<glyph unicode="&#xa3;" d="M41 0l29 139q86 29 135 87.5t71 168.5l56 258h-96l28 125h94l62 297q41 199 165 294t298 95q74 0 139 -19.5t113.5 -59t77 -99t28.5 -137.5h-154q-4 88 -58 137t-157 49q-117 0 -196.5 -68.5t-106.5 -197.5l-61 -291h418l-27 -125h-418l-45 -215q-20 -92 -57 -170 t-119 -129h760l-29 -139h-950z" />
<glyph unicode="&#xa4;" d="M150 287l131 131q-39 55 -61.5 122.5t-22.5 155.5q0 86 22.5 154t56.5 121l-126 127l108 106l123 -125q63 49 143 74t152 25t151.5 -25t143.5 -74l125 125l106 -106l-129 -129q35 -53 58.5 -121t23.5 -152q0 -86 -23.5 -154.5t-60.5 -121.5l131 -133l-106 -107l-129 129 q-63 -47 -141 -70.5t-150 -23.5t-149.5 22.5t-143.5 69.5l-127 -127zM340 696q0 -78 26.5 -142.5t71.5 -110.5t106.5 -71.5t133.5 -25.5q68 0 129 25.5t106 71.5t72 110.5t27 142.5t-27 142.5t-72 110.5t-106.5 72t-128.5 26q-70 0 -131.5 -26t-107.5 -72t-72.5 -110.5 t-26.5 -142.5z" />
<glyph unicode="&#xa5;" d="M201 281l24 118h295l39 176h-295l25 121h229l-293 738h166l268 -711l582 711h174l-606 -738h231l-26 -121h-295l-39 -176h297l-27 -118h-295l-59 -281h-160l60 281h-295z" />
<glyph unicode="&#xa6;" horiz-adv-x="722" d="M150 -287l167 789h138l-168 -789h-137zM385 819l166 789h137l-166 -789h-137z" />
<glyph unicode="&#xa7;" horiz-adv-x="1214" d="M125 90h156q4 -76 63 -114.5t158 -38.5q72 0 122 17t80.5 46t45 63.5t14.5 71.5q0 59 -51 98t-168 74q-166 47 -252 114.5t-86 176.5q0 123 82 207t223 131q-111 74 -111 190q0 72 29 134.5t83 107.5t134 70.5t184 25.5q166 0 262.5 -75.5t100.5 -200.5h-156 q-4 76 -61 115.5t-156 39.5q-72 0 -122 -17t-81.5 -46t-46 -64.5t-14.5 -70.5q0 -59 51 -99t168 -73q166 -47 252 -115.5t86 -177.5q0 -125 -83 -208t-222 -130q53 -39 83 -86t30 -106q0 -72 -29 -133.5t-84 -106.5t-135 -70.5t-182 -25.5q-168 0 -265.5 76.5t-101.5 199.5z M365 621q0 -74 67.5 -113t200.5 -86l69 -25q139 55 195.5 113.5t56.5 148.5q0 74 -64.5 115t-199.5 84l-72 23q-139 -55 -196 -112.5t-57 -147.5z" />
<glyph unicode="&#xa8;" horiz-adv-x="784" d="M276 1300l39 175h170l-39 -175h-170zM717 1300l39 175h170l-39 -175h-170z" />
<glyph unicode="&#xa9;" horiz-adv-x="1779" d="M201 737q0 203 67.5 347.5t177 238.5t246.5 138t277 44q137 0 274 -44t246.5 -138t177.5 -238.5t68 -347.5t-68 -347t-177.5 -238.5t-246.5 -138.5t-274 -44q-139 0 -276.5 44t-247 138.5t-177 239t-67.5 346.5zM332 737q0 -168 54 -291.5t143 -204.5t204 -120t236 -39 t234.5 39t202.5 120t143.5 204.5t54.5 291.5t-54.5 292t-143.5 205t-202.5 120t-234.5 39t-236 -39t-204 -120t-143 -205t-54 -292zM594 737q0 115 32.5 198t85 135t120 76.5t137.5 24.5q133 0 227 -67.5t115 -190.5h-131q-16 74 -70.5 115t-136.5 41q-51 0 -96.5 -19.5 t-79 -59.5t-54 -102.5t-20.5 -148.5q0 -90 22.5 -151.5t58.5 -99t81 -54t88 -16.5q96 0 149.5 51t63.5 119h131q-8 -53 -35 -103.5t-71 -88.5t-104 -60.5t-136 -22.5q-63 0 -130 22.5t-122 73t-90 131.5t-35 197z" />
<glyph unicode="&#xaa;" horiz-adv-x="978" d="M41 0l29 137h733l-29 -137h-733zM236 805q0 82 31.5 139t83.5 96t122 61.5t145 33.5l220 30l10 54q4 16 6 30.5t2 24.5q0 57 -37 89t-121 32q-74 0 -132 -30t-81 -89h-137q18 51 53 93t82 73t105.5 47t122.5 16q123 0 201.5 -58t78.5 -161q0 -29 -6 -59l-127 -600h-98 v110q-47 -55 -121 -93t-158 -38q-47 0 -91 11.5t-77.5 36t-55 62.5t-21.5 89zM375 827q0 -53 39 -80.5t108 -27.5q45 0 89 16.5t80 44t61.5 65.5t33.5 79l29 131l-182 -25q-117 -16 -187.5 -64t-70.5 -139z" />
<glyph unicode="&#xab;" horiz-adv-x="1007" d="M180 645l338 420h113l-271 -426l64 -455h-105zM575 645l336 420h113l-270 -426l63 -455h-104z" />
<glyph unicode="&#xac;" d="M233 592l31 137h846l-106 -491h-150l76 354h-697z" />
<glyph unicode="&#xad;" horiz-adv-x="1105" d="M227 592l29 137h737l-28 -137h-738z" />
<glyph unicode="&#xae;" horiz-adv-x="1296" d="M274 1010q0 131 46.5 224t119 152.5t161.5 87t173 27.5q86 0 175 -27.5t162 -87t119 -152.5t46 -224t-46 -224.5t-119 -153t-162 -87t-175 -27.5q-84 0 -173 27.5t-161.5 87t-119 153t-46.5 224.5zM377 1010q0 -106 34.5 -182t90 -125.5t127 -73t145.5 -23.5t145.5 23.5 t128 73t91.5 125t35 182.5q0 106 -35 182t-91.5 125t-128 72.5t-145.5 23.5t-145.5 -23.5t-127 -72.5t-90 -125t-34.5 -182zM621 752v524h153q78 0 132.5 -39t54.5 -119q0 -106 -101 -149l121 -217h-96l-107 198h-71v-198h-86zM707 1020h69q45 0 69.5 28.5t24.5 69.5 q0 39 -24.5 63.5t-73.5 24.5h-65v-186z" />
<glyph unicode="&#xaf;" horiz-adv-x="647" d="M258 1317l29 131h522l-27 -131h-524z" />
<glyph unicode="&#xb0;" d="M285 1092q0 82 27.5 150.5t76.5 117.5t115.5 76.5t144.5 27.5q61 0 116.5 -19.5t98.5 -57t67.5 -93t24.5 -127.5q0 -74 -25.5 -140t-73.5 -117.5t-115.5 -82t-149.5 -30.5q-61 0 -116.5 19.5t-98.5 56t-67.5 92t-24.5 127.5zM422 1098q0 -88 48 -138.5t126 -50.5 q49 0 90 19.5t70.5 53.5t46 80t16.5 99q0 88 -49 139.5t-127 51.5q-51 0 -92 -20.5t-69.5 -56.5t-44 -82t-15.5 -95z" />
<glyph unicode="&#xb1;" d="M111 0l28 137h844l-29 -137h-843zM233 592l31 137h348l74 352h150l-76 -352h350l-31 -137h-348l-63 -295h-148l62 295h-349z" />
<glyph unicode="&#xb2;" horiz-adv-x="837" d="M109 602l28 131l348 266q72 55 119 96.5t75 74t39 61.5t11 59q0 51 -32.5 82t-102.5 31q-78 0 -135.5 -33t-81.5 -100h-144q39 119 136.5 186.5t234.5 67.5q119 0 196 -57.5t77 -157.5q0 -47 -15.5 -90t-52.5 -90.5t-99.5 -101.5t-156.5 -124l-229 -170h428l-27 -131 h-616z" />
<glyph unicode="&#xb3;" horiz-adv-x="868" d="M143 829h142q4 -59 44 -91.5t126 -32.5q63 0 106 18t68.5 47t37 62.5t11.5 66.5q0 66 -43 93.5t-107 27.5h-79l24 108h78q45 0 80 15.5t59.5 41t36.5 57.5t12 65q0 53 -38.5 76.5t-102.5 23.5q-78 0 -126 -33t-71 -86h-145q37 109 125 172.5t223 63.5q55 0 106.5 -11.5 t90.5 -35t62.5 -61.5t23.5 -91q0 -35 -12.5 -74t-40 -72.5t-71.5 -60t-110 -37.5q78 -10 124 -55t46 -121q0 -51 -20.5 -107.5t-65.5 -103.5t-116.5 -77.5t-174.5 -30.5q-147 0 -224 68.5t-79 174.5z" />
<glyph unicode="&#xb4;" horiz-adv-x="534" d="M236 1225l268 280h211l-332 -280h-147z" />
<glyph unicode="&#xb5;" horiz-adv-x="1146" d="M-10 -369l305 1434h151l-151 -717q-10 -47 -10 -80q0 -170 207 -170q70 0 129 24.5t105 67.5t78 100.5t46 123.5l137 651h154l-226 -1065h-127l13 147q-72 -92 -164 -135t-191 -43q-70 0 -125 28t-85 71l-95 -437h-151z" />
<glyph unicode="&#xb6;" horiz-adv-x="1191" d="M285 1055q0 82 29.5 158.5t84 134t128 92.5t163.5 35h137l-393 -1844h-137l246 1151q-35 0 -79 15.5t-84 47.5t-67.5 84t-27.5 126zM713 -369l393 1844h137l-393 -1844h-137z" />
<glyph unicode="&#xb7;" horiz-adv-x="598" d="M238 553l43 201h190l-41 -201h-192z" />
<glyph unicode="&#xb8;" horiz-adv-x="606" d="M-96 -309h116q0 -39 30 -65.5t89 -26.5q63 0 106.5 36.5t43.5 96.5q0 45 -41 68.5t-146 23.5l66 213h108l-28 -131q80 -12 122 -55.5t42 -106.5q0 -43 -17.5 -86t-53.5 -79t-89 -58.5t-125 -22.5q-98 0 -160.5 50.5t-62.5 142.5z" />
<glyph unicode="&#xb9;" horiz-adv-x="512" d="M180 1253l29 138l254 114h135l-192 -903h-144l162 762z" />
<glyph unicode="&#xba;" horiz-adv-x="937" d="M20 0l29 137h715l-29 -137h-715zM225 911q0 49 8.5 112.5t30 129.5t56 129.5t87 112.5t124 79.5t165.5 30.5q59 0 114.5 -16t97.5 -53t66.5 -95.5t24.5 -142.5q0 -49 -8 -111.5t-28.5 -128t-55.5 -129t-87 -112.5t-124 -80t-166 -31q-59 0 -114.5 16.5t-97.5 52.5 t-67.5 94t-25.5 142zM365 922q0 -111 50 -158t126 -47q88 0 148.5 49t98 122t55 154.5t17.5 147.5q0 111 -49 157t-127 46q-86 0 -147.5 -49.5t-99.5 -122t-55 -154.5t-17 -145z" />
<glyph unicode="&#xbb;" horiz-adv-x="1007" d="M104 184l256 455l-90 426h105l166 -420l-324 -461h-113zM500 184l256 455l-90 426h104l164 -420l-322 -461h-112z" />
<glyph unicode="&#xbc;" horiz-adv-x="1683" d="M185 -190l1234 1802h160l-1237 -1802h-157zM237 1253l29 138l254 114h135l-192 -903h-144l162 762zM958 172l29 131l524 602h145l-131 -612h137l-24 -121h-137l-37 -170h-127l37 170h-416zM1107 293h289l92 420z" />
<glyph unicode="&#xbd;" horiz-adv-x="1851" d="M185 -190l1234 1802h160l-1237 -1802h-157zM237 1253l29 138l254 114h135l-192 -903h-144l162 762zM1063 2l28 131l348 266q72 55 119 96.5t75 74t39 61.5t11 59q0 51 -32.5 82t-102.5 31q-78 0 -135.5 -33t-81.5 -100h-144q39 119 136.5 186.5t234.5 67.5 q119 0 196 -57.5t77 -157.5q0 -47 -15.5 -90t-52.5 -90.5t-99.5 -101.5t-156.5 -124l-229 -170h428l-27 -131h-616z" />
<glyph unicode="&#xbe;" horiz-adv-x="1947" d="M184 829h142q4 -59 44 -91.5t126 -32.5q63 0 106 18t68.5 47t37 62.5t11.5 66.5q0 66 -43 93.5t-107 27.5h-79l24 108h78q45 0 80 15.5t59.5 41t36.5 57.5t12 65q0 53 -38.5 76.5t-102.5 23.5q-78 0 -126 -33t-71 -86h-145q37 109 125 172.5t223 63.5q55 0 106.5 -11.5 t90.5 -35t62.5 -61.5t23.5 -91q0 -35 -12.5 -74t-40 -72.5t-71.5 -60t-110 -37.5q78 -10 124 -55t46 -121q0 -51 -20.5 -107.5t-65.5 -103.5t-116.5 -77.5t-174.5 -30.5q-147 0 -224 68.5t-79 174.5zM449 -190l1234 1802h160l-1237 -1802h-157zM1223 172l29 131l524 602h145 l-131 -612h137l-24 -121h-137l-37 -170h-127l37 170h-416zM1372 293h289l92 420z" />
<glyph unicode="&#xbf;" horiz-adv-x="1128" d="M-12 -88q0 78 24.5 140.5t71.5 116.5t116.5 105.5t161.5 106.5q49 29 80 56.5t52.5 61t36 78t26.5 107.5h152q-18 -86 -41 -148.5t-56.5 -110.5t-83 -88t-120.5 -83q-66 -39 -115 -75t-81 -74.5t-48.5 -84t-16.5 -102.5q0 -80 63.5 -132t186.5 -52q135 0 231.5 65.5 t141.5 182.5h164q-59 -178 -199.5 -279.5t-351.5 -101.5q-72 0 -141.5 19.5t-127 58t-92 97t-34.5 136.5zM584 907l41 199h190l-41 -199h-190z" />
<glyph unicode="&#xc0;" horiz-adv-x="1398" d="M-74 0l912 1475h188l283 -1475h-168l-72 395h-725l-240 -395h-178zM424 528h620l-139 787zM737 1853h195l149 -280h-131z" />
<glyph unicode="&#xc1;" horiz-adv-x="1398" d="M-74 0l912 1475h188l283 -1475h-168l-72 395h-725l-240 -395h-178zM424 528h620l-139 787zM797 1573l268 280h211l-332 -280h-147z" />
<glyph unicode="&#xc2;" horiz-adv-x="1398" d="M-74 0l912 1475h188l283 -1475h-168l-72 395h-725l-240 -395h-178zM424 528h620l-139 787zM627 1573l290 280h179l169 -280h-147l-125 190l-205 -190h-161z" />
<glyph unicode="&#xc3;" horiz-adv-x="1398" d="M-74 0l912 1475h188l283 -1475h-168l-72 395h-725l-240 -395h-178zM424 528h620l-139 787zM672 1614l28 135q49 31 90.5 47t88.5 16q45 0 71.5 -11t48 -25.5t43 -25.5t58.5 -11q41 0 85 20.5t97 54.5l-31 -135q-49 -31 -87 -47t-85 -16t-72.5 11t-47 25.5t-43 25.5 t-58.5 11q-41 0 -87 -20.5t-99 -54.5z" />
<glyph unicode="&#xc4;" horiz-adv-x="1398" d="M-74 0l912 1475h188l283 -1475h-168l-72 395h-725l-240 -395h-178zM424 528h620l-139 787zM653 1648l39 175h170l-39 -175h-170zM1094 1648l39 175h170l-39 -175h-170z" />
<glyph unicode="&#xc5;" horiz-adv-x="1398" d="M-74 0l887 1434q-53 29 -82 78t-29 110q0 53 19.5 101.5t56.5 85t89.5 58t117.5 21.5q111 0 173.5 -63.5t62.5 -155.5q0 -86 -48.5 -154.5t-136.5 -95.5l273 -1419h-168l-72 395h-725l-240 -395h-178zM424 528h620l-139 787zM817 1624q0 -59 35 -92t94 -33q78 0 120 49 t42 121q0 59 -35 92t-94 33q-78 0 -120 -49t-42 -121z" />
<glyph unicode="&#xc6;" horiz-adv-x="1955" d="M-82 0l1198 1475h963l-31 -138h-692l-113 -520h635l-29 -135h-635l-114 -545h694l-29 -137h-854l82 395h-563l-319 -395h-193zM537 528h485l170 813z" />
<glyph unicode="&#xc7;" horiz-adv-x="1482" d="M150 528q0 90 19 198t61 216.5t107.5 209.5t160 180t218.5 126t281 47q111 0 207 -26.5t167 -85t112 -151.5t41 -226h-158q-2 86 -20.5 151.5t-62.5 110.5t-116.5 68.5t-181.5 23.5q-123 0 -220 -41t-172 -107.5t-128 -153.5t-87 -179t-49.5 -182.5t-15.5 -165.5 q0 -209 107.5 -322t292.5 -113q96 0 182 29t156.5 81t122 125t79.5 163h166q-29 -104 -88 -196.5t-145 -165t-195.5 -117.5t-238.5 -54l-13 -65q78 -12 121 -54t43 -104q0 -43 -17.5 -87t-53 -81t-89 -59.5t-125.5 -22.5q-98 0 -160.5 49.5t-62.5 143.5h117 q0 -39 29.5 -65.5t89.5 -26.5q61 0 105 36.5t44 96.5q0 45 -41 68.5t-145 23.5l43 149q-229 16 -358 162t-129 393z" />
<glyph unicode="&#xc8;" horiz-adv-x="1165" d="M80 0l313 1475h895l-31 -138h-733l-112 -520h675l-28 -135h-676l-115 -545h736l-29 -137h-895zM647 1853h195l149 -280h-131z" />
<glyph unicode="&#xc9;" horiz-adv-x="1165" d="M80 0l313 1475h895l-31 -138h-733l-112 -520h675l-28 -135h-676l-115 -545h736l-29 -137h-895zM715 1573l268 280h211l-332 -280h-147z" />
<glyph unicode="&#xca;" horiz-adv-x="1165" d="M80 0l313 1475h895l-31 -138h-733l-112 -520h675l-28 -135h-676l-115 -545h736l-29 -137h-895zM535 1573l290 280h179l169 -280h-147l-125 190l-205 -190h-161z" />
<glyph unicode="&#xcb;" horiz-adv-x="1165" d="M80 0l313 1475h895l-31 -138h-733l-112 -520h675l-28 -135h-676l-115 -545h736l-29 -137h-895zM552 1648l39 175h170l-39 -175h-170zM993 1648l39 175h170l-39 -175h-170z" />
<glyph unicode="&#xcc;" horiz-adv-x="483" d="M80 0l313 1475h160l-313 -1475h-160zM274 1853h195l149 -280h-131z" />
<glyph unicode="&#xcd;" horiz-adv-x="483" d="M80 0l313 1475h160l-313 -1475h-160zM338 1573l268 280h211l-332 -280h-147z" />
<glyph unicode="&#xce;" horiz-adv-x="483" d="M80 0l313 1475h160l-313 -1475h-160zM164 1573l290 280h179l169 -280h-147l-125 190l-205 -190h-161z" />
<glyph unicode="&#xcf;" horiz-adv-x="483" d="M80 0l313 1475h160l-313 -1475h-160zM194 1648l39 175h170l-39 -175h-170zM635 1648l39 175h170l-39 -175h-170z" />
<glyph unicode="&#xd0;" horiz-adv-x="1425" d="M80 0l149 707h-110l28 137h111l135 631h416q139 0 252 -34t192.5 -101.5t123.5 -168t44 -235.5q0 -160 -50 -327t-156.5 -302t-270.5 -221t-393 -86h-471zM268 135h293q129 0 231.5 37t179.5 98.5t131 141.5t89 168t50 177t15 167q0 211 -118.5 315t-325.5 104h-289 l-106 -499h444l-28 -137h-445z" />
<glyph unicode="&#xd1;" horiz-adv-x="1464" d="M80 0l313 1475h195l530 -1272l273 1272h145l-313 -1475h-185l-538 1282l-273 -1282h-147zM711 1614l28 135q49 31 90.5 47t88.5 16q45 0 71.5 -11t48 -25.5t43 -25.5t58.5 -11q41 0 85 20.5t97 54.5l-31 -135q-49 -31 -87 -47t-85 -16t-72.5 11t-47 25.5t-43 25.5 t-58.5 11q-41 0 -87 -20.5t-99 -54.5z" />
<glyph unicode="&#xd2;" horiz-adv-x="1562" d="M152 535q0 82 17 185t56 211.5t103.5 211t159 183.5t222.5 130t291 49q119 0 221.5 -35.5t177.5 -107.5t118 -177.5t43 -242.5q0 -82 -17.5 -185.5t-57.5 -212t-104.5 -212t-159 -184t-221 -130t-290.5 -49.5q-123 0 -225.5 37t-177.5 109.5t-115.5 178t-40.5 241.5z M313 535q0 -213 111 -323t297 -110q129 0 229.5 43t176 114t127 161t83 182t46 180t14.5 156q0 106 -29 187t-82 136.5t-128 83t-167 27.5q-131 0 -232.5 -43t-177 -113.5t-127 -160.5t-83 -183.5t-45 -181.5t-13.5 -155zM797 1853h195l149 -280h-131z" />
<glyph unicode="&#xd3;" horiz-adv-x="1562" d="M152 535q0 82 17 185t56 211.5t103.5 211t159 183.5t222.5 130t291 49q119 0 221.5 -35.5t177.5 -107.5t118 -177.5t43 -242.5q0 -82 -17.5 -185.5t-57.5 -212t-104.5 -212t-159 -184t-221 -130t-290.5 -49.5q-123 0 -225.5 37t-177.5 109.5t-115.5 178t-40.5 241.5z M313 535q0 -213 111 -323t297 -110q129 0 229.5 43t176 114t127 161t83 182t46 180t14.5 156q0 106 -29 187t-82 136.5t-128 83t-167 27.5q-131 0 -232.5 -43t-177 -113.5t-127 -160.5t-83 -183.5t-45 -181.5t-13.5 -155zM891 1573l268 280h211l-332 -280h-147z" />
<glyph unicode="&#xd4;" horiz-adv-x="1562" d="M152 535q0 82 17 185t56 211.5t103.5 211t159 183.5t222.5 130t291 49q119 0 221.5 -35.5t177.5 -107.5t118 -177.5t43 -242.5q0 -82 -17.5 -185.5t-57.5 -212t-104.5 -212t-159 -184t-221 -130t-290.5 -49.5q-123 0 -225.5 37t-177.5 109.5t-115.5 178t-40.5 241.5z M313 535q0 -213 111 -323t297 -110q129 0 229.5 43t176 114t127 161t83 182t46 180t14.5 156q0 106 -29 187t-82 136.5t-128 83t-167 27.5q-131 0 -232.5 -43t-177 -113.5t-127 -160.5t-83 -183.5t-45 -181.5t-13.5 -155zM701 1573l290 280h179l169 -280h-147l-125 190 l-205 -190h-161z" />
<glyph unicode="&#xd5;" horiz-adv-x="1562" d="M152 535q0 82 17 185t56 211.5t103.5 211t159 183.5t222.5 130t291 49q119 0 221.5 -35.5t177.5 -107.5t118 -177.5t43 -242.5q0 -82 -17.5 -185.5t-57.5 -212t-104.5 -212t-159 -184t-221 -130t-290.5 -49.5q-123 0 -225.5 37t-177.5 109.5t-115.5 178t-40.5 241.5z M313 535q0 -213 111 -323t297 -110q129 0 229.5 43t176 114t127 161t83 182t46 180t14.5 156q0 106 -29 187t-82 136.5t-128 83t-167 27.5q-131 0 -232.5 -43t-177 -113.5t-127 -160.5t-83 -183.5t-45 -181.5t-13.5 -155zM756 1614l28 135q49 31 90.5 47t88.5 16 q45 0 71.5 -11t48 -25.5t43 -25.5t58.5 -11q41 0 85 20.5t97 54.5l-31 -135q-49 -31 -87 -47t-85 -16t-72.5 11t-47 25.5t-43 25.5t-58.5 11q-41 0 -87 -20.5t-99 -54.5z" />
<glyph unicode="&#xd6;" horiz-adv-x="1562" d="M152 535q0 82 17 185t56 211.5t103.5 211t159 183.5t222.5 130t291 49q119 0 221.5 -35.5t177.5 -107.5t118 -177.5t43 -242.5q0 -82 -17.5 -185.5t-57.5 -212t-104.5 -212t-159 -184t-221 -130t-290.5 -49.5q-123 0 -225.5 37t-177.5 109.5t-115.5 178t-40.5 241.5z M313 535q0 -213 111 -323t297 -110q129 0 229.5 43t176 114t127 161t83 182t46 180t14.5 156q0 106 -29 187t-82 136.5t-128 83t-167 27.5q-131 0 -232.5 -43t-177 -113.5t-127 -160.5t-83 -183.5t-45 -181.5t-13.5 -155zM725 1648l39 175h170l-39 -175h-170zM1166 1648 l39 175h170l-39 -175h-170z" />
<glyph unicode="&#xd7;" d="M276 418l306 252l-201 250l108 90l201 -256l305 252l82 -103l-305 -250l201 -254l-111 -88l-200 256l-306 -250z" />
<glyph unicode="&#xd8;" horiz-adv-x="1562" d="M152 535q0 82 17 185t56 211.5t103.5 211t159 183.5t222.5 130t291 49q113 0 205 -32l121 206h156l-154 -264q106 -68 169 -186.5t63 -286.5q0 -82 -17.5 -185.5t-57.5 -212t-104.5 -212t-159 -184t-221 -130t-290.5 -49.5q-115 0 -203 31l-129 -225h-156l160 280 q-109 70 -170 191t-61 289zM313 535q0 -125 39 -213.5t109 -141.5l674 1170q-68 22 -144 22q-131 0 -232.5 -43t-177 -113.5t-127 -160.5t-83 -183.5t-45 -181.5t-13.5 -155zM573 123q63 -20 148 -21q129 0 229.5 43t176 114t127 161t83 182t46 180t14.5 156q0 123 -39 212 t-109 142z" />
<glyph unicode="&#xd9;" horiz-adv-x="1441" d="M162 385q0 55 12 115l209 975h160l-213 -998q-6 -25 -8.5 -46t-2.5 -42q0 -129 89.5 -206t255.5 -77q94 0 177 27t146.5 76t106.5 117.5t61 150.5l213 998h156l-213 -1002q-25 -111 -79 -203t-137 -159.5t-195 -104.5t-249 -37q-115 0 -205 30t-153.5 85t-97 132 t-33.5 169zM776 1853h195l149 -280h-131z" />
<glyph unicode="&#xda;" horiz-adv-x="1441" d="M162 385q0 55 12 115l209 975h160l-213 -998q-6 -25 -8.5 -46t-2.5 -42q0 -129 89.5 -206t255.5 -77q94 0 177 27t146.5 76t106.5 117.5t61 150.5l213 998h156l-213 -1002q-25 -111 -79 -203t-137 -159.5t-195 -104.5t-249 -37q-115 0 -205 30t-153.5 85t-97 132 t-33.5 169zM826 1573l268 280h211l-332 -280h-147z" />
<glyph unicode="&#xdb;" horiz-adv-x="1441" d="M162 385q0 55 12 115l209 975h160l-213 -998q-6 -25 -8.5 -46t-2.5 -42q0 -129 89.5 -206t255.5 -77q94 0 177 27t146.5 76t106.5 117.5t61 150.5l213 998h156l-213 -1002q-25 -111 -79 -203t-137 -159.5t-195 -104.5t-249 -37q-115 0 -205 30t-153.5 85t-97 132 t-33.5 169zM656 1573l290 280h179l169 -280h-147l-125 190l-205 -190h-161z" />
<glyph unicode="&#xdc;" horiz-adv-x="1441" d="M162 385q0 55 12 115l209 975h160l-213 -998q-6 -25 -8.5 -46t-2.5 -42q0 -129 89.5 -206t255.5 -77q94 0 177 27t146.5 76t106.5 117.5t61 150.5l213 998h156l-213 -1002q-25 -111 -79 -203t-137 -159.5t-195 -104.5t-249 -37q-115 0 -205 30t-153.5 85t-97 132 t-33.5 169zM675 1648l39 175h170l-39 -175h-170zM1116 1648l39 175h170l-39 -175h-170z" />
<glyph unicode="&#xdd;" horiz-adv-x="1282" d="M240 1475h163l297 -754l629 754h176l-745 -893l-121 -582h-160l123 584zM783 1573l268 280h211l-332 -280h-147z" />
<glyph unicode="&#xde;" horiz-adv-x="1267" d="M80 0l313 1475h160l-53 -250h303q227 0 351 -102.5t124 -282.5q0 -96 -33 -196.5t-108.5 -183.5t-196.5 -136.5t-297 -53.5h-346l-57 -270h-160zM326 403h315q106 0 193.5 31t148.5 87.5t95 134t34 173.5q0 123 -79 193t-226 70h-336z" />
<glyph unicode="&#xdf;" horiz-adv-x="1191" d="M70 0l231 1096q41 188 154.5 298.5t302.5 110.5q68 0 128 -16t106 -49t74 -82t28 -113q0 -68 -21.5 -116t-53.5 -84.5t-69 -65.5t-68.5 -55.5t-53 -56t-21.5 -66.5t26.5 -66.5t98.5 -68.5q109 -61 155 -133t46 -156q0 -74 -28 -147.5t-82 -131t-135 -93.5t-188 -36 q-150 0 -238.5 70t-99.5 190h154q12 -131 193 -131q117 0 191.5 72t74.5 197q0 57 -32 102t-107 90q-96 53 -136.5 105.5t-40.5 115.5q0 57 21.5 100.5t53.5 76t69 61.5t68.5 58.5t53 63.5t21.5 81q0 68 -51 111.5t-143 43.5q-113 0 -191 -68.5t-108 -211.5l-232 -1096h-151 z" />
<glyph unicode="&#xe0;" horiz-adv-x="1103" d="M59 223q0 92 35 160t98.5 115t153.5 76.5t203 48.5l321 53l17 72q6 27 6 57q0 80 -56.5 125t-168.5 45q-123 0 -201 -53.5t-107 -143.5h-163q47 143 168.5 230.5t314.5 87.5q170 0 267 -75t97 -210q0 -23 -3 -44.5t-7 -43.5l-151 -723h-125l12 162q-61 -78 -160.5 -135.5 t-234.5 -57.5q-147 0 -231.5 72t-84.5 182zM221 242q0 -70 51.5 -107t147.5 -37q63 0 126.5 21.5t118 59.5t93.5 91.5t51 114.5l37 168l-279 -47q-188 -33 -267 -96.5t-79 -167.5zM485 1505h195l149 -280h-131z" />
<glyph unicode="&#xe1;" horiz-adv-x="1103" d="M59 223q0 92 35 160t98.5 115t153.5 76.5t203 48.5l321 53l17 72q6 27 6 57q0 80 -56.5 125t-168.5 45q-123 0 -201 -53.5t-107 -143.5h-163q47 143 168.5 230.5t314.5 87.5q170 0 267 -75t97 -210q0 -23 -3 -44.5t-7 -43.5l-151 -723h-125l12 162q-61 -78 -160.5 -135.5 t-234.5 -57.5q-147 0 -231.5 72t-84.5 182zM221 242q0 -70 51.5 -107t147.5 -37q63 0 126.5 21.5t118 59.5t93.5 91.5t51 114.5l37 168l-279 -47q-188 -33 -267 -96.5t-79 -167.5zM635 1225l268 280h211l-332 -280h-147z" />
<glyph unicode="&#xe2;" horiz-adv-x="1103" d="M59 223q0 92 35 160t98.5 115t153.5 76.5t203 48.5l321 53l17 72q6 27 6 57q0 80 -56.5 125t-168.5 45q-123 0 -201 -53.5t-107 -143.5h-163q47 143 168.5 230.5t314.5 87.5q170 0 267 -75t97 -210q0 -23 -3 -44.5t-7 -43.5l-151 -723h-125l12 162q-61 -78 -160.5 -135.5 t-234.5 -57.5q-147 0 -231.5 72t-84.5 182zM221 242q0 -70 51.5 -107t147.5 -37q63 0 126.5 21.5t118 59.5t93.5 91.5t51 114.5l37 168l-279 -47q-188 -33 -267 -96.5t-79 -167.5zM410 1225l290 280h179l169 -280h-147l-125 190l-205 -190h-161z" />
<glyph unicode="&#xe3;" horiz-adv-x="1103" d="M59 223q0 92 35 160t98.5 115t153.5 76.5t203 48.5l321 53l17 72q6 27 6 57q0 80 -56.5 125t-168.5 45q-123 0 -201 -53.5t-107 -143.5h-163q47 143 168.5 230.5t314.5 87.5q170 0 267 -75t97 -210q0 -23 -3 -44.5t-7 -43.5l-151 -723h-125l12 162q-61 -78 -160.5 -135.5 t-234.5 -57.5q-147 0 -231.5 72t-84.5 182zM221 242q0 -70 51.5 -107t147.5 -37q63 0 126.5 21.5t118 59.5t93.5 91.5t51 114.5l37 168l-279 -47q-188 -33 -267 -96.5t-79 -167.5zM453 1266l28 135q49 31 90.5 47t88.5 16q45 0 71.5 -11t48 -25.5t43 -25.5t58.5 -11 q41 0 85 20.5t97 54.5l-31 -135q-49 -31 -87 -47t-85 -16t-72.5 11t-47 25.5t-43 25.5t-58.5 11q-41 0 -87 -20.5t-99 -54.5z" />
<glyph unicode="&#xe4;" horiz-adv-x="1103" d="M59 223q0 92 35 160t98.5 115t153.5 76.5t203 48.5l321 53l17 72q6 27 6 57q0 80 -56.5 125t-168.5 45q-123 0 -201 -53.5t-107 -143.5h-163q47 143 168.5 230.5t314.5 87.5q170 0 267 -75t97 -210q0 -23 -3 -44.5t-7 -43.5l-151 -723h-125l12 162q-61 -78 -160.5 -135.5 t-234.5 -57.5q-147 0 -231.5 72t-84.5 182zM221 242q0 -70 51.5 -107t147.5 -37q63 0 126.5 21.5t118 59.5t93.5 91.5t51 114.5l37 168l-279 -47q-188 -33 -267 -96.5t-79 -167.5zM434 1300l39 175h170l-39 -175h-170zM875 1300l39 175h170l-39 -175h-170z" />
<glyph unicode="&#xe5;" horiz-adv-x="1103" d="M59 223q0 92 35 160t98.5 115t153.5 76.5t203 48.5l321 53l17 72q6 27 6 57q0 80 -56.5 125t-168.5 45q-123 0 -201 -53.5t-107 -143.5h-163q47 143 168.5 230.5t314.5 87.5q170 0 267 -75t97 -210q0 -23 -3 -44.5t-7 -43.5l-151 -723h-125l12 162q-61 -78 -160.5 -135.5 t-234.5 -57.5q-147 0 -231.5 72t-84.5 182zM221 242q0 -70 51.5 -107t147.5 -37q63 0 126.5 21.5t118 59.5t93.5 91.5t51 114.5l37 168l-279 -47q-188 -33 -267 -96.5t-79 -167.5zM510 1411q0 53 19 101.5t56 84t89.5 57t117.5 21.5q111 0 173.5 -63.5t62.5 -155.5 q0 -53 -19.5 -101t-56.5 -84t-89.5 -57.5t-115.5 -21.5q-111 0 -174 63.5t-63 155.5zM624 1411q0 -59 35 -92t94 -33q78 0 120 49t42 121q0 59 -36 92t-93 33q-78 0 -120 -49t-42 -121z" />
<glyph unicode="&#xe6;" horiz-adv-x="1900" d="M59 223q0 94 37 163t101.5 116t154.5 75.5t197 45.5l321 53l17 72q6 27 6 57q0 80 -56.5 125t-168.5 45q-123 0 -201 -53.5t-107 -143.5h-163q47 143 168.5 230.5t314.5 87.5q141 0 224 -53.5t106 -155.5q80 104 189.5 158.5t238.5 54.5q90 0 164.5 -23.5t129 -71 t84 -122t29.5 -174.5q0 -78 -22 -187h-832q-6 -35 -10 -67.5t-4 -61.5q0 -156 81 -223.5t208 -67.5q111 0 198.5 54.5t134.5 144.5h164q-31 -72 -81 -131t-115.5 -103t-145.5 -69t-170 -25q-141 0 -244.5 64.5t-144.5 187.5q-92 -135 -213.5 -195.5t-273.5 -60.5 q-147 0 -231.5 72t-84.5 182zM221 242q0 -70 51.5 -107t147.5 -37q63 0 126.5 21.5t118 59.5t93.5 91.5t51 114.5l37 168l-279 -47q-188 -33 -267 -96.5t-79 -167.5zM1020 645h672q4 29 5 44.5t1 33.5q0 129 -71.5 191.5t-192.5 62.5q-137 0 -249 -88t-165 -244z" />
<glyph unicode="&#xe7;" horiz-adv-x="1120" d="M102 381q0 57 11.5 132t39 155t72.5 156.5t113 137t159 97.5t212 37q182 0 287.5 -90.5t105.5 -245.5h-164q-2 98 -59.5 152.5t-173.5 54.5q-125 0 -210 -64.5t-137.5 -156t-75 -191.5t-22.5 -174q0 -145 73 -214t187 -69q113 0 202 61.5t130 168.5h170 q-25 -72 -69 -134.5t-104.5 -109.5t-137 -77t-166.5 -36l-15 -65q80 -12 122 -55.5t42 -106.5q0 -43 -16 -86t-51 -79t-88.5 -58.5t-126.5 -22.5q-98 0 -162 49.5t-64 143.5h117q0 -39 29.5 -65.5t89.5 -26.5q63 0 107 36.5t44 96.5q0 45 -42 68.5t-146 23.5l45 153 q-145 18 -236.5 121t-91.5 283z" />
<glyph unicode="&#xe8;" horiz-adv-x="1177" d="M104 385q0 70 14.5 148.5t46.5 158.5t81 153t117.5 128t156.5 89t199 34q90 0 164.5 -23.5t128 -73t83 -125t29.5 -180.5q0 -45 -6 -93t-16 -103h-834q-4 -29 -7 -55.5t-3 -51.5q0 -152 78 -222.5t211 -70.5q109 0 196.5 54.5t135.5 146.5h163q-31 -72 -81 -132.5 t-115.5 -104.5t-145 -68.5t-170.5 -24.5q-90 0 -167.5 27t-135 79t-90.5 130t-33 180zM299 621h672q4 29 5 47t1 37q0 135 -72.5 201.5t-189.5 66.5q-139 0 -250 -88t-166 -264zM516 1505h195l149 -280h-131z" />
<glyph unicode="&#xe9;" horiz-adv-x="1177" d="M104 385q0 70 14.5 148.5t46.5 158.5t81 153t117.5 128t156.5 89t199 34q90 0 164.5 -23.5t128 -73t83 -125t29.5 -180.5q0 -45 -6 -93t-16 -103h-834q-4 -29 -7 -55.5t-3 -51.5q0 -152 78 -222.5t211 -70.5q109 0 196.5 54.5t135.5 146.5h163q-31 -72 -81 -132.5 t-115.5 -104.5t-145 -68.5t-170.5 -24.5q-90 0 -167.5 27t-135 79t-90.5 130t-33 180zM299 621h672q4 29 5 47t1 37q0 135 -72.5 201.5t-189.5 66.5q-139 0 -250 -88t-166 -264zM668 1225l268 280h211l-332 -280h-147z" />
<glyph unicode="&#xea;" horiz-adv-x="1177" d="M104 385q0 70 14.5 148.5t46.5 158.5t81 153t117.5 128t156.5 89t199 34q90 0 164.5 -23.5t128 -73t83 -125t29.5 -180.5q0 -45 -6 -93t-16 -103h-834q-4 -29 -7 -55.5t-3 -51.5q0 -152 78 -222.5t211 -70.5q109 0 196.5 54.5t135.5 146.5h163q-31 -72 -81 -132.5 t-115.5 -104.5t-145 -68.5t-170.5 -24.5q-90 0 -167.5 27t-135 79t-90.5 130t-33 180zM299 621h672q4 29 5 47t1 37q0 135 -72.5 201.5t-189.5 66.5q-139 0 -250 -88t-166 -264zM443 1225l290 280h179l169 -280h-147l-125 190l-205 -190h-161z" />
<glyph unicode="&#xeb;" horiz-adv-x="1177" d="M104 385q0 70 14.5 148.5t46.5 158.5t81 153t117.5 128t156.5 89t199 34q90 0 164.5 -23.5t128 -73t83 -125t29.5 -180.5q0 -45 -6 -93t-16 -103h-834q-4 -29 -7 -55.5t-3 -51.5q0 -152 78 -222.5t211 -70.5q109 0 196.5 54.5t135.5 146.5h163q-31 -72 -81 -132.5 t-115.5 -104.5t-145 -68.5t-170.5 -24.5q-90 0 -167.5 27t-135 79t-90.5 130t-33 180zM299 621h672q4 29 5 47t1 37q0 135 -72.5 201.5t-189.5 66.5q-139 0 -250 -88t-166 -264zM469 1300l39 175h170l-39 -175h-170zM910 1300l39 175h170l-39 -175h-170z" />
<glyph unicode="&#xec;" horiz-adv-x="450" d="M68 0l225 1065h151l-225 -1065h-151zM184 1505h195l149 -280h-131z" />
<glyph unicode="&#xed;" horiz-adv-x="450" d="M68 0l225 1065h151l-225 -1065h-151zM281 1225l268 280h211l-332 -280h-147z" />
<glyph unicode="&#xee;" horiz-adv-x="450" d="M68 0l225 1065h151l-225 -1065h-151zM86 1225l290 280h179l169 -280h-147l-125 190l-205 -190h-161z" />
<glyph unicode="&#xef;" horiz-adv-x="450" d="M68 0l225 1065h151l-225 -1065h-151zM114 1300l39 175h170l-39 -175h-170zM555 1300l39 175h170l-39 -175h-170z" />
<glyph unicode="&#xf0;" horiz-adv-x="1157" d="M96 365q0 111 36 221t104.5 199t171 144.5t237.5 55.5q68 0 126 -18.5t102.5 -50t74 -75.5t41.5 -93q4 31 5 61.5t1 54.5q0 123 -33.5 212t-93.5 153l-106 -90h-176l190 161q-55 37 -122.5 60.5t-139.5 36.5l33 123q92 -20 177 -52t157 -79l96 86h176l-182 -156 q80 -78 125 -186.5t45 -255.5q0 -70 -10.5 -164.5t-38 -194.5t-73.5 -198.5t-118 -176t-172 -126t-233 -48.5q-182 0 -291 105.5t-109 290.5zM250 358q0 -133 70.5 -196.5t181.5 -63.5q96 0 176 43t136 112t88 155t32 174q0 123 -70.5 198.5t-206.5 75.5q-109 0 -185.5 -49 t-125.5 -123t-72.5 -161t-23.5 -165z" />
<glyph unicode="&#xf1;" horiz-adv-x="1146" d="M70 0l225 1065h125l-17 -160q78 94 175.5 142.5t189.5 48.5q145 0 230 -75t85 -216q0 -51 -12 -109l-147 -696h-152l150 707q8 41 8 79q0 88 -53.5 134.5t-155.5 46.5q-57 0 -114.5 -21.5t-107.5 -61.5t-87 -96.5t-52 -128.5l-139 -659h-151zM498 1266l28 135 q49 31 90.5 47t88.5 16q45 0 71.5 -11t48 -25.5t43 -25.5t58.5 -11q41 0 85 20.5t97 54.5l-31 -135q-49 -31 -87 -47t-85 -16t-72.5 11t-47 25.5t-43 25.5t-58.5 11q-41 0 -87 -20.5t-99 -54.5z" />
<glyph unicode="&#xf2;" horiz-adv-x="1202" d="M102 389q0 57 12.5 133t41 154t76 153.5t117 135t163.5 95.5t217 36q92 0 169 -27t134.5 -79t89 -130t31.5 -180q0 -59 -12.5 -135t-41 -155t-75.5 -154.5t-116.5 -135t-164 -95.5t-217.5 -36q-92 0 -169.5 28t-134 81t-88.5 131t-32 180zM262 391q0 -147 75 -222 t200 -75q88 0 156.5 31t119.5 81t86 113.5t55.5 128t29.5 124t9 104.5q0 147 -73.5 221t-196.5 74q-135 0 -224 -65.5t-141.5 -158t-74 -191.5t-21.5 -165zM536 1505h195l149 -280h-131z" />
<glyph unicode="&#xf3;" horiz-adv-x="1202" d="M102 389q0 57 12.5 133t41 154t76 153.5t117 135t163.5 95.5t217 36q92 0 169 -27t134.5 -79t89 -130t31.5 -180q0 -59 -12.5 -135t-41 -155t-75.5 -154.5t-116.5 -135t-164 -95.5t-217.5 -36q-92 0 -169.5 28t-134 81t-88.5 131t-32 180zM262 391q0 -147 75 -222 t200 -75q88 0 156.5 31t119.5 81t86 113.5t55.5 128t29.5 124t9 104.5q0 147 -73.5 221t-196.5 74q-135 0 -224 -65.5t-141.5 -158t-74 -191.5t-21.5 -165zM668 1225l268 280h211l-332 -280h-147z" />
<glyph unicode="&#xf4;" horiz-adv-x="1202" d="M102 389q0 57 12.5 133t41 154t76 153.5t117 135t163.5 95.5t217 36q92 0 169 -27t134.5 -79t89 -130t31.5 -180q0 -59 -12.5 -135t-41 -155t-75.5 -154.5t-116.5 -135t-164 -95.5t-217.5 -36q-92 0 -169.5 28t-134 81t-88.5 131t-32 180zM262 391q0 -147 75 -222 t200 -75q88 0 156.5 31t119.5 81t86 113.5t55.5 128t29.5 124t9 104.5q0 147 -73.5 221t-196.5 74q-135 0 -224 -65.5t-141.5 -158t-74 -191.5t-21.5 -165zM449 1225l290 280h179l169 -280h-147l-125 190l-205 -190h-161z" />
<glyph unicode="&#xf5;" horiz-adv-x="1202" d="M102 389q0 57 12.5 133t41 154t76 153.5t117 135t163.5 95.5t217 36q92 0 169 -27t134.5 -79t89 -130t31.5 -180q0 -59 -12.5 -135t-41 -155t-75.5 -154.5t-116.5 -135t-164 -95.5t-217.5 -36q-92 0 -169.5 28t-134 81t-88.5 131t-32 180zM262 391q0 -147 75 -222 t200 -75q88 0 156.5 31t119.5 81t86 113.5t55.5 128t29.5 124t9 104.5q0 147 -73.5 221t-196.5 74q-135 0 -224 -65.5t-141.5 -158t-74 -191.5t-21.5 -165zM496 1266l28 135q49 31 90.5 47t88.5 16q45 0 71.5 -11t48 -25.5t43 -25.5t58.5 -11q41 0 85 20.5t97 54.5l-31 -135 q-49 -31 -87 -47t-85 -16t-72.5 11t-47 25.5t-43 25.5t-58.5 11q-41 0 -87 -20.5t-99 -54.5z" />
<glyph unicode="&#xf6;" horiz-adv-x="1202" d="M102 389q0 57 12.5 133t41 154t76 153.5t117 135t163.5 95.5t217 36q92 0 169 -27t134.5 -79t89 -130t31.5 -180q0 -59 -12.5 -135t-41 -155t-75.5 -154.5t-116.5 -135t-164 -95.5t-217.5 -36q-92 0 -169.5 28t-134 81t-88.5 131t-32 180zM262 391q0 -147 75 -222 t200 -75q88 0 156.5 31t119.5 81t86 113.5t55.5 128t29.5 124t9 104.5q0 147 -73.5 221t-196.5 74q-135 0 -224 -65.5t-141.5 -158t-74 -191.5t-21.5 -165zM483 1300l39 175h170l-39 -175h-170zM924 1300l39 175h170l-39 -175h-170z" />
<glyph unicode="&#xf7;" d="M233 592l31 137h846l-31 -137h-846zM465 131l43 199h188l-43 -199h-188zM647 989l43 199h189l-43 -199h-189z" />
<glyph unicode="&#xf8;" horiz-adv-x="1202" d="M47 -225l193 286q-66 53 -102 135.5t-36 192.5q0 57 12.5 133t41 154t76 153.5t117 135t163.5 95.5t217 36q49 0 94 -8.5t86 -24.5l152 227h145l-190 -286q63 -51 100 -132t37 -192q0 -59 -12.5 -135t-41 -155t-75.5 -154.5t-116.5 -135t-164 -95.5t-217.5 -36 q-102 0 -180 33l-151 -227h-148zM262 391q0 -135 64 -209l512 768q-47 20 -115 21q-135 0 -224 -65.5t-141.5 -158t-74 -191.5t-21.5 -165zM418 115q49 -21 119 -21q88 0 156.5 31t119.5 81t86 113.5t55.5 128t29.5 124t9 104.5q0 68 -17.5 120t-47.5 89z" />
<glyph unicode="&#xf9;" horiz-adv-x="1136" d="M125 262q0 25 2 52.5t8 56.5l150 694h151l-149 -703q-6 -29 -8.5 -51t-2.5 -41q0 -172 205 -172q70 0 129.5 24.5t105.5 67.5t77.5 100.5t46.5 123.5l137 651h153l-225 -1065h-127l13 147q-72 -92 -165.5 -135t-191.5 -43q-137 0 -223 74t-86 219zM516 1505h195l149 -280 h-131z" />
<glyph unicode="&#xfa;" horiz-adv-x="1136" d="M125 262q0 25 2 52.5t8 56.5l150 694h151l-149 -703q-6 -29 -8.5 -51t-2.5 -41q0 -172 205 -172q70 0 129.5 24.5t105.5 67.5t77.5 100.5t46.5 123.5l137 651h153l-225 -1065h-127l13 147q-72 -92 -165.5 -135t-191.5 -43q-137 0 -223 74t-86 219zM625 1225l268 280h211 l-332 -280h-147z" />
<glyph unicode="&#xfb;" horiz-adv-x="1136" d="M125 262q0 25 2 52.5t8 56.5l150 694h151l-149 -703q-6 -29 -8.5 -51t-2.5 -41q0 -172 205 -172q70 0 129.5 24.5t105.5 67.5t77.5 100.5t46.5 123.5l137 651h153l-225 -1065h-127l13 147q-72 -92 -165.5 -135t-191.5 -43q-137 0 -223 74t-86 219zM424 1225l290 280h179 l169 -280h-147l-125 190l-205 -190h-161z" />
<glyph unicode="&#xfc;" horiz-adv-x="1136" d="M125 262q0 25 2 52.5t8 56.5l150 694h151l-149 -703q-6 -29 -8.5 -51t-2.5 -41q0 -172 205 -172q70 0 129.5 24.5t105.5 67.5t77.5 100.5t46.5 123.5l137 651h153l-225 -1065h-127l13 147q-72 -92 -165.5 -135t-191.5 -43q-137 0 -223 74t-86 219zM450 1300l39 175h170 l-39 -175h-170zM891 1300l39 175h170l-39 -175h-170z" />
<glyph unicode="&#xfd;" horiz-adv-x="1034" d="M41 -373l27 121q47 -20 98 -20q33 0 58.5 14t51 46t55 84t70.5 128h-47l-182 1065h154l147 -944l514 944h164l-598 -1077q-55 -98 -97 -171t-85 -121t-90.5 -71.5t-110.5 -23.5q-70 0 -129 26zM578 1225l268 280h211l-332 -280h-147z" />
<glyph unicode="&#xfe;" horiz-adv-x="1216" d="M-10 -369l393 1844h152l-125 -584q68 88 166 147.5t227 59.5q84 0 153.5 -25.5t119.5 -76t78 -124t28 -170.5q0 -59 -12.5 -136t-39 -157.5t-71.5 -159.5t-110.5 -140.5t-154.5 -99.5t-204 -38q-135 0 -216 62.5t-112 150.5l-119 -553h-153zM309 393q0 -143 71.5 -217 t194.5 -74q86 0 153 31t116 81t83 113.5t55.5 129t30.5 127t9 108.5q0 141 -71.5 209t-188.5 68q-92 0 -174 -44t-144.5 -122t-98.5 -182.5t-36 -227.5z" />
<glyph unicode="&#xff;" horiz-adv-x="1034" d="M41 -373l27 121q47 -20 98 -20q33 0 58.5 14t51 46t55 84t70.5 128h-47l-182 1065h154l147 -944l514 944h164l-598 -1077q-55 -98 -97 -171t-85 -121t-90.5 -71.5t-110.5 -23.5q-70 0 -129 26zM407 1300l39 175h170l-39 -175h-170zM848 1300l39 175h170l-39 -175h-170z " />
<glyph unicode="&#x152;" horiz-adv-x="1982" d="M152 537q0 82 17 186t57 211.5t104.5 210t160 182.5t222.5 129t291 49q39 0 70.5 -2t59 -5t55.5 -9t62 -14h852l-28 -138h-695l-110 -520h635l-29 -135h-635l-115 -545h693l-29 -137h-854q-49 -10 -99 -18.5t-128 -8.5q-123 0 -225.5 37t-176.5 108.5t-114.5 177 t-40.5 241.5zM313 537q0 -213 111 -322t297 -109q59 0 122.5 8.5t123.5 30.5l254 1192q-59 23 -111.5 29t-112.5 6q-133 0 -234 -43t-177 -112.5t-128 -159.5t-84 -182.5t-46.5 -181.5t-14.5 -156z" />
<glyph unicode="&#x153;" horiz-adv-x="2039" d="M102 389q0 57 12.5 133t41 154t76 153.5t117 135t163.5 95.5t217 36q141 0 241.5 -64.5t137.5 -195.5q80 129 198.5 194.5t262.5 65.5q90 0 164.5 -23.5t128 -73t83 -125t29.5 -180.5q0 -45 -6 -93t-16 -103h-834q-4 -29 -7 -55.5t-3 -51.5q0 -152 78 -222.5t211 -70.5 q109 0 196.5 54.5t135.5 146.5h163q-31 -72 -81 -132.5t-115.5 -104.5t-144 -68.5t-169.5 -24.5q-143 0 -244.5 65.5t-142.5 192.5q-82 -131 -201.5 -194.5t-267.5 -63.5q-92 0 -169.5 28t-134 81t-88.5 131t-32 180zM262 391q0 -147 75 -222t200 -75q154 0 273.5 110.5 t166.5 327.5q8 41 12 77t4 69q0 147 -73.5 220t-196.5 73q-135 0 -224 -65.5t-141.5 -158t-74 -191.5t-21.5 -165zM1149 621h672q4 29 5 47t1 37q0 135 -71.5 201.5t-190.5 66.5q-139 0 -249 -88t-167 -264z" />
<glyph unicode="&#x178;" horiz-adv-x="1282" d="M240 1475h163l297 -754l629 754h176l-745 -893l-121 -582h-160l123 584zM591 1648l39 175h170l-39 -175h-170zM1032 1648l39 175h170l-39 -175h-170z" />
<glyph unicode="&#x2c6;" horiz-adv-x="753" d="M236 1225l290 280h179l169 -280h-147l-125 190l-205 -190h-161z" />
<glyph unicode="&#x2dc;" horiz-adv-x="690" d="M248 1266l28 135q49 31 90.5 47t88.5 16q45 0 71.5 -11t48 -25.5t43 -25.5t58.5 -11q41 0 85 20.5t97 54.5l-31 -135q-49 -31 -87 -47t-85 -16t-72.5 11t-47 25.5t-43 25.5t-58.5 11q-41 0 -87 -20.5t-99 -54.5z" />
<glyph unicode="&#x2000;" horiz-adv-x="944" />
<glyph unicode="&#x2001;" horiz-adv-x="1888" />
<glyph unicode="&#x2002;" horiz-adv-x="944" />
<glyph unicode="&#x2003;" horiz-adv-x="1888" />
<glyph unicode="&#x2004;" horiz-adv-x="629" />
<glyph unicode="&#x2005;" horiz-adv-x="472" />
<glyph unicode="&#x2006;" horiz-adv-x="314" />
<glyph unicode="&#x2007;" horiz-adv-x="314" />
<glyph unicode="&#x2008;" horiz-adv-x="236" />
<glyph unicode="&#x2009;" horiz-adv-x="377" />
<glyph unicode="&#x200a;" horiz-adv-x="104" />
<glyph unicode="&#x2010;" horiz-adv-x="1105" d="M233 592l31 137h723l-31 -137h-723z" />
<glyph unicode="&#x2011;" horiz-adv-x="1105" d="M233 592l31 137h723l-31 -137h-723z" />
<glyph unicode="&#x2012;" horiz-adv-x="1105" d="M233 592l31 137h723l-31 -137h-723z" />
<glyph unicode="&#x2013;" horiz-adv-x="897" d="M82 592l29 137h819l-29 -137h-819z" />
<glyph unicode="&#x2014;" horiz-adv-x="1306" d="M82 592l29 137h1228l-28 -137h-1229z" />
<glyph unicode="&#x2018;" horiz-adv-x="579" d="M315 979l41 199q16 76 46 129t70 86.5t87 52t100 29.5l-16 -89q-61 -16 -103 -63t-65 -145h76l-41 -199h-195z" />
<glyph unicode="&#x2019;" horiz-adv-x="579" d="M274 979l19 88q61 16 102 63.5t64 145.5h-74l41 199h192l-40 -199q-16 -78 -46 -130t-70 -86t-88 -52.5t-100 -28.5z" />
<glyph unicode="&#x201a;" horiz-adv-x="579" d="M2 -297l18 90q61 16 103.5 62.5t64.5 144.5h-75l41 199h194l-41 -197q-16 -78 -46 -130t-69.5 -87t-88 -53.5t-101.5 -28.5z" />
<glyph unicode="&#x201c;" horiz-adv-x="897" d="M317 979l41 199q16 76 46 129t70 86.5t88 52t102 29.5l-19 -89q-61 -16 -103 -63t-65 -145h76l-41 -199h-195zM635 979l41 199q16 76 46 129t69.5 86.5t87 52t100.5 29.5l-18 -89q-61 -16 -102.5 -63t-63.5 -145h73l-41 -199h-192z" />
<glyph unicode="&#x201d;" horiz-adv-x="894" d="M274 979l19 88q61 16 102 63.5t64 145.5h-74l41 199h192l-40 -199q-16 -78 -46 -130t-70 -86t-88 -52.5t-100 -28.5zM590 979l18 88q61 16 103.5 63.5t64.5 145.5h-76l41 199h195l-41 -199q-16 -78 -46 -130t-70 -86t-88 -52.5t-101 -28.5z" />
<glyph unicode="&#x201e;" horiz-adv-x="894" d="M2 -297l18 90q61 16 103.5 62.5t64.5 144.5h-75l41 199h194l-41 -197q-16 -78 -46 -130t-69.5 -87t-88 -53.5t-101.5 -28.5zM319 -297l17 90q63 16 104 62.5t64 144.5h-74l41 199h193l-41 -197q-16 -78 -46 -130t-70 -87t-88 -53.5t-100 -28.5z" />
<glyph unicode="&#x2022;" horiz-adv-x="610" d="M174 502l64 301h311l-64 -301h-311z" />
<glyph unicode="&#x2026;" horiz-adv-x="1611" d="M121 0l41 199h186l-41 -199h-186zM631 0l41 199h186l-41 -199h-186zM1141 0l41 199h186l-41 -199h-186z" />
<glyph unicode="&#x202f;" horiz-adv-x="377" />
<glyph unicode="&#x2039;" horiz-adv-x="612" d="M180 645l338 420h113l-271 -426l64 -455h-105z" />
<glyph unicode="&#x203a;" horiz-adv-x="612" d="M104 184l256 455l-90 426h105l166 -420l-324 -461h-113z" />
<glyph unicode="&#x205f;" horiz-adv-x="472" />
<glyph unicode="&#x20ac;" d="M47 502l59 127h103q6 41 14 85t19 87h-129l57 127h111q39 106 95 203.5t134 171t176 117.5t221 44q211 0 323.5 -100t117.5 -281h-158q-2 123 -77 184.5t-198 61.5q-92 0 -165.5 -32.5t-132 -88t-101.5 -128t-74 -152.5h559l-59 -127h-539q-10 -45 -18 -88t-14 -84h485 l-59 -127h-435q0 -70 9.5 -140.5t39 -127t85 -92.5t147.5 -36q123 0 225.5 56.5t161.5 191.5h166q-68 -174 -209 -279.5t-342 -105.5q-119 0 -203 42t-138 115t-78.5 170t-24.5 206h-154z" />
<glyph unicode="&#x2122;" horiz-adv-x="1705" d="M266 1366v109h877l215 -658l205 658h190v-811h-119v684l-217 -684h-125l-229 684v-684h-115v702h-286v-702h-125v702h-271z" />
<glyph unicode="&#x25fc;" horiz-adv-x="1064" d="M0 0v1065h1065v-1065h-1065z" />
<glyph unicode="&#xfb01;" horiz-adv-x="1099" />
<glyph unicode="&#xfb02;" horiz-adv-x="1120" />
<glyph unicode="&#xfb03;" horiz-adv-x="1691" />
<glyph unicode="&#xfb04;" horiz-adv-x="1714" />
</font>
</defs>
</svg>
