<?xml version="1.0" standalone="no"?>
<!DOCTYPE svg PUBLIC "-//W3C//DTD SVG 1.1//EN" "http://www.w3.org/Graphics/SVG/1.1/DTD/svg11.dtd" >
<svg xmlns="http://www.w3.org/2000/svg">
<metadata></metadata>
<defs>
<font id="ciscosansttthinoblique" horiz-adv-x="1228" >
<font-face units-per-em="2048" ascent="1618" descent="-430" />
<missing-glyph horiz-adv-x="614" />
<glyph horiz-adv-x="0" />
<glyph unicode="&#xd;" horiz-adv-x="614" />
<glyph unicode=" "  horiz-adv-x="614" />
<glyph unicode="&#x09;" horiz-adv-x="614" />
<glyph unicode="&#xa0;" horiz-adv-x="614" />
<glyph unicode="!" horiz-adv-x="512" d="M119 0l26 131h111l-27 -131h-110zM221 451l219 1024h80l-219 -1024h-80z" />
<glyph unicode="&#x22;" d="M383 1004l49 313l41 188h82l-41 -188l-80 -313h-51zM649 1004l49 313l41 188h82l-41 -188l-80 -313h-51z" />
<glyph unicode="#" d="M117 412l14 67h184l144 475h-185l15 68h190l123 412h74l-123 -412h444l123 412h74l-123 -412h180l-14 -68h-186l-144 -475h187l-15 -67h-192l-121 -412h-74l121 412h-444l-121 -412h-74l121 412h-178zM389 479h445l143 475h-445z" />
<glyph unicode="$" d="M78 371h76q0 -164 108.5 -242t290.5 -78q104 0 197.5 25.5t165 75t113.5 121t42 165.5q0 47 -18.5 90t-65.5 80t-126 69t-197 56q-203 41 -287 122t-84 189q0 90 38 165t107.5 130.5t164.5 87t212 35.5l51 238h72l-51 -238q182 -8 296.5 -100t119.5 -252h-78 q-6 135 -104.5 211t-270.5 76q-113 0 -202 -27t-150.5 -73t-94 -110.5t-32.5 -139.5q0 -45 17.5 -82t58 -69t109.5 -58.5t171 -46.5q117 -25 198 -60t131 -79t71.5 -96t21.5 -112q0 -100 -41 -183t-117 -144.5t-182.5 -96t-237.5 -38.5l-53 -258h-72l56 260 q-195 10 -309.5 107t-114.5 280z" />
<glyph unicode="%" horiz-adv-x="1687" d="M254 1069q0 98 30.5 173t81 124t115 73.5t133.5 24.5q61 0 116.5 -18.5t96.5 -56t64.5 -94t23.5 -130.5q0 -82 -24.5 -153.5t-71.5 -124.5t-114.5 -84t-153.5 -31q-61 0 -115.5 18.5t-94.5 55.5t-63.5 93t-23.5 130zM322 1069q0 -125 66.5 -181.5t164.5 -56.5 q51 0 103.5 19.5t94.5 59.5t68.5 102.5t26.5 150.5q0 127 -68 184.5t-166 57.5q-68 0 -122 -25.5t-92 -71.5t-57 -107.5t-19 -131.5zM403 0l938 1434h78l-938 -1434h-78zM911 266q0 98 31 173t81 124t114.5 74t134.5 25q61 0 116.5 -18.5t96.5 -56.5t64.5 -94.5t23.5 -130.5 q0 -82 -24.5 -153.5t-71.5 -124.5t-115 -84t-154 -31q-61 0 -115.5 18.5t-94.5 55.5t-63.5 93.5t-23.5 129.5zM979 266q0 -125 66.5 -181t164.5 -56q51 0 103.5 19.5t94.5 59t68.5 102t26.5 150.5q0 127 -67.5 184.5t-165.5 57.5q-68 0 -122 -25.5t-92 -71.5t-57.5 -107.5 t-19.5 -131.5z" />
<glyph unicode="&#x26;" horiz-adv-x="1239" d="M47 266q0 88 29.5 155.5t85 123t132.5 104.5t171 99q-88 111 -136 190.5t-50 165.5q0 63 26.5 127.5t80.5 117t134 84t185 31.5q84 0 144 -21.5t100 -57t58.5 -83t18.5 -98.5q0 -131 -112.5 -240.5t-350.5 -234.5l357 -448q76 88 133 192.5t92 212.5l72 -10 q-39 -115 -102.5 -231.5t-151.5 -217.5l172 -217l-58 -41l-164 207q-94 -92 -211.5 -149.5t-259.5 -57.5q-197 0 -296 84t-99 213zM123 268q0 -111 83.5 -174t239.5 -63q119 0 226.5 54t197.5 146l-366 467q-84 -45 -154.5 -88t-121 -93t-78 -110.5t-27.5 -138.5zM350 1110 q0 -72 45 -147.5t131 -184.5q211 113 320.5 211t109.5 213q0 37 -13 74t-44 64.5t-80 45t-119 17.5q-84 0 -149.5 -24.5t-109.5 -66.5t-67.5 -94.5t-23.5 -107.5z" />
<glyph unicode="'" horiz-adv-x="552" d="M383 1004l49 313l41 188h82l-41 -188l-80 -313h-51z" />
<glyph unicode="(" horiz-adv-x="696" d="M203 315q0 225 55 427t141 374t188.5 309.5t196.5 233.5h70q-135 -164 -242.5 -322.5t-182.5 -321.5t-114 -338t-39 -372t44.5 -355.5t105.5 -297.5h-66q-61 113 -109 281.5t-48 381.5z" />
<glyph unicode=")" horiz-adv-x="696" d="M-45 -348q135 164 242.5 322.5t182.5 321.5t113.5 338t38.5 372t-44 355.5t-105 297.5h66q61 -113 109 -282t48 -382q0 -225 -55 -426.5t-141 -373.5t-188.5 -309.5t-196.5 -233.5h-70z" />
<glyph unicode="*" horiz-adv-x="962" d="M293 1210l22 68l328 -123l-16 350h73l-16 -350l328 123l22 -68l-340 -94l219 -274l-57 -45l-192 290l-193 -290l-57 45l219 274z" />
<glyph unicode="+" d="M254 625l16 69h373l78 375h74l-78 -375h373l-17 -69h-373l-79 -375h-74l80 375h-373z" />
<glyph unicode="," horiz-adv-x="552" d="M8 -276l12 63q66 25 103 73t57 140h-37l27 131h115l-31 -145q-25 -119 -86.5 -176.5t-159.5 -85.5z" />
<glyph unicode="-" horiz-adv-x="1105" d="M254 625l16 69h697l-17 -69h-696z" />
<glyph unicode="." horiz-adv-x="569" d="M147 0l27 131h111l-27 -131h-111z" />
<glyph unicode="/" horiz-adv-x="696" d="M-27 -184l789 1689h76l-789 -1689h-76z" />
<glyph unicode="0" d="M166 430q0 78 14.5 184.5t46 222t82.5 227.5t125 201t173.5 144t226.5 55q80 0 147.5 -27.5t116.5 -84t75.5 -143.5t26.5 -205q0 -78 -14.5 -184.5t-46 -222.5t-82.5 -227.5t-125 -200.5t-173.5 -144.5t-226.5 -55.5q-80 0 -147.5 28t-116.5 84t-75.5 143t-26.5 206z M242 422q0 -197 77.5 -292t219.5 -95q111 0 196.5 53t150 138t110.5 191.5t74 215t41 209t13 170.5q0 197 -77 292t-218 95q-111 0 -197.5 -53.5t-151 -138.5t-110.5 -191.5t-74 -215t-41 -208.5t-13 -170z" />
<glyph unicode="1" d="M489 1151l17 82l381 201h74l-304 -1434h-75l286 1350z" />
<glyph unicode="2" d="M78 0l14 70l684 579q76 66 138.5 125.5t106.5 119.5t67.5 123.5t23.5 137.5q0 115 -77 179.5t-214 64.5q-158 0 -273.5 -83t-162.5 -216h-80q66 176 206 270t318 94q78 0 143.5 -20.5t114 -60.5t75 -96t26.5 -126q0 -86 -26.5 -160.5t-78 -143.5t-123 -138.5 t-163.5 -145.5l-598 -503h762l-15 -70h-868z" />
<glyph unicode="3" d="M102 313h76q0 -135 87 -206.5t251 -71.5q117 0 206 39t148.5 102.5t90 142t30.5 158.5q0 123 -77.5 186.5t-219.5 63.5h-159l14 68h151q102 0 178 34.5t125.5 89t74 120t24.5 126.5q0 111 -80 172.5t-217 61.5q-158 0 -273.5 -72t-173.5 -207h-79q63 162 203.5 253 t328.5 91q82 0 149.5 -21.5t115.5 -59t75 -93t27 -123.5q0 -74 -25 -140t-71 -120.5t-111.5 -92.5t-147.5 -52q111 -14 176.5 -88t65.5 -197q0 -96 -35 -187t-105.5 -162t-175 -115t-243.5 -44q-184 0 -294 89t-110 255z" />
<glyph unicode="4" d="M127 270l16 80l883 1084h92l-233 -1098h217l-12 -66h-218l-57 -270h-76l58 270h-670zM219 336h590l209 983z" />
<glyph unicode="5" d="M121 328h76q0 -76 24.5 -131.5t69.5 -91t104.5 -53t130.5 -17.5q113 0 205 47t157.5 122t100.5 169t35 188q0 141 -86 216t-236 75q-78 0 -144 -18.5t-119.5 -46t-92.5 -59.5t-61 -58h-58l189 764h794l-14 -66h-723l-151 -598q66 55 165 101.5t232 46.5 q174 0 275.5 -91.5t101.5 -261.5q0 -113 -40 -219t-115 -190t-182.5 -135.5t-242.5 -51.5q-86 0 -158.5 23.5t-125 70t-82 113t-29.5 152.5z" />
<glyph unicode="6" d="M158 389q0 74 14 182.5t47 228.5t86 238.5t131 213t181.5 153.5t238.5 59q68 0 126 -19.5t102 -54t71 -86t31 -114.5h-74q-10 100 -77.5 154.5t-182.5 54.5q-80 0 -164 -32t-163 -114t-146.5 -223t-116.5 -360q33 53 80 100t106.5 83t129 56.5t143.5 20.5 q82 0 150.5 -24.5t117.5 -71t76 -113t27 -152.5q0 -139 -48.5 -249.5t-127 -188.5t-180 -120t-206.5 -42q-102 0 -173.5 34t-115.5 91.5t-63.5 133t-19.5 161.5zM227 389q0 -68 14.5 -131t49.5 -112.5t96.5 -79t153.5 -29.5q82 0 167 37t154.5 105.5t113.5 166.5t44 221 q0 145 -85 221t-228 76q-84 0 -169 -33.5t-155 -95t-113 -149.5t-43 -197z" />
<glyph unicode="7" d="M219 0l952 1366h-821l15 68h905l-15 -68l-950 -1366h-86z" />
<glyph unicode="8" d="M102 303q0 96 37 171t98.5 130t142.5 92t171 62q-45 14 -88 37.5t-77 58.5t-55.5 82t-21.5 106q0 106 48.5 186.5t124 132.5t168.5 77.5t184 25.5q78 0 148.5 -17t124.5 -53t86 -89t32 -125q0 -100 -38 -171t-97.5 -120t-132 -80t-140.5 -49q55 -16 109.5 -42t96.5 -64 t68.5 -90t26.5 -122q0 -98 -44 -184t-122 -150.5t-185.5 -101.5t-234.5 -37q-102 0 -182 27t-135 72t-84 105t-29 130zM176 305q0 -61 26.5 -111.5t75 -86t115 -54t146.5 -18.5q96 0 186 28.5t160.5 81t112.5 128t42 167.5q0 68 -31.5 118t-83 85t-114.5 55.5t-127 32.5 q-84 -16 -174 -46t-164 -79t-122 -122.5t-48 -178.5zM385 1044q0 -63 27.5 -107t71.5 -73.5t98.5 -47t109.5 -28.5q82 16 163 42t146.5 71t106.5 110.5t41 162.5q0 59 -25.5 102t-69.5 70.5t-102.5 41t-122.5 13.5q-72 0 -149.5 -20.5t-143 -63.5t-108.5 -111t-43 -162z" />
<glyph unicode="9" d="M145 244h72q8 -102 88 -155.5t191 -53.5q90 0 177 39t163.5 125t139 225t103.5 340q-35 -53 -82 -100.5t-106.5 -83t-128 -56t-141.5 -20.5q-78 0 -146.5 23.5t-120 68.5t-80 112.5t-28.5 157.5q0 133 49 244t127 189.5t177 121.5t200 43q104 0 177 -34.5t118 -93 t65.5 -136.5t20.5 -164q0 -63 -12.5 -166.5t-41 -222.5t-80 -239.5t-127 -218t-182 -159t-248.5 -61.5q-68 0 -129 19.5t-108 55.5t-76 86t-31 114zM319 866q0 -152 88.5 -224.5t225.5 -72.5q84 0 169 34t153.5 96.5t111.5 150.5t43 197q0 61 -14.5 123.5t-50 112.5t-96 82 t-152.5 32q-90 0 -176 -40t-153 -110.5t-108 -168t-41 -212.5z" />
<glyph unicode=":" horiz-adv-x="569" d="M147 0l27 131h111l-27 -131h-111zM344 934l29 131h110l-28 -131h-111z" />
<glyph unicode=";" horiz-adv-x="569" d="M8 -276l12 63q66 25 103 73t57 140h-37l27 131h115l-31 -145q-25 -119 -86.5 -176.5t-159.5 -85.5zM344 934l29 131h110l-28 -131h-111z" />
<glyph unicode="&#x3c;" d="M256 631l12 59l908 416l-17 -86l-811 -363v-4l656 -360l-17 -78z" />
<glyph unicode="=" d="M209 410l14 69h819l-14 -69h-819zM301 840l14 69h820l-15 -69h-819z" />
<glyph unicode="&#x3e;" d="M168 215l16 86l811 363v4l-655 362l16 76l731 -416l-12 -59z" />
<glyph unicode="?" horiz-adv-x="1009" d="M283 1174q27 70 71.5 130t106 105t137.5 70.5t164 25.5q78 0 141.5 -20.5t108.5 -57t69.5 -87t24.5 -107.5q0 -70 -22.5 -124t-66.5 -106.5t-108.5 -106.5t-146.5 -122q-55 -45 -89 -77.5t-55.5 -70.5t-37 -87.5t-31.5 -128.5h-74q18 82 33.5 138t40 100t62.5 84t104 93 q82 66 141 116t98 95t57.5 90t18.5 103q0 86 -69.5 149.5t-204.5 63.5q-68 0 -129.5 -20.5t-111.5 -55.5t-89 -85t-64 -107h-79zM371 0l26 131h111l-27 -131h-110z" />
<glyph unicode="@" horiz-adv-x="1904" d="M197 584q0 168 39.5 301t109.5 235.5t161 176t192.5 119.5t209 67.5t205.5 21.5q182 0 322.5 -51t236.5 -138t146.5 -205t50.5 -251q0 -152 -35 -270.5t-92 -202.5t-132 -128t-153 -44q-92 0 -144 60.5t-52 164.5q-14 -29 -46 -66.5t-78 -70.5t-105.5 -55.5t-129.5 -22.5 q-61 0 -117.5 22.5t-99.5 65.5t-68.5 107.5t-25.5 148.5q0 135 42 242t109.5 180.5t154.5 112.5t177 39q39 0 80 -11.5t78 -33t64.5 -54t39.5 -77.5l47 161h56l-115 -573q-6 -31 -9 -52.5t-3 -47.5q0 -86 41 -131t108 -45q61 0 120.5 36.5t107 108.5t77 180.5t29.5 249.5 q0 127 -46 234.5t-134 185.5t-216 122t-290 44q-88 0 -183.5 -19.5t-188.5 -61.5t-178 -107.5t-149.5 -161t-102.5 -219t-38 -281.5q0 -168 59.5 -296t160 -215t234.5 -132t286 -45q92 0 176 14t147 35l17 -62q-66 -23 -156 -39t-190 -16q-158 0 -303.5 48t-257 142.5 t-179 234.5t-67.5 325zM664 578q0 -141 72.5 -215t183.5 -74q55 0 109 19.5t101.5 57t82 95t51.5 133.5l30 149q4 25 6.5 49.5t2.5 47.5q0 66 -19.5 111.5t-52.5 74.5t-75 42t-87 13q-70 0 -141.5 -31.5t-130 -95t-96 -158t-37.5 -218.5z" />
<glyph unicode="A" horiz-adv-x="1314" d="M-61 0l899 1475h104l270 -1475h-79l-80 436h-764l-266 -436h-84zM328 502h714l-163 903z" />
<glyph unicode="B" horiz-adv-x="1294" d="M92 0l314 1475h483q193 0 293 -76t100 -209q0 -70 -25.5 -137.5t-72.5 -123t-112.5 -96t-145.5 -59.5q121 -16 195.5 -92t74.5 -199q0 -84 -31.5 -170t-102.5 -155.5t-182.5 -113.5t-271.5 -44h-516zM182 68h443q129 0 222 36.5t153.5 97t88 134.5t27.5 147 q0 119 -87 190.5t-249 71.5h-454zM340 811h448q111 0 190 37t130 92t74.5 120.5t23.5 123.5q0 106 -77.5 164.5t-229.5 58.5h-432z" />
<glyph unicode="C" horiz-adv-x="1464" d="M162 535q0 90 20.5 196.5t63.5 214t109.5 208.5t158.5 179t212 125t269 47q111 0 203 -25.5t158.5 -81t104.5 -143.5t38 -213h-76q0 211 -112.5 303.5t-323.5 92.5q-135 0 -242.5 -45t-190.5 -119t-142.5 -169t-97.5 -195.5t-56 -197t-18 -173.5q0 -117 32.5 -209 t92 -158t143.5 -100.5t188 -34.5q209 0 370 114.5t234 325.5h76q-35 -113 -99.5 -206t-152.5 -160.5t-196.5 -104.5t-233.5 -37q-123 0 -222 40t-167.5 114t-105.5 178.5t-37 233.5z" />
<glyph unicode="D" horiz-adv-x="1380" d="M92 0l314 1475h376q131 0 238.5 -37t183.5 -106.5t117 -171t41 -232.5q0 -164 -55.5 -330t-164 -299t-272 -216t-378.5 -83h-400zM182 68h322q207 0 355.5 86t242.5 215t138 278.5t44 278.5q0 119 -36 209t-101.5 150.5t-157.5 91t-205 30.5h-317z" />
<glyph unicode="E" horiz-adv-x="1148" d="M92 0l314 1475h851l-14 -68h-776l-133 -623h717l-15 -67h-717l-137 -649h776l-14 -68h-852z" />
<glyph unicode="F" horiz-adv-x="1126" d="M92 0l314 1475h839l-14 -68h-764l-141 -664h688l-15 -67h-688l-143 -676h-76z" />
<glyph unicode="G" horiz-adv-x="1490" d="M164 524q0 106 22.5 220t68.5 222.5t115.5 207t162 172t207 116.5t253.5 43q227 0 358.5 -107.5t135.5 -312.5h-78q-4 178 -116.5 265.5t-305.5 87.5q-125 0 -228.5 -40t-186.5 -108.5t-145 -159t-104 -191.5t-62.5 -206.5t-20.5 -204.5q0 -121 34.5 -213t96 -153.5 t145.5 -93t182 -31.5q102 0 198.5 33.5t176.5 93t136.5 140.5t76.5 177l47 217h-497l14 68h563l-162 -766h-55l45 260q-98 -141 -238.5 -216t-308.5 -75q-111 0 -207 35t-168.5 104.5t-113.5 174t-41 241.5z" />
<glyph unicode="H" horiz-adv-x="1384" d="M92 0l314 1475h75l-147 -687h885l147 687h76l-314 -1475h-75l151 719h-885l-151 -719h-76z" />
<glyph unicode="I" horiz-adv-x="423" d="M92 0l314 1475h75l-313 -1475h-76z" />
<glyph unicode="J" horiz-adv-x="1058" d="M61 291q0 23 2.5 44t6.5 46h71q-4 -35 -5 -49.5t-1 -32.5q0 -129 74 -195.5t203 -66.5q154 0 262 92t147 272l230 1074h75l-231 -1082q-41 -197 -167 -310.5t-318 -113.5q-166 0 -257.5 87t-91.5 235z" />
<glyph unicode="K" horiz-adv-x="1187" d="M92 0l314 1475h75l-149 -699l899 699h98l-919 -723l665 -752h-96l-655 737l-156 -737h-76z" />
<glyph unicode="L" horiz-adv-x="1118" d="M92 0l314 1475h75l-299 -1407h776l-14 -68h-852z" />
<glyph unicode="M" horiz-adv-x="1697" d="M92 0l314 1475h114l275 -1403l841 1403h119l-313 -1475h-74l293 1386l-832 -1386h-92l-276 1397l-295 -1397h-74z" />
<glyph unicode="N" horiz-adv-x="1452" d="M92 0l314 1475h77l666 -1358l289 1358h71l-313 -1475h-74l-667 1368l-289 -1368h-74z" />
<glyph unicode="O" horiz-adv-x="1523" d="M164 526q0 90 19.5 197.5t60.5 217.5t106.5 211t157.5 180t212 126t269 47q113 0 208 -36.5t165 -107.5t107.5 -174.5t37.5 -238.5q0 -90 -19.5 -197.5t-60.5 -217t-106.5 -211t-157.5 -180.5t-211.5 -126t-269.5 -47q-115 0 -210 37t-163.5 107.5t-106.5 174t-38 238.5z M240 522q0 -119 32.5 -210t91 -152.5t140.5 -92t182 -30.5q139 0 247.5 45t191.5 121t141.5 172t95.5 197.5t53.5 200.5t16.5 179q0 119 -33 210t-92.5 152.5t-141.5 92.5t-180 31q-139 0 -248.5 -45t-192.5 -121t-141.5 -172t-94.5 -197.5t-52 -201t-16 -179.5z" />
<glyph unicode="P" horiz-adv-x="1277" d="M92 0l314 1475h493q207 0 313.5 -93.5t106.5 -257.5q0 -102 -38 -199.5t-113.5 -174t-187.5 -122.5t-259 -46h-430l-123 -582h-76zM305 651h422q127 0 223.5 40t161 106.5t97 150.5t32.5 174q0 135 -87 210t-255 75h-432z" />
<glyph unicode="Q" horiz-adv-x="1523" d="M164 526q0 90 19.5 197.5t60.5 217.5t106.5 211t157.5 180t212 126t269 47q113 0 208 -36.5t165 -107.5t107.5 -174.5t37.5 -238.5q0 -96 -21.5 -211.5t-69.5 -230.5t-122.5 -220.5t-179.5 -181.5l162 -270l-76 -45l-147 277q-78 -45 -169 -71t-202 -26q-115 0 -210 37 t-163.5 107.5t-106.5 174t-38 238.5zM240 522q0 -119 32.5 -210t91 -152.5t140.5 -92t182 -30.5q139 0 247.5 45t191.5 121t141.5 172t95.5 197.5t53.5 200.5t16.5 179q0 119 -33 210t-92.5 152.5t-141.5 92.5t-180 31q-139 0 -248.5 -45t-192.5 -121t-141.5 -172 t-94.5 -197.5t-52 -201t-16 -179.5z" />
<glyph unicode="R" horiz-adv-x="1267" d="M92 0l314 1475h505q205 0 310.5 -89.5t105.5 -246.5q0 -100 -33.5 -183.5t-96 -148t-151 -109.5t-194.5 -65l293 -633h-88l-287 625h-471l-131 -625h-76zM313 692h428q113 0 206 35t160 95.5t103.5 141t36.5 175.5q0 129 -84 198.5t-252 69.5h-444z" />
<glyph unicode="S" horiz-adv-x="1316" d="M90 360h76q0 -166 110.5 -243.5t309.5 -77.5q125 0 225 29.5t171 85t107.5 132t36.5 171.5q0 55 -21.5 98t-71.5 79t-133 64.5t-204 53.5q-205 41 -294 121.5t-89 201.5q0 94 38 173t109.5 136.5t178 89t246.5 31.5q104 0 191 -24.5t148.5 -69.5t95.5 -111.5t36 -148.5 h-78q-6 135 -104.5 211t-290.5 76q-125 0 -218.5 -28t-154.5 -77t-91 -115.5t-30 -144.5q0 -49 19.5 -88t63.5 -70.5t114.5 -56t173.5 -47.5q236 -51 340 -135t104 -221q0 -104 -42 -193.5t-121.5 -154t-196.5 -101.5t-264 -37q-227 0 -358.5 99.5t-131.5 291.5z" />
<glyph unicode="T" horiz-adv-x="1153" d="M258 1407l14 68h1071l-14 -68h-498l-299 -1407h-75l299 1407h-498z" />
<glyph unicode="U" horiz-adv-x="1433" d="M172 381q0 55 12 111l211 983h74l-213 -996q-6 -25 -8 -49t-2 -47q0 -78 28.5 -141.5t80 -109.5t124 -70.5t162.5 -24.5q104 0 199.5 32.5t171 91t129 139.5t73.5 179l213 996h74l-215 -1004q-23 -102 -78 -193.5t-139 -160t-193.5 -108.5t-240.5 -40q-115 0 -202 33 t-145.5 88t-87 130t-28.5 161z" />
<glyph unicode="V" horiz-adv-x="1265" d="M252 1475h74l233 -1418l838 1418h80l-871 -1475h-112z" />
<glyph unicode="W" horiz-adv-x="1945" d="M262 1475h76l94 -1416l715 1416h113l110 -1412l698 1412h78l-729 -1475h-112l-115 1413l-711 -1413h-114z" />
<glyph unicode="X" horiz-adv-x="1220" d="M-41 0l686 766l-332 709h84l303 -654l600 654h93l-654 -715l359 -760h-84l-332 705l-627 -705h-96z" />
<glyph unicode="Y" horiz-adv-x="1269" d="M252 1475h78l354 -832l713 832h84l-770 -900l-121 -575h-76l123 580z" />
<glyph unicode="Z" horiz-adv-x="1308" d="M20 0l15 70l1290 1337h-958l14 68h1057l-15 -64l-1292 -1343h987l-14 -68h-1084z" />
<glyph unicode="[" horiz-adv-x="471" d="M-94 -348l426 2007h348l-14 -66h-275l-399 -1876h274l-14 -65h-346z" />
<glyph unicode="\" horiz-adv-x="622" d="M301 1505h68l67 -1689h-67z" />
<glyph unicode="]" horiz-adv-x="471" d="M-94 -348l12 65h275l399 1876h-275l15 66h348l-428 -2007h-346z" />
<glyph unicode="^" horiz-adv-x="983" d="M186 819l496 656h82l217 -656h-72l-194 598l-449 -598h-80z" />
<glyph unicode="_" horiz-adv-x="1236" d="M-68 -213l17 70h1114l-16 -70h-1115z" />
<glyph unicode="`" horiz-adv-x="442" d="M301 1505h105l151 -280h-65z" />
<glyph unicode="a" horiz-adv-x="1064" d="M68 211q0 94 36.5 160.5t102 113.5t155 76t193.5 45l340 53l23 109q6 33 6 63q0 94 -66.5 148.5t-191.5 54.5q-135 0 -234.5 -65.5t-134.5 -169.5h-74q20 66 62.5 121t100.5 94t131 60.5t157 21.5q145 0 234 -69t89 -196q0 -18 -2 -37.5t-6 -39.5l-160 -754h-59l27 190 q-33 -43 -76 -82.5t-95.5 -70.5t-114.5 -49.5t-136 -18.5q-66 0 -122 15.5t-97 46t-64.5 76t-23.5 104.5zM147 215q0 -92 69 -137t183 -45q68 0 137.5 24.5t130 69.5t105.5 107.5t62 140.5l49 223l-308 -49q-121 -18 -201.5 -49t-132 -73t-73 -95t-21.5 -117z" />
<glyph unicode="b" horiz-adv-x="1163" d="M82 0l313 1475h74l-135 -629q72 111 180.5 180.5t247.5 69.5q160 0 255 -93.5t95 -283.5q0 -109 -32.5 -240t-102.5 -244.5t-179.5 -189.5t-265.5 -76q-137 0 -222 74t-109 184l-60 -227h-59zM238 354q0 -164 79.5 -243.5t210.5 -79.5q92 0 166 34.5t130.5 92t97.5 131 t66.5 150.5t37.5 151t12 131q0 160 -79.5 236.5t-213.5 76.5q-125 0 -220 -64.5t-158.5 -163.5t-96 -220t-32.5 -232z" />
<glyph unicode="c" horiz-adv-x="1093" d="M113 365q0 121 37.5 250.5t112.5 236t186.5 175.5t259.5 69q170 0 264 -87t94 -231h-78q0 117 -72.5 186.5t-209.5 69.5q-133 0 -231.5 -66.5t-163 -167t-96.5 -218t-32 -217.5q0 -84 23.5 -146.5t64.5 -103.5t97.5 -61.5t122.5 -20.5q68 0 131 20.5t116.5 55t94 84 t63.5 108.5h76q-27 -74 -75 -134.5t-112.5 -104.5t-142.5 -68.5t-162 -24.5q-80 0 -147.5 25.5t-116.5 76t-76.5 124t-27.5 170.5z" />
<glyph unicode="d" horiz-adv-x="1163" d="M111 356q0 68 14 150t44 164t76 158.5t110.5 136t148.5 95.5t186 36q133 0 221 -72t115 -180l131 631h74l-313 -1475h-60l35 219q-74 -113 -182.5 -181.5t-247.5 -68.5q-74 0 -138.5 24.5t-112.5 73t-74.5 121t-26.5 168.5zM186 356q0 -166 83 -245.5t212 -79.5 q123 0 217.5 64.5t158 163.5t96 219t32.5 231q0 166 -80 245.5t-209 79.5q-135 0 -231 -70.5t-157.5 -174t-91.5 -221t-30 -212.5z" />
<glyph unicode="e" horiz-adv-x="1163" d="M117 383q0 115 36.5 241t110.5 230t186.5 173t266.5 69q82 0 151.5 -24.5t120.5 -75t80 -125t29 -175.5q0 -88 -21 -182h-872q-8 -37 -11.5 -71.5t-3.5 -65.5q0 -88 26 -152.5t70 -107.5t105.5 -63.5t134.5 -20.5q129 0 236.5 64.5t167.5 185.5h78q-66 -145 -197 -229.5 t-293 -84.5q-180 0 -290.5 107.5t-110.5 306.5zM217 578h795q4 33 7 61.5t3 56.5q0 170 -86 254t-223 84q-80 0 -156 -29.5t-142.5 -87t-117.5 -143.5t-80 -196z" />
<glyph unicode="f" horiz-adv-x="595" d="M137 0l211 1001h-158l15 64h157l44 203q25 121 97 179t177 58q78 0 158 -30l-13 -62q-37 14 -73.5 22.5t-77.5 8.5q-158 0 -197 -184l-41 -195h260l-14 -64h-260l-211 -1001h-74z" />
<glyph unicode="g" horiz-adv-x="1163" d="M45 -111h74q0 -121 82 -174t213 -53q166 0 281.5 92t148.5 246l57 266q-72 -102 -177.5 -163.5t-242.5 -61.5q-74 0 -139.5 24.5t-114.5 73.5t-76.5 121t-27.5 164q0 96 32.5 213t101.5 219t176.5 171t256.5 69q131 0 220 -69t116 -177l57 215h60l-228 -1075 q-18 -86 -62 -157t-108.5 -123t-149.5 -80.5t-183 -28.5q-172 0 -269.5 73.5t-97.5 214.5zM199 420q0 -158 83 -238t216 -80t227 62.5t152.5 156t85 202t26.5 200.5q0 160 -83 235.5t-212 75.5q-131 0 -225 -62.5t-153.5 -155.5t-88 -200.5t-28.5 -195.5z" />
<glyph unicode="h" horiz-adv-x="1120" d="M82 0l313 1475h74l-131 -611q76 113 182.5 172.5t222.5 59.5q141 0 224.5 -72t83.5 -199q0 -37 -11 -88l-155 -737h-74l156 733q6 27 8 45.5t2 38.5q0 102 -64.5 159.5t-189.5 57.5q-61 0 -130 -26.5t-129.5 -74.5t-105.5 -116.5t-63 -154.5l-139 -662h-74z" />
<glyph unicode="i" horiz-adv-x="393" d="M78 0l225 1065h74l-225 -1065h-74zM354 1358l27 117h94l-26 -117h-95z" />
<glyph unicode="j" horiz-adv-x="393" d="M-274 -367l14 62q35 -14 68.5 -21.5t60.5 -7.5q66 0 110 41t66 139l258 1219h74l-262 -1233q-27 -121 -86.5 -176t-155.5 -55q-35 0 -73 7t-74 25zM354 1358l27 117h94l-26 -117h-95z" />
<glyph unicode="k" horiz-adv-x="970" d="M82 0l313 1475h74l-182 -852l639 442h106l-678 -471l525 -594h-97l-506 573l-120 -573h-74z" />
<glyph unicode="l" horiz-adv-x="401" d="M82 0l313 1475h74l-313 -1475h-74z" />
<glyph unicode="m" horiz-adv-x="1726" d="M82 0l225 1065h62l-29 -182q74 111 174 162t197 51q125 0 197.5 -59.5t76.5 -170.5q78 121 185.5 175.5t207.5 54.5q133 0 207 -65.5t74 -188.5q0 -47 -12 -103l-156 -739h-74l156 735q12 55 12 101q0 102 -57.5 150t-165.5 48q-70 0 -134.5 -28.5t-118.5 -78.5t-92 -118 t-54 -145l-140 -664h-73l155 735q12 55 13 101q0 100 -56.5 149t-163.5 49q-72 0 -137 -28.5t-118.5 -78.5t-92.5 -118t-55 -145l-139 -664h-74z" />
<glyph unicode="n" horiz-adv-x="1120" d="M82 0l225 1065h62l-33 -203q78 115 184.5 174.5t222.5 59.5q141 0 224.5 -72t83.5 -199q0 -37 -11 -88l-155 -737h-74l156 733q6 27 8 45.5t2 38.5q0 102 -64.5 159.5t-189.5 57.5q-61 0 -130 -25.5t-129.5 -73.5t-105.5 -116.5t-63 -154.5l-139 -664h-74z" />
<glyph unicode="o" horiz-adv-x="1157" d="M115 373q0 96 30.5 221t101 236.5t187.5 188.5t289 77q176 0 279.5 -104.5t103.5 -299.5q0 -63 -13.5 -142t-43 -159t-76.5 -155.5t-114.5 -135t-155.5 -95.5t-201 -36q-176 0 -281.5 104.5t-105.5 299.5zM190 371q0 -170 85.5 -255t230.5 -85q98 0 176 34.5t136.5 90 t98 127t65.5 145.5t37 143.5t11 122.5q0 170 -83 255t-230 85q-152 0 -253.5 -73.5t-161.5 -178t-86 -218t-26 -193.5z" />
<glyph unicode="p" horiz-adv-x="1163" d="M2 -369l305 1434h60l-35 -223q72 111 180.5 182.5t249.5 71.5q160 0 255 -93.5t95 -283.5q0 -109 -32.5 -240t-102.5 -244.5t-181.5 -189.5t-267.5 -76q-135 0 -219 72t-106 182l-127 -592h-74zM238 354q0 -164 78.5 -243.5t207.5 -79.5q92 0 167 34.5t132.5 92t98.5 131 t66.5 150.5t37.5 151t12 131q0 160 -79.5 236.5t-213.5 76.5q-125 0 -220 -64.5t-158.5 -163.5t-96 -220t-32.5 -232z" />
<glyph unicode="q" horiz-adv-x="1163" d="M111 356q0 68 14 150t44 164t76 158.5t110.5 136t148.5 95.5t186 36q135 0 221 -74t111 -184l61 227h60l-305 -1434h-74l125 586q-72 -111 -180.5 -179.5t-245.5 -68.5q-74 0 -138.5 24.5t-112.5 73t-74.5 121t-26.5 168.5zM186 356q0 -166 83 -245.5t212 -79.5 q123 0 217.5 62.5t158 160.5t96 219t32.5 236q0 166 -80 245.5t-209 79.5q-135 0 -231 -70.5t-157.5 -174t-91.5 -221t-30 -212.5z" />
<glyph unicode="r" horiz-adv-x="684" d="M82 0l225 1065h60l-35 -225q70 135 161 195.5t195 60.5q29 0 57.5 -5.5t55.5 -13.5l-17 -71q-27 10 -52 15t-56 5q-61 0 -122.5 -30.5t-115 -87t-94.5 -134.5t-61 -172l-127 -602h-74z" />
<glyph unicode="s" horiz-adv-x="1005" d="M61 240v10q0 8 2 22h74q-2 -10 -2 -16v-12q0 -94 74 -152.5t215 -58.5q76 0 145.5 19.5t122.5 57t84 93t31 125.5q0 90 -78 133t-244 69q-129 20 -206.5 83t-77.5 167q0 66 26.5 123.5t80.5 100.5t134 67.5t187 24.5q166 0 258 -79t92 -208h-74v20q0 88 -72.5 146.5 t-214.5 58.5q-90 0 -155.5 -21.5t-106.5 -56t-60.5 -82t-19.5 -98.5q0 -78 63.5 -120t211.5 -66q178 -29 257 -94.5t79 -165.5q0 -70 -30 -134.5t-88 -114.5t-145 -81t-204 -31q-86 0 -152.5 20.5t-112.5 57.5t-70 86t-24 107z" />
<glyph unicode="t" horiz-adv-x="602" d="M156 129q0 35 8 68l170 804h-154l15 64h153l64 256h65l-55 -256h254l-14 -64h-254l-170 -806q-4 -16 -6.5 -32t-2.5 -28q0 -53 34 -78.5t91 -25.5q55 0 135 24l-14 -63q-72 -23 -133 -23q-86 0 -136 39t-50 121z" />
<glyph unicode="u" horiz-adv-x="1110" d="M131 236q0 23 2 46t8 50l156 733h74l-152 -711q-10 -35 -12 -61.5t-2 -48.5q0 -106 64.5 -159.5t185.5 -53.5q72 0 139.5 28.5t124.5 78.5t98 120t60 152l139 655h74l-226 -1065h-61l28 190q-41 -57 -89 -99t-100 -68.5t-105.5 -40t-104.5 -13.5q-133 0 -217 65.5 t-84 201.5z" />
<glyph unicode="v" horiz-adv-x="1003" d="M184 1065h76l170 -1002l596 1002h80l-637 -1065h-98z" />
<glyph unicode="w" horiz-adv-x="1540" d="M195 1065h69l96 -993l506 993h99l100 -989l491 989h76l-530 -1065h-94l-105 999l-508 -999h-94z" />
<glyph unicode="x" horiz-adv-x="1032" d="M-41 0l537 563l-293 502h86l262 -451l426 451h94l-479 -504l317 -561h-84l-288 510l-482 -510h-96z" />
<glyph unicode="y" horiz-adv-x="1003" d="M35 -375l14 60q49 -23 101 -23q33 0 60.5 16.5t57 55.5t66.5 104.5t90 161.5h-29l-211 1065h74l199 -1012l569 1012h80l-606 -1071q-68 -119 -113 -194.5t-83 -120t-74.5 -61.5t-86.5 -17q-27 0 -57.5 7t-50.5 17z" />
<glyph unicode="z" horiz-adv-x="978" d="M0 0l14 74l926 927h-698l14 64h784l-16 -78l-922 -924h725l-12 -63h-815z" />
<glyph unicode="{" horiz-adv-x="696" d="M176 641l17 74q88 0 151.5 54t85.5 153l105 487q14 63 37.5 110.5t62.5 78t95 46t134 15.5l-14 -66q-61 0 -103 -13t-70 -37.5t-44.5 -61.5t-26.5 -82l-100 -475q-23 -102 -88.5 -168t-153.5 -82q66 -14 104 -62.5t38 -122.5q0 -16 -1.5 -28t-5.5 -37l-102 -483 q-8 -37 -10 -58.5t-2 -38.5q0 -59 35.5 -91t132.5 -32l-15 -65q-123 0 -175 49t-52 139q0 31 5 64t11 59l99 467q6 31 6 60q0 72 -41 109.5t-115 37.5z" />
<glyph unicode="|" horiz-adv-x="696" d="M170 -287l401 1895h70l-401 -1895h-70z" />
<glyph unicode="}" horiz-adv-x="696" d="M-53 -344l14 65q61 0 103 13.5t70 38t44.5 60.5t26.5 83l100 475q23 102 88.5 168t153.5 82q-66 14 -103.5 62.5t-37.5 121.5q0 16 1 28.5t5 37.5l102 483q8 37 10 58.5t2 37.5q0 59 -35.5 91t-132.5 32l15 66q123 0 175 -49t52 -140q0 -31 -5 -63.5t-11 -58.5l-99 -467 q-6 -31 -6 -60q0 -72 41 -109.5t115 -37.5l-17 -74q-88 0 -151.5 -54t-85.5 -153l-105 -487q-29 -127 -101.5 -188.5t-227.5 -61.5z" />
<glyph unicode="~" d="M250 594l16 86q49 33 105.5 58.5t128.5 25.5q63 0 106 -18.5t81 -42t77 -42t92 -18.5q63 0 121.5 27.5t122.5 74.5l-19 -83q-49 -33 -105 -58.5t-128 -25.5q-63 0 -106.5 18t-81 42t-76.5 42t-92 18q-63 0 -122 -28.5t-120 -75.5z" />
<glyph unicode="&#xa1;" horiz-adv-x="512" d="M47 -369l219 1024h80l-219 -1024h-80zM326 975l26 131h111l-27 -131h-110z" />
<glyph unicode="&#xa2;" d="M137 365q0 117 35 241.5t105.5 229t174 176t242.5 82.5l56 258h71l-55 -258q154 -10 240 -95.5t86 -220.5h-78q0 117 -73 186.5t-210 69.5q-133 0 -231.5 -66.5t-163 -167t-96 -218t-31.5 -217.5q0 -84 23.5 -146.5t64.5 -103.5t97.5 -61.5t121.5 -20.5q68 0 131.5 20.5 t116.5 55t94 84t64 108.5h75q-27 -72 -72.5 -131t-107 -102t-135.5 -70t-156 -29l-51 -245h-72l54 247q-141 16 -230.5 114.5t-89.5 279.5z" />
<glyph unicode="&#xa3;" d="M41 0l14 68q152 55 187 211l88 407h-92l14 66h92l70 333q39 186 155.5 282.5t286.5 96.5q72 0 131.5 -21.5t103.5 -59t68.5 -89t24.5 -110.5h-70q-4 92 -74.5 154.5t-187.5 62.5q-145 0 -240.5 -85t-128.5 -241l-67 -323h456l-14 -66h-457l-90 -418q-12 -53 -47 -106 t-100 -94h803l-15 -68h-911z" />
<glyph unicode="&#xa4;" d="M174 256l137 137q-47 55 -75.5 130t-28.5 173q0 94 26.5 168t73.5 131l-133 133l49 50l131 -134q68 61 150 91t160 30t160.5 -30.5t148.5 -92.5l135 136l49 -50l-137 -137q45 -55 72.5 -129t27.5 -166q0 -96 -27.5 -170.5t-74.5 -130.5l139 -139l-49 -49l-139 137 q-66 -59 -147 -88t-158 -29q-78 0 -158 28t-148 87l-135 -135zM281 696q0 -90 30.5 -163.5t82.5 -127t122 -83t150 -29.5q76 0 145.5 29.5t121.5 83t83 127t31 163.5t-31 164t-83 127t-122 83t-145 30q-78 0 -149 -30t-123 -83t-82.5 -127t-30.5 -164z" />
<glyph unicode="&#xa5;" d="M203 307l14 66h309l45 209h-309l14 65h269l-342 787h78l337 -785l676 785h84l-673 -787h270l-14 -65h-314l-45 -209h313l-14 -66h-313l-64 -307h-75l63 307h-309z" />
<glyph unicode="&#xa6;" horiz-adv-x="696" d="M170 -287l168 789h70l-168 -789h-70zM408 819l163 789h70l-166 -789h-67z" />
<glyph unicode="&#xa7;" horiz-adv-x="1187" d="M150 29h79q12 -78 82 -115t160 -37q84 0 143.5 25.5t97.5 63.5t55 82t17 81q0 41 -17 70.5t-48 53t-74 43t-94 38.5q-166 59 -238.5 123.5t-72.5 152.5q0 123 89 205t255 127q-72 35 -110 82t-38 119q0 51 22.5 108.5t69.5 104.5t123 77.5t183 30.5q70 0 125 -17t93 -47 t60.5 -69t26.5 -80h-80q-12 78 -79 115t-157 37q-84 0 -144.5 -25.5t-98 -63.5t-55 -82t-17.5 -81q0 -41 17.5 -71.5t49 -54.5t74.5 -42t94 -37q166 -61 238 -124.5t72 -153.5q0 -123 -89.5 -204t-254.5 -128q72 -35 110.5 -81t38.5 -118q0 -53 -22.5 -109.5t-69.5 -103.5 t-123 -77.5t-182 -30.5q-70 0 -125 17t-95 47t-63.5 69t-27.5 80zM315 618q0 -78 67 -128t220 -107l39 -16q96 27 161.5 56.5t104.5 64t55.5 77.5t16.5 97q0 39 -16.5 69.5t-51 58t-89 53t-130.5 54.5q-10 4 -19 7t-20 7q-96 -29 -161.5 -57.5t-104.5 -63t-55.5 -76.5 t-16.5 -96z" />
<glyph unicode="&#xa8;" horiz-adv-x="757" d="M328 1358l26 117h95l-27 -117h-94zM729 1358l27 117h94l-27 -117h-94z" />
<glyph unicode="&#xa9;" horiz-adv-x="1726" d="M193 737q0 201 64.5 346.5t169.5 238.5t238.5 138t268.5 45t268 -45t238.5 -138t170 -238.5t64.5 -346.5t-64.5 -346t-170 -239.5t-238.5 -138.5t-268 -44t-268.5 44t-238.5 138.5t-169.5 240t-64.5 345.5zM258 737q0 -186 58.5 -320t153.5 -220t217 -127t247 -41t247 41 t217 127t153.5 220t58.5 320t-58.5 320.5t-153.5 220.5t-217 127t-247 41t-247 -41t-217 -127t-153.5 -220.5t-58.5 -320.5zM573 739q0 111 30 193t79 136t114.5 81t137.5 27q131 0 218 -68t110 -180h-74q-16 86 -84 136t-168 50q-59 0 -112.5 -23.5t-93.5 -69.5t-62.5 -118 t-22.5 -166q0 -92 23.5 -159.5t63.5 -111.5t92.5 -65.5t109.5 -21.5q102 0 173 53t87 141h72q-23 -117 -112 -187.5t-222 -70.5q-76 0 -141.5 28t-113.5 81t-76 132t-28 183z" />
<glyph unicode="&#xaa;" horiz-adv-x="901" d="M59 0l15 70h618l-14 -70h-619zM246 811q0 74 28.5 126t77.5 88t112.5 58.5t135.5 34.5l236 41l18 88q6 31 6 58q0 68 -43 105.5t-135 37.5q-86 0 -149.5 -38t-86.5 -103h-71q16 49 49 86t76 61.5t92 36.5t100 12q111 0 173.5 -55t62.5 -150q0 -16 -2 -32.5t-6 -32.5 l-129 -604h-54l17 137q-47 -61 -117 -107.5t-172 -46.5q-98 0 -158.5 53.5t-60.5 145.5zM315 811q0 -70 45.5 -105.5t126.5 -35.5q51 0 100.5 21.5t89.5 57t68.5 79.5t38.5 92l39 180l-211 -37q-59 -10 -112.5 -26.5t-94 -45t-65.5 -73t-25 -107.5z" />
<glyph unicode="&#xab;" horiz-adv-x="940" d="M186 645l326 420h70l-308 -424l101 -457h-62zM555 645l326 420h69l-307 -424l100 -457h-61z" />
<glyph unicode="&#xac;" d="M254 625l16 69h820l-97 -444h-73l79 375h-745z" />
<glyph unicode="&#xad;" horiz-adv-x="1105" d="M233 625l17 69h737l-16 -69h-738z" />
<glyph unicode="&#xae;" horiz-adv-x="1257" d="M287 1010q0 125 43 217t111.5 151.5t153.5 88t167 28.5t167 -28.5t153.5 -88t111.5 -151.5t43 -217q0 -127 -43 -218.5t-111.5 -150.5t-153.5 -88t-167 -29t-167 29t-153.5 88t-111.5 150.5t-43 218.5zM344 1010q0 -106 36 -187.5t94 -136.5t133 -83t155 -28t154.5 28 t133 83t94.5 136t36 188q0 106 -36 187t-94.5 136.5t-133 83t-154.5 27.5t-155 -27.5t-133 -83t-94 -136.5t-36 -187zM608 750v528h158q78 0 132 -36t54 -116q0 -49 -25.5 -91t-90.5 -62l137 -223h-64l-129 213h-118v-213h-54zM662 1008h112q61 0 92 37.5t31 80.5 q0 41 -28.5 74t-100.5 33h-106v-225z" />
<glyph unicode="&#xaf;" horiz-adv-x="593" d="M266 1354l15 65h471l-15 -65h-471z" />
<glyph unicode="&#xb0;" d="M295 1085q0 70 22.5 136.5t67.5 119t109.5 83t150.5 30.5q57 0 109.5 -17.5t92.5 -53t63.5 -88t23.5 -119.5q0 -72 -22.5 -137.5t-67.5 -118t-109.5 -83t-150.5 -30.5q-57 0 -109.5 17.5t-92.5 53t-63.5 88t-23.5 119.5zM369 1092q0 -106 61.5 -165t157.5 -59 q63 0 113.5 25t86 65.5t54 96t18.5 114.5q0 106 -61.5 165t-155.5 59q-66 0 -116 -25t-85.5 -66.5t-54 -96t-18.5 -113.5z" />
<glyph unicode="&#xb1;" d="M123 0l14 70h819l-14 -70h-819zM254 625l16 69h373l78 375h74l-78 -375h373l-17 -69h-373l-73 -355h-74l74 355h-373z" />
<glyph unicode="&#xb2;" horiz-adv-x="825" d="M106 602l15 68l420 336q61 51 105 93t70.5 78.5t39 70.5t12.5 73q0 139 -178 139q-102 0 -172 -48t-99 -126h-77q39 111 133 175.5t221 64.5q115 0 182.5 -51.5t67.5 -147.5q0 -45 -12.5 -86t-44 -85t-85 -95t-135.5 -115l-352 -276h490l-15 -68h-586z" />
<glyph unicode="&#xb3;" horiz-adv-x="866" d="M143 809h78q4 -162 209 -162q80 0 135.5 23.5t90 60.5t50 81t15.5 87q0 74 -50 111t-134 37h-99l15 65h96q61 0 105 20.5t74 53.5t44 70.5t14 74.5q0 63 -47 96t-135 33q-102 0 -167.5 -41t-100.5 -116h-74q41 104 127 163.5t221 59.5q113 0 185.5 -47t72.5 -136 q0 -86 -53 -159.5t-178 -102.5q70 -10 116 -56t46 -122q0 -51 -19.5 -107.5t-63.5 -103.5t-115 -77.5t-171 -30.5q-135 0 -213 59t-74 166z" />
<glyph unicode="&#xb4;" horiz-adv-x="442" d="M238 1225l270 280h113l-310 -280h-73z" />
<glyph unicode="&#xb5;" horiz-adv-x="1120" d="M2 -369l305 1434h74l-160 -748q-10 -47 -10 -77q0 -104 67.5 -156.5t186.5 -52.5q72 0 139.5 28.5t124.5 78.5t98 120t60 152l139 655h74l-226 -1065h-61l29 190q-80 -117 -186.5 -169t-209.5 -52q-201 0 -268 148l-102 -486h-74z" />
<glyph unicode="&#xb6;" horiz-adv-x="1126" d="M291 -369l250 1178q-35 0 -77 13.5t-81 43t-64.5 77.5t-25.5 118q0 78 29.5 151.5t82 132t124 94.5t155.5 36h70l-394 -1844h-69zM670 -369l393 1844h70l-394 -1844h-69z" />
<glyph unicode="&#xb7;" horiz-adv-x="569" d="M272 592l29 131h111l-29 -131h-111z" />
<glyph unicode="&#xb8;" horiz-adv-x="575" d="M-88 -319h65v-9q0 -49 38 -74.5t106 -25.5q37 0 70.5 12.5t59 34t40 51t14.5 62.5q0 51 -48 80.5t-161 29.5l56 189h57l-31 -137q98 -10 146.5 -56.5t48.5 -105.5q0 -39 -19.5 -78t-54.5 -71t-84 -51t-109 -19q-88 0 -141 39.5t-53 117.5v11z" />
<glyph unicode="&#xb9;" horiz-adv-x="462" d="M193 1311l14 75l246 119h73l-192 -903h-78l176 825z" />
<glyph unicode="&#xba;" horiz-adv-x="786" d="M0 0l14 70h602l-14 -70h-602zM197 897q0 47 8 110.5t27.5 131t51 132t80 117t114 84t151.5 31.5q117 0 181 -71.5t64 -212.5q0 -47 -7 -111t-25.5 -131.5t-50 -132t-78.5 -116.5t-111.5 -84t-150.5 -32q-117 0 -185.5 72t-68.5 213zM264 895q0 -123 56.5 -174t134.5 -51 q70 0 124 29.5t93 77.5t64.5 109.5t42 122t22.5 117t6 95.5q0 123 -52 174t-134 51q-70 0 -123.5 -30t-93 -78t-66.5 -109.5t-43 -121.5t-23.5 -116.5t-7.5 -95.5z" />
<glyph unicode="&#xbb;" horiz-adv-x="940" d="M111 184l292 457l-127 424h62l154 -420l-312 -461h-69zM479 184l293 457l-127 424h62l153 -420l-311 -461h-70z" />
<glyph unicode="&#xbc;" horiz-adv-x="1595" d="M184 -190l1220 1802h84l-1222 -1802h-82zM222 1311l14 75l246 119h73l-192 -903h-78l176 825zM909 172l14 74l572 659h80l-144 -669h144l-13 -64h-143l-37 -170h-69l36 170h-440zM987 236h375l121 563z" />
<glyph unicode="&#xbd;" horiz-adv-x="1765" d="M184 -190l1220 1802h84l-1222 -1802h-82zM222 1311l14 75l246 119h73l-192 -903h-78l176 825zM1005 2l15 68l420 336q61 51 105 93t70.5 78.5t39 70.5t12.5 73q0 139 -178 139q-102 0 -172 -48t-99 -126h-77q39 111 133 175.5t221 64.5q115 0 182.5 -51.5t67.5 -147.5 q0 -45 -12.5 -86t-44 -85t-85 -95t-135.5 -115l-352 -276h490l-15 -68h-586z" />
<glyph unicode="&#xbe;" horiz-adv-x="1916" d="M186 809h78q4 -162 209 -162q80 0 135.5 23.5t90 60.5t50 81t15.5 87q0 74 -50 111t-134 37h-99l15 65h96q61 0 105 20.5t74 53.5t44 70.5t14 74.5q0 63 -47 96t-135 33q-102 0 -167.5 -41t-100.5 -116h-74q41 104 127 163.5t221 59.5q113 0 185.5 -47t72.5 -136 q0 -86 -53 -159.5t-178 -102.5q70 -10 116 -56t46 -122q0 -51 -19.5 -107.5t-63.5 -103.5t-115 -77.5t-171 -30.5q-135 0 -213 59t-74 166zM506 -190l1220 1802h84l-1222 -1802h-82zM1231 172l14 74l572 659h80l-144 -669h144l-13 -64h-143l-37 -170h-69l36 170h-440z M1309 236h375l121 563z" />
<glyph unicode="&#xbf;" horiz-adv-x="1009" d="M-27 -127q0 72 22.5 127t66.5 106.5t109 104.5t146 121q55 45 89 77.5t55.5 70.5t37 87t31.5 129h74q-18 -84 -33.5 -139t-40 -99t-63.5 -85t-102 -92q-82 -66 -141.5 -116t-98.5 -94t-57.5 -90.5t-18.5 -103.5q0 -86 69.5 -149.5t205.5 -63.5q68 0 129 20.5t111 55.5 t89 84t64 108h80q-27 -70 -72 -130t-105.5 -105t-136 -70.5t-166.5 -25.5q-78 0 -141 20.5t-108 57t-70 87t-25 107.5zM571 975l27 131h111l-27 -131h-111z" />
<glyph unicode="&#xc0;" horiz-adv-x="1314" d="M-61 0l899 1475h104l270 -1475h-79l-80 436h-764l-266 -436h-84zM328 502h714l-163 903zM737 1853h105l151 -280h-65z" />
<glyph unicode="&#xc1;" horiz-adv-x="1314" d="M-61 0l899 1475h104l270 -1475h-79l-80 436h-764l-266 -436h-84zM328 502h714l-163 903zM793 1573l270 280h113l-310 -280h-73z" />
<glyph unicode="&#xc2;" horiz-adv-x="1314" d="M-61 0l899 1475h104l270 -1475h-79l-80 436h-764l-266 -436h-84zM328 502h714l-163 903zM637 1573l272 280h96l152 -280h-70l-137 231l-234 -231h-79z" />
<glyph unicode="&#xc3;" horiz-adv-x="1314" d="M-61 0l899 1475h104l270 -1475h-79l-80 436h-764l-266 -436h-84zM328 502h714l-163 903zM653 1638l16 80q47 31 81 45.5t77 14.5q41 0 66.5 -10.5t46 -23t42 -22.5t54.5 -10q35 0 74 18.5t92 53.5l-17 -80q-47 -31 -81.5 -45.5t-77.5 -14.5q-41 0 -66.5 10.5t-46 22.5 t-42 22.5t-54.5 10.5q-35 0 -73 -18.5t-91 -53.5z" />
<glyph unicode="&#xc4;" horiz-adv-x="1314" d="M-61 0l899 1475h104l270 -1475h-79l-80 436h-764l-266 -436h-84zM328 502h714l-163 903zM678 1706l26 117h95l-27 -117h-94zM1079 1706l27 117h94l-27 -117h-94z" />
<glyph unicode="&#xc5;" horiz-adv-x="1314" d="M-61 0l876 1438q-59 23 -93 72t-34 118q0 47 16.5 94t48 86t80 62.5t113.5 23.5q98 0 156.5 -56t58.5 -148q0 -43 -13 -86t-40 -79t-67 -62.5t-91 -35.5l262 -1427h-79l-80 436h-764l-266 -436h-84zM328 502h714l-163 903zM754 1632q0 -76 43 -114.5t108 -38.5 q90 0 140.5 61.5t50.5 145.5q0 76 -43 114.5t-109 38.5q-90 0 -140 -61.5t-50 -145.5z" />
<glyph unicode="&#xc6;" horiz-adv-x="1878" d="M-82 0l1200 1475h869l-15 -68h-735l-133 -623h676l-15 -67h-675l-138 -649h736l-15 -68h-811l92 436h-594l-354 -436h-88zM414 502h555l194 921z" />
<glyph unicode="&#xc7;" horiz-adv-x="1464" d="M162 535q0 90 20.5 196.5t63.5 214t109.5 208.5t158.5 179t212 125t269 47q111 0 203 -25.5t158.5 -81t104.5 -143.5t38 -213h-76q0 211 -112.5 303.5t-323.5 92.5q-135 0 -242.5 -45t-190.5 -119t-142.5 -169t-97.5 -195.5t-56 -197t-18 -173.5q0 -117 32.5 -209 t92 -158t143.5 -100.5t188 -34.5q209 0 370 114.5t234 325.5h76q-35 -109 -96 -200t-145 -158.5t-189.5 -106.5t-224.5 -43l-16 -75q98 -10 146 -51.5t48 -100.5q0 -39 -19.5 -79t-54 -73.5t-84 -55t-108.5 -21.5q-88 0 -141.5 39.5t-53.5 117.5v11h66v-9q0 -49 38 -74.5 t105 -25.5q37 0 71 12.5t59.5 34t39.5 51t14 62.5q0 51 -48 80.5t-160 29.5l36 129q-117 6 -209 48t-156.5 116t-98 175.5t-33.5 224.5z" />
<glyph unicode="&#xc8;" horiz-adv-x="1148" d="M92 0l314 1475h851l-14 -68h-776l-133 -623h717l-15 -67h-717l-137 -649h776l-14 -68h-852zM700 1853h105l151 -280h-65z" />
<glyph unicode="&#xc9;" horiz-adv-x="1148" d="M92 0l314 1475h851l-14 -68h-776l-133 -623h717l-15 -67h-717l-137 -649h776l-14 -68h-852zM730 1573l270 280h113l-310 -280h-73z" />
<glyph unicode="&#xca;" horiz-adv-x="1148" d="M92 0l314 1475h851l-14 -68h-776l-133 -623h717l-15 -67h-717l-137 -649h776l-14 -68h-852zM586 1573l272 280h96l152 -280h-70l-137 231l-234 -231h-79z" />
<glyph unicode="&#xcb;" horiz-adv-x="1148" d="M92 0l314 1475h851l-14 -68h-776l-133 -623h717l-15 -67h-717l-137 -649h776l-14 -68h-852zM602 1706l26 117h95l-27 -117h-94zM1003 1706l27 117h94l-27 -117h-94z" />
<glyph unicode="&#xcc;" horiz-adv-x="423" d="M92 0l314 1475h75l-313 -1475h-76zM289 1853h105l151 -280h-65z" />
<glyph unicode="&#xcd;" horiz-adv-x="423" d="M92 0l314 1475h75l-313 -1475h-76zM357 1573l270 280h113l-310 -280h-73z" />
<glyph unicode="&#xce;" horiz-adv-x="423" d="M92 0l314 1475h75l-313 -1475h-76zM193 1573l272 280h96l152 -280h-70l-137 231l-234 -231h-79z" />
<glyph unicode="&#xcf;" horiz-adv-x="423" d="M92 0l314 1475h75l-313 -1475h-76zM226 1706l26 117h95l-27 -117h-94zM627 1706l27 117h94l-27 -117h-94z" />
<glyph unicode="&#xd0;" horiz-adv-x="1380" d="M92 0l158 741h-125l14 68h125l142 666h376q131 0 238.5 -37t183.5 -106.5t117 -171t41 -232.5q0 -164 -55.5 -330t-164 -299t-272 -216t-378.5 -83h-400zM182 68h322q207 0 355.5 86t242.5 215t138 278.5t44 278.5q0 119 -36 209t-101.5 150.5t-157.5 91t-205 30.5h-317 l-127 -598h485l-14 -68h-485z" />
<glyph unicode="&#xd1;" horiz-adv-x="1452" d="M92 0l314 1475h77l666 -1358l289 1358h71l-313 -1475h-74l-667 1368l-289 -1368h-74zM729 1638l16 80q47 31 81 45.5t77 14.5q41 0 66.5 -10.5t46 -23t42 -22.5t54.5 -10q35 0 74 18.5t92 53.5l-17 -80q-47 -31 -81.5 -45.5t-77.5 -14.5q-41 0 -66.5 10.5t-46 22.5 t-42 22.5t-54.5 10.5q-35 0 -73 -18.5t-91 -53.5z" />
<glyph unicode="&#xd2;" horiz-adv-x="1523" d="M164 526q0 90 19.5 197.5t60.5 217.5t106.5 211t157.5 180t212 126t269 47q113 0 208 -36.5t165 -107.5t107.5 -174.5t37.5 -238.5q0 -90 -19.5 -197.5t-60.5 -217t-106.5 -211t-157.5 -180.5t-211.5 -126t-269.5 -47q-115 0 -210 37t-163.5 107.5t-106.5 174t-38 238.5z M240 522q0 -119 32.5 -210t91 -152.5t140.5 -92t182 -30.5q139 0 247.5 45t191.5 121t141.5 172t95.5 197.5t53.5 200.5t16.5 179q0 119 -33 210t-92.5 152.5t-141.5 92.5t-180 31q-139 0 -248.5 -45t-192.5 -121t-141.5 -172t-94.5 -197.5t-52 -201t-16 -179.5zM815 1853 h105l151 -280h-65z" />
<glyph unicode="&#xd3;" horiz-adv-x="1523" d="M164 526q0 90 19.5 197.5t60.5 217.5t106.5 211t157.5 180t212 126t269 47q113 0 208 -36.5t165 -107.5t107.5 -174.5t37.5 -238.5q0 -90 -19.5 -197.5t-60.5 -217t-106.5 -211t-157.5 -180.5t-211.5 -126t-269.5 -47q-115 0 -210 37t-163.5 107.5t-106.5 174t-38 238.5z M240 522q0 -119 32.5 -210t91 -152.5t140.5 -92t182 -30.5q139 0 247.5 45t191.5 121t141.5 172t95.5 197.5t53.5 200.5t16.5 179q0 119 -33 210t-92.5 152.5t-141.5 92.5t-180 31q-139 0 -248.5 -45t-192.5 -121t-141.5 -172t-94.5 -197.5t-52 -201t-16 -179.5zM908 1573 l270 280h113l-310 -280h-73z" />
<glyph unicode="&#xd4;" horiz-adv-x="1523" d="M164 526q0 90 19.5 197.5t60.5 217.5t106.5 211t157.5 180t212 126t269 47q113 0 208 -36.5t165 -107.5t107.5 -174.5t37.5 -238.5q0 -90 -19.5 -197.5t-60.5 -217t-106.5 -211t-157.5 -180.5t-211.5 -126t-269.5 -47q-115 0 -210 37t-163.5 107.5t-106.5 174t-38 238.5z M240 522q0 -119 32.5 -210t91 -152.5t140.5 -92t182 -30.5q139 0 247.5 45t191.5 121t141.5 172t95.5 197.5t53.5 200.5t16.5 179q0 119 -33 210t-92.5 152.5t-141.5 92.5t-180 31q-139 0 -248.5 -45t-192.5 -121t-141.5 -172t-94.5 -197.5t-52 -201t-16 -179.5zM746 1573 l272 280h96l152 -280h-70l-137 231l-234 -231h-79z" />
<glyph unicode="&#xd5;" horiz-adv-x="1523" d="M164 526q0 90 19.5 197.5t60.5 217.5t106.5 211t157.5 180t212 126t269 47q113 0 208 -36.5t165 -107.5t107.5 -174.5t37.5 -238.5q0 -90 -19.5 -197.5t-60.5 -217t-106.5 -211t-157.5 -180.5t-211.5 -126t-269.5 -47q-115 0 -210 37t-163.5 107.5t-106.5 174t-38 238.5z M240 522q0 -119 32.5 -210t91 -152.5t140.5 -92t182 -30.5q139 0 247.5 45t191.5 121t141.5 172t95.5 197.5t53.5 200.5t16.5 179q0 119 -33 210t-92.5 152.5t-141.5 92.5t-180 31q-139 0 -248.5 -45t-192.5 -121t-141.5 -172t-94.5 -197.5t-52 -201t-16 -179.5zM760 1638 l16 80q47 31 81 45.5t77 14.5q41 0 66.5 -10.5t46 -23t42 -22.5t54.5 -10q35 0 74 18.5t92 53.5l-17 -80q-47 -31 -81.5 -45.5t-77.5 -14.5q-41 0 -66.5 10.5t-46 22.5t-42 22.5t-54.5 10.5q-35 0 -73 -18.5t-91 -53.5z" />
<glyph unicode="&#xd6;" horiz-adv-x="1523" d="M164 526q0 90 19.5 197.5t60.5 217.5t106.5 211t157.5 180t212 126t269 47q113 0 208 -36.5t165 -107.5t107.5 -174.5t37.5 -238.5q0 -90 -19.5 -197.5t-60.5 -217t-106.5 -211t-157.5 -180.5t-211.5 -126t-269.5 -47q-115 0 -210 37t-163.5 107.5t-106.5 174t-38 238.5z M240 522q0 -119 32.5 -210t91 -152.5t140.5 -92t182 -30.5q139 0 247.5 45t191.5 121t141.5 172t95.5 197.5t53.5 200.5t16.5 179q0 119 -33 210t-92.5 152.5t-141.5 92.5t-180 31q-139 0 -248.5 -45t-192.5 -121t-141.5 -172t-94.5 -197.5t-52 -201t-16 -179.5zM785 1706 l26 117h95l-27 -117h-94zM1186 1706l27 117h94l-27 -117h-94z" />
<glyph unicode="&#xd7;" d="M303 401l318 263l-205 262l57 47l207 -268l317 264l43 -54l-317 -262l203 -260l-58 -47l-204 266l-320 -264z" />
<glyph unicode="&#xd8;" horiz-adv-x="1523" d="M164 526q0 90 19.5 197.5t60.5 217.5t106.5 211t157.5 180t212 126t269 47q125 0 230 -47l129 221h75l-145 -252q106 -66 167.5 -186.5t61.5 -292.5q0 -90 -19.5 -197.5t-60.5 -217t-106.5 -211t-157.5 -180.5t-211.5 -126t-269.5 -47q-127 0 -225 43l-138 -237h-75 l153 266q-111 66 -172 188.5t-61 296.5zM240 522q0 -154 50 -258t142 -162l752 1297q-90 39 -199 39q-139 0 -248.5 -45t-192.5 -121t-141.5 -172t-94.5 -197.5t-52 -201t-16 -179.5zM492 72q88 -35 194 -35q139 0 247.5 45t191.5 121t141.5 172t95.5 197.5t53.5 200.5 t16.5 179q0 147 -50.5 252t-140.5 162z" />
<glyph unicode="&#xd9;" horiz-adv-x="1433" d="M172 381q0 55 12 111l211 983h74l-213 -996q-6 -25 -8 -49t-2 -47q0 -78 28.5 -141.5t80 -109.5t124 -70.5t162.5 -24.5q104 0 199.5 32.5t171 91t129 139.5t73.5 179l213 996h74l-215 -1004q-23 -102 -78 -193.5t-139 -160t-193.5 -108.5t-240.5 -40q-115 0 -202 33 t-145.5 88t-87 130t-28.5 161zM813 1853h105l151 -280h-65z" />
<glyph unicode="&#xda;" horiz-adv-x="1433" d="M172 381q0 55 12 111l211 983h74l-213 -996q-6 -25 -8 -49t-2 -47q0 -78 28.5 -141.5t80 -109.5t124 -70.5t162.5 -24.5q104 0 199.5 32.5t171 91t129 139.5t73.5 179l213 996h74l-215 -1004q-23 -102 -78 -193.5t-139 -160t-193.5 -108.5t-240.5 -40q-115 0 -202 33 t-145.5 88t-87 130t-28.5 161zM852 1573l270 280h113l-310 -280h-73z" />
<glyph unicode="&#xdb;" horiz-adv-x="1433" d="M172 381q0 55 12 111l211 983h74l-213 -996q-6 -25 -8 -49t-2 -47q0 -78 28.5 -141.5t80 -109.5t124 -70.5t162.5 -24.5q104 0 199.5 32.5t171 91t129 139.5t73.5 179l213 996h74l-215 -1004q-23 -102 -78 -193.5t-139 -160t-193.5 -108.5t-240.5 -40q-115 0 -202 33 t-145.5 88t-87 130t-28.5 161zM705 1573l272 280h96l152 -280h-70l-137 231l-234 -231h-79z" />
<glyph unicode="&#xdc;" horiz-adv-x="1433" d="M172 381q0 55 12 111l211 983h74l-213 -996q-6 -25 -8 -49t-2 -47q0 -78 28.5 -141.5t80 -109.5t124 -70.5t162.5 -24.5q104 0 199.5 32.5t171 91t129 139.5t73.5 179l213 996h74l-215 -1004q-23 -102 -78 -193.5t-139 -160t-193.5 -108.5t-240.5 -40q-115 0 -202 33 t-145.5 88t-87 130t-28.5 161zM736 1706l26 117h95l-27 -117h-94zM1137 1706l27 117h94l-27 -117h-94z" />
<glyph unicode="&#xdd;" horiz-adv-x="1269" d="M252 1475h78l354 -832l713 832h84l-770 -900l-121 -575h-76l123 580zM781 1573l270 280h113l-310 -280h-73z" />
<glyph unicode="&#xde;" horiz-adv-x="1277" d="M92 0l314 1475h75l-59 -273h420q207 0 313.5 -93t106.5 -257q0 -121 -45.5 -220.5t-125 -171t-189 -111.5t-238.5 -40h-431l-65 -309h-76zM248 379h422q115 0 210 36t162.5 98t104.5 148.5t37 188.5q0 135 -88 210t-254 75h-432z" />
<glyph unicode="&#xdf;" horiz-adv-x="1116" d="M82 0l240 1135q37 178 141 274t280 96q61 0 113.5 -14t90.5 -44t60.5 -74t22.5 -101q0 -70 -23.5 -120t-58.5 -89t-76 -69.5t-75.5 -61.5t-58 -64.5t-23.5 -76.5q0 -47 30.5 -86t100.5 -80q104 -61 149 -129t45 -146q0 -80 -30.5 -149.5t-84 -120.5t-127 -81t-161.5 -30 q-135 0 -210 60.5t-95 146.5h78q16 -66 78.5 -105.5t160.5 -39.5q59 0 115.5 22.5t100.5 63.5t71 99t27 132q0 66 -37 119t-125 106q-86 53 -121 100.5t-35 104.5t23.5 98.5t58.5 74t76 63t75.5 65.5t58.5 79t24 108q0 88 -61.5 133t-162.5 45q-55 0 -108.5 -15.5 t-98.5 -52.5t-80.5 -97t-54.5 -151l-239 -1128h-74z" />
<glyph unicode="&#xe0;" horiz-adv-x="1064" d="M68 211q0 94 36.5 160.5t102 113.5t155 76t193.5 45l340 53l23 109q6 33 6 63q0 94 -66.5 148.5t-191.5 54.5q-135 0 -234.5 -65.5t-134.5 -169.5h-74q20 66 62.5 121t100.5 94t131 60.5t157 21.5q145 0 234 -69t89 -196q0 -18 -2 -37.5t-6 -39.5l-160 -754h-59l27 190 q-33 -43 -76 -82.5t-95.5 -70.5t-114.5 -49.5t-136 -18.5q-66 0 -122 15.5t-97 46t-64.5 76t-23.5 104.5zM147 215q0 -92 69 -137t183 -45q68 0 137.5 24.5t130 69.5t105.5 107.5t62 140.5l49 223l-308 -49q-121 -18 -201.5 -49t-132 -73t-73 -95t-21.5 -117zM522 1505h105 l151 -280h-65z" />
<glyph unicode="&#xe1;" horiz-adv-x="1064" d="M68 211q0 94 36.5 160.5t102 113.5t155 76t193.5 45l340 53l23 109q6 33 6 63q0 94 -66.5 148.5t-191.5 54.5q-135 0 -234.5 -65.5t-134.5 -169.5h-74q20 66 62.5 121t100.5 94t131 60.5t157 21.5q145 0 234 -69t89 -196q0 -18 -2 -37.5t-6 -39.5l-160 -754h-59l27 190 q-33 -43 -76 -82.5t-95.5 -70.5t-114.5 -49.5t-136 -18.5q-66 0 -122 15.5t-97 46t-64.5 76t-23.5 104.5zM147 215q0 -92 69 -137t183 -45q68 0 137.5 24.5t130 69.5t105.5 107.5t62 140.5l49 223l-308 -49q-121 -18 -201.5 -49t-132 -73t-73 -95t-21.5 -117zM639 1225 l270 280h113l-310 -280h-73z" />
<glyph unicode="&#xe2;" horiz-adv-x="1064" d="M68 211q0 94 36.5 160.5t102 113.5t155 76t193.5 45l340 53l23 109q6 33 6 63q0 94 -66.5 148.5t-191.5 54.5q-135 0 -234.5 -65.5t-134.5 -169.5h-74q20 66 62.5 121t100.5 94t131 60.5t157 21.5q145 0 234 -69t89 -196q0 -18 -2 -37.5t-6 -39.5l-160 -754h-59l27 190 q-33 -43 -76 -82.5t-95.5 -70.5t-114.5 -49.5t-136 -18.5q-66 0 -122 15.5t-97 46t-64.5 76t-23.5 104.5zM147 215q0 -92 69 -137t183 -45q68 0 137.5 24.5t130 69.5t105.5 107.5t62 140.5l49 223l-308 -49q-121 -18 -201.5 -49t-132 -73t-73 -95t-21.5 -117zM457 1225 l272 280h96l152 -280h-70l-137 231l-234 -231h-79z" />
<glyph unicode="&#xe3;" horiz-adv-x="1064" d="M68 211q0 94 36.5 160.5t102 113.5t155 76t193.5 45l340 53l23 109q6 33 6 63q0 94 -66.5 148.5t-191.5 54.5q-135 0 -234.5 -65.5t-134.5 -169.5h-74q20 66 62.5 121t100.5 94t131 60.5t157 21.5q145 0 234 -69t89 -196q0 -18 -2 -37.5t-6 -39.5l-160 -754h-59l27 190 q-33 -43 -76 -82.5t-95.5 -70.5t-114.5 -49.5t-136 -18.5q-66 0 -122 15.5t-97 46t-64.5 76t-23.5 104.5zM147 215q0 -92 69 -137t183 -45q68 0 137.5 24.5t130 69.5t105.5 107.5t62 140.5l49 223l-308 -49q-121 -18 -201.5 -49t-132 -73t-73 -95t-21.5 -117zM465 1290 l16 80q47 31 81 45.5t77 14.5q41 0 66.5 -10.5t46 -23t42 -22.5t54.5 -10q35 0 74 18.5t92 53.5l-17 -80q-47 -31 -81.5 -45.5t-77.5 -14.5q-41 0 -66.5 10.5t-46 22.5t-42 22.5t-54.5 10.5q-35 0 -73 -18.5t-91 -53.5z" />
<glyph unicode="&#xe4;" horiz-adv-x="1064" d="M68 211q0 94 36.5 160.5t102 113.5t155 76t193.5 45l340 53l23 109q6 33 6 63q0 94 -66.5 148.5t-191.5 54.5q-135 0 -234.5 -65.5t-134.5 -169.5h-74q20 66 62.5 121t100.5 94t131 60.5t157 21.5q145 0 234 -69t89 -196q0 -18 -2 -37.5t-6 -39.5l-160 -754h-59l27 190 q-33 -43 -76 -82.5t-95.5 -70.5t-114.5 -49.5t-136 -18.5q-66 0 -122 15.5t-97 46t-64.5 76t-23.5 104.5zM147 215q0 -92 69 -137t183 -45q68 0 137.5 24.5t130 69.5t105.5 107.5t62 140.5l49 223l-308 -49q-121 -18 -201.5 -49t-132 -73t-73 -95t-21.5 -117zM490 1358 l26 117h95l-27 -117h-94zM891 1358l27 117h94l-27 -117h-94z" />
<glyph unicode="&#xe5;" horiz-adv-x="1064" d="M68 211q0 94 36.5 160.5t102 113.5t155 76t193.5 45l340 53l23 109q6 33 6 63q0 94 -66.5 148.5t-191.5 54.5q-135 0 -234.5 -65.5t-134.5 -169.5h-74q20 66 62.5 121t100.5 94t131 60.5t157 21.5q145 0 234 -69t89 -196q0 -18 -2 -37.5t-6 -39.5l-160 -754h-59l27 190 q-33 -43 -76 -82.5t-95.5 -70.5t-114.5 -49.5t-136 -18.5q-66 0 -122 15.5t-97 46t-64.5 76t-23.5 104.5zM147 215q0 -92 69 -137t183 -45q68 0 137.5 24.5t130 69.5t105.5 107.5t62 140.5l49 223l-308 -49q-121 -18 -201.5 -49t-132 -73t-73 -95t-21.5 -117zM508 1403 q0 47 16 94t48 86t80 62.5t114 23.5q98 0 156.5 -56.5t58.5 -148.5q0 -47 -16.5 -94t-48.5 -86t-81 -62.5t-112 -23.5q-98 0 -156.5 56.5t-58.5 148.5zM573 1407q0 -76 43 -115t109 -39q90 0 140 61.5t50 145.5q0 76 -42.5 115t-108.5 39q-90 0 -140.5 -61.5t-50.5 -145.5z " />
<glyph unicode="&#xe6;" horiz-adv-x="1898" d="M68 211q0 92 36.5 158.5t102 113.5t155 77t193.5 46l340 53l23 109q6 33 6 63q0 94 -66.5 148.5t-191.5 54.5q-135 0 -234.5 -65.5t-134.5 -169.5h-74q20 66 62.5 121t100.5 94t131 60.5t157 21.5q143 0 227 -69t84 -198q84 135 205 206t260 71q84 0 154.5 -25.5t121 -75 t79 -123t28.5 -169.5q0 -35 -3 -75t-13 -81h-873q-10 -47 -15 -90t-5 -80q0 -92 25.5 -156.5t70.5 -106.5t106.5 -61.5t133.5 -19.5q129 0 236.5 64.5t166.5 185.5h78q-66 -145 -197 -229t-293 -84q-154 0 -254 77.5t-129 225.5q-45 -88 -103 -147.5t-124 -96.5 t-134.5 -53.5t-131.5 -16.5q-66 0 -122 15.5t-97 46t-64.5 76t-23.5 104.5zM147 215q0 -92 69 -137t183 -45q68 0 137.5 24.5t130 69.5t105.5 107.5t62 140.5l49 223l-308 -49q-121 -18 -201.5 -49t-132 -73t-73 -95t-21.5 -117zM956 621h795q8 47 8 98q0 160 -86 242.5 t-227 82.5q-80 0 -157 -32.5t-143.5 -90t-115.5 -135t-74 -165.5z" />
<glyph unicode="&#xe7;" horiz-adv-x="1093" d="M113 365q0 121 37.5 250.5t112.5 236t186.5 175.5t259.5 69q170 0 264 -87t94 -231h-78q0 117 -72.5 186.5t-209.5 69.5q-133 0 -231.5 -66.5t-163 -167t-96.5 -218t-32 -217.5q0 -84 23.5 -146.5t64.5 -103.5t97.5 -61.5t122.5 -20.5q68 0 131 20.5t116.5 55t94 84 t63.5 108.5h76q-27 -70 -73 -129t-106.5 -102t-133 -69t-152.5 -30l-16 -77q98 -10 146 -54.5t48 -103.5q0 -39 -17.5 -79t-51 -71.5t-84 -52t-113.5 -20.5q-88 0 -141.5 39.5t-53.5 117.5v11h66v-9q0 -49 38 -74.5t105 -25.5q37 0 71 12.5t59.5 34t39.5 51t14 62.5 q0 51 -48 80.5t-160 29.5l36 129q-147 10 -240 108.5t-93 285.5z" />
<glyph unicode="&#xe8;" horiz-adv-x="1163" d="M117 383q0 115 36.5 241t110.5 230t186.5 173t266.5 69q82 0 151.5 -24.5t120.5 -75t80 -125t29 -175.5q0 -88 -21 -182h-872q-8 -37 -11.5 -71.5t-3.5 -65.5q0 -88 26 -152.5t70 -107.5t105.5 -63.5t134.5 -20.5q129 0 236.5 64.5t167.5 185.5h78q-66 -145 -197 -229.5 t-293 -84.5q-180 0 -290.5 107.5t-110.5 306.5zM217 578h795q4 33 7 61.5t3 56.5q0 170 -86 254t-223 84q-80 0 -156 -29.5t-142.5 -87t-117.5 -143.5t-80 -196zM573 1505h105l151 -280h-65z" />
<glyph unicode="&#xe9;" horiz-adv-x="1163" d="M117 383q0 115 36.5 241t110.5 230t186.5 173t266.5 69q82 0 151.5 -24.5t120.5 -75t80 -125t29 -175.5q0 -88 -21 -182h-872q-8 -37 -11.5 -71.5t-3.5 -65.5q0 -88 26 -152.5t70 -107.5t105.5 -63.5t134.5 -20.5q129 0 236.5 64.5t167.5 185.5h78q-66 -145 -197 -229.5 t-293 -84.5q-180 0 -290.5 107.5t-110.5 306.5zM217 578h795q4 33 7 61.5t3 56.5q0 170 -86 254t-223 84q-80 0 -156 -29.5t-142.5 -87t-117.5 -143.5t-80 -196zM687 1225l270 280h113l-310 -280h-73z" />
<glyph unicode="&#xea;" horiz-adv-x="1163" d="M117 383q0 115 36.5 241t110.5 230t186.5 173t266.5 69q82 0 151.5 -24.5t120.5 -75t80 -125t29 -175.5q0 -88 -21 -182h-872q-8 -37 -11.5 -71.5t-3.5 -65.5q0 -88 26 -152.5t70 -107.5t105.5 -63.5t134.5 -20.5q129 0 236.5 64.5t167.5 185.5h78q-66 -145 -197 -229.5 t-293 -84.5q-180 0 -290.5 107.5t-110.5 306.5zM217 578h795q4 33 7 61.5t3 56.5q0 170 -86 254t-223 84q-80 0 -156 -29.5t-142.5 -87t-117.5 -143.5t-80 -196zM492 1225l272 280h96l152 -280h-70l-137 231l-234 -231h-79z" />
<glyph unicode="&#xeb;" horiz-adv-x="1163" d="M117 383q0 115 36.5 241t110.5 230t186.5 173t266.5 69q82 0 151.5 -24.5t120.5 -75t80 -125t29 -175.5q0 -88 -21 -182h-872q-8 -37 -11.5 -71.5t-3.5 -65.5q0 -88 26 -152.5t70 -107.5t105.5 -63.5t134.5 -20.5q129 0 236.5 64.5t167.5 185.5h78q-66 -145 -197 -229.5 t-293 -84.5q-180 0 -290.5 107.5t-110.5 306.5zM217 578h795q4 33 7 61.5t3 56.5q0 170 -86 254t-223 84q-80 0 -156 -29.5t-142.5 -87t-117.5 -143.5t-80 -196zM533 1358l26 117h95l-27 -117h-94zM934 1358l27 117h94l-27 -117h-94z" />
<glyph unicode="&#xec;" horiz-adv-x="393" d="M78 0l225 1065h74l-225 -1065h-74zM217 1505h105l151 -280h-65z" />
<glyph unicode="&#xed;" horiz-adv-x="393" d="M78 0l225 1065h74l-225 -1065h-74zM275 1225l270 280h113l-310 -280h-73z" />
<glyph unicode="&#xee;" horiz-adv-x="393" d="M78 0l225 1065h74l-225 -1065h-74zM117 1225l272 280h96l152 -280h-70l-137 231l-234 -231h-79z" />
<glyph unicode="&#xef;" horiz-adv-x="393" d="M78 0l225 1065h74l-225 -1065h-74zM156 1358l26 117h95l-27 -117h-94zM557 1358l27 117h94l-27 -117h-94z" />
<glyph unicode="&#xf0;" horiz-adv-x="1097" d="M106 348q0 123 39 236.5t109 201.5t168 140.5t217 52.5q86 0 148.5 -24.5t104.5 -66.5t64.5 -94.5t26.5 -107.5q10 51 13 97t3 87q0 141 -43 238.5t-112 161.5l-154 -131h-88l197 168q-68 49 -146 76.5t-155 43.5l26 58q78 -16 162 -48t160 -89l147 127h88l-190 -164 q78 -72 129 -181.5t51 -269.5q0 -57 -9 -145t-35 -187.5t-70 -199t-112.5 -179t-164.5 -130t-225 -50.5q-170 0 -259.5 105.5t-89.5 273.5zM182 346q0 -137 70 -223t205 -86q88 0 158.5 29.5t125 76.5t92 107.5t62.5 122t36 119t11 100.5q0 63 -17.5 121.5t-54 103.5 t-93 70.5t-132.5 25.5q-111 0 -198 -50t-145 -130t-89 -181t-31 -206z" />
<glyph unicode="&#xf1;" horiz-adv-x="1120" d="M82 0l225 1065h62l-33 -203q78 115 184.5 174.5t222.5 59.5q141 0 224.5 -72t83.5 -199q0 -37 -11 -88l-155 -737h-74l156 733q6 27 8 45.5t2 38.5q0 102 -64.5 159.5t-189.5 57.5q-61 0 -130 -25.5t-129.5 -73.5t-105.5 -116.5t-63 -154.5l-139 -664h-74zM514 1290 l16 80q47 31 81 45.5t77 14.5q41 0 66.5 -10.5t46 -23t42 -22.5t54.5 -10q35 0 74 18.5t92 53.5l-17 -80q-47 -31 -81.5 -45.5t-77.5 -14.5q-41 0 -66.5 10.5t-46 22.5t-42 22.5t-54.5 10.5q-35 0 -73 -18.5t-91 -53.5z" />
<glyph unicode="&#xf2;" horiz-adv-x="1157" d="M115 373q0 96 30.5 221t101 236.5t187.5 188.5t289 77q176 0 279.5 -104.5t103.5 -299.5q0 -63 -13.5 -142t-43 -159t-76.5 -155.5t-114.5 -135t-155.5 -95.5t-201 -36q-176 0 -281.5 104.5t-105.5 299.5zM190 371q0 -170 85.5 -255t230.5 -85q98 0 176 34.5t136.5 90 t98 127t65.5 145.5t37 143.5t11 122.5q0 170 -83 255t-230 85q-152 0 -253.5 -73.5t-161.5 -178t-86 -218t-26 -193.5zM573 1505h105l151 -280h-65z" />
<glyph unicode="&#xf3;" horiz-adv-x="1157" d="M115 373q0 96 30.5 221t101 236.5t187.5 188.5t289 77q176 0 279.5 -104.5t103.5 -299.5q0 -63 -13.5 -142t-43 -159t-76.5 -155.5t-114.5 -135t-155.5 -95.5t-201 -36q-176 0 -281.5 104.5t-105.5 299.5zM190 371q0 -170 85.5 -255t230.5 -85q98 0 176 34.5t136.5 90 t98 127t65.5 145.5t37 143.5t11 122.5q0 170 -83 255t-230 85q-152 0 -253.5 -73.5t-161.5 -178t-86 -218t-26 -193.5zM678 1225l270 280h113l-310 -280h-73z" />
<glyph unicode="&#xf4;" horiz-adv-x="1157" d="M115 373q0 96 30.5 221t101 236.5t187.5 188.5t289 77q176 0 279.5 -104.5t103.5 -299.5q0 -63 -13.5 -142t-43 -159t-76.5 -155.5t-114.5 -135t-155.5 -95.5t-201 -36q-176 0 -281.5 104.5t-105.5 299.5zM190 371q0 -170 85.5 -255t230.5 -85q98 0 176 34.5t136.5 90 t98 127t65.5 145.5t37 143.5t11 122.5q0 170 -83 255t-230 85q-152 0 -253.5 -73.5t-161.5 -178t-86 -218t-26 -193.5zM498 1225l272 280h96l152 -280h-70l-137 231l-234 -231h-79z" />
<glyph unicode="&#xf5;" horiz-adv-x="1157" d="M115 373q0 96 30.5 221t101 236.5t187.5 188.5t289 77q176 0 279.5 -104.5t103.5 -299.5q0 -63 -13.5 -142t-43 -159t-76.5 -155.5t-114.5 -135t-155.5 -95.5t-201 -36q-176 0 -281.5 104.5t-105.5 299.5zM190 371q0 -170 85.5 -255t230.5 -85q98 0 176 34.5t136.5 90 t98 127t65.5 145.5t37 143.5t11 122.5q0 170 -83 255t-230 85q-152 0 -253.5 -73.5t-161.5 -178t-86 -218t-26 -193.5zM510 1290l16 80q47 31 81 45.5t77 14.5q41 0 66.5 -10.5t46 -23t42 -22.5t54.5 -10q35 0 74 18.5t92 53.5l-17 -80q-47 -31 -81.5 -45.5t-77.5 -14.5 q-41 0 -66.5 10.5t-46 22.5t-42 22.5t-54.5 10.5q-35 0 -73 -18.5t-91 -53.5z" />
<glyph unicode="&#xf6;" horiz-adv-x="1157" d="M115 373q0 96 30.5 221t101 236.5t187.5 188.5t289 77q176 0 279.5 -104.5t103.5 -299.5q0 -63 -13.5 -142t-43 -159t-76.5 -155.5t-114.5 -135t-155.5 -95.5t-201 -36q-176 0 -281.5 104.5t-105.5 299.5zM190 371q0 -170 85.5 -255t230.5 -85q98 0 176 34.5t136.5 90 t98 127t65.5 145.5t37 143.5t11 122.5q0 170 -83 255t-230 85q-152 0 -253.5 -73.5t-161.5 -178t-86 -218t-26 -193.5zM537 1358l26 117h95l-27 -117h-94zM938 1358l27 117h94l-27 -117h-94z" />
<glyph unicode="&#xf7;" d="M254 625l16 69h820l-17 -69h-819zM508 131l29 131h102l-29 -131h-102zM705 1057l28 131h103l-29 -131h-102z" />
<glyph unicode="&#xf8;" horiz-adv-x="1157" d="M70 -225l180 272q-66 51 -100.5 133t-34.5 193q0 96 30.5 221t101 236.5t187.5 188.5t289 77q109 0 190 -41l156 235h78l-178 -270q66 -51 101.5 -133t35.5 -195q0 -63 -13.5 -142t-43 -159t-76.5 -155.5t-114.5 -135t-155.5 -95.5t-201 -36q-57 0 -106.5 11.5 t-92.5 31.5l-156 -237h-77zM190 371q0 -92 25 -158t72 -109l590 895q-70 35 -160 35q-152 0 -253.5 -73.5t-161.5 -178t-86 -218t-26 -193.5zM340 68q68 -37 166 -37t176 34.5t136.5 90t98 127t65.5 145.5t37 143.5t11 122.5q0 92 -26.5 160t-73.5 109z" />
<glyph unicode="&#xf9;" horiz-adv-x="1110" d="M131 236q0 23 2 46t8 50l156 733h74l-152 -711q-10 -35 -12 -61.5t-2 -48.5q0 -106 64.5 -159.5t185.5 -53.5q72 0 139.5 28.5t124.5 78.5t98 120t60 152l139 655h74l-226 -1065h-61l28 190q-41 -57 -89 -99t-100 -68.5t-105.5 -40t-104.5 -13.5q-133 0 -217 65.5 t-84 201.5zM553 1505h105l151 -280h-65z" />
<glyph unicode="&#xfa;" horiz-adv-x="1110" d="M131 236q0 23 2 46t8 50l156 733h74l-152 -711q-10 -35 -12 -61.5t-2 -48.5q0 -106 64.5 -159.5t185.5 -53.5q72 0 139.5 28.5t124.5 78.5t98 120t60 152l139 655h74l-226 -1065h-61l28 190q-41 -57 -89 -99t-100 -68.5t-105.5 -40t-104.5 -13.5q-133 0 -217 65.5 t-84 201.5zM644 1225l270 280h113l-310 -280h-73z" />
<glyph unicode="&#xfb;" horiz-adv-x="1110" d="M131 236q0 23 2 46t8 50l156 733h74l-152 -711q-10 -35 -12 -61.5t-2 -48.5q0 -106 64.5 -159.5t185.5 -53.5q72 0 139.5 28.5t124.5 78.5t98 120t60 152l139 655h74l-226 -1065h-61l28 190q-41 -57 -89 -99t-100 -68.5t-105.5 -40t-104.5 -13.5q-133 0 -217 65.5 t-84 201.5zM469 1225l272 280h96l152 -280h-70l-137 231l-234 -231h-79z" />
<glyph unicode="&#xfc;" horiz-adv-x="1110" d="M131 236q0 23 2 46t8 50l156 733h74l-152 -711q-10 -35 -12 -61.5t-2 -48.5q0 -106 64.5 -159.5t185.5 -53.5q72 0 139.5 28.5t124.5 78.5t98 120t60 152l139 655h74l-226 -1065h-61l28 190q-41 -57 -89 -99t-100 -68.5t-105.5 -40t-104.5 -13.5q-133 0 -217 65.5 t-84 201.5zM508 1358l26 117h95l-27 -117h-94zM909 1358l27 117h94l-27 -117h-94z" />
<glyph unicode="&#xfd;" horiz-adv-x="1003" d="M35 -375l14 60q49 -23 101 -23q33 0 60.5 16.5t57 55.5t66.5 104.5t90 161.5h-29l-211 1065h74l199 -1012l569 1012h80l-606 -1071q-68 -119 -113 -194.5t-83 -120t-74.5 -61.5t-86.5 -17q-27 0 -57.5 7t-50.5 17zM578 1225l270 280h113l-310 -280h-73z" />
<glyph unicode="&#xfe;" horiz-adv-x="1163" d="M2 -369l393 1844h74l-135 -629q72 111 180.5 180.5t247.5 69.5q160 0 255 -93.5t95 -283.5q0 -109 -32.5 -240t-102.5 -244.5t-179.5 -189.5t-265.5 -76q-137 0 -221 72t-108 182l-127 -592h-74zM238 354q0 -164 79.5 -243.5t210.5 -79.5q92 0 166 34.5t130.5 92 t97.5 131t66.5 150.5t37.5 151t12 131q0 160 -79.5 236.5t-213.5 76.5q-125 0 -220 -64.5t-158.5 -163.5t-96 -220t-32.5 -232z" />
<glyph unicode="&#xff;" horiz-adv-x="1003" d="M35 -375l14 60q49 -23 101 -23q33 0 60.5 16.5t57 55.5t66.5 104.5t90 161.5h-29l-211 1065h74l199 -1012l569 1012h80l-606 -1071q-68 -119 -113 -194.5t-83 -120t-74.5 -61.5t-86.5 -17q-27 0 -57.5 7t-50.5 17zM467 1358l26 117h95l-27 -117h-94zM868 1358l27 117h94 l-27 -117h-94z" />
<glyph unicode="&#x152;" horiz-adv-x="1898" d="M164 530q0 94 20.5 204t63.5 218.5t109.5 208t159.5 176t214 122.5t270 46q61 0 107.5 -8t93.5 -22h805l-14 -68h-736l-133 -623h676l-14 -67h-676l-137 -649h735l-14 -68h-811q-95 -20 -199 -20q-115 0 -210 35.5t-164.5 105t-107.5 172t-38 237.5zM240 526 q0 -119 32.5 -209t92 -149t141.5 -90t182 -31q49 0 104.5 5t104.5 20l285 1337q-41 16 -88 22.5t-99 6.5q-139 0 -249.5 -44t-194.5 -118t-143.5 -169t-96.5 -196.5t-54 -201t-17 -183.5z" />
<glyph unicode="&#x153;" horiz-adv-x="2037" d="M115 373q0 96 30.5 221t101 236.5t187.5 188.5t289 77q154 0 253 -84t114 -256q82 168 214 254t285 86q82 0 151.5 -24.5t121 -75t80 -125t28.5 -175.5q0 -88 -20 -182h-873q-8 -37 -11 -71.5t-3 -65.5q0 -88 25.5 -152.5t69.5 -107.5t105.5 -63.5t135.5 -20.5 q129 0 236.5 64.5t166.5 185.5h78q-66 -145 -197 -229.5t-292 -84.5q-166 0 -269.5 89t-120.5 255q-80 -174 -209.5 -259t-289.5 -85q-176 0 -281.5 104.5t-105.5 299.5zM190 371q0 -170 85 -255t231 -85q86 0 166 31.5t145.5 94t115.5 157t77 218.5q18 92 18 168 q0 168 -85 251t-226 83q-152 0 -253.5 -73.5t-161.5 -178t-86 -218t-26 -193.5zM1090 578h794q4 33 7 61.5t3 56.5q0 170 -86 254t-223 84q-80 0 -155.5 -29.5t-142 -87t-118 -143.5t-79.5 -196z" />
<glyph unicode="&#x178;" horiz-adv-x="1269" d="M252 1475h78l354 -832l713 832h84l-770 -900l-121 -575h-76l123 580zM652 1706l26 117h95l-27 -117h-94zM1053 1706l27 117h94l-27 -117h-94z" />
<glyph unicode="&#x2c6;" horiz-adv-x="634" d="M236 1225l272 280h96l152 -280h-70l-137 231l-234 -231h-79z" />
<glyph unicode="&#x2dc;" horiz-adv-x="643" d="M254 1290l16 80q47 31 81 45.5t77 14.5q41 0 66.5 -10.5t46 -23t42 -22.5t54.5 -10q35 0 74 18.5t92 53.5l-17 -80q-47 -31 -81.5 -45.5t-77.5 -14.5q-41 0 -66.5 10.5t-46 22.5t-42 22.5t-54.5 10.5q-35 0 -73 -18.5t-91 -53.5z" />
<glyph unicode="&#x2000;" horiz-adv-x="947" />
<glyph unicode="&#x2001;" horiz-adv-x="1894" />
<glyph unicode="&#x2002;" horiz-adv-x="947" />
<glyph unicode="&#x2003;" horiz-adv-x="1894" />
<glyph unicode="&#x2004;" horiz-adv-x="631" />
<glyph unicode="&#x2005;" horiz-adv-x="473" />
<glyph unicode="&#x2006;" horiz-adv-x="315" />
<glyph unicode="&#x2007;" horiz-adv-x="315" />
<glyph unicode="&#x2008;" horiz-adv-x="236" />
<glyph unicode="&#x2009;" horiz-adv-x="378" />
<glyph unicode="&#x200a;" horiz-adv-x="105" />
<glyph unicode="&#x2010;" horiz-adv-x="1105" d="M254 625l16 69h697l-17 -69h-696z" />
<glyph unicode="&#x2011;" horiz-adv-x="1105" d="M254 625l16 69h697l-17 -69h-696z" />
<glyph unicode="&#x2012;" horiz-adv-x="1105" d="M254 625l16 69h697l-17 -69h-696z" />
<glyph unicode="&#x2013;" horiz-adv-x="819" d="M49 625l17 69h819l-17 -69h-819z" />
<glyph unicode="&#x2014;" d="M49 625l17 69h1228l-16 -69h-1229z" />
<glyph unicode="&#x2018;" horiz-adv-x="552" d="M356 1067l31 145q25 119 86.5 176.5t159.5 86.5l-12 -64q-66 -25 -103 -73t-57 -140h37l-27 -131h-115z" />
<glyph unicode="&#x2019;" horiz-adv-x="552" d="M293 1067l12 63q66 25 102.5 73t57.5 140h-37l27 132h114l-30 -146q-25 -119 -86.5 -176t-159.5 -86z" />
<glyph unicode="&#x201a;" horiz-adv-x="552" d="M8 -276l12 63q66 25 103 73t57 140h-37l27 131h115l-31 -145q-25 -119 -86.5 -176.5t-159.5 -85.5z" />
<glyph unicode="&#x201c;" horiz-adv-x="815" d="M362 1067l31 145q25 119 86.5 176.5t159.5 86.5l-12 -64q-66 -25 -103 -73t-57 -140h37l-27 -131h-115zM618 1067l31 145q25 119 86.5 176.5t159.5 86.5l-12 -64q-66 -25 -103 -73t-57 -140h37l-27 -131h-115z" />
<glyph unicode="&#x201d;" horiz-adv-x="808" d="M293 1067l12 63q66 25 102.5 73t57.5 140h-37l27 132h114l-30 -146q-25 -119 -86.5 -176t-159.5 -86zM549 1067l12 63q66 25 102.5 73t57.5 140h-37l27 132h114l-30 -146q-25 -119 -86.5 -176t-159.5 -86z" />
<glyph unicode="&#x201e;" horiz-adv-x="808" d="M8 -276l12 63q66 25 103 73t57 140h-37l27 131h115l-31 -145q-25 -119 -86.5 -176.5t-159.5 -85.5zM264 -276l12 63q66 25 103 73t57 140h-37l27 131h115l-31 -145q-25 -119 -86.5 -176.5t-159.5 -85.5z" />
<glyph unicode="&#x2022;" horiz-adv-x="604" d="M215 532l49 238h236l-49 -238h-236z" />
<glyph unicode="&#x2026;" horiz-adv-x="1200" d="M147 0l27 131h94l-26 -131h-95zM471 0l27 131h94l-27 -131h-94zM795 0l26 131h94l-26 -131h-94z" />
<glyph unicode="&#x202f;" horiz-adv-x="378" />
<glyph unicode="&#x2039;" horiz-adv-x="571" d="M186 645l326 420h70l-308 -424l101 -457h-62z" />
<glyph unicode="&#x203a;" horiz-adv-x="571" d="M111 184l292 457l-127 424h62l154 -420l-312 -461h-69z" />
<glyph unicode="&#x205f;" horiz-adv-x="473" />
<glyph unicode="&#x20ac;" d="M88 539l31 65h139q12 113 47 236h-151l28 65h142q35 109 88 209t126.5 178t170 125t217.5 47q70 0 139.5 -17t125.5 -57t92 -105.5t40 -164.5h-76q0 76 -26.5 129.5t-70.5 87t-101.5 48t-120.5 14.5q-109 0 -193 -41t-147.5 -110.5t-109.5 -159t-77 -183.5h648l-29 -65 h-639q-16 -61 -27.5 -122t-19.5 -114h569l-31 -65h-544q-6 -72 -6 -123q0 -182 72.5 -281.5t242.5 -99.5q55 0 117.5 11t122 42t112.5 85t90 140h76q-68 -176 -206 -260t-316 -84q-203 0 -295 120t-92 329v57q0 31 4 64h-162z" />
<glyph unicode="&#x2122;" horiz-adv-x="1679" d="M289 1415v60h778l285 -734l278 734h92v-811h-63v737l-279 -737h-59l-289 737v-737h-61v751h-303v-751h-64v751h-315z" />
<glyph unicode="&#x25fc;" horiz-adv-x="1064" d="M0 0v1065h1065v-1065h-1065z" />
<glyph unicode="&#xfb01;" horiz-adv-x="1116" />
<glyph unicode="&#xfb02;" horiz-adv-x="1116" />
<glyph unicode="&#xfb03;" horiz-adv-x="1769" />
<glyph unicode="&#xfb04;" horiz-adv-x="1775" />
</font>
</defs>
</svg>
