<?xml version="1.0" encoding="utf-8"?>
<!-- Generator: Adobe Illustrator 18.1.0, SVG Export Plug-In . SVG Version: 6.00 Build 0)  -->
<!DOCTYPE svg PUBLIC "-//W3C//DTD SVG 1.1//EN" "http://www.w3.org/Graphics/SVG/1.1/DTD/svg11.dtd">
<svg version="1.1" id="Layer_1" xmlns="http://www.w3.org/2000/svg" xmlns:xlink="http://www.w3.org/1999/xlink" x="0px" y="0px"
	 viewBox="0 0 128 128" enable-background="new 0 0 128 128" xml:space="preserve">
<circle fill="#0C96D4" cx="64.1" cy="64.3" r="63.2"/>
<g id="g3390" transform="translate(-8.24e-2,-0.5848722)">
	<g>
		<path fill="#FFFFFF" d="M63.9,30.7c0.1,0,0.2,0,0.3,0c0.1,0,0.2,0,0.3,0H63.9z"/>
		<path fill="#FFFFFF" d="M89.3,40.8c-0.8-3.8-3.2-5.3-6.8-6.8c-3.6-1.5-12.1-3.3-18.4-3.3c-6.3,0-14.9,1.8-18.4,3.3
			c-3.6,1.5-6,3-6.8,6.8l-2.7,20.9v28.8h4.7V95c0,5.5,8.1,5.5,8.1,0v-4.5h14.9h0h15.5V95c0,5.5,8.1,5.5,8.1,0v-4.5h4.7V61.7
			L89.3,40.8z M52.6,36h11.2h11.8c2.3,0,2.3,3.4,0,3.4H63.8H52.6C50.4,39.4,50.4,36,52.6,36z M44.9,81.5c-2.1,0-3.9-1.7-3.9-3.9
			s1.7-3.9,3.9-3.9c2.1,0,3.9,1.7,3.9,3.9S47.1,81.5,44.9,81.5z M63.9,63.9H43.4c-2,0-2.4-1.4-2.2-2.9l2.1-15.2
			c0.3-1.8,0.9-3.1,3.3-3.1h17.3h17.9c2.4,0,3,1.2,3.3,3.1L87.1,61c0.2,1.5-0.2,2.9-2.2,2.9H63.9z M83.4,81.5
			c-2.1,0-3.9-1.7-3.9-3.9s1.7-3.9,3.9-3.9s3.9,1.7,3.9,3.9S85.5,81.5,83.4,81.5z"/>
	</g>
</g>
</svg>
