<?xml version="1.0" encoding="utf-8"?>
<!-- Generator: Adobe Illustrator 18.1.0, SVG Export Plug-In . SVG Version: 6.00 Build 0)  -->
<!DOCTYPE svg PUBLIC "-//W3C//DTD SVG 1.1//EN" "http://www.w3.org/Graphics/SVG/1.1/DTD/svg11.dtd">
<svg version="1.1" id="Layer_1" xmlns="http://www.w3.org/2000/svg" xmlns:xlink="http://www.w3.org/1999/xlink" x="0px" y="0px"
	 viewBox="0 0 128 128" enable-background="new 0 0 128 128" xml:space="preserve">
<polygon fill="#FFFFFF" points="32.1,119.3 0.2,64 32.1,8.7 95.9,8.7 127.8,64 95.9,119.3 "/>
<circle fill="#ED1066" cx="64.1" cy="64.1" r="63.2"/>
<g>
	<path fill="#FFFFFF" d="M37.8,99.3c-1.3-1.1-2.4-3.1-2.4-5.3c0-3.8,3.2-7.1,7.1-7.1c2.2,0,3.7,0.8,4.9,1.9
		c5.3,5.3,11.3,8.1,19.1,8.1c8.3,0,14.6-5.1,14.6-12.7v-0.2c0-8.3-7.6-13-19.4-13h-3c-3.5,0-6.4-2.9-6.4-6.4c0-1.9,0.8-3.7,3.1-6
		l19.7-21H44.6c-3.6,0-6.5-2.9-6.5-6.4c0-3.6,2.9-6.5,6.5-6.5h43.1c4.2,0,7.3,2.5,7.3,6.5c0,3.5-1.7,5.5-4.2,8.1L71,59.7
		c12.7,1.6,24.8,8.1,24.8,23.6v0.2c0,15.5-11.9,26.7-29.5,26.7C53.9,110.2,44.6,105.9,37.8,99.3z"/>
</g>
</svg>
