<?xml version="1.0" encoding="utf-8"?>
<!-- Generator: Adobe Illustrator 18.1.0, SVG Export Plug-In . SVG Version: 6.00 Build 0)  -->
<!DOCTYPE svg PUBLIC "-//W3C//DTD SVG 1.1//EN" "http://www.w3.org/Graphics/SVG/1.1/DTD/svg11.dtd">
<svg version="1.1" id="Layer_1" xmlns="http://www.w3.org/2000/svg" xmlns:xlink="http://www.w3.org/1999/xlink" x="0px" y="0px"
	 viewBox="0 0 128 128" enable-background="new 0 0 128 128" xml:space="preserve">
<circle fill="#0C96D4" cx="64.1" cy="64.3" r="63.2"/>
<g id="_x30_eu37n.tif">
	<g>
		<g>
			<path fill="#FFFFFF" d="M31.6,94.3c-0.4-0.1-0.9-0.2-1.3-0.3c-1.2-0.4-2-1.3-2-2.7c0-0.9,0-1.9,0-2.8c0-0.9,0.4-1.6,1.2-2
				c0.8-0.4,1.7-0.6,2.5-0.9c0.2-0.1,0.5-0.3,0.6-0.4c0.5-1.7,1.2-2.2,3-2.3c1.6-0.1,3.2,0,4.8,0c2.2,0,3.3-1.1,3.3-3.3
				c0-6.2-0.1-12.4-0.1-18.5c0-0.6-0.1-1.2-0.1-1.8c-0.1-0.7-0.4-1.3-1-1.7c-0.2-0.1-0.4-0.3-0.5-0.4c-1-1.1-0.7-2.1,0.7-2.6
				c0.5-0.1,0.9-0.3,1.4-0.3c2.5,0,5,0,7.4,0.1c0.7,0,1.4,0.1,1.7,0.9c0.2,0.8-0.2,1.3-0.8,1.8c-1.1,0.9-1.4,2-1.4,3.4
				c0.1,6.5,0.1,12.9,0.1,19.4c0,2,1.2,3.1,3.2,3.1c1,0,2,0,3,0c1.9,0,3.1-1.2,3-3.1c0-6.5-0.1-13-0.1-19.6c0-1.2-0.3-2.2-1.4-3
				c-0.4-0.3-0.7-1.1-0.8-1.7c0-0.7,0.7-0.9,1.3-1.1c0.4-0.1,0.9-0.3,1.4-0.3c2.5,0,5,0,7.4,0.1c0.2,0,0.3,0.1,0.5,0.1
				c1.3,0.3,1.6,1.3,0.7,2.3c-0.2,0.2-0.4,0.4-0.6,0.6c-1,0.8-1.2,2-1.2,3.2c0,6.5,0.1,12.9,0.1,19.4c0,1.9,1.2,3.1,3.1,3.1
				c1,0,2.1,0,3.1,0c1.8,0,2.9-1.1,3-2.9c0-0.4,0-0.8,0-1.2c0-6-0.1-12-0.1-18c0-0.6,0-1.2-0.1-1.7c-0.2-0.6-0.6-1.1-1-1.6
				c-0.1-0.2-0.4-0.3-0.5-0.5c-0.9-1.1-0.7-2.1,0.7-2.5c0.5-0.1,0.9-0.3,1.4-0.3c2.5,0,5,0,7.4,0.1c0.7,0,1.4,0.1,1.7,0.9
				c0.2,0.8-0.3,1.4-0.8,1.8c-1,0.9-1.4,1.9-1.4,3.2c0.1,6.5,0.1,13.1,0.1,19.6c0,1.8,1.2,3,3,3c1.6,0,3.2,0,4.8,0
				c1.5,0,1.8,0.3,1.9,1.8c0,0.6,0.2,0.9,0.9,0.9c1.1,0.1,2.1,0.3,3.2,0.5c1.2,0.3,1.7,0.9,1.7,2.2c0,0.9,0,1.9,0,2.8
				c0,1.6-0.5,2.8-2.2,3.3C75.8,94.3,53.7,94.3,31.6,94.3z"/>
			<path fill="#FFFFFF" d="M64.2,44c-8.3,0-16.7,0-25,0c-1,0-1.9-0.2-2.9-0.4c-0.3-0.1-0.6-0.4-0.9-0.6c0.2-0.3,0.4-0.6,0.7-0.8
				c0.6-0.4,1.2-0.7,1.8-0.9c7.3-3.5,14.6-6.9,21.9-10.4c0.7-0.3,1.5-0.6,2.2-0.9c1.4-0.6,2.8-0.6,4.1,0c4.7,2,9.4,4,14.1,6.2
				c3.8,1.7,7.4,3.7,11.2,5.5c0.4,0.2,0.9,0.4,1.3,0.7c0.6,0.4,0.5,0.8-0.1,1c-0.7,0.2-1.4,0.5-2.1,0.5c-2.5,0.1-5,0-7.5,0
				C76.7,44,70.5,44,64.2,44z"/>
			<path fill="#FFFFFF" d="M64.3,45.4c8.6,0,17.3,0,25.9,0c0.7,0,1.5,0.1,2.2,0.2c0.6,0.1,1.1,0.4,1.2,1.2c0,0.7-0.3,1.1-1.1,1.3
				c-0.7,0.1-1.4,0.2-2.2,0.2c-17.3,0-34.6,0-51.9,0c-0.8,0-1.5-0.1-2.3-0.3c-0.6-0.1-1-0.5-1-1.2c0-0.7,0.4-1.1,1-1.2
				c0.8-0.1,1.5-0.2,2.3-0.2C47,45.4,55.6,45.4,64.3,45.4z"/>
			<path fill="#FFFFFF" d="M64.3,52.6c-8.5,0-17,0-25.5,0c-0.8,0-1.7-0.1-2.5-0.2c-0.8-0.1-1.2-0.6-1.2-1.2c0-0.7,0.5-1.1,1.1-1.2
				c0.8-0.1,1.6-0.2,2.4-0.2c17.2,0,34.3,0,51.5,0c0.8,0,1.7,0.1,2.5,0.3c0.6,0.1,1,0.5,1,1.2c0,0.7-0.4,1.1-1,1.2
				c-0.9,0.1-1.8,0.2-2.7,0.2C81.3,52.6,72.8,52.6,64.3,52.6z"/>
		</g>
	</g>
</g>
</svg>
