<?xml version="1.0" encoding="utf-8"?>
<!-- Generator: Adobe Illustrator 18.1.0, SVG Export Plug-In . SVG Version: 6.00 Build 0)  -->
<!DOCTYPE svg PUBLIC "-//W3C//DTD SVG 1.1//EN" "http://www.w3.org/Graphics/SVG/1.1/DTD/svg11.dtd">
<svg version="1.1" id="Layer_1" xmlns="http://www.w3.org/2000/svg" xmlns:xlink="http://www.w3.org/1999/xlink" x="0px" y="0px"
	 viewBox="0 0 128 128" enable-background="new 0 0 128 128" xml:space="preserve">
<circle fill="#EF4136" cx="64.1" cy="64.1" r="63.2"/>
<g id="Walking_3_">
	<path fill="#FFFFFF" d="M89.1,60.2l-8-3.7l-0.9-5.7c0-1.7-0.6-3.3-1.6-4.8c-0.6-0.8-1.3-1.4-2-1.9L76,47.2c0.1,0.1,0.3,0.3,0.4,0.5
		c0.6,0.8,0.9,1.8,1,2.7l1.2,8l9.3,4.3c0.7,0.3,1,1.1,0.7,1.8c-0.3,0.7-1.1,1-1.8,0.7l-10.7-4.9L75,52.1l-1.7,8.5l0.2,1.5l12,5.6
		c2.1,1,4.5,0.1,5.5-2c0.3-0.6,0.3-1.1,0.3-1.7C91.4,62.4,90.6,60.9,89.1,60.2z"/>
	<path fill="#FFFFFF" d="M55.6,77.8l-5.1,24.5c-0.2,0.7-0.9,1.2-1.6,1c-0.7-0.2-1.2-0.9-1.1-1.6l5.4-25.8c-0.9-0.8-1.6-1.7-2.2-2.8
		l-5.8,28c-0.5,2.2,0.9,4.4,3.1,4.9c2.2,0.5,4.4-0.9,4.9-3.1L58,79.7L55.6,77.8z"/>
	<path fill="#FFFFFF" d="M74,101.2L68.1,73l5.3-27.2c0,0,0,0,0,0L74,43c-1.9-1-4.1-1.8-6.5-2.4c-4.6-1-8.8-0.8-11.8,0.3l0,0
		l-10.3,3.6l0,0L43,45.3l-4,18.3c-0.5,2.2,0.9,4.4,3.1,4.9c2.2,0.5,4.4-1,4.9-3.3l3-13.7l5.8-2.1l-3.3,15.7
		c-0.4,1.9-0.4,3.6,0.2,5.4c0.6,1.7,1.7,3,3.1,4l4.9,3.8l5.1,24.6c0.5,2.2,2.7,3.6,4.9,3.1C73.1,105.6,74.5,103.4,74,101.2z
		 M70.2,103.4c-0.7,0.2-1.5-0.3-1.6-1l-5.3-25.6L57.1,72c-0.7-0.6-1.4-1.4-1.7-2.4c-0.4-1.1-0.4-2.1-0.2-3.2l4.5-21.3l-11.8,4.3
		l-3.4,15.2c-0.2,0.7-0.9,1.2-1.6,1c-0.7-0.2-1.2-0.9-1-1.6l3.7-16.7l11-3.9c2.5-0.9,6.4-1.2,10.6-0.2c1.4,0.3,2.8,0.8,4,1.3
		l-5.6,28.6l5.9,28.6C71.5,102.5,71,103.2,70.2,103.4z"/>
	<path fill="#FFFFFF" d="M69.3,24.8c3,0,5.5,2.5,5.5,5.5s-2.5,5.5-5.5,5.5c-3,0-5.5-2.5-5.5-5.5S66.3,24.8,69.3,24.8 M69.3,22
		c-4.6,0-8.3,3.7-8.3,8.3s3.7,8.3,8.3,8.3c4.6,0,8.3-3.7,8.3-8.3S73.9,22,69.3,22L69.3,22z"/>
</g>
</svg>
