<?xml version="1.0" encoding="utf-8"?>
<!-- Generator: Adobe Illustrator 18.1.0, SVG Export Plug-In . SVG Version: 6.00 Build 0)  -->
<!DOCTYPE svg PUBLIC "-//W3C//DTD SVG 1.1//EN" "http://www.w3.org/Graphics/SVG/1.1/DTD/svg11.dtd">
<svg version="1.1" id="Layer_1" xmlns="http://www.w3.org/2000/svg" xmlns:xlink="http://www.w3.org/1999/xlink" x="0px" y="0px"
	 viewBox="0 0 128 128" enable-background="new 0 0 128 128" xml:space="preserve">
<circle fill="#0C96D4" cx="64.1" cy="64.1" r="63.2"/>
<path fill="#FFFFFF" d="M81.9,25.5H48.3c-3.1,0-5.6,2.5-5.6,5.6v17.9c0,3.1,2.5,5.6,5.6,5.6h14.5v37.9l-15.9,4.7
	c-1,0.3-1.8,1.3-1.8,2.4v0.5c0,1.4,1.1,2.5,2.5,2.5h35.6c1.4,0,2.5-1.1,2.5-2.5v-0.5c0-1.1-0.7-2.1-1.8-2.4l-16.2-4.7V54.7h14.2
	c3.1,0,5.6-2.5,5.6-5.6V31.2C87.5,28.1,85,25.5,81.9,25.5z M82.6,49.1c0,0.4-0.3,0.7-0.7,0.7H48.3c-0.4,0-0.7-0.3-0.7-0.7V31.2
	c0-0.4,0.3-0.7,0.7-0.7h33.6c0.4,0,0.7,0.3,0.7,0.7V49.1z"/>
</svg>
