<?xml version="1.0" encoding="utf-8"?>
<!-- Generator: Adobe Illustrator 18.1.0, SVG Export Plug-In . SVG Version: 6.00 Build 0)  -->
<!DOCTYPE svg PUBLIC "-//W3C//DTD SVG 1.1//EN" "http://www.w3.org/Graphics/SVG/1.1/DTD/svg11.dtd">
<svg version="1.1" id="Layer_1" xmlns="http://www.w3.org/2000/svg" xmlns:xlink="http://www.w3.org/1999/xlink" x="0px" y="0px"
	 viewBox="0 0 128 128" enable-background="new 0 0 128 128" xml:space="preserve">
<polygon fill="#0C96D4" points="32.6,119 0.8,64 32.6,9.1 96,9.1 127.7,64 96,119 "/>
<g>
	<path fill="#FFFFFF" d="M45.9,57.4c0.1-1.3-0.1-2.4-0.6-3.5c-0.7-1.4-2.1-2.1-4.2-2.1c-3,0-5.4,1.5-7.1,4.5
		c-0.9,1.6-1.7,3.7-2.2,6.3c-0.5,2.5-0.7,4.5-0.4,6.1c0.5,2.8,2.2,4.3,5.1,4.3c2.1,0,3.7-0.6,4.8-1.7c1.1-1.1,2-2.6,2.5-4.4h9.1
		c-0.8,2.7-2.3,5.3-4.6,7.7c-3.6,3.9-8.2,5.9-13.7,5.9s-9.2-1.6-11.1-4.9s-2.3-7.5-1.2-12.7c1.2-5.9,3.6-10.4,7.2-13.7
		c3.6-3.3,7.9-4.9,12.9-4.9c4.3,0,7.6,1,9.9,2.9s3.2,5.3,2.7,10.2H45.9z"/>
	<path fill="#FFFFFF" d="M56.2,51.8l1.3-6.4h4.8l2-9.5h8.8l-2,9.5h5.6l-1.3,6.4h-5.6L66,69.9c-0.3,1.4-0.3,2.3,0,2.6
		c0.3,0.3,1.3,0.5,3.2,0.5c0.3,0,0.6,0,0.9,0s0.6,0,0.9,0l-1.4,6.7l-4.3,0.2c-4.2,0.1-7-0.6-8.2-2.2c-0.8-1-0.9-2.6-0.5-4.7L61,51.8
		H56.2z"/>
	<path fill="#FFFFFF" d="M91,58.5c1.7-0.2,3-0.5,3.7-0.8c1.4-0.5,2.2-1.4,2.4-2.5c0.3-1.4,0-2.4-0.8-2.9c-0.9-0.5-2.2-0.8-4.1-0.8
		c-2.1,0-3.7,0.5-4.8,1.6c-0.8,0.8-1.4,1.8-1.9,3.1h-8.6c0.8-3,2.2-5.4,4.1-7.4c3-3,7.4-4.5,13.1-4.5c3.7,0,6.9,0.7,9.5,2.2
		c2.6,1.5,3.5,4.3,2.6,8.4l-3.4,15.7c-0.2,1.1-0.5,2.4-0.8,4c-0.2,1.2-0.2,2,0,2.4c0.2,0.4,0.6,0.8,1.1,1l-0.3,1.3h-9.7
		C93,78.6,93,78,93,77.4c0-0.6,0.1-1.3,0.2-2.1c-1.5,1.3-3.2,2.5-5,3.4c-2.2,1.1-4.5,1.7-6.9,1.7c-3.1,0-5.5-0.9-7.1-2.7
		c-1.6-1.8-2.1-4.3-1.4-7.5c0.9-4.2,3.2-7.2,6.8-9.1c2-1,4.8-1.8,8.3-2.2L91,58.5z M95.5,62.7c-0.6,0.4-1.3,0.6-1.9,0.9
		s-1.5,0.4-2.5,0.6l-2.1,0.4c-2,0.3-3.4,0.7-4.3,1.2c-1.5,0.8-2.5,2.1-2.9,3.8c-0.3,1.5-0.2,2.6,0.5,3.3c0.7,0.7,1.7,1,2.9,1
		c1.9,0,3.8-0.6,5.7-1.7s3.1-3.2,3.9-6.2L95.5,62.7z"/>
</g>
</svg>
