<?xml version="1.0" encoding="utf-8"?>
<!-- Generator: Adobe Illustrator 18.1.0, SVG Export Plug-In . SVG Version: 6.00 Build 0)  -->
<!DOCTYPE svg PUBLIC "-//W3C//DTD SVG 1.1//EN" "http://www.w3.org/Graphics/SVG/1.1/DTD/svg11.dtd">
<svg version="1.1" id="Layer_1" xmlns="http://www.w3.org/2000/svg" xmlns:xlink="http://www.w3.org/1999/xlink" x="0px" y="0px"
	 viewBox="0 0 128 128" enable-background="new 0 0 128 128" xml:space="preserve">
<circle fill="#0C96D4" cx="64.1" cy="64.1" r="63.2"/>
<g>
	<path fill="#FFFFFF" d="M74.5,102.5c-1.4,0-2.7-0.6-3.9-1.8L28.8,58.7c-0.3-0.3-0.5-0.8-0.4-1.2L31.8,32c0.4-2.4,1.9-3.9,4.3-4.3
		l25.6-3.6c0.5-0.1,0.9,0.1,1.2,0.4l41.9,41.9c1.2,1.2,1.9,2.6,1.9,3.9s-0.6,2.7-1.9,3.9l-26.4,26.3
		C77.2,101.9,75.9,102.5,74.5,102.5z M31.3,57.2l41.3,41.4c1.3,1.3,2.4,1.3,3.7,0l26.4-26.3c0.7-0.7,1-1.3,1-1.9
		c0-0.6-0.3-1.2-1-1.9L61.4,27.1l-24.9,3.5c-1.1,0.2-1.7,0.7-1.9,1.8L31.3,57.2z"/>
	<path fill="#FFFFFF" d="M47.7,49.8C47.7,49.8,47.7,49.8,47.7,49.8c-1.7-0.1-3.2-0.7-4.3-1.8c-1.2-1.2-1.8-2.6-1.8-4.3
		c0-1.7,0.6-3.1,1.8-4.3c1.2-1.2,2.6-1.8,4.3-1.8c1.7,0,3.1,0.6,4.3,1.8c1.2,1.2,1.8,2.7,1.8,4.3S53.2,46.8,52,48
		C50.9,49.2,49.5,49.8,47.7,49.8C47.7,49.8,47.7,49.8,47.7,49.8z M47.7,40.6c-0.9,0-1.6,0.3-2.2,0.9c-0.6,0.6-0.9,1.3-0.9,2.2
		c0,0.9,0.3,1.6,0.9,2.2c0.6,0.6,1.3,0.9,2.2,1c0.9-0.1,1.6-0.3,2.2-1c0.7-0.7,1-1.4,1-2.2c0-0.9-0.3-1.6-1-2.2
		C49.3,40.8,48.6,40.6,47.7,40.6z"/>
	<g>
		<g>
			<path fill="#FFFFFF" d="M82.5,74.4l2.9,2.9l-3,3l-2.9-2.9c-2.8,2.2-6.2,3.6-9.6,4.1l-1-5.6c2.7-0.4,5-1,7.1-2.4l-4.6-4.6
				c-5.3,3-9,3.5-12.4,0.1c-3.2-3.2-2.9-7.8,0.4-11.8l-1.7-1.7l3-3l1.7,1.7c2.3-1.8,4.9-2.8,7.5-3.2l1.4,5.3c-1.9,0.4-3.8,1-5.3,1.9
				l4.4,4.4c5.6-3.2,9.3-3.3,12.5,0C86.1,65.7,85.7,70.3,82.5,74.4z M63,60.6c-1.2,1.6-1.1,2.9-0.2,3.8c0.9,0.9,1.9,1.1,4.1,0.1
				L63,60.6z M74.7,66.8l4.1,4.1c1.2-1.6,1.2-2.9,0.2-3.9C77.9,66,76.8,65.9,74.7,66.8z"/>
		</g>
	</g>
</g>
</svg>
