<?xml version="1.0" encoding="utf-8"?>
<!-- Generator: Adobe Illustrator 16.2.1, SVG Export Plug-In . SVG Version: 6.00 Build 0)  -->
<!DOCTYPE svg PUBLIC "-//W3C//DTD SVG 1.1//EN" "http://www.w3.org/Graphics/SVG/1.1/DTD/svg11.dtd">
<svg version="1.1" id="Layer_1" xmlns="http://www.w3.org/2000/svg" xmlns:xlink="http://www.w3.org/1999/xlink" x="0px" y="0px"
	 width="259px" height="431px" viewBox="0 0 259 431" enable-background="new 0 0 259 431" xml:space="preserve">
<circle fill="#39B54A" cx="129.5" cy="216.107" r="127.881"/>
<path fill="#FFFFFF" d="M175.027,292.593L175.027,292.593V130.92c0-3.845-3.035-6.88-6.88-6.88H91.459
	c-3.845,0-6.88,3.035-6.88,6.88v161.672l0,0h-4.249v12.546h98.339v-12.546H175.027z M168.755,299.271H91.459v-13.558h77.295V299.271
	z M168.755,279.44H90.853v-7.486h77.902V279.44z M168.755,265.479H90.853v-7.486h77.902V265.479z M168.755,251.518H90.853v-7.689
	h77.902V251.518z M168.755,237.556H90.853v-7.487h77.902V237.556z M168.755,223.594H90.853v-7.486h77.902V223.594z M168.755,209.632
	H90.853v-7.486h77.902V209.632z M168.755,195.67H90.853v-7.487h77.902V195.67z M168.755,181.708H90.853v-7.487h77.902V181.708z
	 M168.755,167.544H90.853v-7.487h77.902V167.544z M168.755,153.583H90.853v-7.487h77.902V153.583z M168.755,139.621H90.853v-7.487
	h77.902V139.621z"/>
</svg>
