<?xml version="1.0" encoding="utf-8"?>
<!-- Generator: Adobe Illustrator 18.1.0, SVG Export Plug-In . SVG Version: 6.00 Build 0)  -->
<!DOCTYPE svg PUBLIC "-//W3C//DTD SVG 1.1//EN" "http://www.w3.org/Graphics/SVG/1.1/DTD/svg11.dtd">
<svg version="1.1" id="Layer_1" xmlns="http://www.w3.org/2000/svg" xmlns:xlink="http://www.w3.org/1999/xlink" x="0px" y="0px"
	 viewBox="0 0 128 128" enable-background="new 0 0 128 128" xml:space="preserve">
<g id="Map_x5F_Pin_1_">
	<line fill="#0C96D4" x1="29.2" y1="53" x2="29.1" y2="52.7"/>
	<path fill="#0C96D4" d="M63,2.5C42.8,2.5,26.4,18.8,26.4,39c0,4.8,1.1,9.8,2.8,14c0.2,0.4,0.4,0.8,0.6,1.2L63,125.8l33.2-71.5
		c0.2-0.4,0.4-0.8,0.6-1.2l0.1-0.3c1.7-4.2,2.7-8.9,2.7-13.7C99.5,18.8,83.1,2.5,63,2.5L63,2.5z"/>
</g>
<g id="Map_x5F_Pin_4_">
	<line fill="#FFFFFF" x1="28.2" y1="52.2" x2="28.1" y2="51.8"/>
	<path fill="#FFFFFF" d="M63,3.9c18.7,0,33.8,15.2,33.8,33.8c0,4.4-0.8,8.6-2.5,12.8l-0.1,0.2c-0.1,0.3-0.2,0.5-0.4,0.8l-0.2,0.4
		L63,118.1L32.2,51.8l-0.2-0.4c-0.1-0.3-0.2-0.5-0.3-0.7c-1.7-4.2-2.6-8.8-2.6-13C29.1,19.1,44.3,3.9,63,3.9 M63,0.1
		C42.2,0.1,25.4,17,25.4,37.7c0,5,1.1,10.1,2.9,14.4c0.2,0.4,0.4,0.9,0.6,1.3L63,127l34.1-73.6c0.2-0.4,0.4-0.8,0.6-1.3l0.1-0.3
		c1.8-4.4,2.8-9.1,2.8-14.1C100.6,17,83.7,0.1,63,0.1L63,0.1z"/>
	<path fill="#FFFFFF" d="M63,22.7c8.3,0,15,6.7,15,15s-6.7,15-15,15c-8.3,0-15-6.7-15-15S54.7,22.7,63,22.7 M63,18.9
		c-10.4,0-18.8,8.4-18.8,18.8S52.6,56.5,63,56.5s18.8-8.4,18.8-18.8S73.3,18.9,63,18.9L63,18.9z"/>
</g>
</svg>
