<?xml version="1.0" encoding="utf-8"?>
<!-- Generator: Adobe Illustrator 18.1.0, SVG Export Plug-In . SVG Version: 6.00 Build 0)  -->
<!DOCTYPE svg PUBLIC "-//W3C//DTD SVG 1.1//EN" "http://www.w3.org/Graphics/SVG/1.1/DTD/svg11.dtd">
<svg version="1.1" id="Layer_1" xmlns="http://www.w3.org/2000/svg" xmlns:xlink="http://www.w3.org/1999/xlink" x="0px" y="0px"
	 viewBox="0 0 128 128" enable-background="new 0 0 128 128" xml:space="preserve">
<polygon fill="#FFFFFF" points="32.1,119.3 0.2,64 32.1,8.7 95.9,8.7 127.8,64 95.9,119.3 "/>
<circle fill="#ED1066" cx="64.1" cy="64.1" r="63.2"/>
<g>
	<path fill="#FFFFFF" d="M69.4,86.9H31.8c-4,0-7.2-2.9-7.2-7c0-2.9,1.1-5.3,3.2-7.8l39.6-46.9c2.6-3.1,4.7-4.8,9-4.8
		c4,0,7.2,3.1,7.2,7.1v47.3h6.5c3.5,0,6.1,2.8,6.1,6.1s-2.6,6-6.1,6h-6.5v12.5c0,4-3.1,7-7.1,7c-4,0-7.1-3-7.1-7V86.9z M69.4,74.8
		V41.4L41.8,74.8H69.4z"/>
</g>
</svg>
