<?xml version="1.0" encoding="utf-8"?>
<!-- Generator: Adobe Illustrator 18.1.0, SVG Export Plug-In . SVG Version: 6.00 Build 0)  -->
<!DOCTYPE svg PUBLIC "-//W3C//DTD SVG 1.1//EN" "http://www.w3.org/Graphics/SVG/1.1/DTD/svg11.dtd">
<svg version="1.1" id="Layer_1" xmlns="http://www.w3.org/2000/svg" xmlns:xlink="http://www.w3.org/1999/xlink" x="0px" y="0px"
	 viewBox="0 0 128 128" enable-background="new 0 0 128 128" xml:space="preserve">
<polygon fill="#39B54A" points="32.6,120 0.8,65 32.6,10.1 96,10.1 127.7,65 96,120 "/>
<path fill="#FFFFFF" d="M84,97.4C84,97.4,84,97.4,84,97.4l0-70.2c0-1.6-1.3-2.9-2.9-2.9H47.7c-1.6,0-2.9,1.3-2.9,2.9v70.2
	c0,0,0,0,0,0h-1.9v5.5h42.7v-5.5H84z M81.3,100.3H47.7v-5.9h33.6V100.3z M81.3,91.7H47.5v-3.3h33.8V91.7z M81.3,85.6H47.5v-3.3h33.8
	V85.6z M81.3,79.5H47.5v-3.3h33.8V79.5z M81.3,73.5H47.5v-3.3h33.8V73.5z M81.3,67.4H47.5v-3.3h33.8V67.4z M81.3,61.4H47.5v-3.3
	h33.8V61.4z M81.3,55.3H47.5V52h33.8V55.3z M81.3,49.2H47.5v-3.3h33.8V49.2z M81.3,43.2H47.5v-3.3h33.8V43.2z M81.3,37.1H47.5v-3.3
	h33.8V37.1z M81.3,31H47.5v-3.3h33.8V31z"/>
</svg>
