<?xml version="1.0" encoding="utf-8"?>
<!-- Generator: Adobe Illustrator 18.1.0, SVG Export Plug-In . SVG Version: 6.00 Build 0)  -->
<!DOCTYPE svg PUBLIC "-//W3C//DTD SVG 1.1//EN" "http://www.w3.org/Graphics/SVG/1.1/DTD/svg11.dtd">
<svg version="1.1" id="Layer_1" xmlns="http://www.w3.org/2000/svg" xmlns:xlink="http://www.w3.org/1999/xlink" x="0px" y="0px"
	 viewBox="0 0 128 128" enable-background="new 0 0 128 128" xml:space="preserve">
<circle fill="#0C96D4" cx="64.1" cy="64.1" r="63.2"/>
<g>
	<g>
		<path fill="#FFFFFF" d="M105,55.1H78.6c-1.8,0-3.3-1.5-3.3-3.3V25.5c0-1.5,1.2-2.7,2.7-2.7c1.5,0,2.7,1.2,2.7,2.7v24.3H105
			c1.5,0,2.7,1.2,2.7,2.7C107.7,53.9,106.5,55.1,105,55.1z"/>
		<path fill="#FFFFFF" d="M50.2,55.1H23.8c-1.5,0-2.7-1.2-2.7-2.7c0-1.5,1.2-2.7,2.7-2.7h24.3V25.5c0-1.5,1.2-2.7,2.7-2.7
			s2.7,1.2,2.7,2.7v26.4C53.4,53.7,52,55.1,50.2,55.1z"/>
	</g>
	<g>
		<path fill="#FFFFFF" d="M78,105.4c-1.5,0-2.7-1.2-2.7-2.7V76.3c0-1.8,1.5-3.3,3.3-3.3H105c1.5,0,2.7,1.2,2.7,2.7
			c0,1.5-1.2,2.7-2.7,2.7H80.7v24.3C80.7,104.2,79.5,105.4,78,105.4z"/>
		<path fill="#FFFFFF" d="M50.8,105.4c-1.5,0-2.7-1.2-2.7-2.7V78.4H23.8c-1.5,0-2.7-1.2-2.7-2.7c0-1.5,1.2-2.7,2.7-2.7h26.4
			c1.8,0,3.3,1.5,3.3,3.3v26.4C53.4,104.2,52.2,105.4,50.8,105.4z"/>
	</g>
	<g>
		<path fill="#FFFFFF" d="M64.9,30.7c-0.6,0-1-0.5-1-1v-4.2c0-0.6,0.5-1,1-1s1,0.5,1,1v4.2C65.9,30.3,65.5,30.7,64.9,30.7z"/>
		<path fill="#FFFFFF" d="M64.9,91.9c-0.6,0-1-0.5-1-1v-7.6c0-0.6,0.5-1,1-1s1,0.5,1,1v7.6C65.9,91.4,65.5,91.9,64.9,91.9z
			 M64.9,76.6c-0.6,0-1-0.5-1-1v-7.6c0-0.6,0.5-1,1-1s1,0.5,1,1v7.6C65.9,76.1,65.5,76.6,64.9,76.6z M64.9,61.3c-0.6,0-1-0.5-1-1
			v-7.6c0-0.6,0.5-1,1-1s1,0.5,1,1v7.6C65.9,60.8,65.5,61.3,64.9,61.3z M64.9,46c-0.6,0-1-0.5-1-1v-7.6c0-0.6,0.5-1,1-1s1,0.5,1,1
			V45C65.9,45.6,65.5,46,64.9,46z"/>
		<path fill="#FFFFFF" d="M64.9,103.8c-0.6,0-1-0.5-1-1v-4.2c0-0.6,0.5-1,1-1s1,0.5,1,1v4.2C65.9,103.3,65.5,103.8,64.9,103.8z"/>
	</g>
</g>
</svg>
