<?xml version="1.0" encoding="utf-8"?>
<!-- Generator: Adobe Illustrator 18.1.0, SVG Export Plug-In . SVG Version: 6.00 Build 0)  -->
<!DOCTYPE svg PUBLIC "-//W3C//DTD SVG 1.1//EN" "http://www.w3.org/Graphics/SVG/1.1/DTD/svg11.dtd">
<svg version="1.1" id="Layer_1" xmlns="http://www.w3.org/2000/svg" xmlns:xlink="http://www.w3.org/1999/xlink" x="0px" y="0px"
	 viewBox="0 0 128 128" enable-background="new 0 0 128 128" xml:space="preserve">
<g>
	<path fill="#414042" d="M64.1,27.1c20.4,0,37.1,16.6,37.1,37.1s-16.6,37.1-37.1,37.1S27.1,84.5,27.1,64.1S43.7,27.1,64.1,27.1
		 M64.1,18.1c-25.4,0-46.1,20.6-46.1,46.1s20.6,46.1,46.1,46.1s46.1-20.6,46.1-46.1S89.5,18.1,64.1,18.1L64.1,18.1z"/>
</g>
<g>
	<path fill="#414042" d="M64.1,91.6c-15.2,0-27.5-12.3-27.5-27.5c0-15.2,12.3-27.5,27.5-27.5c15.2,0,27.5,12.3,27.5,27.5
		C91.6,79.3,79.3,91.6,64.1,91.6z"/>
	<path fill="#414042" d="M64.1,37.7c14.5,0,26.4,11.8,26.4,26.4S78.6,90.5,64.1,90.5S37.7,78.6,37.7,64.1S49.6,37.7,64.1,37.7
		 M64.1,35.5c-15.8,0-28.6,12.8-28.6,28.6s12.8,28.6,28.6,28.6s28.6-12.8,28.6-28.6S79.9,35.5,64.1,35.5L64.1,35.5z"/>
</g>
<g>
	
		<line fill="none" stroke="#414042" stroke-width="10.113" stroke-linecap="round" stroke-miterlimit="10" x1="21.3" y1="64.7" x2="6.2" y2="64.7"/>
	
		<line fill="none" stroke="#414042" stroke-width="10.113" stroke-linecap="round" stroke-miterlimit="10" x1="122.4" y1="64.7" x2="107.3" y2="64.7"/>
</g>
<g>
	
		<line fill="none" stroke="#414042" stroke-width="10.113" stroke-linecap="round" stroke-miterlimit="10" x1="64.1" y1="107.5" x2="64.1" y2="122.5"/>
	
		<line fill="none" stroke="#414042" stroke-width="10.113" stroke-linecap="round" stroke-miterlimit="10" x1="64.1" y1="6.3" x2="64.1" y2="21.4"/>
</g>
</svg>
