<?xml version="1.0" encoding="utf-8"?>
<!-- Generator: Adobe Illustrator 18.1.0, SVG Export Plug-In . SVG Version: 6.00 Build 0)  -->
<!DOCTYPE svg PUBLIC "-//W3C//DTD SVG 1.1//EN" "http://www.w3.org/Graphics/SVG/1.1/DTD/svg11.dtd">
<svg version="1.1" id="Layer_1" xmlns="http://www.w3.org/2000/svg" xmlns:xlink="http://www.w3.org/1999/xlink" x="0px" y="0px"
	 viewBox="0 0 128 128" enable-background="new 0 0 128 128" xml:space="preserve">
<polygon fill="#FFFFFF" points="32.1,119.3 0.2,64 32.1,8.7 95.9,8.7 127.8,64 95.9,119.3 "/>
<circle fill="#2BB673" cx="64.1" cy="64.1" r="63.2"/>
<g>
	<path fill="#FFFFFF" d="M36.9,91.5l25.9-22c11.5-9.7,15.8-15.2,15.8-22.7c0-8.3-5.9-13.1-13.6-13.1c-6.7,0-11.4,3.1-16.6,9.4
		c-1.1,1.2-2.8,2.3-5.2,2.3c-3.7,0-6.7-3-6.7-6.7c0-1.6,0.6-3.2,1.7-4.6C45,25.4,52.8,20.4,66,20.4c16.5,0,27.8,10.1,27.8,25.1v0.2
		c0,13.2-7,20.4-21.9,32.6L54.6,92.8h34.2c3.6,0,6.5,2.9,6.5,6.5s-2.9,6.5-6.5,6.5H41c-4.6,0-7.9-2.6-7.9-7
		C33.1,95.9,34.4,93.5,36.9,91.5z"/>
</g>
</svg>
