<?xml version="1.0" encoding="utf-8"?>
<!-- Generator: Adobe Illustrator 18.1.0, SVG Export Plug-In . SVG Version: 6.00 Build 0)  -->
<!DOCTYPE svg PUBLIC "-//W3C//DTD SVG 1.1//EN" "http://www.w3.org/Graphics/SVG/1.1/DTD/svg11.dtd">
<svg version="1.1" id="Layer_1" xmlns="http://www.w3.org/2000/svg" xmlns:xlink="http://www.w3.org/1999/xlink" x="0px" y="0px"
	 viewBox="0 0 128 128" enable-background="new 0 0 128 128" xml:space="preserve">
<polygon fill="#0C96D4" points="32.3,119 0.6,64 32.3,9.1 95.7,9.1 127.4,64 95.7,119 "/>
<path fill="#FFFFFF" d="M106.1,81h-3L67,23.6l-0.4-5.8h-5.9l-0.3,5.6L24.2,81h-2.4v4.1h35.7l-0.6,11.5h15.8l-0.9-11.5h34.4V81z
	 M99.1,81H87.6L71.4,36.9L99.1,81z M55.9,36.9L39.7,81H28.2L55.9,36.9z M43.3,81l16.5-44.8L57.6,81H43.3z M68.1,37.8L84,81H71.4
	L68.1,37.8z"/>
</svg>
