<?xml version="1.0" encoding="utf-8"?>
<!-- Generator: Adobe Illustrator 18.1.0, SVG Export Plug-In . SVG Version: 6.00 Build 0)  -->
<!DOCTYPE svg PUBLIC "-//W3C//DTD SVG 1.1//EN" "http://www.w3.org/Graphics/SVG/1.1/DTD/svg11.dtd">
<svg version="1.1" id="Layer_1" xmlns="http://www.w3.org/2000/svg" xmlns:xlink="http://www.w3.org/1999/xlink" x="0px" y="0px"
	 viewBox="0 0 128 128" enable-background="new 0 0 128 128" xml:space="preserve">
<circle fill="#0C96D4" cx="64.1" cy="64.1" r="63.2"/>
<g>
	<path fill="#FFFFFF" d="M72.9,48.3c-1.6-1.4-3.8-2.1-6.6-2.1h-8.1v15.9h8.1c2.9,0,5.1-0.7,6.6-2.1c1.6-1.4,2.3-3.4,2.3-5.9
		C75.2,51.6,74.4,49.6,72.9,48.3z"/>
	<path fill="#FFFFFF" d="M92.5,29.3H38.3c-4.3,0-7.7,3.4-7.7,7.7v54.2c0,4.3,3.4,7.7,7.7,7.7h54.2c4.3,0,7.7-3.4,7.7-7.7V37
		C100.2,32.7,96.7,29.3,92.5,29.3z M84.5,68c-3.9,3.2-9.4,4.8-16.7,4.8h-9.7v19.8H43.4V35.5h24.4c7.3,0,12.8,1.6,16.7,4.9
		c3.9,3.2,5.8,7.8,5.8,13.8C90.4,60.1,88.4,64.8,84.5,68z"/>
</g>
</svg>
