<?xml version="1.0" encoding="utf-8"?>
<!-- Generator: Adobe Illustrator 18.1.0, SVG Export Plug-In . SVG Version: 6.00 Build 0)  -->
<!DOCTYPE svg PUBLIC "-//W3C//DTD SVG 1.1//EN" "http://www.w3.org/Graphics/SVG/1.1/DTD/svg11.dtd">
<svg version="1.1" id="Layer_1" xmlns="http://www.w3.org/2000/svg" xmlns:xlink="http://www.w3.org/1999/xlink" x="0px" y="0px"
	 viewBox="0 0 128 128" enable-background="new 0 0 128 128" xml:space="preserve">
<polygon fill="#FFFFFF" points="32.1,119.3 0.2,64 32.1,8.7 95.9,8.7 127.8,64 95.9,119.3 "/>
<circle fill="#ED1066" cx="64.1" cy="64.1" r="63.2"/>
<g>
	<path fill="#FFFFFF" d="M38,98.1c-1.8-1.4-3-3.4-3-5.8c0-3.8,3.2-7.1,7.1-7.1c1.8,0,3.1,0.5,4.3,1.4c5.8,4.7,11.7,7.1,18.3,7.1
		c9.5,0,16.4-5.7,16.4-14.6V79C81,70.3,73.8,65,63.6,65c-8.2,0-12.1,2.9-14.4,2.9s-4.1-0.8-7-2.9c-2.2-1.6-3-3.7-2.9-6.5l1.8-30.3
		c0.2-3.8,3.1-6.6,6.7-6.6H86c3.6,0,6.6,3,6.6,6.6s-3,6.5-6.6,6.5H54.4L53,54.4C57,53,60.7,52,66.4,52c16.5,0,29.3,8.7,29.3,26.5
		v0.2c0,17.1-12.7,28.5-30.8,28.5C53.5,107.2,44.9,103.4,38,98.1z"/>
</g>
</svg>
