<?xml version="1.0" encoding="utf-8"?>
<!-- Generator: Adobe Illustrator 18.1.0, SVG Export Plug-In . SVG Version: 6.00 Build 0)  -->
<!DOCTYPE svg PUBLIC "-//W3C//DTD SVG 1.1//EN" "http://www.w3.org/Graphics/SVG/1.1/DTD/svg11.dtd">
<svg version="1.1" id="Layer_1" xmlns="http://www.w3.org/2000/svg" xmlns:xlink="http://www.w3.org/1999/xlink" x="0px" y="0px"
	 viewBox="0 0 128 128" enable-background="new 0 0 128 128" xml:space="preserve">
<circle fill="#0C96D4" cx="64.1" cy="64.1" r="63.2"/>
<g>
	<path fill="#FFFFFF" d="M102.3,92.8C102.3,92.8,102.3,92.8,102.3,92.8H26c-1.3,0-2.4-0.7-3.1-1.8c-0.6-1.1-0.6-2.4,0-3.5l38.1-66
		c0.6-1.1,1.8-1.8,3.1-1.8c1.3,0,2.4,0.7,3.1,1.8l38,65.8c0.4,0.6,0.6,1.2,0.6,2C105.8,91.2,104.2,92.8,102.3,92.8z M32.2,85.7h64
		l-32-55.4L32.2,85.7z"/>
	<g>
		<path fill="#FFFFFF" d="M62.5,78.3c0-1.6,1.1-2.8,2.7-2.8c1.6,0,2.6,1.2,2.6,2.8c0,1.6-1,2.8-2.7,2.8
			C63.6,81.1,62.5,79.9,62.5,78.3z M63.6,71.9L63,50.1h4.3l-0.6,21.7H63.6z"/>
	</g>
</g>
</svg>
