<?xml version="1.0" encoding="utf-8"?>
<!-- Generator: Adobe Illustrator 18.1.0, SVG Export Plug-In . SVG Version: 6.00 Build 0)  -->
<!DOCTYPE svg PUBLIC "-//W3C//DTD SVG 1.1//EN" "http://www.w3.org/Graphics/SVG/1.1/DTD/svg11.dtd">
<svg version="1.1" id="Layer_1" xmlns="http://www.w3.org/2000/svg" xmlns:xlink="http://www.w3.org/1999/xlink" x="0px" y="0px"
	 viewBox="0 0 128 128" enable-background="new 0 0 128 128" xml:space="preserve">
<circle fill="#0C96D4" cx="64.1" cy="64.1" r="63.2"/>
<g>
	<path fill="#FFFFFF" d="M29,52.4c0.5-1.5,1.3-2.9,2.5-3.9c0.9-0.7,1.9-1.3,2.9-1.8c1.2-0.5,2.4-0.4,3.5,0.3
		c2.6,1.7,5.4,2.1,8.4,1.3c0.1,0,0.2,0,0.3,0c0,0.1,0.1,0.1,0.1,0.1c-0.9,2.2-0.5,4.5-0.5,6.8c-0.1,5.5,0,11,0,16.6c0,3,0.9,5.8,3,8
		c0,0,0,0,0.1,0.1c1.3,0.6,1.3,1.7,1.2,2.9c0,4.6,0,9.2,0,13.8c0,0.4,0,0.8,0,1.3c-0.6,0-1.2,0-1.8,0c-1.1,0-2.2,0-3.3,0
		c-0.6,0-0.7-0.2-0.7-0.7c0-3.6,0-7.2,0-10.7c0-3.2,0-6.3-0.2-9.5c-0.2,0.9-0.4,1.7-0.6,2.6c-1.2,5.9-2.3,11.7-3.5,17.6
		c-0.1,0.6-0.3,0.8-1,0.8c-1.1-0.1-2.3,0-3.4,0c-0.5,0-0.6-0.2-0.7-0.7c-0.7-6.7-1.3-13.4-2-20.1c0-0.5-0.2-0.7-0.7-0.8
		c-1.7-0.4-2.9-1.6-3.5-3.2C29.1,73,29,72.9,29,72.8C29,66,29,59.2,29,52.4z"/>
	<path fill="#FFFFFF" d="M66.5,24.9c0.2,0.1,0.3,0.1,0.5,0.2c4.9,0.8,8,5.6,6.9,10.5c-1.1,4.7-6.2,7.6-10.8,6.1
		c-3.9-1.2-6.3-4.8-6-9c0.3-3.8,3.3-6.9,7.2-7.6c0.1,0,0.3-0.1,0.4-0.2C65.2,24.9,65.9,24.9,66.5,24.9z"/>
	<path fill="#FFFFFF" d="M63.4,104.5c-2.1,0-4.1,0-6.1,0c-0.8-9.3-1.6-18.6-2.4-27.9c-1.2-0.2-2.3-0.6-3.1-1.5
		c-0.9-0.9-1.2-2-1.2-3.3c0-6.9,0-13.9,0-20.8c0-3.7,3.1-6.8,6.7-6.6c0.7,0,1.4,0.3,2,0.6c1.3,0.7,2.5,1.5,3.8,2.2
		c1.9,1,3.8,1,5.6,0c1-0.6,2.1-1.1,3.1-1.8c3.4-2.5,7.6-0.3,8.5,3.5c0.4,1.7,0.3,3.5,0.3,5.2c0,5.8,0,11.6,0,17.4
		c0,2.9-1.4,4.6-4.3,5c-0.7,9.3-1.4,18.6-2.2,27.9c-1.3,0-2.4,0-3.6,0c-0.2,0-0.5-0.4-0.6-0.6c-0.8-2.4-1.7-4.9-2.4-7.4
		c-1.3-4.8-2.5-9.7-3.8-14.5c-0.1-0.2-0.1-0.5-0.3-0.7C63.4,89,63.4,96.7,63.4,104.5z"/>
	<path fill="#FFFFFF" d="M85.1,48.6c1.7,0,3.4,0.1,5.1-0.1c1.1-0.1,2.1-0.7,3.1-1.2c2.2-1.2,4.3-1.1,6.1,0.6
		c1.7,1.6,2.7,3.5,2.7,5.9c-0.1,5.8-0.1,11.6,0,17.4c0.1,2.9-1.9,5.1-4.4,5.4c-0.2,2.2-0.5,4.4-0.7,6.6c-0.3,3.4-0.7,6.8-1,10.1
		c-0.1,1.3-0.2,2.7-0.4,4c0,0.2-0.2,0.6-0.4,0.6c-2,0-4,0-6.1,0c0-7,0-13.9,0-20.9c-0.1,0-0.1,0-0.2,0c-0.2,0.8-0.3,1.7-0.5,2.5
		c-1.2,5.9-2.4,11.8-3.5,17.7c-0.1,0.5-0.3,0.7-0.8,0.7c-1.1,0-2.3,0-3.5,0c0-1,0-1.9,0-2.9c0-4.5,0-9,0-13.5c0-0.5,0.1-0.8,0.5-1.1
		c2.6-2.1,3.9-4.9,4-8.2c0.1-4.3,0-8.7,0-13c0-2.6,0-5.1,0-7.7C85.2,50.6,85.1,49.5,85.1,48.6z"/>
	<path fill="#FFFFFF" d="M88.1,29.2c4.2,0,7.5,3.2,7.5,7.3c0,4.4-3.2,7.6-7.6,7.6c-4,0-7.4-3.4-7.4-7.5
		C80.7,32.6,83.9,29.2,88.1,29.2z"/>
	<path fill="#FFFFFF" d="M42.9,44.2c-4.1,0-7.5-3.4-7.4-7.4c0-4.4,3.3-7.6,7.7-7.5c3.9,0.1,7.4,3.5,7.2,7.9
		C50.3,40.9,46.9,44.2,42.9,44.2z"/>
</g>
</svg>
