<?xml version="1.0" encoding="utf-8"?>
<!-- Generator: Adobe Illustrator 18.1.0, SVG Export Plug-In . SVG Version: 6.00 Build 0)  -->
<!DOCTYPE svg PUBLIC "-//W3C//DTD SVG 1.1//EN" "http://www.w3.org/Graphics/SVG/1.1/DTD/svg11.dtd">
<svg version="1.1" id="Layer_1" xmlns="http://www.w3.org/2000/svg" xmlns:xlink="http://www.w3.org/1999/xlink" x="0px" y="0px"
	 viewBox="0 0 128 128" enable-background="new 0 0 128 128" xml:space="preserve">
<circle fill="#0C96D4" cx="64.1" cy="64.1" r="63.2"/>
<g id="jjrR2j.tif">
	<g>
		<path fill="#FFFFFF" d="M57.5,23.6c4.4,0,8.8,0,13.2,0c1.4,0.5,1.9,1.6,1.8,3.1c0,1.4,0,2.8,0,4.3c0.4,0,0.7,0,1,0
			c2.8,0,5.5,0,8.3,0c1.1,0,2.2,0.1,3.3,0.3c3.5,0.8,5.6,3.1,6.9,6.3c2.1,5.5,4.3,11,6.5,16.5c0.1,0.3,0.5,0.8,0.8,0.9
			c2.8,0.8,4.8,2.6,6.1,5.2c0.4,0.9,0.7,1.9,1,2.8c0,8,0,16,0,24.1c-2.2,0-4.5,0-6.8,0c0,2.5,0,4.8,0,7.2c0.1,3.9-2.9,6.7-6.6,6.5
			c-2.7-0.2-5.1-1.7-5.8-4.4c-0.2-0.8-0.3-1.7-0.3-2.5c0-2.2,0-4.5,0-6.8c-15.2,0-30.3,0-45.5,0c0,0.3,0,0.6,0,0.9
			c0,2.1,0,4.3,0,6.4c-0.1,3.8-2.7,6.3-6.5,6.3c-3.5,0-6.1-2.5-6.2-6.1c0-2.2,0-4.4,0-6.7c0-0.3,0-0.6,0-1c-2.3,0-4.5,0-6.7,0
			c0-0.2-0.1-0.3-0.1-0.4c0-7.6,0-15.3,0-22.9c0-3.8,3.1-7.7,6.8-8.6c0.6-0.2,0.9-0.4,1.1-1c2.2-5.7,4.4-11.4,6.7-17.1
			c1.6-3.9,4.6-5.8,8.8-5.9c2.6-0.1,5.2,0,7.8,0c0.8,0,1.7,0,2.6,0c0-1.5,0-2.9,0-4.3C55.7,25.3,56.2,24.2,57.5,23.6z M91.5,54.4
			c-1.9-5-3.8-9.8-5.7-14.7c-0.7-1.7-2-2.4-3.8-2.4c-11.9,0-23.8,0-35.7,0c-2.4,0-3.5,0.7-4.4,3c-1.7,4.4-3.4,8.9-5.1,13.4
			c-0.1,0.2-0.1,0.4-0.2,0.7C55,54.4,73.2,54.4,91.5,54.4z M35.2,73.2c3.3,0,5.8-2.6,5.8-5.9c0-3.3-2.6-6-5.8-6
			c-3.2,0-5.9,2.7-5.9,6C29.3,70.5,31.9,73.2,35.2,73.2z M93,73.2c3.2,0,5.9-2.6,5.9-5.9c0-3.3-2.6-6-5.8-6c-3.3,0-5.9,2.6-5.9,5.9
			C87.2,70.5,89.7,73.2,93,73.2z"/>
	</g>
</g>
</svg>
