<?xml version="1.0" encoding="utf-8"?>
<!-- Generator: Adobe Illustrator 18.1.0, SVG Export Plug-In . SVG Version: 6.00 Build 0)  -->
<!DOCTYPE svg PUBLIC "-//W3C//DTD SVG 1.1//EN" "http://www.w3.org/Graphics/SVG/1.1/DTD/svg11.dtd">
<svg version="1.1" id="Layer_1" xmlns="http://www.w3.org/2000/svg" xmlns:xlink="http://www.w3.org/1999/xlink" x="0px" y="0px"
	 viewBox="0 0 128 128" enable-background="new 0 0 128 128" xml:space="preserve">
<polygon fill="#FFFFFF" points="32.1,119.3 0.2,64 32.1,8.7 95.9,8.7 127.8,64 95.9,119.3 "/>
<circle fill="#ED1066" cx="64.1" cy="64.1" r="63.2"/>
<g>
	<path fill="#FFFFFF" d="M60.3,39.5l-8.7,2.6c-0.8,0.2-1.9,0.4-2.6,0.4c-3.5,0-6.5-2.9-6.5-6.3c0-3.1,1.9-5.5,4.9-6.4l12.7-4.1
		c2.9-0.8,5.1-1.3,7.2-1.3h0.2c4.2,0,7.3,3.2,7.3,7.3V103c0,4.1-3.2,7.3-7.3,7.3c-4,0-7.3-3.2-7.3-7.3V39.5z"/>
</g>
</svg>
