<?xml version="1.0" encoding="utf-8"?>
<!-- Generator: Adobe Illustrator 18.1.0, SVG Export Plug-In . SVG Version: 6.00 Build 0)  -->
<!DOCTYPE svg PUBLIC "-//W3C//DTD SVG 1.1//EN" "http://www.w3.org/Graphics/SVG/1.1/DTD/svg11.dtd">
<svg version="1.1" id="Layer_1" xmlns="http://www.w3.org/2000/svg" xmlns:xlink="http://www.w3.org/1999/xlink" x="0px" y="0px"
	 viewBox="0 0 128 128" enable-background="new 0 0 128 128" xml:space="preserve">
<circle fill="#0C96D4" cx="64" cy="64.3" r="63.2"/>
<path fill="#FFFFFF" d="M86.5,102.1C86.5,102.1,86.5,102.1,86.5,102.1l0-79.9c0-1.9-1.5-3.4-3.4-3.4H45.2c-1.9,0-3.4,1.5-3.4,3.4
	v79.9c0,0,0,0,0,0h-2.1v6.2h48.6v-6.2H86.5z M83.4,105.4H45.2v-6.7h38.2V105.4z M83.4,95.6H44.9v-3.7h38.5V95.6z M83.4,88.7H44.9
	v-3.7h38.5V88.7z M83.4,81.8H44.9V78h38.5V81.8z M83.4,74.9H44.9v-3.7h38.5V74.9z M83.4,68H44.9v-3.7h38.5V68z M83.4,61.1H44.9v-3.7
	h38.5V61.1z M83.4,54.2H44.9v-3.7h38.5V54.2z M83.4,47.3H44.9v-3.7h38.5V47.3z M83.4,40.3H44.9v-3.7h38.5V40.3z M83.4,33.4H44.9
	v-3.7h38.5V33.4z M83.4,26.5H44.9v-3.7h38.5V26.5z"/>
</svg>
