<?xml version="1.0" encoding="utf-8"?>
<!-- Generator: Adobe Illustrator 18.1.0, SVG Export Plug-In . SVG Version: 6.00 Build 0)  -->
<!DOCTYPE svg PUBLIC "-//W3C//DTD SVG 1.1//EN" "http://www.w3.org/Graphics/SVG/1.1/DTD/svg11.dtd">
<svg version="1.1" id="Layer_1" xmlns="http://www.w3.org/2000/svg" xmlns:xlink="http://www.w3.org/1999/xlink" x="0px" y="0px"
	 viewBox="0 0 128 128" enable-background="new 0 0 128 128" xml:space="preserve">
<polygon fill="#EF4136" points="32.6,119 0.8,64 32.6,9.1 96,9.1 127.7,64 96,119 "/>
<g>
	<path fill="#FFFFFF" d="M18.3,54.4h7.1l8,10v-10h7.5v22.6h-6.7l-8.4-10.4v10.4h-7.5V54.4z"/>
	<path fill="#FFFFFF" d="M43.5,54.4h19.3v6.2H50.9v2.3H62v5.5H50.9v2.5h12v6.2H43.5V54.4z"/>
	<path fill="#FFFFFF" d="M65,54.4H76c4,0,6.6,1,8.1,2.6c1.4,1.4,2.1,3,2.1,5.4v0.1c0,3.3-1.7,5.6-4.5,6.9l5.3,7.7h-8.6l-4.3-6.5
		h-0.1h-1.6v6.5H65V54.4z M75.8,65.2c1.8,0,2.9-0.8,2.9-2.2v-0.1c0-1.5-1.1-2.2-2.9-2.2h-3.3v4.4H75.8z"/>
	<path fill="#FFFFFF" d="M85.8,54.4h8.5l4.4,12.7l4.4-12.7h8.3l-9.2,22.8H95L85.8,54.4z"/>
</g>
</svg>
