<?xml version="1.0" encoding="utf-8"?>
<!-- Generator: Adobe Illustrator 18.1.0, SVG Export Plug-In . SVG Version: 6.00 Build 0)  -->
<!DOCTYPE svg PUBLIC "-//W3C//DTD SVG 1.1//EN" "http://www.w3.org/Graphics/SVG/1.1/DTD/svg11.dtd">
<svg version="1.1" id="Layer_1" xmlns="http://www.w3.org/2000/svg" xmlns:xlink="http://www.w3.org/1999/xlink" x="0px" y="0px"
	 viewBox="0 0 128 128" enable-background="new 0 0 128 128" xml:space="preserve">
<polygon fill="#0C96D4" points="32.6,119 0.8,64 32.6,9.1 96,9.1 127.7,64 96,119 "/>
<g>
	<path fill="#FFFFFF" d="M65.1,88.3c-12.3,0-13.8-4.1-14.7-10.4c-0.4-2.7-0.8-5.5-2.8-8.5c-0.5-0.7-0.9-1.3-1.4-2
		c-3.7-5.2-7.5-10.5-7.5-17.7c0-14.6,11.9-26.4,26.4-26.4v4.2c-12.2,0-22.2,10-22.2,22.2c0,5.8,3.3,10.4,6.7,15.3
		c0.5,0.7,1,1.3,1.4,2c2.6,3.8,3.2,7.4,3.6,10.3c0.4,2.5,0.6,4,1.6,4.9c1.3,1.2,4.2,1.8,8.8,1.8V88.3z"/>
	<path fill="#FFFFFF" d="M65.1,88.3V84c4.6,0,7.5-0.6,8.8-1.8c1-0.9,1.3-2.4,1.6-4.9c0.4-2.9,0.9-6.5,3.6-10.3
		c0.5-0.7,0.9-1.3,1.4-2c3.5-4.8,6.7-9.4,6.7-15.3c0-12.2-10-22.2-22.2-22.2v-4.2c14.6,0,26.4,11.9,26.4,26.4
		c0,7.2-3.8,12.5-7.5,17.7c-0.5,0.7-0.9,1.3-1.4,2c-2.1,3-2.5,5.8-2.8,8.5C78.9,84.2,77.4,88.3,65.1,88.3z"/>
	<path fill="#FFFFFF" d="M65.1,97.3c-6.6,0-9.8-1.4-11.2-4.8c-0.4-0.9,0.1-1.9,1-2.2c0.9-0.4,1.9,0.1,2.2,1c0.4,0.9,1,2.6,7.9,2.6
		c1,0,1.7,0.8,1.7,1.7C66.9,96.6,66.1,97.3,65.1,97.3z"/>
	<path fill="#FFFFFF" d="M65.1,97.3c-1,0-1.7-0.8-1.7-1.7c0-1,0.8-1.7,1.7-1.7c7.2,0,7.7-1.8,8.1-3c0.3-0.9,1.2-1.4,2.1-1.2
		c0.9,0.3,1.4,1.2,1.2,2.1C75.4,95.7,72.1,97.3,65.1,97.3z"/>
	<path fill="#FFFFFF" d="M65.1,103.7c-6.6,0-9.8-1.4-11.2-4.8c-0.4-0.9,0.1-1.9,1-2.2c0.9-0.4,1.9,0.1,2.2,1c0.4,0.9,1,2.6,7.9,2.6
		c1,0,1.7,0.8,1.7,1.7C66.9,102.9,66.1,103.7,65.1,103.7z"/>
	<path fill="#FFFFFF" d="M65.1,103.7c-1,0-1.7-0.8-1.7-1.7c0-1,0.8-1.7,1.7-1.7c7.2,0,7.7-1.8,8.1-3c0.3-0.9,1.2-1.4,2.1-1.2
		c0.9,0.3,1.4,1.2,1.2,2.1C75.4,102.1,72.1,103.7,65.1,103.7z"/>
</g>
<line fill="none" stroke="#FFFFFF" stroke-width="4.4317" stroke-linecap="round" stroke-miterlimit="10" x1="21.9" y1="87" x2="43.8" y2="87"/>
<line fill="none" stroke="#FFFFFF" stroke-width="4.4308" stroke-linecap="round" stroke-miterlimit="10" x1="86" y1="87" x2="107.8" y2="87"/>
</svg>
